<svg width="52" height="18" viewBox="0 0 52 18" fill="none" xmlns="http://www.w3.org/2000/svg">
<path d="M3.38011 1.12866V17.6711C3.38011 17.6711 3.23634 17.8241 3.22717 17.8241H0.71582V1.12866H3.38011Z" fill="#AEAEAE"/>
<path d="M15.5697 5.53345V17.8241H13.0095V15.7777L12.3916 16.8483C9.85268 19.2678 4.8147 17.6833 4.8147 13.8811V5.53345H7.47593V13.7802C7.47593 13.9026 7.71758 14.6428 7.80017 14.7866C8.53736 16.0713 11.2934 15.8297 12.1866 14.8019C12.4986 14.4409 12.9055 13.4162 12.9055 12.9604V5.53345H15.5697Z" fill="#AEAEAE"/>
<path d="M51.5239 3.68902L49.9577 4.32527C48.826 5.04105 48.0643 6.18201 47.7859 7.47898C47.4831 5.61 45.9873 4.1295 44.1489 3.74102C45.9537 3.25466 47.4556 1.88427 47.7859 0C48.2111 1.84451 49.6152 3.38007 51.5239 3.68902Z" fill="#AEAEAE"/>
<path d="M46.4034 17.7232C46.2382 17.0961 46.1281 16.3803 46.0914 15.7288C45.862 11.7247 47.6789 5.90362 42.0383 5.34079C38.9672 5.0349 36.0919 6.12386 36.1592 9.62935H38.7195C38.7959 7.76954 40.2091 7.39942 41.8334 7.59213C43.4424 7.78178 44.3509 9.18275 42.6134 9.98724C39.943 11.223 35.0335 9.91076 35.5474 14.9059C35.8533 17.8822 40.0317 18.7051 42.1944 17.3561C42.9162 16.9064 43.1426 16.313 43.6381 15.6737C43.6381 15.6737 43.6657 17.5213 43.6657 17.7232H46.4034ZM43.5341 12.7555C43.5341 13.2939 43.0478 14.4502 42.6685 14.857C41.3103 16.313 38.074 16.206 38.0129 14.1779C37.9547 12.1866 41.0259 12.2386 42.4299 11.7522C42.8275 11.6146 43.1457 11.3882 43.5341 11.2689V12.7555Z" fill="#AEAEAE"/>
<path d="M34.3147 8.14568V17.7231H31.7544V9.47629C31.7544 9.17652 31.4607 8.28333 31.2344 8.05085C30.5063 7.29225 28.6282 7.56755 27.9093 8.29556C27.6035 8.60451 27.1446 9.5803 27.1446 9.99019V17.7231H24.4803V9.0664C24.4803 8.67792 24.0399 8.01415 23.6697 7.83061C22.385 7.20048 20.877 7.94991 20.2958 9.18264C20.2315 9.32029 19.9746 10.0055 19.9746 10.0911V17.6711C19.9746 17.6711 19.8308 17.824 19.8216 17.824H17.3103V5.53339H19.8737V7.58284L20.6873 6.29811C22.0271 5.01338 24.7342 4.83596 25.9149 6.40517C26.1535 6.72024 26.2514 7.09036 26.4197 7.43602C26.4625 7.52472 26.3585 7.61955 26.5818 7.58284C27.3343 5.5548 28.9861 5.15103 30.9896 5.32538C32.3417 5.44162 34.3147 6.63459 34.3147 8.14568Z" fill="#AEAEAE"/>
</svg>
