<svg width="134" height="26" viewBox="0 0 134 26" fill="none" xmlns="http://www.w3.org/2000/svg">
<g clip-path="url(#clip0_1223_170)">
<path d="M125.583 0H119.687L127.135 12.9888L119.687 26H125.583L133.031 12.9888L125.583 0Z" fill="#3ACCE6"/>
<path d="M7.47913 0H13.3755L5.92746 12.9888L13.3755 26H7.47913L0.0311279 12.9888L7.47913 0Z" fill="#3ACCE6"/>
<path d="M11.1588 26L3.71082 12.9888L11.1588 0H121.903L129.352 12.9888L121.903 26H11.1588Z" fill="#003E54"/>
<path d="M18.6954 20.8894H13.9961V5.11084H18.8949C23.3726 5.11084 26.6976 7.23101 26.6976 13.0113C26.6976 18.546 22.7076 20.8894 18.6954 20.8894ZM18.8063 8.16835H17.1438V17.8096H18.6954C21.9761 17.8096 23.4834 15.8679 23.4834 12.989C23.4834 9.77522 22.1091 8.16835 18.8063 8.16835Z" fill="white"/>
<path d="M30.2886 20.8894V5.11084H41.1724V8.19067H33.4141V10.9134H37.9139V13.9709H33.4141V17.7872H41.5049V20.8671H30.2886V20.8894Z" fill="white"/>
<path d="M52.5661 20.8894H49.5293L43.9655 5.11084H47.4456L50.3938 14.2387C50.682 15.1091 50.9923 16.2696 51.1253 16.8276C51.2583 16.2473 51.5465 15.1538 51.8346 14.2387L54.7163 5.11084H58.1521L52.5661 20.8894Z" fill="white"/>
<path d="M68.0605 15.2877H64.6025V20.8894H61.4771V5.11084H68.3265C71.2747 5.11084 73.713 6.76234 73.713 10.11C73.7352 13.7701 71.319 15.2877 68.0605 15.2877ZM68.2379 8.16835H64.6247V12.2302H68.2822C69.7452 12.2302 70.521 11.5606 70.521 10.1769C70.521 8.79324 69.6122 8.16835 68.2379 8.16835Z" fill="white"/>
<path d="M83.1339 21.1349C78.8557 21.1349 76.3287 17.7872 76.3287 12.9889C76.3287 8.19066 78.8557 4.84302 83.1339 4.84302C87.4121 4.84302 89.9391 8.19066 89.9391 12.9889C89.9391 17.7872 87.4121 21.1349 83.1339 21.1349ZM83.1339 7.9898C80.6069 7.9898 79.5429 10.1769 79.5429 12.9889C79.5429 15.801 80.5847 17.9881 83.1339 17.9881C85.6609 17.9881 86.7249 15.801 86.7249 12.9889C86.7249 10.1769 85.6609 7.9898 83.1339 7.9898Z" fill="white"/>
<path d="M98.5841 21.1348C95.9684 21.1348 93.6853 20.0412 92.4883 18.2781L94.7493 16.2472C95.8576 17.5416 97.2541 18.0549 98.7614 18.0549C100.623 18.0549 101.488 17.5416 101.488 16.3365C101.488 15.3322 100.956 14.8635 97.9856 14.194C95.1039 13.5245 93.0868 12.5871 93.0868 9.48498C93.0868 6.62832 95.5916 4.86523 98.6949 4.86523C101.133 4.86523 102.929 5.78026 104.414 7.34249L102.153 9.55193C101.155 8.52532 100.025 7.92275 98.5841 7.92275C96.8994 7.92275 96.3453 8.63691 96.3453 9.35107C96.3453 10.333 97.0103 10.6678 99.4929 11.2481C101.976 11.8283 104.724 12.6987 104.724 16.1133C104.746 19.1039 102.862 21.1348 98.5841 21.1348Z" fill="white"/>
<path d="M114.544 8.21299V20.8894H111.419V8.21299H106.919V5.11084H119.066V8.21299H114.544Z" fill="white"/>
</g>
<defs>
<clipPath id="clip0_1223_170">
<rect width="133" height="26" fill="white" transform="translate(0.0311279)"/>
</clipPath>
</defs>
</svg>