<svg width="163" height="26" viewBox="0 0 163 26" fill="none" xmlns="http://www.w3.org/2000/svg">
<path d="M27.212 0.606201H18.8724C11.3696 0.606201 10.7925 3.83817 10.7925 8.16669V16.2177C10.7925 20.7194 11.3696 23.7782 18.9012 23.7782H27.212C34.7148 23.7782 35.2919 20.5463 35.2919 16.2466V8.16669C35.2919 3.86702 34.7148 0.606201 27.212 0.606201ZM0 6.40642C0 2.59732 1.50055 0.606201 4.03996 0.606201C6.57936 0.606201 8.07991 2.59732 8.07991 6.40642V17.978C8.07991 21.7871 6.57936 23.7782 4.03996 23.7782C1.50055 23.7782 0 21.7871 0 17.978V6.40642Z" fill="white"/>
<path d="M121.054 18.0067C118.659 18.0067 117.418 16.0155 117.418 13.5916C117.418 11.1676 118.63 9.26304 121.054 9.26304C123.536 9.26304 124.69 11.2253 124.69 13.5627C124.69 16.0733 123.45 18.0067 121.054 18.0067ZM97.5073 9.26304C98.9212 9.26304 99.4984 10.071 99.4984 10.7925C99.4984 12.5239 97.7381 13.2741 94.0733 13.3896C94.0733 11.2542 95.2853 9.26304 97.5073 9.26304ZM81.8669 18.0067C79.5872 18.0067 78.6349 16.1598 78.6349 13.5916C78.6349 11.0522 79.616 9.2919 81.8669 9.2919C84.1754 9.2919 85.2431 11.1099 85.2431 13.5916C85.272 16.1598 84.1177 18.0067 81.8669 18.0067ZM62.6194 6.7525H59.07L64.9856 20.2863C63.8602 22.7969 63.2542 23.4029 62.4751 23.4029C61.6382 23.4029 60.8591 22.7392 60.3108 22.162L58.7525 24.2397C59.8202 25.3652 61.2631 26 62.7636 26C64.6393 26 66.0533 24.9323 66.8902 22.97L73.7004 6.72364H70.2087L66.6593 16.4195L62.6194 6.7525ZM156.866 9.26304C158.597 9.26304 158.943 10.4462 158.943 13.2164V20.5172H162.031V11.283C162.031 7.96448 159.751 6.52164 157.645 6.52164C155.769 6.52164 154.067 7.67592 153.114 9.84018C152.566 7.76249 150.835 6.52164 148.815 6.52164C147.054 6.52164 145.294 7.64706 144.342 9.72475V6.7525H141.254V20.5172H144.342V14.6304C144.342 11.6582 145.9 9.26304 148.036 9.26304C149.767 9.26304 150.084 10.4462 150.084 13.2164V20.5172H153.172L153.143 14.6016C153.143 11.6582 154.73 9.26304 156.866 9.26304ZM132.164 6.7525H130.721V20.5172H133.809V15.2364C133.809 11.889 135.281 9.63818 137.474 9.63818C138.051 9.63818 138.513 9.66704 139.032 9.86903L139.523 6.60821C139.119 6.57936 138.773 6.52164 138.426 6.52164C136.262 6.52164 134.704 8.0222 133.78 9.92675V6.7525H132.164ZM121.054 6.5505C116.986 6.5505 114.215 9.66704 114.215 13.5627C114.215 17.6315 117.014 20.6615 121.054 20.6615C125.152 20.6615 127.951 17.545 127.951 13.5627C127.951 9.60932 125.094 6.5505 121.054 6.5505ZM97.6804 18.0067C96.0644 18.0067 94.8813 17.1987 94.3907 15.525C98.4595 15.3518 102.471 14.3707 102.471 10.7636C102.471 8.6859 100.422 6.5505 97.5073 6.5505C93.5539 6.5505 90.899 9.75361 90.899 13.5627C90.899 17.545 93.525 20.6615 97.4496 20.6615C100.191 20.6615 101.922 19.5649 103.279 17.9778L101.778 15.9578C100.162 17.6027 99.181 18.0067 97.6804 18.0067ZM82.4729 6.5505C80.9146 6.5505 79.3563 7.44506 78.7503 8.8879V6.78135H75.6626V25.9711H78.7503V19.0744C79.414 20.0555 80.8857 20.7192 82.2131 20.7192C86.3108 20.7192 88.4751 17.6892 88.4751 13.5916C88.4751 9.52275 86.3397 6.5505 82.4729 6.5505ZM60.8591 1.24084H46.3152V4.24195H52V20.5172H55.232V4.24195H60.8591V1.24084ZM106.684 6.7525H104.837V9.52275H106.684V20.5172H109.771V9.52275H112.773V6.7525H109.771V4.58824C109.771 3.20311 110.349 2.7414 111.618 2.7414C112.109 2.7414 112.542 2.85683 113.119 3.05882L113.811 0.461709C113.234 0.144284 112.109 0 111.387 0C108.444 0 106.713 1.76027 106.713 4.81909V6.7525H106.684Z" fill="white"/>
</svg>