<svg width="113" height="19" viewBox="0 0 113 19" fill="none" xmlns="http://www.w3.org/2000/svg">
<path d="M18.9126 0.486084H13.139C7.94474 0.486084 7.54518 2.7236 7.54518 5.72027V11.2941C7.54518 14.4106 7.94474 16.5283 13.1589 16.5283H18.9126C24.1068 16.5283 24.5063 14.2907 24.5063 11.3141V5.72027C24.5063 2.74358 24.1068 0.486084 18.9126 0.486084ZM0.0734863 4.50162C0.0734863 1.86455 1.11233 0.486084 2.87038 0.486084C4.62842 0.486084 5.66727 1.86455 5.66727 4.50162V12.5127C5.66727 15.1498 4.62842 16.5283 2.87038 16.5283C1.11233 16.5283 0.0734863 15.1498 0.0734863 12.5127V4.50162Z" fill="#AEAEAE"/>
<path d="M83.8802 12.5326C82.222 12.5326 81.363 11.1541 81.363 9.47595C81.363 7.79782 82.2021 6.47928 83.8802 6.47928C85.5983 6.47928 86.3974 7.83777 86.3974 9.45597C86.3974 11.194 85.5383 12.5326 83.8802 12.5326ZM67.5783 6.47928C68.5572 6.47928 68.9568 7.03866 68.9568 7.5381C68.9568 8.73677 67.7381 9.2562 65.201 9.33611C65.201 7.85775 66.04 6.47928 67.5783 6.47928ZM56.7503 12.5326C55.1721 12.5326 54.5128 11.254 54.5128 9.47595C54.5128 7.7179 55.1921 6.49926 56.7503 6.49926C58.3486 6.49926 59.0877 7.75786 59.0877 9.47595C59.1077 11.254 58.3086 12.5326 56.7503 12.5326ZM43.4252 4.74121H40.9679L45.0633 14.1108C44.2842 15.8489 43.8647 16.2684 43.3253 16.2684C42.7459 16.2684 42.2065 15.8089 41.8269 15.4094L40.7481 16.8478C41.4873 17.6269 42.4862 18.0664 43.525 18.0664C44.8236 18.0664 45.8025 17.3272 46.3819 15.9687L51.0966 4.72123H48.6793L46.222 11.4338L43.4252 4.74121ZM108.673 6.47928C109.871 6.47928 110.111 7.29837 110.111 9.21624V14.2706H112.249V7.87773C112.249 5.58028 110.67 4.58139 109.212 4.58139C107.913 4.58139 106.735 5.3805 106.076 6.87884C105.696 5.44043 104.497 4.58139 103.099 4.58139C101.88 4.58139 100.662 5.36052 100.002 6.79892V4.74121H97.8646V14.2706H100.002V10.1952C100.002 8.13744 101.081 6.47928 102.559 6.47928C103.758 6.47928 103.978 7.29837 103.978 9.21624V14.2706H106.115L106.096 10.1752C106.096 8.13744 107.194 6.47928 108.673 6.47928ZM91.5716 4.74121H90.5728V14.2706H92.7104V10.6147C92.7104 8.29726 93.7292 6.73899 95.2476 6.73899C95.6471 6.73899 95.9668 6.75897 96.3264 6.89881L96.666 4.64132C96.3863 4.62135 96.1466 4.58139 95.9068 4.58139C94.4085 4.58139 93.3297 5.62023 92.6904 6.93877V4.74121H91.5716ZM83.8802 4.60137C81.0633 4.60137 79.1455 6.75897 79.1455 9.45597C79.1455 12.2728 81.0833 14.3705 83.8802 14.3705C86.717 14.3705 88.6549 12.2129 88.6549 9.45597C88.6549 6.71901 86.6771 4.60137 83.8802 4.60137ZM67.6982 12.5326C66.5794 12.5326 65.7603 11.9732 65.4207 10.8145C68.2376 10.6946 71.0145 10.0154 71.0145 7.51813C71.0145 6.07972 69.5961 4.60137 67.5783 4.60137C64.8414 4.60137 63.0034 6.8189 63.0034 9.45597C63.0034 12.2129 64.8214 14.3705 67.5384 14.3705C69.4362 14.3705 70.6349 13.6114 71.5739 12.5126L70.535 11.1141C69.4163 12.2529 68.737 12.5326 67.6982 12.5326ZM57.1699 4.60137C56.0911 4.60137 55.0123 5.22068 54.5927 6.21957V4.76119H52.4551V18.0464H54.5927V13.2717C55.0522 13.951 56.0711 14.4105 56.9901 14.4105C59.8269 14.4105 61.3253 12.3128 61.3253 9.47595C61.3253 6.65908 59.8469 4.60137 57.1699 4.60137ZM42.2065 0.925452H32.1377V3.00314H36.0733V14.2706H38.3108V3.00314H42.2065V0.925452ZM73.9313 4.74121H72.6527V6.65908H73.9313V14.2706H76.0689V6.65908H78.1466V4.74121H76.0689V3.24288C76.0689 2.28394 76.4684 1.9643 77.3475 1.9643C77.6871 1.9643 77.9867 2.04421 78.3863 2.18405L78.8658 0.386051C78.4662 0.166295 77.6871 0.0664062 77.1876 0.0664062C75.1499 0.0664062 73.9512 1.28505 73.9512 3.4027V4.74121H73.9313Z" fill="#AEAEAE"/>
</svg>
