<svg width="792" height="183" viewBox="0 0 792 183" fill="none" xmlns="http://www.w3.org/2000/svg">
<g clip-path="url(#clip0_84_20)">
<g clip-path="url(#clip1_84_20)">
<path d="M99.011 12.6672V27.7653L99.4194 27.6725L106.948 20.3465H112.422L104.625 27.8298L112.422 35.3131H106.948L99.4194 27.9871L99.011 27.8943V35.3131H95.3169V12.6672H99.011Z" fill="#D9D9D9"/>
<path d="M140.42 19.8769C145.902 23.2833 145.317 32.4789 139.219 34.9673C131.918 37.9482 125.519 31.2643 127.68 24.3819C129.313 19.1858 135.577 16.8676 140.42 19.8744V19.8769ZM137.827 21.5634C136.136 20.7202 133.527 21.1611 132.407 22.6619C129.846 26.0915 130.876 34.0261 136.702 33.0926C141.283 32.3577 141.564 23.4278 137.827 21.5634Z" fill="#D9D9D9"/>
<path d="M71.0372 19.6217C74.7502 21.5634 76.1024 26.6073 74.7449 30.2587C72.2001 37.1153 62.0778 37.5486 59.1409 30.8672C55.8713 23.4278 63.219 15.5345 71.0345 19.6217H71.0372ZM69.2605 21.8316C68.2409 21.1714 66.6346 20.9677 65.4555 21.2926C60.677 22.6103 60.7635 34.0906 67.7352 33.0926C72.2001 32.4531 72.5516 23.9641 69.2605 21.8316Z" fill="#D9D9D9"/>
<path d="M93.1952 29.7173L93.3413 29.9803C93.1276 30.2098 93.1709 30.5141 93.0816 30.7797C91.1075 36.6822 82.4374 37.2624 78.9191 32.363C76.8935 29.5393 76.8178 25.2845 78.5973 22.3423C80.7932 18.7089 85.5041 17.6156 89.4146 19.3871C91.3779 20.2742 92.9464 22.4609 93.1249 24.5135H89.6363C88.9224 22.662 87.965 21.1612 85.661 21.1251C81.472 21.0581 80.6525 26.0298 81.2529 29.1035C81.8641 32.2237 85.1282 34.4388 88.1625 32.3604C89.0819 31.7312 89.2739 30.5708 89.7715 29.7198H93.1925L93.1952 29.7173Z" fill="#D9D9D9"/>
<path d="M45.2301 12.6672V32.1259L45.4357 32.3193H55.9041V35.3131H41.536V12.6672H45.2301Z" fill="#D9D9D9"/>
<path d="M38.9348 29.1962H28.0553L27.8498 29.3922V37.4609C27.8498 37.9276 27.5226 37.4712 27.4198 37.3706C26.4111 36.3752 25.2158 35.4108 24.2774 34.3716C24.207 34.2942 24.1205 34.2685 24.015 34.2736V25.6841H35.1677L38.9321 29.1988L38.9348 29.1962Z" fill="#D9D9D9"/>
<path d="M35.171 12.6672L37.0234 14.2892L38.7975 16.1794H28.0559L27.8504 16.3754V24.5085C27.561 24.5007 27.3041 24.2274 27.085 24.0598C26.0412 23.2604 25.0162 21.9556 24.0183 21.0582V12.6672H35.171Z" fill="#D9D9D9"/>
<path d="M124.873 35.3133H121.179V19.1089L121.384 18.9155H124.667L124.873 19.1089V35.3133Z" fill="#D9D9D9"/>
<path d="M118.441 35.3133H114.471V31.7986H118.235L118.441 31.9946V35.3133Z" fill="#D9D9D9"/>
<path d="M125.011 12.6672V15.986L124.805 16.182H121.179V12.6672H125.011Z" fill="#D9D9D9"/>
<path d="M122.991 80.9119L130.313 93.9942L130.639 93.9865L130.382 80.9119H133.917L134.11 81.1046V99.2441H129.289L125.898 93.1102C124.545 90.7024 123.475 88.0556 122.052 85.6941C121.947 85.5193 121.816 85.2701 121.576 85.2701L121.638 99.2441H118.039V80.9119H122.989H122.991Z" fill="#D9D9D9"/>
<path d="M27.9412 71.1701V77.4504C27.172 77.4838 26.1893 77.4607 25.4407 77.584C20.1026 78.4654 15.0037 83.7565 14.3272 89.1888C14.2526 89.7952 14.5047 90.5713 14.1239 91.0364H8.01923C7.97035 90.0188 8.03468 89.05 8.16846 88.0453C9.13059 80.7987 15.0887 74.1483 22.032 72.0052C22.7034 71.7971 25.0342 71.1675 25.5616 71.1675H27.9386L27.9412 71.1701Z" fill="#D9D9D9"/>
<path d="M34.7543 91.2959L34.4893 94.3024C33.9568 96.7462 33.1953 99.1489 31.9013 101.336C28.3718 107.297 21.6574 111.152 14.7037 111.167V104.887C18.0146 104.938 21.2921 103.597 23.7257 101.418C25.2821 100.025 26.751 98.0157 27.5125 96.0627C27.6849 95.6233 28.328 93.493 28.328 93.1589V91.301H34.7543V91.2959Z" fill="#D9D9D9"/>
<path d="M56.4789 85.7841H52.6226C52.3962 82.8932 46.8498 82.5925 46.4793 85.2419C46.1449 87.6214 50.3588 87.94 51.8792 88.3846C53.9887 89.0039 56.5638 90.2656 56.9625 92.6709C58.1433 99.7941 48.684 101.202 44.1486 98.0158C42.9009 97.1396 41.9233 95.3845 41.9542 93.8581H45.8105C46.0369 97.2013 52.6586 97.8026 53.1063 94.6598C53.3429 93.0049 51.5447 92.1107 50.2096 91.7124C47.8171 90.998 43.8553 90.5457 42.8006 87.8193C41.8384 85.3344 42.852 82.7338 45.1648 81.485C48.9156 79.46 56.2602 80.547 56.4763 85.7815L56.4789 85.7841Z" fill="#D9D9D9"/>
<path d="M79.2264 85.3987C79.2573 85.6659 79.1055 86.9174 79.4194 86.9328C80.1809 86.2775 80.9809 85.5014 81.9997 85.2779C89.0176 83.7258 90.7438 93.2465 87.3197 97.6047C85.5061 99.9123 81.6112 100.367 79.4194 98.3474C79.3782 98.3345 79.229 98.648 79.229 98.666V104.628H75.63V85.3987H79.229H79.2264ZM81.8968 88.1251C79.0978 88.2202 79.0026 91.7073 79.2264 93.7964C79.4734 96.104 81.6035 97.6253 83.7207 96.2248C85.8379 94.8243 86.0592 87.9838 81.8993 88.1251H81.8968Z" fill="#D9D9D9"/>
<path d="M63.5463 85.5271V95.2045C63.5463 95.2636 64.1611 96.0474 64.2743 96.1451C65.4782 97.1986 67.2713 96.5459 67.9042 95.1891C68.4238 94.079 68.1537 92.658 68.1691 91.481C68.1923 89.8673 68.2515 88.2432 68.3029 86.6166C68.3081 86.4342 67.9711 85.3986 68.3672 85.3986H71.9019L72.1592 99.2415H68.3029C68.2849 98.9846 68.447 97.8565 67.9839 97.9593C66.8546 99.5782 63.8112 100.074 62.0953 99.2158C58.9645 97.6509 59.6591 92.9381 59.6977 90.0806C59.7183 88.5208 59.672 86.9558 59.6926 85.396H63.2273C63.271 85.396 63.4228 85.5656 63.5488 85.5245L63.5463 85.5271Z" fill="#D9D9D9"/>
<path d="M150.048 93.0893H140.987C140.447 93.0893 141.213 95.2041 141.458 95.569C142.564 97.2162 145.268 97.1083 146.196 95.3223C146.374 95.2324 146.469 95.3968 146.515 95.3968H149.921C148.576 100.094 141.419 101.13 138.504 97.3627C136.233 94.4255 136.521 88.4561 139.67 86.2539C142.271 84.4371 147.182 84.766 149.054 87.7366C149.296 88.1195 150.05 89.8977 150.05 90.2035V93.0867L150.048 93.0893ZM146.302 90.7637C146.69 87.7546 142.507 86.5853 141.257 89.2604C141.064 89.6767 140.573 90.7842 141.242 90.9127C141.916 90.8331 146.106 91.0772 146.299 90.7662L146.302 90.7637Z" fill="#D9D9D9"/>
<path d="M95.0985 93.0897C94.5428 93.2619 95.2529 95.1301 95.4998 95.5104C96.2047 96.5999 97.6736 96.9366 98.8956 96.6179C99.742 96.3995 99.9118 95.3511 100.398 95.292L104.033 95.4616C103.29 97.2912 102.207 98.5015 100.326 99.2005C96.6112 100.578 92.3356 98.8638 91.3966 94.8628C90.2775 90.0986 92.369 85.1391 97.7997 85.1314C102.104 85.1262 104.01 87.827 104.295 91.8691C104.321 92.2443 104.388 92.8379 104.097 93.0923H95.1011L95.0985 93.0897ZM100.416 90.7641C100.545 86.7271 95.1706 86.8299 95.0265 90.6999C95.0574 90.8669 95.5899 90.9055 95.7391 90.9158C96.3231 90.9569 100.29 90.9697 100.419 90.7641H100.416Z" fill="#D9D9D9"/>
<path d="M157.372 81.6804V85.206L157.565 85.3988H160.007L160.2 85.5915V88.2203H157.565L157.372 88.413V95.5902C157.372 95.6339 157.704 96.302 157.753 96.3637C158.167 96.8853 159.217 96.6181 159.814 96.6798V99.2443C158.144 99.5707 155.41 99.879 154.288 98.2807C154.185 98.1316 153.645 96.9496 153.645 96.8725V88.2203H151.461V85.5915L151.654 85.3988H153.645V81.8731L153.838 81.6804H157.372Z" fill="#D9D9D9"/>
<path d="M115.343 85.2701V88.5387C114.911 88.8857 114.257 88.6826 113.665 88.788C112.868 88.9319 111.975 89.4407 111.533 90.1217C111.432 90.2784 110.843 91.4091 110.843 91.4862V99.2416H106.987V85.5887L107.18 85.396H110.522C110.558 85.396 110.823 85.5271 110.848 85.6119C110.91 85.8765 110.692 87.4595 111.036 87.4441C112.004 85.9331 113.496 85.026 115.343 85.2675V85.2701Z" fill="#D9D9D9"/>
<path d="M21.0276 95.495L16.7623 91.2293L21.1794 86.6912L25.6171 90.9928L21.4598 95.4025L21.0276 95.495Z" fill="#D9D9D9"/>
</g>
<g clip-path="url(#clip2_84_20)">
<path d="M238.464 7.66748V13.286L238.641 13.4786H243.806L243.983 13.286V7.66748H249.149V13.4144L249.326 13.607H251.087C252.174 13.607 255.074 15.316 255.961 16.1236C263.683 23.1572 259.056 36.9428 249.151 36.8564V42.6675H243.986V37.049L243.809 36.8564H238.643L238.466 37.049V42.6675H233.301V37.049L233.124 36.8564H228.075L227.898 36.6637V31.2379L228.075 31.0453H233.124L233.301 30.8526V19.2922H228.075L227.898 19.0995V13.6737L228.075 13.4811H233.124L233.301 13.2884V7.66748H238.466H238.464ZM238.641 19.2922L238.464 19.4848V30.8502L238.641 31.0428H250.262C250.421 31.0428 251.607 30.4624 251.838 30.3217C255.356 28.1805 255.497 22.4607 252.044 20.1714C251.748 19.9763 250.395 19.2897 250.146 19.2897H238.641V19.2922Z" fill="#D9D9D9"/>
<path d="M265.349 34.0187V16.452C267.159 16.5311 269.006 16.3483 270.812 16.4471C272.9 16.5607 274.996 17.0571 276.62 18.5809C279.995 21.7495 280.058 28.6373 276.674 31.8183C273.579 34.7275 269.127 33.8829 265.349 34.0187ZM271.511 19.2922C270.539 19.1711 269.391 19.3811 268.401 19.2922V31.0453H272.098C272.163 31.0453 273.18 30.6476 273.317 30.5785C277.597 28.3756 276.847 19.9515 271.511 19.2922Z" fill="#D9D9D9"/>
<path d="M314.538 15.4172V21.8112L314.773 21.9421C317.263 18.7439 322.054 19.428 323.79 23.1275C326.784 29.4992 321.202 37.4886 315.537 32.9814C315.206 32.7172 315.006 32.1492 314.536 32.2084V34.0162H311.658L311.481 33.8236V15.6123L311.658 15.4197H314.536L314.538 15.4172ZM316.106 30.6106C320.451 33.8162 323.692 25.5577 319.573 23.2461C315.454 20.9345 312.635 28.052 316.106 30.6106Z" fill="#D9D9D9"/>
<path d="M293.054 29.7562C291.987 33.0409 289.415 34.4412 286.304 34.1448C279.358 33.4829 279.035 21.5347 285.511 20.0999C289.926 19.1219 293.289 21.8805 293.412 26.8445C293.421 27.2495 293.453 27.7064 293.173 28.0126C290.591 28.0719 287.954 28.1485 285.359 28.0818C284.908 28.0694 284.489 27.7805 284.03 28.0941C284.03 31.4677 288.196 32.7346 289.706 29.7562H293.052H293.054ZM284.189 25.7504H290.058C290.573 25.7504 289.769 23.9945 289.475 23.6784C287.613 21.678 284.574 22.6584 284.03 25.4516L284.189 25.7504Z" fill="#D9D9D9"/>
<path d="M339.896 20.0678V22.7795H337.254C337.086 22.8931 337.093 23.0363 337.073 23.224C336.932 24.5453 336.916 28.7906 337.073 30.0822C337.109 30.3811 337.463 31.0454 337.723 31.0454H339.719L339.896 31.238V33.8213L339.719 34.0139H337.606C337.485 34.0139 336.418 33.7719 336.235 33.7151C332.681 32.6062 334.267 25.9233 333.909 22.9054L332.434 22.7844V20.1839L333.909 20.0628V16.7683L334.086 16.5757H336.902L337.079 16.7683V19.8677L337.256 20.0604H339.898L339.896 20.0678Z" fill="#D9D9D9"/>
<path d="M302.798 19.9391V23.4262C301.558 23.362 299.909 23.5744 299.297 24.9352C299.194 25.1624 298.923 26.0095 298.923 26.2021V33.8235L298.746 34.0161H296.046L295.869 33.8235V20.0675H298.921V22.0037C299.371 22.0605 299.521 21.4801 299.86 21.164C300.687 20.3886 301.688 19.9193 302.795 19.9391H302.798Z" fill="#D9D9D9"/>
<path d="M308.199 20.0676V33.8236L308.022 34.0187H305.321L305.146 33.8236V20.0676H308.199Z" fill="#D9D9D9"/>
<path d="M330.15 20.0676V33.8236L329.975 34.0187H327.275L327.098 33.8236V20.0676H330.15Z" fill="#D9D9D9"/>
<path d="M329.994 14.8172C330.205 15.042 330.471 15.6717 330.505 15.9977C330.845 19.2824 325.978 18.9045 326.774 15.6446C327.105 14.2838 329.178 13.943 329.994 14.8172Z" fill="#D9D9D9"/>
<path d="M308.033 14.8293C309.086 15.701 308.591 17.988 307.17 18.225C303.764 18.7931 304.105 13.3079 307.558 14.5082C307.739 14.5724 307.885 14.7058 308.033 14.8293Z" fill="#D9D9D9"/>
<path d="M224.987 72.1675V78.3235C225.623 78.8663 226.583 78.809 227.376 79.0518C239.656 82.7885 239.802 99.4837 227.9 103.182C226.954 103.477 225.766 103.48 224.984 104.011V110.167H222.313V104.011C221.581 103.474 220.408 103.504 219.513 103.223C208.804 99.8465 207.444 85.2542 217.357 80.0691C219.003 79.2072 220.709 79.0845 222.313 78.3263V72.1675H224.984H224.987ZM222.316 100.665V81.6648C222.316 80.8929 219.231 82.2348 218.854 82.4203C213.639 84.9951 211.877 91.473 214.863 96.3198C216.293 98.6382 219.22 100.76 222.054 100.869L222.316 100.665ZM225.243 81.4602C224.97 81.5502 225.004 81.7439 224.978 81.9621L225.133 100.826C225.803 101.276 228.218 100.133 228.902 99.7401C235.403 96.0143 235.684 86.9398 229.372 82.8949C228.603 82.4012 226.059 81.1929 225.243 81.4575V81.4602Z" fill="#D9D9D9"/>
<path d="M357.141 94.8117H347.319C347.167 94.929 347.136 94.9399 347.144 95.1254C347.175 96.0746 348.11 97.4438 348.892 98.0029C350.325 99.0285 352.669 98.993 354.144 98.0657C354.538 97.8175 354.825 97.1874 355.329 97.2338C355.652 97.2638 356.722 98.3002 356.649 98.6466C356.522 99.263 354.769 100.27 354.155 100.504C351.332 101.584 347.885 101.071 345.827 98.8403C342.298 95.0135 344.381 87.2728 350.145 86.8991C355.503 86.5527 357.276 90.1776 357.144 94.809L357.141 94.8117ZM347.322 92.6842H353.922C354.383 92.6842 353.826 91.135 353.716 90.9059C352.911 89.2284 351.009 88.6366 349.286 89.4166C348.02 89.9894 347.564 91.1705 347.156 92.376L347.322 92.6842Z" fill="#D9D9D9"/>
<path d="M308.273 94.8116H298.608C298.149 95.3135 298.76 96.4073 299.092 96.9282C300.479 99.0884 303.37 99.2384 305.495 97.9783C305.804 97.7956 306.165 97.2364 306.463 97.2364L307.96 98.5347C306.229 100.998 302.495 101.57 299.7 100.591C292.011 97.8992 295.121 84.4825 304.341 87.1364C306.241 87.6819 308.27 90.2512 308.27 92.1523V94.8116H308.273ZM305.286 92.6842C305.393 87.7446 298.839 88.061 298.529 92.6842H305.286Z" fill="#D9D9D9"/>
<path d="M271.502 98.3082H275.509C275.56 98.3082 275.749 98.51 275.903 98.4609V100.741H263.962V98.3082H268.361V83.5659H263.962V81.2856H271.268L271.504 81.5148V98.3082H271.502Z" fill="#D9D9D9"/>
<path d="M324.298 100.741H321.312V91.3938C321.312 91.3283 320.896 90.33 320.817 90.1991C320.077 88.9826 317.729 88.969 316.545 89.5172C316.103 89.7218 315.025 90.6137 315.025 91.0883V100.738H312.039V87.2861L312.275 87.057H314.71L315.025 88.8817C317.395 86.1678 322.531 85.8651 323.871 89.67C323.935 89.85 324.293 91.1565 324.293 91.2383V100.738L324.298 100.741Z" fill="#D9D9D9"/>
<path d="M282.656 87.0596V96.4069C282.656 97.0969 283.36 98.2725 284.066 98.5371C285.08 98.9189 286.92 98.6898 287.765 98.0052C287.88 97.9125 288.626 97.0778 288.626 97.0151V87.0596H291.612V100.738H288.941L288.705 99.0635C288.018 99.3935 287.666 100.064 286.982 100.438C284.68 101.701 281.483 101.057 280.34 98.6434C280.045 98.0216 279.67 96.6033 279.67 95.9486V87.0569H282.656V87.0596Z" fill="#D9D9D9"/>
<path d="M250.601 87.0598C250.635 85.3251 250.801 83.5058 252.11 82.2129C254.077 80.2737 257.511 80.4891 260.03 81.1328L259.714 83.2603C256.512 82.7912 253.275 82.7748 253.613 86.8088L253.824 87.0598H258.932C258.834 87.7335 259.177 88.6608 258.696 89.1872H253.824L253.587 89.4164V100.738H250.601V89.1872H247.066C246.585 88.6608 246.928 87.7335 246.83 87.0598H250.601Z" fill="#D9D9D9"/>
<path d="M340.485 91.7733H337.657C337.384 88.9966 333.475 88.1129 331.845 90.3304C330.216 92.5479 330.429 98.1257 333.722 98.6957C335.816 99.0585 337.111 98.123 337.896 96.331H340.255C340.654 96.6146 340.232 97.5584 340.046 97.9539C338.715 100.801 334.64 101.734 331.811 100.545C326.042 98.1202 326.906 87.6083 333.202 86.9264C336.928 86.5228 340.06 87.8947 340.488 91.7705L340.485 91.7733Z" fill="#D9D9D9"/>
<path d="M328.367 145.183C329.247 145.981 329.066 147.358 328.056 147.97C327.502 148.307 326.036 148.091 325.277 148.171C316.452 149.089 313.746 160.342 321.296 164.849C327.774 168.714 335.863 163.924 335.525 156.641C335.498 156.046 335.176 155.024 335.263 154.498C335.562 152.68 338.236 152.484 338.803 154.36C340.006 158.343 338.153 163.53 335.07 166.304C328.939 171.817 319.047 170.365 314.951 163.323C310.932 156.414 314.59 147.449 322.463 145.228C323.824 144.845 327.289 144.208 328.367 145.186V145.183Z" fill="#D9D9D9"/>
<path d="M271.096 151.088C271.271 149.954 272.418 149.546 273.445 149.472C275.992 149.294 281.441 149.29 283.65 150.386C287.461 152.277 287.204 158.31 283.275 159.921L283.268 160.079L286.487 164.914H283.213C283.174 164.914 282.553 164.778 282.464 164.749C280.94 164.279 280.117 161.893 279.059 160.823C277.668 160.843 276.254 160.5 274.887 160.806V162.639C274.887 162.733 274.622 163.394 274.546 163.53C273.88 164.731 272.399 165.005 271.098 164.914V151.088H271.096ZM274.887 152.919V157.194C274.887 157.214 275.064 157.39 275.119 157.415C275.392 157.539 278.654 157.513 279.199 157.477C280.797 157.368 282.323 156.887 282.36 155.087C282.399 153.253 280.753 152.899 279.199 152.803C278.671 152.77 275.004 152.743 274.887 152.919Z" fill="#D9D9D9"/>
<path d="M230.535 149.287C235.36 149.031 240.063 151.575 240.325 156.635C240.615 162.2 235.916 165.444 230.496 165.141C219.496 164.528 219.261 149.889 230.535 149.287ZM230.185 152.725C228.24 152.979 226.263 154.414 226.073 156.412C225.415 163.334 235.725 163.082 236.404 158.074C236.923 154.247 233.863 152.248 230.183 152.725H230.185Z" fill="#D9D9D9"/>
<path d="M254.537 149.287C260.33 148.978 265.195 152.678 264.197 158.629C263.429 163.203 258.735 165.466 254.275 165.136C243.432 164.334 243.326 149.887 254.537 149.29V149.287ZM254.073 152.723C251.215 153.119 249.494 155.57 250.11 158.279C251.255 163.303 261.11 162.989 260.418 156.419C260.11 153.498 256.703 152.357 254.073 152.723Z" fill="#D9D9D9"/>
<path d="M297.513 164.913V152.974L297.34 152.807H294.239C294.002 152.807 293.225 152.491 292.996 152.344C292.028 151.729 291.635 150.559 291.77 149.474H304.46C305.31 149.474 306.441 150.397 306.756 151.141C306.855 151.373 307.255 152.805 306.871 152.805H301.474L301.301 152.972V162.746C301.301 162.859 300.747 163.808 300.609 163.964C299.809 164.869 298.671 164.974 297.51 164.911L297.513 164.913Z" fill="#D9D9D9"/>
<path d="M332.697 149.66C330.674 147.846 332.855 144.315 335.669 145.73C337.225 146.512 337.37 148.722 335.989 149.755C335.076 150.439 333.55 150.424 332.694 149.66H332.697Z" fill="#D9D9D9"/>
<path d="M342.878 145.7L343.513 145.81C343.6 145.912 344.064 147.603 344.255 147.476L344.961 145.714L345.634 145.698V148.142H345.175V146.476C344.844 146.418 344.991 146.563 344.915 146.719C344.69 147.184 344.588 147.703 344.313 148.142C343.88 148.142 343.674 146.959 343.478 146.618C343.405 146.489 343.485 146.431 343.221 146.476V148.142H342.876V145.698L342.878 145.7Z" fill="#D9D9D9"/>
<path d="M342.303 145.7V146.032L341.621 146.041C341.673 146.208 341.499 146.451 341.499 146.533V148.144H341.154V146.201C340.968 145.95 340.63 146.043 340.349 146.034V145.702H342.303V145.7Z" fill="#D9D9D9"/>
</g>
<g clip-path="url(#clip3_84_20)">
<path d="M433.379 12.7503V37.1728H429.994V35.2941C425.338 39.8705 417.358 37.3456 416.265 30.8079C414.901 22.6508 423.869 17.7851 429.998 23.2708V15.5683C429.998 14.5501 432.057 12.198 433.379 12.7503ZM423.133 24.1124C417.846 25.0931 418.357 34.197 423.783 34.5652C432.534 35.1551 431.929 22.4817 423.133 24.1124Z" fill="#D9D9D9"/>
<path d="M501.386 37.1728H498.001V35.2942C490.524 41.8507 480.221 33.13 485.534 24.5145C488.243 20.1222 494.413 19.893 498.001 23.2708V21.0164H501.386V37.1728ZM492.617 23.7893C485.722 23.9246 486.297 33.7424 491.072 34.5202C500.041 35.978 500.037 23.6428 492.617 23.7893Z" fill="#D9D9D9"/>
<path d="M531.821 22.8951C534.308 19.7577 539.275 20.2687 541.988 23.0717C542.368 23.4624 543.468 25.063 543.468 26.4645V37.1728H540.087V26.8402C540.087 25.4914 538.952 24.7662 538.614 24.5558C535.954 22.8838 531.821 24.4994 531.821 26.4645V37.1728H528.439V12.7504C529.766 12.4235 531.821 14.4637 531.821 15.5683V22.8951Z" fill="#D9D9D9"/>
<path d="M482.975 30.0339H470.576C470.7 29.3463 472.057 27.7795 472.643 27.7795H479.594C479.165 22.6057 471.279 22.8086 470.279 27.2949C468.746 34.1745 476.039 37.1465 480.157 31.9201L481.792 34.3022C476.934 40.9188 466.259 37.1014 466.823 28.7301C467.567 17.6649 484.264 18.6982 482.979 30.0377L482.975 30.0339Z" fill="#D9D9D9"/>
<path d="M450.662 30.0338H438.263C438.53 29.4289 439.74 27.7794 440.33 27.7794H447.281C446.841 22.151 438.688 22.9551 437.914 27.9898C436.914 34.4787 443.64 36.5377 447.916 32.3333L449.843 33.9715C445.511 40.8323 434.378 37.4733 434.611 29.1922C434.934 17.6836 451.992 18.435 450.666 30.0301L450.662 30.0338Z" fill="#D9D9D9"/>
<path d="M455.637 26.5585C456.775 27.866 465 27.8735 465.68 31.3565C467.112 38.6757 454.435 39.4836 451.883 33.5996L454.205 31.9351C455.881 34.4525 460.059 35.8239 462.257 33.1563C462.836 30.7967 456.851 30.3383 455.066 29.5756C452.481 28.4747 451.068 26.3556 452.744 23.6653C455.415 19.3745 462.674 20.2687 465.684 23.8344L463.249 25.8897C461.337 23.4173 457.7 22.9477 455.366 25.1307C455.254 25.3899 455.472 26.3668 455.641 26.5622L455.637 26.5585Z" fill="#D9D9D9"/>
<path d="M523.427 25.2772C519.282 21.9595 513.218 24.9428 514.567 30.545C515.814 35.7113 522.153 35.7676 524.49 31.5407L526.929 33.6072C522.067 40.9865 510.37 37.5674 511.159 28.3507C511.862 20.1598 522.765 18.1947 526.887 24.9691L524.483 26.5735C523.983 26.5247 523.761 25.5553 523.423 25.2848L523.427 25.2772Z" fill="#D9D9D9"/>
<path d="M502.889 21.0165H506.274L506.458 23.2747C507.683 20.7573 510.133 20.3853 512.658 21.0203C512.072 21.6177 511.696 23.0229 511.14 23.4437C510.111 24.2215 506.271 24.1689 506.271 26.8403V37.1729H502.889V21.0165Z" fill="#D9D9D9"/>
<path d="M433.64 96.4131C434.05 96.7489 435.469 97.9089 435.672 98.2532C436.028 98.8515 434.925 100.291 434.538 100.807C432.808 103.11 429.26 105.935 426.497 106.816C424.77 107.366 422.092 107.75 422.125 105.21C422.168 101.826 427.945 96.9126 430.903 95.7329C432.54 95.0781 432.418 95.4083 433.64 96.4131Z" fill="#D9D9D9"/>
<path d="M430.39 85.3614C430.429 85.717 430.432 86.0952 430.409 86.4536C430.381 86.939 430.099 89.3859 429.949 89.6654C429.743 90.052 427.937 90.3625 427.435 90.433C424.536 90.8451 420.593 90.7435 417.842 89.6908C413.854 88.1611 414.853 85.7678 418.429 84.7207C422.005 83.6736 426.963 83.9079 430.39 85.3585V85.3614Z" fill="#D9D9D9"/>
<path d="M507.594 78.3874C507.893 78.5991 507.781 78.9858 507.792 79.3075C508.534 79.3301 508.901 78.5229 509.705 78.3959C513.174 77.8568 514.712 80.5691 514.348 83.6877C514.015 86.5326 511.021 87.8647 508.591 86.4479C508.328 86.2955 508.215 85.8919 507.795 85.9963V90.0633H505.365L505.167 89.8657V78.585L505.365 78.3874H507.597H507.594ZM509.333 80.3856C507.058 80.8513 507.476 85.2992 510.081 84.9408C512.686 84.5824 512.172 79.8042 509.333 80.3856Z" fill="#D9D9D9"/>
<path d="M479.677 104.623H476.787C476.499 104.067 476.358 102.727 475.678 102.648C474.315 102.49 472.624 102.761 471.224 102.676L470.349 104.623H467.589L472.379 93.7265C472.985 93.8506 474.854 93.5091 475.218 93.924L479.677 104.623ZM473.505 96.6221L472.071 100.342C472.379 100.94 472.833 100.548 473.299 100.551C473.809 100.554 475.085 100.816 475.283 100.424L473.959 96.7548L473.505 96.6221Z" fill="#D9D9D9"/>
<path d="M445.493 99.8084C445.834 99.7915 446.167 99.6419 446.447 99.958C446.811 100.37 447.192 102.495 447.234 103.108C447.375 105.219 446.833 109.26 445.038 110.638C442.586 112.52 440.98 108.936 440.791 106.918C440.675 105.667 440.763 100.999 441.897 100.285C442.222 100.082 444.934 99.8366 445.493 99.8084Z" fill="#D9D9D9"/>
<path d="M443.525 84.1898C449.046 83.9895 449.957 91.7818 444.4 92.16C438.527 92.5579 437.805 84.3987 443.525 84.1898Z" fill="#D9D9D9"/>
<path d="M476.001 75.7627C476.021 76.3808 476.08 77.1174 476.077 77.7242C476.077 77.8766 476.068 77.8935 475.933 77.9923H470.811L470.613 78.1899V80.617C470.743 80.5747 470.898 80.7469 470.94 80.7469H475.606V82.8467H470.811L470.613 83.0442V86.9136H467.853V75.9603L468.05 75.7627H475.998H476.001Z" fill="#D9D9D9"/>
<path d="M530.655 78.3871V79.5668C531.287 79.7051 531.304 79.1632 531.713 78.8528C532.636 78.15 534.668 78.198 535.582 78.912C536.065 79.2874 536.7 80.3429 536.7 80.9441V86.9132H534.073V81.8613C534.073 81.232 532.935 80.5461 532.311 80.6195C531.643 80.6985 530.658 81.5989 530.658 82.2565V86.9132H528.03V78.3871H530.658H530.655Z" fill="#D9D9D9"/>
<path d="M478.286 85.94C476.322 84.3144 476.508 80.4139 478.715 79.0649C480.922 77.7158 484.922 78.2351 485.915 81.0151C487.659 85.892 481.809 88.8554 478.286 85.94ZM480.248 80.9248C478.811 82.367 479.748 85.4009 482.08 84.9155C484.258 84.4639 484.03 79.8241 480.953 80.5127C480.798 80.5466 480.364 80.8062 480.248 80.922V80.9248Z" fill="#D9D9D9"/>
<path d="M488.525 85.9514C485.974 83.6682 487.083 78.9945 490.577 78.4469C494.071 77.8994 496.823 79.7706 496.368 83.5751C495.953 87.0634 490.862 88.0456 488.525 85.9542V85.9514ZM490.498 80.9277C489.005 82.3417 489.956 85.2967 492.217 84.9382C493.693 84.704 494.122 82.4969 493.453 81.3596C492.874 80.3774 491.322 80.1431 490.498 80.9277Z" fill="#D9D9D9"/>
<path d="M508.382 96.2297L510.485 101.609L510.919 101.386L512.72 96.2297H514.952L515.096 96.5007C513.801 99.3258 512.932 102.456 511.662 105.275C510.459 107.945 508.588 108.622 505.941 107.169L506.754 105.428C507.087 105.286 507.327 105.617 507.6 105.667C508.503 105.834 509.079 105.391 509.356 104.564L505.972 96.5345L506.15 96.2326H508.382V96.2297Z" fill="#D9D9D9"/>
<path d="M436.953 78.7571C436.047 79.0647 434.432 80.5887 433.597 80.727C432.169 80.9641 428.644 77.6028 427.862 76.4089C427.176 75.3619 426.236 73.2621 427.825 72.5904C430.007 71.6675 433.868 74.3289 435.341 75.8953C435.742 76.3214 437.266 78.2237 436.956 78.7571H436.953Z" fill="#D9D9D9"/>
<path d="M489.795 104.623H487.168V99.7041C487.168 99.0521 486.076 98.3974 485.41 98.4651C484.743 98.5328 483.753 99.4218 483.753 100.099V104.626H481.258V96.2298H483.753C483.634 98.372 484.354 96.8931 485.345 96.4415C486.62 95.8601 488.367 96.0577 489.197 97.2882C489.299 97.4406 489.798 98.5808 489.798 98.657V104.626L489.795 104.623Z" fill="#D9D9D9"/>
<path d="M499.648 104.623H497.02C496.966 104.375 497.198 103.943 496.82 103.963C496.416 103.983 495.852 104.618 495.217 104.725C492.871 105.117 491.014 104 491.534 101.44C491.754 100.364 493.117 99.8875 494.082 99.7859C494.703 99.721 497.003 100.054 497.02 99.3145C496.379 97.5111 493.992 98.2167 492.691 98.8517L492.042 97.2261C493.887 96.0548 498.245 95.5355 499.323 97.9344C499.38 98.0558 499.65 98.8658 499.65 98.9194V104.626L499.648 104.623ZM496.69 100.951H494.587C494.192 100.951 493.693 101.609 493.732 102.052C493.899 103.904 497.87 102.732 496.69 100.951Z" fill="#D9D9D9"/>
<path d="M540.208 96.1282C541.444 95.9504 543.18 96.3568 544.171 97.1019L543.448 98.7134C542.765 98.3634 540.155 97.2881 539.864 98.4227C539.658 99.2242 542.192 99.6843 542.765 99.9439C544.162 100.576 544.679 101.824 544.081 103.277C543.239 105.312 538.588 105.131 537.236 103.619L537.942 102.007C538.501 102.707 542.356 103.746 541.8 102.089C541.54 101.316 537.925 101.491 537.541 99.2553C537.234 97.4603 538.549 96.3681 540.205 96.131L540.208 96.1282Z" fill="#D9D9D9"/>
<path d="M535.598 97.3246C535.753 97.4855 536.145 97.9738 536.024 98.1798L534.373 99.0914C534.031 99.145 533.255 97.8242 531.788 98.4761C529.993 99.272 530.47 103.328 533.284 102.594C533.879 102.439 533.924 101.953 534.396 101.787L536.016 102.679C536.397 103.33 534.635 104.341 534.142 104.502C530.346 105.735 527.154 102.834 528.325 98.9559C529.225 95.9728 533.549 95.2136 535.598 97.3275V97.3246Z" fill="#D9D9D9"/>
<path d="M541.952 78.7823H544.054V80.6196C543.428 80.4955 542.488 80.2894 541.952 80.6845V84.489C541.952 84.5737 542.378 84.9152 542.547 84.9462C543.064 85.045 543.335 84.791 543.789 84.6837C544.224 86.3602 544.599 86.8851 542.542 87.0432C540.891 87.1702 539.471 86.5352 539.321 84.7543C539.242 83.8229 539.53 81.5058 539.305 80.8369C539.163 80.4164 538.48 80.4842 538.142 80.5604L538.071 78.9037L539.211 78.7033C539.556 78.2207 539.005 76.4172 539.395 76.4172H541.76L541.957 76.6148V78.7795L541.952 78.7823Z" fill="#D9D9D9"/>
<path d="M503.326 78.7827V80.4873H501.421C501.399 80.4873 501.19 80.6905 501.161 80.7526C501.009 81.0772 501.051 83.8402 501.181 84.272C501.582 85.5985 502.954 84.5712 503.064 84.6869L503.445 86.4396C502.087 87.5459 498.875 87.2016 498.593 85.1526C498.446 84.0886 498.853 81.6529 498.579 80.8401C498.438 80.4196 497.755 80.4873 497.416 80.5635L497.346 78.9069L498.486 78.7065C498.83 78.2239 498.28 76.4204 498.669 76.4204H500.902L501.099 76.618V78.5851L501.297 78.7827H503.335H503.326Z" fill="#D9D9D9"/>
<path d="M519.486 94.26V96.4247C519.935 96.9299 521.495 96.2864 521.786 96.8819C521.893 97.1049 521.93 98.1266 521.727 98.2677C521.196 98.4963 519.709 98.0108 519.511 98.6797C519.413 99.0099 519.438 101.657 519.542 102.004C519.892 103.15 521.216 102.397 521.462 102.577C521.495 102.919 522.034 104.183 521.769 104.375C521.504 104.567 520.443 104.739 520.081 104.759C518.439 104.852 517.141 104.237 516.983 102.464C516.892 101.468 517.197 99.4841 516.963 98.6825C516.788 98.0899 515.834 98.4596 515.806 98.2536V96.6223C515.89 96.5404 516.825 96.7944 516.991 96.4275V94.2628H519.486V94.26Z" fill="#D9D9D9"/>
<path d="M451.356 96.6786C451.579 96.3512 453.14 94.4687 453.363 94.4123C454.122 94.2288 456.383 96.2637 456.885 96.8846C457.774 97.9853 459.338 100.985 457.568 101.897C455.965 102.724 453.453 100.83 452.417 99.642C452.076 99.2525 451.026 97.799 451.026 97.3446C451.026 97.0455 451.209 96.8931 451.356 96.6786Z" fill="#D9D9D9"/>
<path d="M504.509 104.624H501.882V93.0803H504.312L504.509 93.2779V104.624Z" fill="#D9D9D9"/>
<path d="M443.384 71.2017C445.066 70.8517 446.389 73.2704 446.562 74.659C446.657 75.4295 446.714 78.1078 445.788 78.3308C445.17 78.4804 443.243 77.7438 442.461 77.8341C440.821 76.533 441.1 71.6758 443.381 71.2017H443.384Z" fill="#D9D9D9"/>
<path d="M521.59 78.3871V80.5518L521.372 80.7296C520.766 80.7296 520.08 80.8002 519.572 81.1614C519.405 81.28 518.83 82.0109 518.83 82.1267V86.9161H516.069V78.5847L516.267 78.3871H518.632C519.095 78.3871 518.426 79.6289 519.03 79.5725C519.315 79.5725 519.394 79.152 519.623 78.9798C520.131 78.6016 520.949 78.294 521.59 78.3843V78.3871Z" fill="#D9D9D9"/>
<path d="M460.58 89.8847C459.505 91.0419 456.349 91.0645 455.017 90.3504C454.334 89.9835 454.665 89.5687 454.583 88.9477C454.526 88.5046 454.23 87.2149 454.382 86.9129C454.755 86.1763 457.555 86.4105 458.266 86.5827C459.632 86.9129 462.025 88.3297 460.58 89.8876V89.8847Z" fill="#D9D9D9"/>
<path d="M453.901 77.374C454.815 77.2865 455.921 77.6026 456.13 78.613C456.514 80.4672 454.341 82.6601 452.577 82.9621C452.165 82.5388 450.119 80.772 450.144 80.312C450.751 78.9234 452.357 77.5236 453.901 77.374Z" fill="#D9D9D9"/>
<path d="M525.662 86.9136H523.035V78.585L523.23 78.3875H525.465L525.662 78.585V86.9136Z" fill="#D9D9D9"/>
<path d="M526.186 104.623H523.688V96.4245L523.886 96.2297H525.988L526.186 96.4245V104.623Z" fill="#D9D9D9"/>
<path d="M439.301 92.468C439.829 92.9958 439.95 93.9751 439.677 94.6553C439.445 95.2367 438.082 96.5886 437.45 96.487C437.221 96.4503 434.523 94.2235 434.487 94.0344C434.323 93.1934 435.982 92.1406 436.691 91.9374C437.557 91.6862 438.641 91.8076 439.301 92.468Z" fill="#D9D9D9"/>
<path d="M432.948 85.9035C433.405 85.339 435.096 85.6326 435.736 85.8612C437.517 86.499 437.794 88.5226 436.052 89.4652C435.33 89.8575 432.564 90.2329 432.533 89.087C432.801 88.4266 432.598 86.3381 432.948 85.9035Z" fill="#D9D9D9"/>
<path d="M446.007 97.6326C445.53 98.0107 443.981 97.9176 443.352 97.9345C442.307 97.9628 441.785 98.3748 441.833 96.8141C441.887 95.0078 443.366 93.639 445.169 94.4123C446.14 94.83 446.8 97.006 446.007 97.6326Z" fill="#D9D9D9"/>
<path d="M439.032 80.538C439.162 80.6226 439.614 81.0883 439.718 81.2294C441.355 83.5127 438.414 84.8137 436.461 83.5606C436.08 83.3151 435.016 82.443 435.442 81.966C435.662 81.7205 438.073 80.2332 438.358 80.2332C438.572 80.2332 438.854 80.4194 439.032 80.5351V80.538Z" fill="#D9D9D9"/>
<path d="M449.295 91.7988C449.696 91.717 450.221 91.7255 450.607 91.8694C450.969 92.0049 451.956 92.8911 451.956 93.2749C451.956 93.5825 449.989 95.7811 449.637 95.8093C447.875 95.2787 447.26 92.2165 449.295 91.796V91.7988Z" fill="#D9D9D9"/>
<path d="M442.596 79.3267C442.697 79.3013 444.377 79.5553 444.631 79.6061C445.252 79.7275 445.921 79.6965 446.036 80.4302C446.496 83.3005 442.314 83.0324 442.105 80.5544C442.068 80.1311 442.079 79.4594 442.596 79.3267Z" fill="#D9D9D9"/>
<path d="M452.847 86.9439C453.025 87.1415 453.183 89.4755 453.022 89.8763C452.819 90.1331 451.961 90.1049 451.627 90.0626C449.655 89.817 449.395 86.8 451.52 86.6589C451.786 86.6419 452.706 86.7802 452.85 86.9439H452.847Z" fill="#D9D9D9"/>
<path d="M449 81.5823C450.058 81.9943 450.642 83.0527 451.399 83.8288C449.725 86.9644 445.621 83.1966 449 81.5823Z" fill="#D9D9D9"/>
<path d="M523.335 76.6431C522.929 76.0928 523.14 74.9187 523.914 74.7437C526.05 74.2555 525.957 77.1512 524.292 77.0693C524.091 77.0608 523.439 76.7871 523.335 76.6431Z" fill="#D9D9D9"/>
<path d="M525.879 94.6129C524.849 95.739 522.927 93.9864 524.276 92.8151C525.371 91.8612 526.875 93.5263 525.879 94.6129Z" fill="#D9D9D9"/>
<path d="M435.669 144.897C443.677 144.115 449.232 152.388 445.463 159.46C442.614 164.801 435.271 166.287 430.549 162.461C423.827 157.016 426.935 145.753 435.669 144.897ZM442.278 158.751C447.037 151.992 437.625 143.598 431.829 149.944C425.418 156.963 436.653 166.742 442.278 158.751Z" fill="#D9D9D9"/>
<path d="M462.305 161.619C463.918 161.856 464.119 164.312 462.438 164.569L448.468 164.58C447.027 164.362 446.821 163.074 447.553 161.969L458.993 148.025L458.753 147.694L449.206 147.643C447.996 146.903 448.284 145.024 449.737 144.852C453.783 145.137 458.324 144.482 462.311 144.849C463.947 144.999 464.012 146.42 463.195 147.578C460.449 151.483 456.527 155.499 453.483 159.302C452.938 159.983 452.136 160.822 451.927 161.622H462.302L462.305 161.619Z" fill="#D9D9D9"/>
<path d="M413.816 150.631C413.621 150.622 413.544 150.588 413.386 150.727C412.988 151.074 412.493 151.942 412.117 152.388C408.84 156.259 405.486 160.15 402.245 164.089C400.928 165.227 399.346 164.157 399.917 162.47C399.996 162.241 400.623 161.537 400.832 161.269C405.161 155.728 410.046 150.475 414.564 145.107C415.372 144.575 416.398 144.909 416.791 145.759L416.921 163.097C416.831 164.408 415.418 165.064 414.386 164.219C414.245 164.103 413.816 163.481 413.816 163.38V150.631Z" fill="#D9D9D9"/>
<path d="M542.985 150.492L544.025 150.512L544.257 150.845C544.005 155.197 544.593 159.918 544.257 164.227C544.147 165.618 543.627 167.352 542.567 168.319C539.855 170.797 532.432 170.328 531.836 165.852L533.11 165.917C534.305 169.833 541.51 169.763 542.748 165.965C542.954 165.329 543.175 161.744 542.918 161.342C542.83 161.207 542.72 161.179 542.564 161.204C541.406 164.126 537.362 164.623 534.766 163.419C530.403 161.399 530.228 153.634 534.271 151.168C536.811 149.616 541.445 150.051 542.564 153.174C542.655 153.256 542.985 153.044 542.985 152.962V150.495V150.492ZM541.522 152.795C540.343 151.518 538.815 151.187 537.119 151.331C530.748 151.871 531.163 163.829 538.521 163.015C543.149 162.501 544.327 155.833 541.522 152.795Z" fill="#D9D9D9"/>
<path d="M482.222 162.685C482.697 162.278 483.307 161.156 483.401 160.554C484.706 151.959 469.948 157.692 470.838 148.721C471.378 143.273 482.389 142.917 483.937 148.907C484.019 149.226 484.268 150.201 483.884 150.326C483.658 150.399 482.909 150.408 482.771 150.213C482.666 150.063 482.431 148.653 482.166 148.139C480.242 144.431 471.836 144.867 472.115 149.707C472.44 155.333 483.774 152.123 484.76 158.367C486.147 167.163 471.756 167.166 470.177 159.817C470.081 159.367 469.832 158.472 470.355 158.376C471.756 158.11 471.378 159.133 471.725 160.105C473.158 164.089 479.174 165.31 482.225 162.682L482.222 162.685Z" fill="#D9D9D9"/>
<path d="M421.824 144.886C422.839 144.722 423.607 145.324 423.7 146.33C424.198 151.69 423.313 157.804 423.698 163.243C423.474 165.108 420.79 165.145 420.584 162.822C420.123 157.621 420.943 151.746 420.589 146.474C420.674 145.731 421.016 145.016 421.827 144.883L421.824 144.886Z" fill="#D9D9D9"/>
<path d="M548.347 157.674C548.107 160.31 549.511 163.331 552.266 163.978C554.018 164.39 556.208 163.964 557.38 162.531C558.019 161.748 558.036 160.598 559.047 160.519C559.98 160.446 559.067 161.994 558.818 162.418C557.194 165.159 553.506 165.747 550.715 164.54C545.168 162.141 545.903 150.975 552.515 150.353C557.476 149.887 560.019 152.873 559.782 157.677H548.347V157.674ZM548.347 156.688H558.299C558.813 155.939 558.251 154.405 557.827 153.636C556.79 151.746 554.995 151.184 552.927 151.328C550.316 151.511 548.177 154.091 548.344 156.688H548.347Z" fill="#D9D9D9"/>
<path d="M530.132 164.021L530.005 164.801C528.199 165.23 527.824 164.08 527.527 162.608C526.719 163.411 526.162 164.213 525.054 164.651C521.992 165.858 517.731 164.951 517.852 160.995C517.92 158.799 519.488 157.768 521.415 157.214C523.834 156.522 528.236 157.053 527.564 153.414C527.117 150.998 522.972 150.876 521.285 151.874C520.053 152.6 519.847 154.555 519.7 154.66C519.403 154.872 518.539 154.841 518.567 154.247C518.736 150.707 523.625 149.554 526.38 150.656C530.44 152.278 528.332 159.63 528.877 163.097C528.979 163.744 529.51 164.06 530.135 164.027L530.132 164.021ZM527.595 156.689C527.041 156.821 526.606 157.152 526.046 157.324C523.78 158.022 519.109 157.709 519.115 161.125C519.118 164.789 524.029 164.77 526.173 162.944C526.6 162.583 527.597 161.221 527.597 160.704V156.689H527.595Z" fill="#D9D9D9"/>
<path d="M499.468 150.387C505.947 149.455 508.659 155.728 506.667 161.093C505.331 164.699 501.547 166.03 498.061 164.538C492.7 162.241 493.333 151.272 499.468 150.387ZM504.251 162.837C507.086 160.003 506.616 152.227 502.05 151.399C494.153 149.966 493.763 162.681 499.586 164.001C501.146 164.354 503.096 163.992 504.251 162.837Z" fill="#D9D9D9"/>
<path d="M489.76 146.123V150.562L489.972 150.774H492.512C492.801 150.774 492.801 151.76 492.512 151.76H489.972L489.76 151.972V162.116C489.76 162.198 490.037 162.918 490.114 163.031C490.69 163.854 491.863 163.548 492.724 163.596L492.592 164.52C490.303 164.848 488.836 164.289 488.624 161.839C488.353 158.691 488.853 155.179 488.61 151.992C488.463 151.548 487.068 151.842 486.652 151.763V150.774C486.785 150.641 488.381 151.011 488.63 150.562V146.123H489.76Z" fill="#D9D9D9"/>
<path d="M517.145 150.249L517.182 151.427C514.687 151.147 512.339 152.464 511.61 154.614C511.559 154.764 511.361 155.549 511.361 155.631V164.577H510.09V150.489C510.517 150.528 511.059 150.33 511.361 150.701V153.306C511.627 153.365 511.698 153.252 511.763 153.071C512.079 152.161 512.814 150.963 514.868 150.458C515.399 150.328 517.148 150.249 517.148 150.249H517.145Z" fill="#D9D9D9"/>
</g>
<g clip-path="url(#clip4_84_20)">
<path d="M715.046 21.5426C715.123 21.0887 715.613 20.4057 716.128 20.3506L725.925 20.4036C727.662 21.1375 728.217 23.3135 727.059 24.8236C726.807 25.1524 726.007 25.7696 725.606 25.7696H719.157L718.968 25.9584V28.7347L719.157 28.9234H727.314V30.0581H718.904C718.631 30.0581 718.016 29.3052 717.963 28.9786C717.876 28.4292 717.871 26.2553 717.963 25.7123C718.064 25.0973 718.546 24.6985 719.155 24.6306C720.966 24.4292 723.14 24.8024 724.979 24.6391C726.166 24.5352 726.705 23.8947 726.542 22.69C726.478 22.2213 725.967 21.481 725.479 21.481H716.185L716.17 29.8609C716.096 30.1684 715.182 30.1451 715.046 29.8715V21.5447V21.5426Z" fill="#D9D9D9"/>
<path d="M759.683 30.0588L758.881 30.0397L758.671 29.87V26.4638L758.482 26.275H749.377C749.046 26.0057 749.222 25.52 749.188 25.1403H758.482L758.671 24.9515V21.6704L758.482 21.4817H748.366L748.177 21.6704V30.0609H747.165V21.4181C747.165 20.8709 747.96 20.3873 748.486 20.3406C751.7 20.0458 755.354 20.576 758.614 20.3406C758.911 20.2515 759.683 21.0299 759.683 21.1657V30.0609V30.0588Z" fill="#D9D9D9"/>
<path d="M779.284 30.0584V23.2459L780.086 23.265L780.296 23.4347V28.7349L780.484 28.9237H787.819C789.375 28.9237 790.801 26.6437 790.801 25.2014C790.801 23.7592 789.464 21.4792 787.946 21.4792H779.284V20.3445H788.198C788.444 20.3445 789.553 20.932 789.821 21.1229C792.425 23.002 792.487 27.4263 789.821 29.28C789.575 29.4497 788.277 30.0605 788.073 30.0605H779.284V30.0584Z" fill="#D9D9D9"/>
<path d="M763.225 21.291C763.36 20.6102 764.319 20.0927 764.994 20.4108L774.283 28.8055L774.733 28.9264V20.3472H775.745V28.99C775.745 29.5711 774.495 30.4386 773.927 29.919L764.686 21.6028L764.236 21.4819V29.8723L764.026 30.042L763.225 30.0611V21.2931V21.291Z" fill="#D9D9D9"/>
<path d="M680.142 20.3445C680.104 20.6244 680.28 21.5131 679.943 21.5916C679.735 21.5534 679.542 21.4792 679.326 21.4749C677.101 21.4283 673.737 21.2438 671.62 21.4962C667.673 21.967 667.775 28.315 671.364 28.7901C671.722 28.8367 672.689 28.9279 672.997 28.9279H680.142V30.0626H671.733C667.485 30.0626 665.943 23.0805 669.96 20.8493C670.104 20.7687 671.039 20.3487 671.101 20.3487H680.142V20.3445Z" fill="#D9D9D9"/>
<path d="M711.632 20.3442C711.594 20.6241 711.77 21.5128 711.433 21.5913C711.225 21.5531 711.032 21.4789 710.816 21.4746C708.51 21.4258 705.456 21.2837 703.218 21.4746C700.421 21.7164 699.195 24.8575 700.527 27.1969C701.492 28.8937 703.11 28.8534 704.862 28.9276C707.11 29.0209 709.384 28.847 711.634 28.9212V30.0581H703.097C702.118 30.0581 700.661 29.0485 700.06 28.2934C698.438 26.2446 698.739 22.7408 700.892 21.1713C701.106 21.0144 702.425 20.342 702.591 20.342H711.632V20.3442Z" fill="#D9D9D9"/>
<path d="M652.575 20.3445V24.4443L652.764 24.633H662.88L663.069 24.4443V20.3445H664.081V30.0605H663.069V25.9607L662.88 25.772H652.511C652.341 25.772 651.563 24.9957 651.563 24.826V20.3466H652.575V20.3445Z" fill="#D9D9D9"/>
<path d="M684.569 20.3449L689.568 28.9241L689.791 28.7671L694.752 20.347L695.437 20.9324C695.505 21.1614 694.964 22.0183 694.813 22.3004C693.681 24.4213 692.177 27.0916 690.868 29.0895C690.279 29.9909 689.697 30.4597 688.688 29.6749L683.75 21.2208C683.422 20.9175 684.469 20.2749 684.569 20.3449Z" fill="#D9D9D9"/>
<path d="M732.117 20.3445V28.6098C732.117 28.6331 732.412 28.9258 732.434 28.9258H743.751L743.738 29.8527L743.435 30.0605L731.997 29.9926C731.655 29.8781 731.106 29.1952 731.106 28.8622V20.3445H732.117Z" fill="#D9D9D9"/>
<path d="M711.631 25.77H702.273V24.6353H711.442C711.773 24.9046 711.597 25.3903 711.631 25.77Z" fill="#D9D9D9"/>
<path d="M680.142 24.6328V25.7675H670.973C670.679 25.5151 670.679 24.8831 670.973 24.6328H680.142Z" fill="#D9D9D9"/>
<path d="M628.952 33C629.405 32.7561 629.836 32.4953 630.245 32.2217C630.731 31.9799 631.189 31.7211 631.622 31.4517C632.131 31.2163 632.61 30.9661 633.06 30.7052C633.586 30.4782 634.084 30.2407 634.544 29.9904C635.072 29.7804 635.569 29.5599 636.027 29.3287C636.453 29.1739 636.858 29.0105 637.238 28.8451C637.974 28.6118 638.644 28.3658 639.236 28.1049C639.834 27.9225 640.377 27.7337 640.863 27.5365C643.444 26.8323 644.928 25.9946 644.928 25.0847C644.928 24.1748 643.401 23.3116 640.75 22.6032C640.26 22.4081 639.717 22.2214 639.119 22.0433C638.523 21.7866 637.853 21.5448 637.117 21.3158C636.737 21.1525 636.334 20.9934 635.908 20.8407C635.448 20.6137 634.956 20.3974 634.428 20.1917C633.976 19.952 633.49 19.7229 632.977 19.5045C632.53 19.2479 632.05 19.004 631.543 18.7728C631.108 18.5055 630.648 18.2489 630.16 18.0092C629.749 17.7377 629.314 17.4769 628.856 17.2351C628.464 16.9551 628.052 16.6921 627.62 16.444C627.231 16.1428 626.822 15.8628 626.398 15.602C624.224 13.7737 621.42 12.6687 618.364 12.6687C615.308 12.6687 612.504 13.7737 610.33 15.602C609.906 15.8628 609.496 16.1428 609.108 16.444C608.678 16.6921 608.264 16.9551 607.874 17.2351C607.416 17.479 606.981 17.7377 606.569 18.0092C606.084 18.2489 605.623 18.5034 605.186 18.7728C604.682 19.004 604.202 19.2479 603.753 19.5045C603.239 19.7229 602.754 19.952 602.302 20.1917C601.774 20.3974 601.282 20.6159 600.822 20.8407C600.395 20.9934 599.992 21.1525 599.611 21.3158C598.875 21.5448 598.204 21.7887 597.608 22.0433C597.01 22.2214 596.467 22.4081 595.977 22.6032C593.324 23.3137 591.797 24.1621 591.797 25.0847C591.797 26.0073 593.28 26.8323 595.863 27.5365C596.349 27.7337 596.891 27.9246 597.49 28.1049C598.081 28.3658 598.749 28.6118 599.487 28.8451C599.867 29.0127 600.272 29.1739 600.699 29.3287C601.157 29.5599 601.653 29.7783 602.181 29.9904C602.641 30.2407 603.14 30.4782 603.666 30.7052C604.115 30.9661 604.595 31.2163 605.104 31.4517C605.536 31.7211 605.995 31.9799 606.48 32.2217C606.89 32.4953 607.32 32.7561 607.774 33C608.175 33.2906 608.599 33.5642 609.042 33.823C609.43 34.1284 609.842 34.4147 610.27 34.6819C612.453 36.5399 615.278 37.6661 618.362 37.6661C621.446 37.6661 624.271 36.542 626.453 34.6819C626.881 34.4147 627.291 34.1284 627.681 33.823C628.124 33.5663 628.549 33.2927 628.952 33ZM627.874 33.263C627.893 33.2397 627.912 33.2185 627.931 33.1952C627.991 33.174 628.052 33.1527 628.112 33.1315C628.097 33.1443 628.082 33.157 628.067 33.1718C628.003 33.2015 627.938 33.2333 627.872 33.263H627.874ZM618.362 35.2207C615.051 35.2207 611.971 34.5907 609.411 33.5112C609.365 33.4624 609.318 33.4115 609.271 33.3627C611.927 34.2387 615.038 34.7435 618.362 34.7435C621.685 34.7435 624.797 34.2387 627.452 33.3627C627.407 33.4136 627.359 33.4624 627.312 33.5112C624.752 34.5907 621.672 35.2207 618.362 35.2207ZM618.362 15.0632C621.643 15.0632 624.697 15.6847 627.244 16.7451C627.289 16.7918 627.333 16.8363 627.376 16.883C624.737 16.0219 621.653 15.5256 618.362 15.5256C615.07 15.5256 611.986 16.0219 609.348 16.883C609.39 16.8363 609.437 16.7918 609.479 16.7451C612.027 15.6826 615.081 15.0632 618.362 15.0632ZM618.362 15.778C621.798 15.778 625.002 16.321 627.702 17.2542C627.757 17.3199 627.815 17.3857 627.868 17.4535C625.072 16.6858 621.827 16.2425 618.362 16.2425C614.896 16.2425 611.651 16.6858 608.856 17.4535C608.911 17.3857 608.966 17.3199 609.021 17.2542C611.721 16.321 614.924 15.778 618.362 15.778ZM628.589 32.3404C628.642 32.2662 628.695 32.192 628.746 32.1156C628.915 32.0732 629.081 32.0308 629.248 31.9862C629.189 32.0541 629.13 32.1198 629.068 32.1877C628.909 32.2386 628.75 32.2895 628.589 32.3404ZM628.727 32.5525C628.68 32.5992 628.633 32.6437 628.587 32.6904C628.468 32.737 628.349 32.7816 628.228 32.8282C628.271 32.7731 628.315 32.7201 628.358 32.6649C628.481 32.6289 628.606 32.5907 628.727 32.5525ZM604.438 30.1771C604.376 30.1113 604.315 30.0456 604.258 29.9798C604.47 30.018 604.682 30.0541 604.898 30.0901C604.949 30.1643 605 30.2386 605.053 30.3107C604.845 30.2661 604.639 30.2216 604.438 30.1749V30.1771ZM602.985 29.4708C602.921 29.405 602.858 29.3393 602.798 29.2735C603.019 29.3096 603.242 29.3435 603.468 29.3775C603.522 29.4517 603.57 29.5259 603.625 29.598C603.409 29.5556 603.195 29.5132 602.985 29.4708ZM599.944 28.1261C598.981 27.1993 598.446 26.1833 598.446 25.1207C598.446 24.0582 599.012 22.9765 600.035 22.0263C600.272 21.9881 600.512 21.9499 600.756 21.9139C599.929 22.9107 599.471 23.9945 599.471 25.1292C599.471 26.2639 599.897 27.2735 600.671 28.2428C600.423 28.2046 600.183 28.1664 599.944 28.1282V28.1261ZM597.167 25.1123C597.167 24.0772 597.821 23.0931 598.989 22.2023C599.201 22.1642 599.42 22.126 599.64 22.0878C598.709 23.0253 598.194 24.0475 598.194 25.1186C598.194 26.1897 598.679 27.1462 599.553 28.0604C599.326 28.0222 599.104 27.9819 598.885 27.9437C597.782 27.0741 597.167 26.1176 597.167 25.1123ZM603.708 20.5819C603.655 20.6519 603.602 20.7219 603.551 20.7919C603.331 20.8237 603.112 20.8577 602.898 20.8916C602.955 20.8301 603.013 20.7686 603.074 20.7071C603.284 20.6646 603.494 20.6222 603.71 20.5819H603.708ZM605.125 19.8841C605.074 19.952 605.027 20.022 604.979 20.092C604.769 20.1259 604.559 20.162 604.353 20.198C604.408 20.1365 604.465 20.075 604.523 20.0135C604.72 19.969 604.921 19.9266 605.125 19.882V19.8841ZM618.362 17.2096C622.067 17.2096 625.537 17.6147 628.512 18.3168C628.574 18.408 628.631 18.5013 628.691 18.5925C625.626 18.005 622.105 17.6699 618.364 17.6699C614.622 17.6699 611.102 18.005 608.037 18.5925C608.096 18.5013 608.154 18.4058 608.215 18.3168C611.191 17.6147 614.661 17.2096 618.366 17.2096H618.362ZM608.423 18.0198C608.482 17.9371 608.542 17.8565 608.601 17.7759C611.441 16.9636 614.786 16.4949 618.362 16.4949C621.938 16.4949 625.28 16.9657 628.122 17.7759C628.184 17.8565 628.241 17.9392 628.3 18.0198C625.365 17.3433 621.974 16.9551 618.362 16.9551C614.75 16.9551 611.358 17.3433 608.423 18.0198ZM632.201 20.0156C632.258 20.0771 632.313 20.1387 632.37 20.2002C632.165 20.1641 631.957 20.128 631.745 20.0941C631.696 20.0241 631.649 19.9541 631.598 19.8863C631.802 19.9287 632.001 19.9732 632.199 20.0178L632.201 20.0156ZM633.654 20.7071C633.715 20.7686 633.77 20.8301 633.83 20.8916C633.615 20.8577 633.397 20.8237 633.176 20.7919C633.125 20.7219 633.072 20.6519 633.019 20.5819C633.236 20.6222 633.446 20.6646 633.656 20.7071H633.654ZM637.842 27.9437C637.624 27.984 637.401 28.0222 637.174 28.0604C638.05 27.1462 638.534 26.1558 638.534 25.1186C638.534 24.0815 638.016 23.0253 637.087 22.0878C637.31 22.126 637.526 22.1642 637.738 22.2023C638.905 23.0931 639.56 24.0772 639.56 25.1123C639.56 26.1473 638.947 27.0741 637.842 27.9437ZM638.281 25.1207C638.281 26.1855 637.747 27.1993 636.784 28.1261C636.544 28.1643 636.303 28.2046 636.057 28.2406C636.831 27.2714 637.257 26.2215 637.257 25.1271C637.257 24.0327 636.799 22.9107 635.972 21.9118C636.218 21.9478 636.455 21.986 636.693 22.0242C637.715 22.9744 638.281 24.02 638.281 25.1186V25.1207ZM633.1 29.598C633.155 29.5259 633.206 29.4517 633.257 29.3775C633.484 29.3435 633.707 29.3096 633.927 29.2735C633.866 29.3393 633.804 29.405 633.74 29.4708C633.531 29.5132 633.316 29.5578 633.1 29.598ZM631.673 30.3107C631.726 30.2386 631.777 30.1643 631.828 30.0901C632.044 30.0541 632.258 30.018 632.468 29.9798C632.411 30.0456 632.347 30.1113 632.288 30.1771C632.086 30.2237 631.88 30.2683 631.673 30.3128V30.3107ZM629.261 31.2757C629.318 31.176 629.374 31.0742 629.427 30.9724C629.658 30.9342 629.887 30.8961 630.112 30.8536C630.05 30.947 629.989 31.0403 629.923 31.1315C629.704 31.1803 629.484 31.2291 629.261 31.2736V31.2757ZM629.704 31.4242C629.641 31.5069 629.577 31.5896 629.511 31.6723C629.323 31.7232 629.13 31.772 628.937 31.8187C628.994 31.7296 629.049 31.6405 629.104 31.5493C629.306 31.509 629.507 31.4666 629.704 31.4242ZM618.362 18.6413C622.283 18.6413 625.974 18.9318 629.185 19.4409C629.238 19.5405 629.291 19.6424 629.34 19.7442C626.067 19.3327 622.341 19.1015 618.36 19.1015C614.379 19.1015 610.654 19.3327 607.38 19.7442C607.43 19.6424 607.481 19.5405 607.534 19.4409C610.748 18.9318 614.436 18.6413 618.357 18.6413H618.362ZM607.685 19.1779C607.742 19.0761 607.799 18.9743 607.859 18.8746C610.958 18.2722 614.542 17.9265 618.362 17.9265C622.181 17.9265 625.766 18.2722 628.865 18.8746C628.924 18.9743 628.981 19.0761 629.038 19.1779C625.853 18.6752 622.218 18.3889 618.36 18.3889C614.502 18.3889 610.866 18.6752 607.681 19.1779H607.685ZM629.834 30.124C629.88 30.0159 629.925 29.9035 629.97 29.7932C630.245 29.7635 630.519 29.7338 630.788 29.702C630.735 29.8059 630.68 29.9098 630.623 30.0138C630.362 30.0519 630.099 30.088 629.834 30.124ZM630.462 30.3022C630.406 30.3955 630.351 30.491 630.292 30.5822C630.052 30.6267 629.808 30.6691 629.562 30.7094C629.613 30.6076 629.66 30.5079 629.709 30.404C629.963 30.3701 630.213 30.3361 630.462 30.3001V30.3022ZM603.558 25.1504C603.558 23.8503 603.874 22.6053 604.453 21.4494C604.739 21.4197 605.027 21.39 605.32 21.3624C604.845 22.5544 604.582 23.8291 604.582 25.1568C604.582 26.4845 604.822 27.651 605.259 28.7985C604.964 28.7709 604.675 28.7412 604.387 28.7115C603.85 27.5959 603.555 26.3975 603.555 25.1504H603.558ZM604.098 28.6797C603.812 28.6479 603.528 28.6161 603.248 28.5842C602.622 27.5089 602.281 26.3509 602.281 25.142C602.281 23.933 602.652 22.6838 603.326 21.5724C603.602 21.5406 603.882 21.5088 604.164 21.4791C603.611 22.6286 603.307 23.863 603.307 25.1483C603.307 26.4336 603.589 27.5683 604.098 28.6797ZM604.837 25.1568C604.837 23.8185 605.108 22.5311 605.604 21.3349C605.897 21.3073 606.192 21.2818 606.491 21.2564C606.086 22.4865 605.863 23.7994 605.863 25.1632C605.863 26.5269 606.065 27.721 606.436 28.9024C606.137 28.8769 605.84 28.8515 605.545 28.8239C605.089 27.6701 604.839 26.4378 604.839 25.1547L604.837 25.1568ZM618.362 20.0708C622.428 20.0708 626.305 20.2765 629.738 20.6392C629.781 20.7474 629.827 20.8555 629.868 20.9658C626.404 20.688 622.508 20.5331 618.362 20.5331C614.215 20.5331 610.319 20.688 606.856 20.9658C606.896 20.8555 606.94 20.7474 606.985 20.6392C610.421 20.2765 614.298 20.0708 618.362 20.0708ZM607.102 20.3529C607.148 20.2426 607.199 20.1344 607.25 20.0262C610.567 19.5999 614.351 19.3581 618.364 19.3581C622.377 19.3581 626.158 19.5999 629.478 20.0262C629.528 20.1344 629.579 20.2426 629.626 20.3529C626.252 20.0114 622.436 19.8205 618.366 19.8205C614.296 19.8205 610.478 20.0114 607.106 20.3529H607.102ZM633.168 25.1504C633.168 26.3975 632.873 27.5959 632.337 28.7115C632.048 28.7412 631.757 28.7709 631.465 28.7985C631.902 27.651 632.141 26.4272 632.141 25.1568C632.141 23.8864 631.878 22.5544 631.403 21.3624C631.696 21.39 631.984 21.4197 632.271 21.4494C632.85 22.6053 633.166 23.8503 633.166 25.1504H633.168ZM632.563 21.4791C632.846 21.5088 633.123 21.5406 633.399 21.5724C634.071 22.6817 634.445 23.8842 634.445 25.142C634.445 26.3997 634.103 27.5089 633.478 28.5842C633.198 28.6182 632.913 28.65 632.627 28.6797C633.138 27.5704 633.418 26.3827 633.418 25.1483C633.418 23.9139 633.115 22.6265 632.561 21.4791H632.563ZM631.889 25.1568C631.889 26.44 631.639 27.6722 631.183 28.826C630.888 28.8536 630.591 28.8791 630.292 28.9045C630.663 27.7231 630.865 26.4675 630.865 25.1653C630.865 23.863 630.642 22.4887 630.237 21.2585C630.536 21.284 630.831 21.3094 631.123 21.337C631.617 22.5332 631.891 23.8185 631.891 25.1589L631.889 25.1568ZM631.075 29.0954C631.03 29.1993 630.979 29.3032 630.932 29.4072C630.652 29.4411 630.372 29.4729 630.086 29.5047C630.126 29.3944 630.165 29.2841 630.201 29.1717C630.495 29.1463 630.786 29.123 631.075 29.0954ZM630.016 28.9278C626.436 29.2226 622.472 29.3796 618.362 29.3796C614.251 29.3796 610.289 29.2226 606.707 28.9278C606.323 27.7422 606.113 26.4781 606.113 25.1653C606.113 23.8524 606.344 22.4696 606.764 21.2352C610.33 20.9425 614.273 20.7877 618.362 20.7877C622.451 20.7877 626.394 20.9425 629.959 21.2352C630.379 22.4696 630.61 23.7909 630.61 25.1653C630.61 26.5397 630.4 27.7422 630.016 28.9278ZM630.143 20.9892C630.105 20.881 630.065 20.7749 630.025 20.671C630.309 20.7028 630.589 20.7346 630.867 20.7665C630.915 20.864 630.96 20.9637 631.005 21.0655C630.72 21.0401 630.434 21.0146 630.143 20.9913V20.9892ZM606.582 20.9892C606.291 21.0125 606.005 21.0379 605.721 21.0634C605.765 20.9637 605.812 20.864 605.859 20.7665C606.137 20.7325 606.417 20.7007 606.701 20.671C606.661 20.7771 606.62 20.8831 606.582 20.9892ZM606.525 29.1717C606.563 29.282 606.599 29.3944 606.639 29.5047C606.353 29.4729 606.073 29.4411 605.793 29.4072C605.744 29.3032 605.695 29.2014 605.651 29.0954C605.939 29.1208 606.23 29.1463 606.525 29.1717ZM606.801 29.1951C610.279 29.4772 614.194 29.6341 618.364 29.6341C622.534 29.6341 626.449 29.4772 629.927 29.1951C629.887 29.3096 629.847 29.422 629.802 29.5344C626.351 29.9013 622.453 30.1092 618.364 30.1092C614.275 30.1092 610.376 29.8992 606.926 29.5344C606.883 29.422 606.841 29.3096 606.801 29.1951ZM618.362 30.3637C622.457 30.3637 626.296 30.1707 629.685 29.8229C629.639 29.9374 629.588 30.0498 629.537 30.1622C626.203 30.5928 622.398 30.8388 618.36 30.8388C614.321 30.8388 610.516 30.5928 607.182 30.1622C607.131 30.0498 607.08 29.9374 607.034 29.8229C610.423 30.1686 614.262 30.3637 618.357 30.3637H618.362ZM631.089 29.668C631.35 29.6362 631.609 29.6044 631.866 29.5705C631.808 29.6638 631.753 29.755 631.692 29.8462C631.444 29.8865 631.191 29.9268 630.937 29.965C630.99 29.8653 631.041 29.7656 631.092 29.6659L631.089 29.668ZM631.227 29.3711C631.272 29.2714 631.316 29.1696 631.359 29.0678C631.643 29.0402 631.923 29.0127 632.201 28.9851C632.152 29.0784 632.103 29.1717 632.05 29.2629C631.779 29.299 631.507 29.3351 631.229 29.369L631.227 29.3711ZM632.5 28.9554C632.769 28.9278 633.039 28.8981 633.302 28.8684C633.251 28.949 633.2 29.0318 633.145 29.1124C632.886 29.1505 632.623 29.1887 632.356 29.2269C632.404 29.1378 632.455 29.0487 632.5 28.9575V28.9554ZM633.62 28.8303C633.878 28.8006 634.133 28.7688 634.385 28.7369C634.332 28.8069 634.273 28.8727 634.218 28.9427C633.974 28.983 633.728 29.0233 633.478 29.0615C633.526 28.9851 633.575 28.9087 633.622 28.8324L633.62 28.8303ZM633.783 28.5482C634.375 27.4813 634.699 26.336 634.699 25.142C634.699 23.9479 634.351 22.7135 633.715 21.6106C633.984 21.6424 634.252 21.6763 634.515 21.7103C635.293 22.7707 635.726 23.9267 635.726 25.1356C635.726 26.3445 635.325 27.4156 634.6 28.4464C634.33 28.4824 634.059 28.5164 633.783 28.5503V28.5482ZM633.539 21.3285C633.495 21.2564 633.45 21.1822 633.403 21.1122C633.649 21.1503 633.891 21.1885 634.131 21.2288C634.186 21.2924 634.241 21.3561 634.292 21.4218C634.044 21.39 633.794 21.3603 633.539 21.3306V21.3285ZM633.223 21.2903C632.96 21.2606 632.695 21.2309 632.426 21.2034C632.381 21.1185 632.337 21.0316 632.288 20.9489C632.549 20.9849 632.807 21.021 633.062 21.0591C633.117 21.1355 633.172 21.2118 633.223 21.2903ZM632.122 21.1716C631.849 21.144 631.573 21.1164 631.295 21.091C631.253 20.9934 631.206 20.898 631.162 20.8025C631.437 20.8364 631.707 20.8704 631.976 20.9064C632.027 20.9934 632.076 21.0825 632.124 21.1716H632.122ZM631.019 20.5056C630.971 20.4101 630.92 20.3147 630.869 20.2192C631.119 20.2574 631.367 20.2956 631.611 20.3359C631.671 20.4229 631.73 20.5119 631.787 20.601C631.535 20.5692 631.28 20.5374 631.022 20.5056H631.019ZM630.714 20.4695C630.449 20.4398 630.182 20.4101 629.91 20.3804C629.866 20.2744 629.819 20.1683 629.77 20.0623C630.035 20.0984 630.298 20.1344 630.557 20.1726C630.612 20.2702 630.663 20.3698 630.714 20.4695ZM629.645 19.7845C629.598 19.6848 629.547 19.5893 629.497 19.4918C629.74 19.5321 629.98 19.5745 630.22 19.6169C630.277 19.706 630.33 19.7951 630.385 19.8841C630.141 19.8502 629.895 19.8163 629.645 19.7845ZM607.08 19.7845C606.832 19.8163 606.584 19.8502 606.34 19.8841C606.395 19.7951 606.448 19.7039 606.506 19.6169C606.743 19.5745 606.985 19.5321 607.227 19.4918C607.178 19.5893 607.127 19.6848 607.078 19.7845H607.08ZM606.955 20.0623C606.909 20.1683 606.86 20.2723 606.815 20.3804C606.544 20.408 606.277 20.4377 606.012 20.4695C606.065 20.3698 606.113 20.2702 606.168 20.1726C606.427 20.1344 606.69 20.0984 606.955 20.0623ZM605.706 20.5056C605.447 20.5353 605.193 20.5671 604.94 20.601C604.998 20.5119 605.055 20.4229 605.116 20.3359C605.36 20.2956 605.609 20.2574 605.859 20.2192C605.808 20.3147 605.755 20.4101 605.708 20.5056H605.706ZM605.564 20.8025C605.52 20.898 605.473 20.9934 605.43 21.091C605.15 21.1164 604.875 21.144 604.603 21.1716C604.652 21.0825 604.699 20.9934 604.752 20.9064C605.019 20.8704 605.29 20.8364 605.566 20.8025H605.564ZM604.3 21.2034C604.031 21.2309 603.765 21.2606 603.502 21.2903C603.553 21.2118 603.609 21.1355 603.664 21.0591C603.918 21.021 604.177 20.9849 604.438 20.9489C604.391 21.0337 604.345 21.1185 604.3 21.2034ZM603.186 21.3285C602.932 21.3582 602.682 21.3879 602.433 21.4197C602.487 21.3561 602.54 21.2903 602.595 21.2267C602.834 21.1864 603.076 21.1482 603.322 21.11C603.273 21.1822 603.231 21.2543 603.186 21.3264V21.3285ZM603.01 21.6106C602.374 22.7135 602.026 23.9033 602.026 25.142C602.026 26.3806 602.351 27.4813 602.942 28.5482C602.667 28.5142 602.395 28.4803 602.126 28.4443C601.401 27.4135 601 26.3 601 25.1335C601 23.967 601.432 22.7707 602.211 21.7081C602.474 21.6742 602.741 21.6403 603.01 21.6085V21.6106ZM603.106 28.8303C603.152 28.9066 603.199 28.983 603.25 29.0593C603 29.0212 602.752 28.9809 602.51 28.9406C602.453 28.8727 602.395 28.8048 602.342 28.7348C602.595 28.7666 602.849 28.7985 603.108 28.8281L603.106 28.8303ZM603.424 28.8663C603.687 28.896 603.956 28.9257 604.226 28.9533C604.27 29.0445 604.321 29.1314 604.37 29.2226C604.103 29.1866 603.84 29.1484 603.581 29.1081C603.526 29.0275 603.475 28.9469 603.424 28.8642V28.8663ZM604.527 28.9872C604.805 29.0148 605.085 29.0424 605.369 29.0699C605.411 29.1717 605.454 29.2714 605.5 29.3732C605.223 29.3393 604.949 29.3032 604.68 29.2672C604.627 29.176 604.578 29.0827 604.529 28.9893L604.527 28.9872ZM605.636 29.668C605.685 29.7677 605.738 29.8674 605.791 29.9671C605.536 29.9289 605.284 29.8886 605.036 29.8483C604.974 29.7571 604.919 29.6638 604.862 29.5726C605.119 29.6065 605.375 29.6383 605.638 29.6702L605.636 29.668ZM605.935 29.7041C606.205 29.7359 606.478 29.7656 606.754 29.7953C606.798 29.9056 606.843 30.0159 606.89 30.1262C606.622 30.0901 606.359 30.0541 606.101 30.0159C606.043 29.9119 605.988 29.8101 605.935 29.7041ZM607.017 30.404C607.063 30.5058 607.112 30.6076 607.163 30.7094C606.917 30.6691 606.673 30.6267 606.434 30.5822C606.376 30.4888 606.319 30.3955 606.264 30.3022C606.512 30.3383 606.762 30.3722 607.017 30.4061V30.404ZM607.312 30.4422C610.601 30.86 614.353 31.0933 618.362 31.0933C622.37 31.0933 626.122 30.86 629.412 30.4422C629.361 30.5482 629.306 30.6543 629.251 30.7582C626.022 31.2757 622.309 31.5705 618.362 31.5705C614.415 31.5705 610.701 31.2757 607.473 30.7582C607.418 30.6522 607.363 30.5482 607.312 30.4422ZM618.362 31.8229C622.249 31.8229 625.912 31.5323 629.115 31.0212C629.055 31.1272 628.994 31.2333 628.932 31.3372C625.819 31.948 622.209 32.298 618.362 32.298C614.514 32.298 610.905 31.9459 607.791 31.3372C607.73 31.2333 607.668 31.1272 607.609 31.0212C610.811 31.5323 614.474 31.8229 618.362 31.8229ZM630.459 30.79C630.669 30.7518 630.875 30.7115 631.081 30.6712C631.015 30.7518 630.947 30.8303 630.877 30.9109C630.682 30.9597 630.485 31.0085 630.283 31.0551C630.343 30.9682 630.404 30.8812 630.459 30.7921V30.79ZM630.623 30.5207C630.676 30.4316 630.731 30.3446 630.782 30.2534C631.017 30.2195 631.251 30.1834 631.48 30.1453C631.422 30.2258 631.363 30.3064 631.301 30.387C631.079 30.4316 630.852 30.4761 630.621 30.5207H630.623ZM632.023 29.7932C632.078 29.7062 632.133 29.6193 632.184 29.5302C632.43 29.4962 632.674 29.4623 632.913 29.4284C632.852 29.509 632.788 29.5896 632.725 29.668C632.493 29.7105 632.258 29.7529 632.02 29.7932H632.023ZM634.309 29.212C634.506 29.1781 634.701 29.1463 634.892 29.1124C634.837 29.1611 634.786 29.2099 634.729 29.2566C634.542 29.299 634.349 29.3414 634.156 29.3838C634.207 29.3266 634.258 29.2693 634.309 29.212ZM634.585 28.8769C634.631 28.8154 634.674 28.7539 634.72 28.6903C634.96 28.6585 635.195 28.6267 635.427 28.5927C635.376 28.6457 635.325 28.6988 635.272 28.7518C635.047 28.7942 634.818 28.8345 634.585 28.8748V28.8769ZM634.926 28.4018C635.605 27.3817 635.976 26.2809 635.976 25.1335C635.976 23.986 635.575 22.8047 634.848 21.7527C635.106 21.7866 635.361 21.8227 635.611 21.8587C636.504 22.8662 637 23.9691 637 25.125C637 26.2809 636.534 27.3096 635.696 28.2915C635.442 28.3297 635.185 28.3658 634.924 28.3997L634.926 28.4018ZM635.711 21.6127C635.673 21.5703 635.63 21.53 635.59 21.4876C635.798 21.5279 636.004 21.5682 636.205 21.6106C636.245 21.6424 636.288 21.6742 636.326 21.706C636.125 21.6742 635.919 21.6445 635.711 21.6127ZM635.327 21.5576C635.1 21.5257 634.871 21.4939 634.638 21.4642C634.593 21.4049 634.546 21.3476 634.5 21.2903C634.731 21.3306 634.96 21.3709 635.183 21.4112C635.232 21.46 635.278 21.5088 635.325 21.5576H635.327ZM634.222 20.9552C634.173 20.9001 634.12 20.847 634.071 20.794C634.26 20.8343 634.445 20.8746 634.629 20.917C634.684 20.9616 634.74 21.0061 634.793 21.0528C634.606 21.0188 634.415 20.987 634.224 20.9552H634.222ZM632.829 20.741C632.591 20.7071 632.351 20.6731 632.105 20.6413C632.054 20.5586 632.006 20.4738 631.95 20.391C632.184 20.4313 632.413 20.4716 632.64 20.5119C632.703 20.5883 632.767 20.6625 632.826 20.741H632.829ZM631.399 20.0368C631.17 20.0008 630.939 19.9647 630.706 19.9308C630.657 19.846 630.606 19.7611 630.553 19.6763C630.778 19.7187 631 19.7611 631.219 19.8057C631.278 19.882 631.34 19.9584 631.397 20.0347L631.399 20.0368ZM630.381 19.4069C630.326 19.3221 630.271 19.2394 630.211 19.1567C630.409 19.2012 630.602 19.25 630.795 19.2966C630.862 19.373 630.93 19.4472 630.994 19.5236C630.792 19.4833 630.587 19.4451 630.379 19.4069H630.381ZM630.035 19.3433C629.813 19.303 629.59 19.2648 629.363 19.2288C629.31 19.1312 629.253 19.0358 629.197 18.9382C629.418 18.9827 629.632 19.0294 629.847 19.0761C629.91 19.1651 629.974 19.2542 630.035 19.3433ZM629.034 18.6625C628.981 18.5755 628.924 18.4907 628.869 18.4037C629.058 18.4504 629.248 18.4992 629.433 18.5479C629.497 18.6264 629.562 18.7049 629.624 18.7834C629.429 18.741 629.231 18.7028 629.034 18.6625ZM607.691 18.6625C607.494 18.7028 607.295 18.741 607.102 18.7834C607.163 18.7028 607.229 18.6264 607.293 18.5479C607.477 18.4992 607.668 18.4504 607.857 18.4037C607.802 18.4907 607.744 18.5755 607.691 18.6625ZM607.53 18.9382C607.475 19.0358 607.418 19.1312 607.365 19.2288C607.138 19.2669 606.913 19.3051 606.692 19.3433C606.754 19.2542 606.818 19.1651 606.881 19.0761C607.095 19.0294 607.312 18.9827 607.53 18.9382ZM606.344 19.4069C606.139 19.4451 605.933 19.4833 605.729 19.5236C605.793 19.4472 605.863 19.373 605.929 19.2966C606.122 19.25 606.315 19.2012 606.512 19.1567C606.455 19.2394 606.4 19.3221 606.344 19.4069ZM606.173 19.6763C606.122 19.7611 606.071 19.8438 606.02 19.9308C605.787 19.9647 605.556 20.0008 605.326 20.0368C605.384 19.9584 605.445 19.8841 605.505 19.8078C605.725 19.7632 605.946 19.7208 606.173 19.6784V19.6763ZM604.773 20.391C604.72 20.4738 604.669 20.5565 604.618 20.6413C604.374 20.6731 604.135 20.7071 603.895 20.741C603.954 20.6646 604.018 20.5883 604.081 20.5119C604.308 20.4716 604.537 20.4313 604.771 20.391H604.773ZM602.504 20.9552C602.31 20.987 602.122 21.0188 601.935 21.0528C601.988 21.0061 602.043 20.9616 602.098 20.917C602.281 20.8746 602.467 20.8343 602.656 20.794C602.605 20.847 602.552 20.9001 602.506 20.9552H602.504ZM602.226 21.2882C602.179 21.3455 602.132 21.4049 602.088 21.4621C601.855 21.4918 601.625 21.5236 601.399 21.5554C601.447 21.5067 601.492 21.4579 601.541 21.4091C601.765 21.3667 601.992 21.3264 602.224 21.2882H602.226ZM601.015 21.6127C600.807 21.6424 600.601 21.6742 600.4 21.706C600.438 21.6742 600.48 21.6424 600.52 21.6106C600.722 21.5682 600.928 21.5279 601.135 21.4876C601.095 21.53 601.055 21.5703 601.015 21.6127ZM599.723 25.1271C599.723 23.9712 600.219 22.8683 601.112 21.8609C601.365 21.8248 601.617 21.7887 601.876 21.7548C601.148 22.8068 600.747 23.9457 600.747 25.1356C600.747 26.3254 601.119 27.3817 601.797 28.404C601.536 28.3679 601.28 28.3318 601.025 28.2958C600.187 27.3138 599.721 26.247 599.721 25.1292L599.723 25.1271ZM602.005 28.6924C602.05 28.7539 602.092 28.8175 602.141 28.879C601.908 28.8388 601.681 28.7985 601.454 28.756C601.401 28.703 601.35 28.65 601.299 28.597C601.53 28.6288 601.765 28.6627 602.005 28.6945V28.6924ZM602.417 29.212C602.465 29.2693 602.516 29.3266 602.569 29.3838C602.376 29.3414 602.185 29.299 601.997 29.2566C601.939 29.2078 601.888 29.159 601.833 29.1124C602.024 29.1463 602.219 29.1802 602.417 29.212ZM603.81 29.4284C604.05 29.4623 604.294 29.4962 604.54 29.5302C604.593 29.6193 604.646 29.7062 604.701 29.7932C604.463 29.7529 604.228 29.7105 603.997 29.668C603.933 29.5874 603.869 29.509 603.808 29.4284H603.81ZM605.244 30.1474C605.473 30.1834 605.706 30.2195 605.942 30.2555C605.992 30.3446 606.048 30.4337 606.101 30.5228C605.872 30.4804 605.645 30.4358 605.42 30.3892C605.358 30.3086 605.301 30.228 605.242 30.1474H605.244ZM606.266 30.79C606.323 30.8791 606.383 30.9661 606.442 31.053C606.241 31.0064 606.043 30.9576 605.848 30.9088C605.78 30.8303 605.71 30.7497 605.645 30.6712C605.848 30.7115 606.056 30.7518 606.266 30.79ZM606.612 30.8536C606.837 30.8939 607.066 30.9321 607.297 30.9703C607.35 31.0721 607.405 31.1739 607.462 31.2736C607.237 31.2269 607.019 31.1803 606.801 31.1315C606.735 31.0403 606.675 30.947 606.612 30.8536ZM607.621 31.5493C607.676 31.6405 607.732 31.7296 607.789 31.8187C607.596 31.7699 607.403 31.7232 607.214 31.6723C607.148 31.5896 607.085 31.5069 607.021 31.4242C607.218 31.4666 607.42 31.509 607.621 31.5493ZM607.959 31.6172C611.042 32.2132 614.589 32.5546 618.362 32.5546C622.135 32.5546 625.681 32.2132 628.765 31.6172C628.703 31.7147 628.642 31.8123 628.578 31.9078C625.59 32.6204 622.095 33.0319 618.362 33.0319C614.629 33.0319 611.134 32.6204 608.145 31.9078C608.082 31.8123 608.02 31.7147 607.959 31.6172ZM618.362 33.2842C622.005 33.2842 625.422 32.8897 628.377 32.2026C628.317 32.2874 628.258 32.3744 628.194 32.4571C625.337 33.2821 621.969 33.7615 618.362 33.7615C614.754 33.7615 611.386 33.2821 608.529 32.4571C608.468 32.3744 608.408 32.2874 608.347 32.2026C611.299 32.8897 614.718 33.2842 618.362 33.2842ZM629.668 31.8781C629.798 31.842 629.923 31.8038 630.05 31.7678C630.003 31.8102 629.957 31.8547 629.91 31.8971C629.787 31.9417 629.664 31.9883 629.539 32.0329C629.581 31.982 629.626 31.9311 629.668 31.8781ZM629.921 31.5557C629.976 31.4836 630.031 31.4115 630.084 31.3393C630.258 31.299 630.432 31.2587 630.604 31.2184C630.542 31.2842 630.476 31.3499 630.413 31.4136C630.252 31.4624 630.086 31.509 629.923 31.5557H629.921ZM631.032 31.1124C631.166 31.0785 631.297 31.0424 631.429 31.0085C631.382 31.0488 631.335 31.0912 631.289 31.1315C631.162 31.1739 631.034 31.2184 630.903 31.2609C630.947 31.2121 630.99 31.1612 631.032 31.1124ZM631.297 30.8006C631.352 30.7328 631.407 30.6628 631.46 30.5928C631.643 30.5546 631.821 30.5164 631.999 30.4761C631.936 30.5397 631.872 30.6034 631.806 30.6649C631.641 30.7115 631.469 30.7561 631.297 30.8006ZM632.438 30.3764C632.578 30.3425 632.718 30.3107 632.858 30.2767C632.807 30.317 632.759 30.3595 632.708 30.3998C632.576 30.4401 632.44 30.4804 632.307 30.5207C632.353 30.474 632.396 30.4252 632.44 30.3764H632.438ZM632.71 30.0774C632.756 30.0222 632.801 29.965 632.848 29.9098C633.032 29.8759 633.217 29.8398 633.397 29.8038C633.346 29.8504 633.299 29.8971 633.246 29.9438C633.07 29.9883 632.892 30.0328 632.71 30.0774ZM633.847 29.7126C633.989 29.6829 634.131 29.6532 634.271 29.6214C634.237 29.6468 634.201 29.6702 634.169 29.6956C634.027 29.7359 633.885 29.7762 633.74 29.8144C633.777 29.7804 633.815 29.7465 633.849 29.7126H633.847ZM634.795 29.5047C634.822 29.4984 634.848 29.492 634.875 29.4856C634.843 29.4962 634.814 29.5047 634.782 29.5153C634.786 29.5111 634.79 29.509 634.795 29.5047ZM635.331 29.0296C635.488 28.9999 635.643 28.9703 635.796 28.9406C635.755 28.9681 635.715 28.9957 635.675 29.0233C635.522 29.0636 635.367 29.1017 635.21 29.1399C635.251 29.1017 635.293 29.0657 635.331 29.0296ZM635.677 28.6776C635.719 28.633 635.762 28.5864 635.802 28.5418C636.014 28.51 636.222 28.4782 636.428 28.4464C636.388 28.4803 636.349 28.5164 636.309 28.5503C636.103 28.5927 635.891 28.6351 635.679 28.6776H635.677ZM636.854 28.3785C637.028 28.3488 637.2 28.3212 637.369 28.2915C637.35 28.3043 637.329 28.317 637.31 28.3318C637.134 28.3721 636.954 28.4146 636.771 28.4549C636.799 28.4294 636.829 28.4061 636.854 28.3806V28.3785ZM639.813 25.1123C639.813 24.1133 639.238 23.161 638.205 22.2893C638.398 22.3253 638.589 22.3635 638.776 22.4017C640.099 23.2246 640.839 24.1409 640.839 25.1059C640.839 26.0709 640.139 26.9384 638.882 27.7443C638.689 27.7846 638.494 27.8228 638.292 27.861C639.27 27.0105 639.815 26.0836 639.815 25.1123H639.813ZM637.246 21.8545C637.083 21.8269 636.918 21.7993 636.752 21.7718C636.729 21.7506 636.708 21.7315 636.684 21.7103C636.86 21.7484 637.036 21.7866 637.206 21.8269C637.221 21.8354 637.234 21.846 637.249 21.8545H637.246ZM635.675 21.2161C635.528 21.1885 635.38 21.1588 635.229 21.1313C635.193 21.0973 635.157 21.0655 635.121 21.0316C635.272 21.0676 635.422 21.1058 635.571 21.1419C635.607 21.1652 635.641 21.1906 635.677 21.214L635.675 21.2161ZM636.192 21.3094C636.245 21.3243 636.298 21.3391 636.349 21.3518C636.303 21.3412 636.256 21.3327 636.211 21.3243C636.205 21.32 636.199 21.3137 636.192 21.3094ZM634.152 20.548C634.018 20.5183 633.883 20.4907 633.747 20.4632C633.715 20.4335 633.683 20.4038 633.651 20.372C633.791 20.4101 633.929 20.4483 634.067 20.4865C634.095 20.5077 634.124 20.5268 634.152 20.548ZM633.297 20.372C633.121 20.338 632.943 20.3041 632.763 20.2702C632.718 20.2171 632.672 20.1662 632.625 20.1132C632.803 20.1556 632.979 20.198 633.153 20.2426C633.202 20.285 633.248 20.3295 633.297 20.372ZM632.354 19.8163C632.311 19.7717 632.264 19.7272 632.22 19.6827C632.347 19.7208 632.479 19.7569 632.604 19.7951C632.655 19.8354 632.708 19.8735 632.759 19.9117C632.625 19.8799 632.489 19.8481 632.354 19.8163ZM631.902 19.7123C631.73 19.6742 631.554 19.6381 631.378 19.5999C631.325 19.5342 631.276 19.4684 631.221 19.4027C631.388 19.4472 631.556 19.4918 631.721 19.5363C631.783 19.5936 631.84 19.653 631.902 19.7123ZM630.949 19.093C630.909 19.0485 630.871 19.0018 630.828 18.9573C630.954 18.9976 631.077 19.0379 631.198 19.0782C631.242 19.1164 631.287 19.1545 631.331 19.1906C631.206 19.1567 631.077 19.1248 630.949 19.093ZM630.508 18.9849C630.343 18.9446 630.173 18.9064 630.003 18.8682C629.953 18.8003 629.902 18.7325 629.851 18.6646C630.012 18.7091 630.173 18.7537 630.33 18.8025C630.392 18.864 630.451 18.9234 630.508 18.9849ZM629.59 18.3422C629.55 18.2956 629.511 18.2468 629.471 18.2001C629.594 18.2425 629.713 18.2871 629.834 18.3316C629.876 18.3698 629.917 18.4101 629.959 18.4483C629.836 18.4122 629.715 18.3762 629.59 18.3422ZM629.166 18.2319C629.002 18.1895 628.839 18.1471 628.674 18.1068C628.625 18.0347 628.574 17.9647 628.523 17.8947C628.68 17.9414 628.837 17.9901 628.992 18.041C629.051 18.1047 629.111 18.1662 629.168 18.2319H629.166ZM628.281 17.5681C628.243 17.5172 628.203 17.4663 628.162 17.4154C628.281 17.4599 628.396 17.5044 628.512 17.549C628.555 17.5914 628.597 17.6317 628.64 17.6741C628.521 17.6381 628.402 17.602 628.281 17.566V17.5681ZM608.444 17.5681C608.323 17.6041 608.205 17.6402 608.086 17.6762C608.128 17.6338 608.171 17.5914 608.213 17.5511C608.33 17.5066 608.444 17.4599 608.563 17.4175C608.523 17.4684 608.482 17.5172 608.444 17.5702V17.5681ZM608.202 17.8947C608.152 17.9647 608.101 18.0347 608.052 18.1068C607.886 18.1471 607.723 18.1895 607.56 18.2319C607.617 18.1683 607.676 18.1047 607.736 18.041C607.891 17.9923 608.046 17.9435 608.202 17.8947ZM607.136 18.3422C607.01 18.3762 606.89 18.4122 606.767 18.4483C606.809 18.4101 606.849 18.3698 606.892 18.3316C607.013 18.2871 607.131 18.2425 607.254 18.2001C607.214 18.2468 607.176 18.2956 607.136 18.3422ZM606.875 18.6646C606.822 18.7325 606.773 18.8003 606.722 18.8682C606.552 18.9064 606.385 18.9446 606.217 18.9849C606.277 18.9234 606.336 18.8618 606.395 18.8025C606.552 18.7558 606.714 18.7113 606.875 18.6646ZM605.776 19.093C605.649 19.1248 605.519 19.1588 605.394 19.1906C605.439 19.1524 605.481 19.1142 605.528 19.0782C605.651 19.0379 605.774 18.9976 605.897 18.9573C605.855 19.0018 605.816 19.0485 605.776 19.093ZM605.505 19.4048C605.452 19.4706 605.401 19.5363 605.348 19.6021C605.172 19.6381 604.996 19.6763 604.824 19.7145C604.883 19.6551 604.943 19.5957 605.004 19.5384C605.17 19.4939 605.337 19.4493 605.505 19.4048ZM604.372 19.8163C604.236 19.8481 604.101 19.8799 603.967 19.9117C604.018 19.8714 604.071 19.8332 604.122 19.7951C604.247 19.7569 604.378 19.7208 604.506 19.6827C604.461 19.7272 604.417 19.7717 604.372 19.8163ZM604.101 20.1132C604.054 20.1662 604.007 20.2171 603.963 20.2702C603.782 20.3041 603.604 20.338 603.428 20.372C603.475 20.3295 603.524 20.285 603.572 20.2426C603.746 20.198 603.922 20.1556 604.101 20.1132ZM602.981 20.461C602.845 20.4886 602.709 20.5183 602.576 20.5459C602.603 20.5247 602.633 20.5056 602.661 20.4844C602.796 20.4462 602.936 20.408 603.076 20.3698C603.044 20.3995 603.013 20.4292 602.981 20.461ZM601.496 21.1313C601.345 21.1588 601.197 21.1864 601.051 21.2161C601.085 21.1928 601.121 21.1673 601.157 21.144C601.305 21.1058 601.454 21.0697 601.606 21.0337C601.57 21.0676 601.534 21.0994 601.498 21.1334L601.496 21.1313ZM600.514 21.3243C600.467 21.3327 600.421 21.3433 600.376 21.3518C600.427 21.337 600.48 21.3221 600.533 21.3094C600.527 21.3137 600.52 21.32 600.514 21.3243ZM599.973 21.7718C599.806 21.7993 599.64 21.8269 599.479 21.8545C599.494 21.846 599.507 21.8354 599.521 21.8269C599.691 21.7866 599.867 21.7484 600.043 21.7103C600.02 21.7315 599.997 21.7506 599.975 21.7718H599.973ZM596.913 25.1123C596.913 26.0836 597.458 27.0084 598.436 27.861C598.234 27.8228 598.037 27.7825 597.846 27.7443C596.588 26.9384 595.888 26.0455 595.888 25.1059C595.888 24.1663 596.629 23.2246 597.952 22.4017C598.139 22.3635 598.33 22.3275 598.523 22.2893C597.49 23.161 596.915 24.1133 596.915 25.1123H596.913ZM599.356 28.2894C599.526 28.3191 599.697 28.3488 599.871 28.3764C599.899 28.4018 599.927 28.4252 599.954 28.4506C599.772 28.4103 599.591 28.37 599.415 28.3276C599.396 28.3149 599.375 28.3022 599.356 28.2873V28.2894ZM600.298 28.4464C600.503 28.4782 600.711 28.51 600.923 28.5418C600.964 28.5885 601.006 28.633 601.049 28.6776C600.834 28.6351 600.624 28.5948 600.419 28.5503C600.376 28.5164 600.34 28.4803 600.3 28.4464H600.298ZM601.394 29.0296C601.432 29.0678 601.475 29.1039 601.515 29.1399C601.358 29.1017 601.203 29.0636 601.051 29.0233C601.01 28.9957 600.968 28.9681 600.93 28.9406C601.082 28.9703 601.237 28.9999 601.394 29.0296ZM602.457 29.6235C602.597 29.6532 602.737 29.685 602.881 29.7147C602.915 29.7486 602.953 29.7826 602.989 29.8165C602.845 29.7783 602.701 29.738 602.561 29.6977C602.527 29.6723 602.491 29.649 602.459 29.6235H602.457ZM601.944 29.5153C601.912 29.5047 601.882 29.4962 601.85 29.4856C601.878 29.492 601.903 29.4984 601.931 29.5047C601.935 29.509 601.939 29.5111 601.944 29.5153ZM603.329 29.8038C603.509 29.8398 603.693 29.8759 603.878 29.9098C603.925 29.965 603.967 30.0222 604.016 30.0774C603.833 30.035 603.655 29.9904 603.479 29.9438C603.428 29.8971 603.379 29.8504 603.329 29.8038ZM604.287 30.3764C604.332 30.4252 604.374 30.4719 604.421 30.5207C604.287 30.4804 604.151 30.4401 604.02 30.3998C603.969 30.3595 603.918 30.317 603.869 30.2767C604.007 30.3107 604.147 30.3446 604.289 30.3764H604.287ZM604.726 30.4761C604.904 30.5164 605.083 30.5546 605.265 30.5928C605.318 30.6628 605.373 30.7328 605.428 30.8006C605.259 30.7561 605.087 30.7115 604.919 30.6649C604.854 30.6013 604.79 30.5397 604.726 30.4761ZM605.693 31.1124C605.736 31.1612 605.778 31.2121 605.823 31.2609C605.691 31.2184 605.564 31.176 605.437 31.1315C605.388 31.0912 605.343 31.0488 605.297 31.0085C605.428 31.0445 605.56 31.0785 605.693 31.1124ZM606.122 31.2184C606.294 31.2609 606.465 31.3012 606.641 31.3393C606.695 31.4115 606.75 31.4836 606.805 31.5557C606.639 31.509 606.476 31.4624 606.315 31.4136C606.251 31.3478 606.185 31.2842 606.124 31.2184H606.122ZM607.057 31.8781C607.1 31.929 607.142 31.982 607.187 32.0329C607.061 31.9883 606.938 31.9438 606.815 31.8971C606.769 31.8547 606.722 31.8102 606.675 31.7678C606.803 31.8038 606.928 31.842 607.057 31.8781ZM607.477 31.9883C607.643 32.0308 607.81 32.0753 607.98 32.1177C608.031 32.1941 608.084 32.2683 608.137 32.3425C607.976 32.2938 607.816 32.2429 607.657 32.1898C607.596 32.1241 607.537 32.0562 607.477 31.9883ZM608.368 32.6628C608.41 32.718 608.455 32.771 608.497 32.8261C608.376 32.7816 608.258 32.7349 608.141 32.6883C608.094 32.6416 608.045 32.5971 608.001 32.5504C608.122 32.5886 608.245 32.6246 608.37 32.6607L608.368 32.6628ZM608.784 32.7816C611.594 33.5621 614.868 34.0138 618.364 34.0138C621.859 34.0138 625.132 33.5642 627.944 32.7816C627.889 32.8516 627.834 32.9216 627.777 32.9894C625.062 33.9375 621.831 34.4911 618.364 34.4911C614.896 34.4911 611.666 33.9375 608.951 32.9894C608.894 32.9216 608.841 32.8516 608.784 32.7816ZM629.172 32.4486C629.189 32.4295 629.206 32.4104 629.223 32.3913C629.284 32.3701 629.348 32.3489 629.41 32.3277C629.395 32.3404 629.382 32.351 629.367 32.3638C629.304 32.3913 629.236 32.4189 629.17 32.4465L629.172 32.4486ZM630.517 31.666C630.534 31.649 630.549 31.632 630.566 31.6151C630.633 31.5939 630.699 31.5726 630.767 31.5514C630.752 31.562 630.737 31.5726 630.725 31.5832C630.657 31.6108 630.587 31.6384 630.517 31.666ZM631.906 30.913C631.923 30.8961 631.94 30.8791 631.957 30.8643C632.027 30.8452 632.095 30.824 632.163 30.8027C632.148 30.8133 632.133 30.8218 632.12 30.8324C632.05 30.86 631.978 30.8876 631.908 30.913H631.906ZM633.323 30.2004C633.346 30.1813 633.369 30.1601 633.393 30.141C633.467 30.1219 633.541 30.1028 633.613 30.0837C633.596 30.0943 633.579 30.105 633.562 30.1156C633.482 30.1431 633.403 30.1728 633.321 30.2004H633.323ZM636.311 28.8366C636.392 28.8197 636.472 28.8027 636.553 28.7857C636.462 28.8112 636.371 28.8388 636.277 28.8642C636.288 28.8557 636.3 28.8472 636.311 28.8366ZM641.09 25.1059C641.09 24.1896 640.466 23.3179 639.34 22.5226C639.495 22.5565 639.645 22.5905 639.794 22.6244C641.28 23.3752 642.116 24.213 642.116 25.0995C642.116 25.9861 641.319 26.7857 639.895 27.5216C639.743 27.5577 639.586 27.5938 639.427 27.6277C640.498 26.8493 641.09 25.9988 641.09 25.108V25.1059ZM633.501 20.0984C633.431 20.0793 633.363 20.0623 633.293 20.0432C633.276 20.0284 633.257 20.0114 633.238 19.9966C633.314 20.022 633.389 20.0475 633.463 20.0729C633.475 20.0814 633.488 20.0899 633.499 20.0962L633.501 20.0984ZM632.048 19.3878C631.989 19.3709 631.929 19.3539 631.87 19.3369C631.855 19.3221 631.838 19.3072 631.821 19.2945C631.889 19.32 631.957 19.3454 632.025 19.3709C632.033 19.3772 632.042 19.3815 632.048 19.3878ZM630.659 18.6561C630.599 18.637 630.542 18.6179 630.483 18.601C630.47 18.5882 630.459 18.5755 630.447 18.5649C630.51 18.5904 630.572 18.6137 630.633 18.6391C630.642 18.6455 630.65 18.6519 630.659 18.6582V18.6561ZM629.325 17.8968C629.265 17.8777 629.206 17.8565 629.147 17.8374C629.134 17.8226 629.119 17.8077 629.106 17.7929C629.17 17.8205 629.234 17.8459 629.295 17.8735C629.306 17.882 629.314 17.8883 629.325 17.8968ZM628.031 17.1078C627.974 17.0866 627.916 17.0675 627.859 17.0484C627.844 17.0294 627.827 17.0124 627.81 16.9933C627.872 17.0209 627.933 17.0484 627.993 17.076C628.006 17.0866 628.018 17.0972 628.029 17.11L628.031 17.1078ZM626.799 16.2976C624.334 15.3538 621.448 14.8109 618.364 14.8109C615.28 14.8109 612.393 15.3538 609.929 16.2976C609.942 16.2849 609.956 16.2722 609.969 16.2595C612.357 15.0548 615.248 14.3485 618.364 14.3485C621.479 14.3485 624.372 15.0569 626.758 16.2595C626.771 16.2722 626.786 16.2849 626.799 16.2976ZM608.915 16.9933C608.898 17.0124 608.883 17.0294 608.866 17.0484C608.809 17.0675 608.752 17.0887 608.694 17.1078C608.707 17.0972 608.72 17.0845 608.733 17.0739C608.792 17.0463 608.856 17.0188 608.915 16.9912V16.9933ZM607.621 17.7929C607.609 17.8077 607.594 17.8226 607.581 17.8374C607.522 17.8565 607.462 17.8777 607.403 17.8968C607.413 17.8883 607.422 17.882 607.433 17.8735C607.494 17.8459 607.558 17.8205 607.621 17.7929ZM606.279 18.5628C606.266 18.5755 606.255 18.5882 606.243 18.601C606.183 18.6201 606.126 18.6391 606.067 18.6561C606.075 18.6498 606.084 18.6434 606.092 18.637C606.154 18.6116 606.217 18.5861 606.279 18.5628ZM604.904 19.2945C604.887 19.3094 604.87 19.3242 604.856 19.3369C604.796 19.3539 604.737 19.3709 604.677 19.3878C604.686 19.3815 604.694 19.3772 604.701 19.3709C604.769 19.3454 604.834 19.32 604.904 19.2945ZM603.488 19.9987C603.469 20.0135 603.452 20.0284 603.432 20.0453C603.362 20.0623 603.295 20.0814 603.225 20.1005C603.237 20.092 603.25 20.0835 603.261 20.0771C603.335 20.0517 603.409 20.0262 603.485 20.0008L603.488 19.9987ZM595.636 25.1059C595.636 25.9967 596.228 26.8472 597.299 27.6256C597.14 27.5895 596.983 27.5556 596.832 27.5195C595.409 26.7836 594.612 25.9628 594.612 25.0974C594.612 24.2321 595.445 23.3731 596.934 22.6223C597.082 22.5883 597.233 22.5544 597.388 22.5205C596.262 23.3158 595.638 24.1896 595.638 25.1038L595.636 25.1059ZM600.414 28.8366C600.425 28.8451 600.438 28.8536 600.448 28.8642C600.355 28.8388 600.264 28.8133 600.175 28.7857C600.255 28.8027 600.334 28.8197 600.414 28.8366ZM603.112 30.0816C603.184 30.1007 603.259 30.1198 603.333 30.1389C603.356 30.1601 603.379 30.1792 603.403 30.1983C603.32 30.1707 603.242 30.141 603.161 30.1134C603.144 30.1028 603.127 30.0922 603.11 30.0816H603.112ZM604.563 30.8027C604.633 30.8218 604.699 30.843 604.769 30.8643C604.786 30.8812 604.803 30.8982 604.82 30.913C604.747 30.8855 604.677 30.86 604.607 30.8324C604.593 30.8218 604.578 30.8133 604.565 30.8027H604.563ZM605.959 31.5514C606.026 31.5726 606.092 31.5939 606.16 31.6151C606.177 31.632 606.192 31.649 606.209 31.666C606.139 31.6384 606.069 31.6108 606.001 31.5832C605.986 31.5726 605.971 31.562 605.959 31.5514ZM607.316 32.3298C607.377 32.351 607.441 32.3722 607.502 32.3934C607.519 32.4125 607.536 32.4316 607.553 32.4507C607.488 32.4231 607.422 32.3956 607.356 32.368C607.341 32.3553 607.329 32.3447 607.314 32.3319L607.316 32.3298ZM608.614 33.1337C608.673 33.1549 608.735 33.1761 608.794 33.1973C608.813 33.2206 608.832 33.2418 608.851 33.2652C608.786 33.2355 608.722 33.2058 608.658 33.174C608.644 33.1612 608.629 33.1464 608.614 33.1337ZM609.848 33.9566C612.33 34.9195 615.244 35.4752 618.362 35.4752C621.479 35.4752 624.396 34.9195 626.875 33.9566C626.858 33.9735 626.841 33.9884 626.824 34.0054C624.423 35.2313 621.507 35.9524 618.362 35.9524C615.216 35.9524 612.298 35.2313 609.899 34.0054C609.882 33.9884 609.865 33.9735 609.848 33.9566ZM642.368 25.0974C642.368 24.3063 641.785 23.5576 640.718 22.8725C642.424 23.5449 643.395 24.2999 643.395 25.0911C643.395 25.8822 642.447 26.6202 640.776 27.2883C641.806 26.6139 642.371 25.8758 642.371 25.0995L642.368 25.0974ZM618.362 14.094C615.638 14.094 613.085 14.6306 610.879 15.5617C613.023 14.3442 615.596 13.6316 618.362 13.6316C621.127 13.6316 623.7 14.3442 625.844 15.5617C623.639 14.6306 621.085 14.094 618.362 14.094ZM594.357 25.0974C594.357 25.8737 594.921 26.6118 595.952 27.2862C594.281 26.6181 593.333 25.8716 593.333 25.0889C593.333 24.3063 594.302 23.5428 596.009 22.8704C594.942 23.5555 594.359 24.3063 594.359 25.0953L594.357 25.0974ZM618.362 36.2048C621.127 36.2048 623.719 35.6512 625.95 34.6925C623.785 35.9481 621.172 36.682 618.362 36.682C615.551 36.682 612.938 35.9481 610.775 34.6925C613.004 35.6512 615.596 36.2048 618.362 36.2048ZM644.672 25.0826C644.672 25.6849 643.83 26.2851 642.269 26.8408C643.162 26.2957 643.647 25.7061 643.647 25.0911C643.647 24.476 643.14 23.8588 642.209 23.3031C643.811 23.863 644.672 24.4739 644.672 25.0826ZM618.362 12.9169C620.716 12.9169 622.915 13.5849 624.784 14.7409C622.864 13.8734 620.68 13.3792 618.362 13.3792C616.044 13.3792 613.859 13.8734 611.94 14.7409C613.808 13.5849 616.007 12.9169 618.362 12.9169ZM592.054 25.0826C592.054 24.4717 592.917 23.863 594.518 23.3031C593.587 23.8588 593.08 24.459 593.08 25.0911C593.08 25.7231 593.566 26.2957 594.459 26.8429C592.898 26.2894 592.056 25.687 592.056 25.0847L592.054 25.0826ZM618.362 37.4116C615.978 37.4116 613.751 36.7244 611.867 35.5409C613.804 36.4296 616.016 36.9344 618.362 36.9344C620.707 36.9344 622.92 36.4296 624.856 35.5409C622.973 36.7244 620.746 37.4116 618.362 37.4116Z" fill="#D9D9D9"/>
<path d="M666.96 85.5406C666.96 87.1925 666.651 88.6085 666.046 89.7884C665.489 90.9114 664.625 91.8536 663.555 92.5062C662.485 93.1587 661.252 93.4949 659.999 93.4758C658.745 93.4984 657.51 93.1637 656.439 92.5108C655.368 91.8578 654.505 90.9136 653.951 89.7884C653.332 88.6085 653.037 87.1778 653.037 85.5406C653.037 83.8887 653.332 82.4727 653.936 81.2928C654.493 80.1664 655.359 79.2217 656.432 78.5688C657.505 77.9158 658.742 77.5817 659.999 77.6054C661.252 77.5863 662.485 77.9225 663.555 78.575C664.625 79.2276 665.489 80.1699 666.046 81.2928C666.651 82.4727 666.96 83.8887 666.96 85.5406ZM664.645 85.5406C664.645 84.2869 664.438 83.225 664.04 82.3547C663.687 81.5529 663.107 80.8713 662.373 80.3931C661.68 79.9506 660.884 79.7293 659.999 79.7293C659.155 79.7183 658.326 79.9486 657.609 80.3931C656.916 80.8355 656.37 81.4993 655.957 82.3547C655.559 83.225 655.352 84.2722 655.352 85.5406C655.352 86.7943 655.559 87.8563 655.957 88.7117C656.307 89.5112 656.881 90.1924 657.609 90.6734C658.317 91.1159 659.114 91.3519 659.999 91.3519C660.884 91.3519 661.68 91.1306 662.373 90.6734C663.081 90.2309 663.627 89.5819 664.04 88.7117C664.438 87.8563 664.645 86.7943 664.645 85.5406ZM669.66 97.6056V81.6763H671.872V83.5494H672.064C672.196 83.3134 672.373 83.0332 672.624 82.7235C672.954 82.3167 673.376 81.9955 673.857 81.7875C674.337 81.5795 674.86 81.4907 675.382 81.5288C676.281 81.5126 677.164 81.7651 677.918 82.2539C678.672 82.7426 679.263 83.4454 679.616 84.2722C680.043 85.1571 680.25 86.2338 680.25 87.4875C680.25 88.7412 680.043 89.8179 679.63 90.7029C679.261 91.5397 678.662 92.2554 677.905 92.7678C677.16 93.2553 676.287 93.5072 675.397 93.4905C674.704 93.4905 674.129 93.3725 673.686 93.1366C673.284 92.9367 672.927 92.6555 672.639 92.3106C672.388 91.9861 672.196 91.7059 672.049 91.4551H671.931V97.6056H669.674M671.887 87.4728C671.887 88.284 671.99 88.992 672.226 89.6114C672.462 90.2309 672.816 90.7029 673.258 91.0421C673.701 91.3961 674.247 91.5584 674.896 91.5584C675.574 91.5584 676.135 91.3814 676.592 91.0274C677.034 90.6587 677.388 90.1719 677.624 89.5524C677.86 88.933 677.978 88.2398 677.978 87.4728C677.978 86.7058 677.86 86.0126 677.624 85.4079C677.421 84.8437 677.063 84.3479 676.592 83.9772C676.104 83.6106 675.505 83.4231 674.896 83.4462C674.247 83.4462 673.701 83.6084 673.244 83.9477C672.801 84.2869 672.462 84.7589 672.211 85.3636C671.971 86.0402 671.856 86.7549 671.872 87.4728H671.887ZM687.757 93.4758C686.607 93.4758 685.633 93.2398 684.807 92.7383C683.981 92.2516 683.347 91.5584 682.905 90.6734C682.462 89.7884 682.241 88.7265 682.241 87.5318C682.241 86.3518 682.462 85.3046 682.905 84.3902C683.319 83.5214 683.968 82.7858 684.778 82.2662C685.486 81.8568 686.275 81.6053 687.089 81.5289C687.904 81.4526 688.726 81.5531 689.498 81.8238C690.147 82.0566 690.735 82.4318 691.22 82.9218C691.705 83.4119 692.074 84.0043 692.3 84.6556C692.595 85.3931 692.728 86.2781 692.728 87.34V88.1365H683.509V86.4403H690.515C690.515 85.8503 690.397 85.3194 690.147 84.8621C689.907 84.4013 689.541 84.0181 689.092 83.757C688.643 83.4959 688.129 83.3676 687.61 83.3872C686.976 83.3872 686.43 83.5347 685.958 83.8297C685.492 84.1376 685.112 84.5592 684.854 85.0546C684.596 85.5501 684.468 86.1031 684.483 86.6616V87.989C684.483 88.756 684.63 89.405 684.896 89.9507C685.176 90.4964 685.56 90.9094 686.046 91.1896C686.573 91.4831 687.169 91.6307 687.772 91.6174C688.215 91.6174 688.598 91.5584 688.952 91.4256C689.298 91.3092 689.613 91.116 689.873 90.8605C690.134 90.6051 690.333 90.2941 690.456 89.9507L692.58 90.3489C692.418 90.9831 692.108 91.5289 691.666 92.0008C691.223 92.4728 690.678 92.8268 690.014 93.0923C689.292 93.3602 688.527 93.4903 687.757 93.4758ZM697.492 86.3666V93.2545H695.235V81.6763H697.433V83.5642H697.581C697.846 82.9447 698.259 82.458 698.834 82.0892C699.395 81.7058 700.117 81.5288 700.988 81.5288C701.784 81.5288 702.463 81.691 703.053 82.0155C703.657 82.3547 704.115 82.8415 704.439 83.4904C704.792 84.2416 704.964 85.065 704.941 85.8946V93.2693H702.684V86.1601C702.721 85.4454 702.484 84.7436 702.02 84.1984C701.578 83.7117 700.988 83.4757 700.221 83.4757C699.737 83.4672 699.259 83.5841 698.834 83.8149C698.424 84.0485 698.09 84.3971 697.876 84.8179C697.627 85.3008 697.506 85.8387 697.522 86.3813L697.492 86.3666ZM708.112 93.2545V77.8119H713.613C714.793 77.8119 715.796 78.0184 716.593 78.4314C717.389 78.8444 717.979 79.4196 718.363 80.1423C718.768 80.9148 718.971 81.7775 718.953 82.6497C718.953 83.6084 718.761 84.4344 718.363 85.1571C717.959 85.8818 717.34 86.4639 716.593 86.8238C715.796 87.222 714.793 87.4138 713.599 87.4138H709.439V85.4079H713.392C714.144 85.4079 714.764 85.3046 715.236 85.0834C715.708 84.8769 716.062 84.5524 716.268 84.1394C716.502 83.6834 716.618 83.1766 716.607 82.6645C716.607 82.0745 716.504 81.573 716.283 81.1453C716.052 80.7097 715.684 80.3624 715.236 80.1571C714.644 79.9062 714.004 79.7903 713.363 79.8178H710.427V93.2693H708.112M715.737 86.2928L719.543 93.2693H716.888L713.156 86.2928H715.737ZM726.504 93.4905C725.528 93.5282 724.561 93.2805 723.723 92.7775C722.885 92.2746 722.211 91.5383 721.785 90.6587C721.315 89.6791 721.083 88.6029 721.106 87.517C721.106 86.3223 721.327 85.2751 721.77 84.3754C722.194 83.493 722.867 82.7536 723.705 82.248C724.544 81.7423 725.511 81.4924 726.49 81.5288C727.468 81.4924 728.436 81.7423 729.274 82.248C730.113 82.7536 730.785 83.493 731.21 84.3754C731.695 85.3499 731.933 86.4288 731.903 87.517C731.926 88.6029 731.693 89.6791 731.224 90.6587C730.798 91.5383 730.124 92.2746 729.286 92.7775C728.448 93.2805 727.481 93.5282 726.504 93.4905ZM726.504 91.6026C727.212 91.6026 727.802 91.4109 728.26 91.0421C728.717 90.6734 729.056 90.1719 729.292 89.5672C729.516 88.9022 729.626 88.204 729.617 87.5023C729.617 86.7648 729.513 86.1011 729.292 85.4669C729.091 84.8852 728.734 84.3699 728.26 83.9772C727.759 83.5891 727.137 83.3906 726.504 83.4167C725.796 83.4167 725.206 83.5937 724.735 83.9772C724.292 84.3607 723.938 84.8621 723.702 85.4816C723.477 86.1362 723.367 86.8249 723.378 87.517C723.378 88.2545 723.496 88.933 723.717 89.5524C723.938 90.1719 724.277 90.6734 724.749 91.0421C725.207 91.4109 725.796 91.6026 726.519 91.6026H726.504ZM741.77 88.461V81.6763H744.027V93.2693H741.815V91.2486H741.697C741.407 91.919 740.92 92.4854 740.301 92.8727C739.682 93.26 738.96 93.4497 738.23 93.4168C737.538 93.4311 736.855 93.2578 736.254 92.9153C735.674 92.567 735.212 92.0533 734.926 91.4404C734.578 90.6932 734.406 89.8754 734.425 89.051V81.6763H736.682V88.7707C736.644 89.4605 736.877 90.1377 737.331 90.6587C737.773 91.1306 738.348 91.3666 739.042 91.3666C739.503 91.3601 739.957 91.2396 740.361 91.0157C740.765 90.7918 741.107 90.4716 741.357 90.0834C741.638 89.6557 741.77 89.11 741.77 88.461ZM752.464 81.6763V83.4904H746.121V81.6763H752.464ZM747.832 78.9034H750.089V89.8622C750.089 90.3047 750.148 90.6292 750.281 90.8504C750.414 91.0569 750.576 91.2191 750.797 91.2929C751.004 91.3666 751.24 91.4109 751.476 91.4109C751.742 91.3806 752.007 91.3461 752.272 91.3076L752.67 93.1661C752.199 93.3414 751.698 93.4264 751.195 93.4168C750.605 93.4168 750.06 93.3135 749.543 93.0923C749.039 92.8748 748.609 92.5162 748.304 92.0598C747.995 91.6174 747.832 91.0274 747.832 90.3342V78.9034ZM759.942 93.5053C758.806 93.5053 757.818 93.2545 756.992 92.7678C756.181 92.2663 755.546 91.5879 755.104 90.6882C754.661 89.8032 754.425 88.7412 754.425 87.5465C754.402 86.4606 754.635 85.3845 755.104 84.4049C755.546 83.5052 756.166 82.7825 756.962 82.281C757.671 81.8716 758.459 81.62 759.274 81.5437C760.089 81.4673 760.91 81.5679 761.682 81.8385C762.331 82.0713 762.92 82.4465 763.405 82.9366C763.89 83.4266 764.259 84.0191 764.485 84.6704C764.78 85.4079 764.927 86.2928 764.927 87.3548V88.1513H755.694V86.4551H762.685C762.685 85.8651 762.567 85.3341 762.331 84.8769C762.089 84.4149 761.721 84.0311 761.269 83.77C760.817 83.5089 760.301 83.3813 759.78 83.4019C759.145 83.4019 758.6 83.5494 758.128 83.8444C757.67 84.1599 757.297 84.5834 757.043 85.0774C756.788 85.5714 756.659 86.1206 756.667 86.6763V88.0038C756.667 88.7707 756.8 89.4197 757.08 89.9654C757.346 90.5112 757.729 90.9241 758.231 91.2044C758.758 91.4978 759.354 91.6455 759.957 91.6321C760.353 91.6339 760.747 91.5691 761.122 91.4404C761.465 91.3226 761.777 91.1307 762.037 90.8783C762.297 90.6259 762.498 90.3193 762.626 89.9802L764.75 90.3637C764.588 90.9819 764.273 91.5498 763.836 92.0156C763.375 92.4995 762.81 92.8727 762.184 93.1071C761.462 93.3753 760.697 93.5054 759.927 93.4905L759.942 93.5053ZM767.42 93.2693V81.6763H769.603V83.5199H769.721C769.942 82.9005 770.311 82.399 770.842 82.045C771.387 81.6763 771.992 81.4993 772.671 81.4993C772.991 81.5036 773.311 81.5233 773.629 81.5583V83.7117C773.244 83.6128 772.847 83.5633 772.449 83.5642C771.955 83.5617 771.468 83.6834 771.033 83.9182C770.62 84.1353 770.275 84.4622 770.035 84.863C769.796 85.2637 769.672 85.7228 769.677 86.1896V93.2693H767.42Z" fill="#D9D9D9"/>
<path d="M619.91 78.7846C625.333 74.9463 629.829 76.1676 634.423 76.1676V81.3741C628.487 81.3741 626.581 80.4421 622.918 83.0345C619.332 85.5877 619.233 85.6595 617.361 86.7067L617.36 86.7065C616.205 87.3632 614.69 87.863 613.471 88.1898C612.302 88.5034 610.956 88.7784 610.146 88.7784V83.5719C610.108 83.5719 610.28 83.5649 610.724 83.4826C611.114 83.4102 611.601 83.3008 612.122 83.1611C613.219 82.8669 614.228 82.5007 614.796 82.1756L614.807 82.1691L614.819 82.1626C616.427 81.2635 616.328 81.3347 619.904 78.7888L619.907 78.7868L619.91 78.7846Z" fill="#D9D9D9"/>
<path d="M639.513 78.8003L630.619 83.9331V73.6675L639.513 78.8003Z" fill="#D9D9D9"/>
<path d="M609.969 83.5713C610.772 83.5713 612.114 83.8397 613.288 84.1503C614.479 84.4654 615.952 84.9439 617.103 85.575L617.213 85.6365L617.217 85.6388L617.221 85.6412C619.067 86.6981 619.156 86.7627 622.747 89.3194H622.747C626.406 91.9067 628.313 90.9755 634.247 90.9755V96.182C629.652 96.182 625.157 97.4034 619.733 93.565L619.731 93.563L619.728 93.5608C616.157 91.0187 616.239 91.0787 614.642 90.1642L614.529 90.1025C613.94 89.7924 612.985 89.4559 611.956 89.1836C611.434 89.0454 610.946 88.9376 610.555 88.8662C610.111 88.7853 609.935 88.7779 609.969 88.7779V83.5713Z" fill="#D9D9D9"/>
<path d="M639.337 93.5348L630.443 88.4167V98.6676L639.337 93.5348Z" fill="#D9D9D9"/>
</g>
</g>
<defs>
<clipPath id="clip0_84_20">
<rect width="791.594" height="182" fill="white" transform="translate(0.203003 0.16748)"/>
</clipPath>
<clipPath id="clip1_84_20">
<rect width="167.797" height="116" fill="white" transform="translate(0.203003 0.16748)"/>
</clipPath>
<clipPath id="clip2_84_20">
<rect width="167.797" height="182" fill="white" transform="translate(200 0.16748)"/>
</clipPath>
<clipPath id="clip3_84_20">
<rect width="160" height="182" fill="white" transform="translate(399.797 0.16748)"/>
</clipPath>
<clipPath id="clip4_84_20">
<rect width="200" height="106" fill="white" transform="translate(591.797 0.16748)"/>
</clipPath>
</defs>
</svg>
