<svg width="161" height="26" viewBox="0 0 161 26" fill="none" xmlns="http://www.w3.org/2000/svg">
<path d="M36.0135 0.729817C44.0212 -0.0528699 49.5764 8.22044 45.807 15.2929C42.9588 20.6332 35.6151 22.1195 30.8936 18.2936C24.1715 12.8487 27.2796 1.58597 36.0135 0.729817ZM42.6226 14.5836C47.3809 7.82485 37.9689 -0.569951 32.1736 5.77631C25.7624 12.7951 36.9969 22.5744 42.6226 14.5836Z" fill="#D9D9D9"/>
<path d="M62.6492 17.4513C64.2627 17.6886 64.4633 20.144 62.7821 20.4012L48.8124 20.4125C47.3713 20.1949 47.1651 18.9064 47.8969 17.8016L59.3377 3.85738L59.0975 3.52679L49.5499 3.47593C48.3405 2.73563 48.6287 0.856613 50.0811 0.684252C54.1273 0.969636 58.668 0.314101 62.6549 0.681427C64.2909 0.831183 64.3559 2.25245 63.5393 3.41094C60.7929 7.3159 56.8709 11.331 53.8278 15.1343C53.2825 15.8152 52.48 16.6544 52.2709 17.4541H62.6464L62.6492 17.4513Z" fill="#D9D9D9"/>
<path d="M14.16 6.46304C13.965 6.45456 13.8887 6.42065 13.7305 6.5591C13.3321 6.90665 12.8376 7.77411 12.4618 8.22055C9.18414 12.0916 5.83019 15.9824 2.58925 19.9213C1.27252 21.06 -0.3098 19.9891 0.260968 18.3022C0.340084 18.0734 0.967361 17.3698 1.17645 17.1014C5.50525 11.5604 10.3906 6.30763 14.9087 0.939021C15.7169 0.407812 16.7426 0.741231 17.1353 1.59173L17.2653 18.9295C17.1749 20.2406 15.7621 20.8961 14.7308 20.0513C14.5895 19.9354 14.16 19.3138 14.16 19.2121V6.46304Z" fill="#D9D9D9"/>
<path d="M143.33 6.32473L144.37 6.34451L144.601 6.67793C144.35 11.0293 144.937 15.7509 144.601 20.0599C144.491 21.4501 143.971 23.185 142.911 24.1513C140.199 26.6294 132.776 26.1603 132.18 21.6846L133.454 21.7496C134.649 25.6658 141.855 25.5952 143.092 21.7976C143.299 21.1619 143.519 17.5762 143.262 17.175C143.174 17.0393 143.064 17.0111 142.909 17.0365C141.75 19.9582 137.707 20.4555 135.11 19.2518C130.747 17.2315 130.572 9.46678 134.616 7.00004C137.156 5.4488 141.79 5.88394 142.909 9.00621C142.999 9.08815 143.33 8.87623 143.33 8.79429V6.32756V6.32473ZM141.866 8.62758C140.688 7.35042 139.159 7.01982 137.464 7.16393C131.092 7.70361 131.507 19.6615 138.865 18.8477C143.494 18.3335 144.672 11.6651 141.866 8.62758Z" fill="#D9D9D9"/>
<path d="M82.5667 18.5172C83.0414 18.1103 83.6517 16.9885 83.745 16.3867C85.0504 7.79128 70.2924 13.5244 71.1825 4.55316C71.7221 -0.894564 82.7334 -1.25059 84.2818 4.73965C84.3638 5.05894 84.6124 6.03376 84.2281 6.15809C84.0021 6.23156 83.2533 6.24003 83.1149 6.04507C83.0103 5.89531 82.7758 4.48534 82.5102 3.97109C80.5859 0.263925 72.1799 0.699064 72.4596 5.53929C72.7846 11.165 84.118 7.95516 85.1041 14.1997C86.4915 22.9957 72.1007 22.9986 70.5212 15.6492C70.4252 15.2 70.1765 14.3042 70.6992 14.2082C72.1007 13.9426 71.7221 14.9654 72.0697 15.9374C73.5022 19.9215 79.5179 21.1422 82.5695 18.5144L82.5667 18.5172Z" fill="#D9D9D9"/>
<path d="M22.1686 0.718173C23.183 0.554289 23.9516 1.15614 24.0448 2.16205C24.5421 7.52218 23.6577 13.6367 24.042 19.076C23.8188 20.9409 21.1345 20.9776 20.9282 18.655C20.4676 13.4531 21.287 7.57869 20.9338 2.30615C21.0186 1.56302 21.3605 0.848149 22.1714 0.715347L22.1686 0.718173Z" fill="#D9D9D9"/>
<path d="M148.691 13.5065C148.451 16.1428 149.855 19.1633 152.61 19.8104C154.362 20.2229 156.552 19.7963 157.725 18.3637C158.363 17.581 158.38 16.431 159.392 16.3519C160.324 16.2784 159.411 17.8268 159.163 18.2507C157.538 20.9915 153.851 21.5792 151.059 20.3727C145.512 17.9738 146.247 6.80705 152.859 6.18542C157.821 5.7192 160.364 8.70585 160.126 13.5093H148.691V13.5065ZM148.691 12.5204H158.643C159.157 11.7716 158.595 10.2373 158.171 9.46875C157.134 7.57844 155.34 7.01615 153.272 7.16025C150.661 7.34391 148.522 9.92367 148.688 12.5204H148.691Z" fill="#D9D9D9"/>
<path d="M130.476 19.8534L130.349 20.6333C128.544 21.0628 128.168 19.9128 127.871 18.4406C127.063 19.2431 126.506 20.0456 125.399 20.4835C122.336 21.6901 118.075 20.7831 118.196 16.8272C118.264 14.6318 119.832 13.6004 121.759 13.0466C124.178 12.3543 128.58 12.8855 127.908 9.2462C127.462 6.83032 123.316 6.70882 121.629 7.70626C120.397 8.43243 120.191 10.3877 120.044 10.4923C119.748 10.7042 118.883 10.6731 118.911 10.0797C119.081 6.53929 123.969 5.38645 126.724 6.48843C130.784 8.11031 128.676 15.4625 129.222 18.9295C129.324 19.5765 129.855 19.893 130.479 19.8591L130.476 19.8534ZM127.939 12.521C127.385 12.6539 126.95 12.9844 126.391 13.1568C124.124 13.8547 119.454 13.5411 119.459 16.9572C119.462 20.622 124.373 20.6022 126.518 18.7769C126.944 18.4152 127.942 17.0533 127.942 16.5362V12.521H127.939Z" fill="#D9D9D9"/>
<path d="M99.8121 6.21978C106.291 5.28734 109.004 11.5601 107.012 16.9259C105.675 20.5314 101.892 21.8622 98.4049 20.3703C93.0448 18.0731 93.6777 7.10419 99.8121 6.21978ZM104.596 18.6693C107.43 15.8352 106.961 8.05924 102.395 7.23134C94.4972 5.79877 94.1073 18.5139 99.9308 19.8334C101.49 20.1866 103.44 19.825 104.596 18.6693Z" fill="#D9D9D9"/>
<path d="M90.1047 1.95557V6.39456L90.3166 6.60648H92.8568C93.145 6.60648 93.145 7.5926 92.8568 7.5926H90.3166L90.1047 7.80452V17.9484C90.1047 18.0303 90.3816 18.7508 90.4579 18.8639C91.0343 19.6861 92.207 19.3809 93.0688 19.429L92.936 20.3529C90.6472 20.6807 89.1808 20.1212 88.9688 17.6715C88.6976 14.5238 89.1977 11.0116 88.9547 7.8243C88.8078 7.38069 87.4119 7.67455 86.9966 7.59543V6.60648C87.1294 6.47367 88.7258 6.84383 88.9745 6.39456V1.95557H90.1047Z" fill="#D9D9D9"/>
<path d="M117.49 6.08105L117.527 7.25932C115.032 6.97959 112.683 8.29631 111.954 10.4466C111.904 10.5963 111.706 11.3818 111.706 11.4638V20.4096H110.434V6.32123C110.861 6.36079 111.404 6.163 111.706 6.53315V9.13834C111.971 9.19767 112.042 9.08465 112.107 8.90381C112.424 7.99397 113.158 6.79593 115.212 6.29015C115.744 6.16017 117.493 6.08105 117.493 6.08105H117.49Z" fill="#D9D9D9"/>
</svg>
