<svg width="160" height="50" viewBox="0 0 160 50" fill="none" xmlns="http://www.w3.org/2000/svg">
<path d="M15.0939 0V8.02639L15.3468 8.30158H22.7257L22.9786 8.02639V0H30.3575V8.20985L30.6104 8.48504H33.1266C34.6792 8.48504 38.8216 10.9265 40.0893 12.0802C51.1208 22.1281 44.5102 41.8219 30.3607 41.6984V50H22.9818V41.9736L22.7289 41.6984H15.35L15.0971 41.9736V50H7.71822V41.9736L7.46532 41.6984H0.252899L0 41.4232V33.672L0.252899 33.3968H7.46532L7.71822 33.1216V16.6067H0.252899L0 16.3315V8.5803L0.252899 8.30511H7.46532L7.71822 8.02992V0H15.0971H15.0939ZM15.3468 16.6067L15.0939 16.8819V33.1181L15.3468 33.3933H31.9485C32.1758 33.3933 33.8692 32.5642 34.199 32.3631C39.2249 29.3043 39.4266 21.1332 34.4935 17.8627C34.0709 17.584 32.1374 16.6032 31.782 16.6032H15.3468V16.6067Z" fill="#D9D9D9"/>
<path d="M53.5002 37.6448V12.5496C56.0869 12.6625 58.7247 12.4014 61.3049 12.5425C64.2885 12.7048 67.2816 13.414 69.6025 15.5908C74.4236 20.1173 74.5133 29.9571 69.6794 34.5013C65.2584 38.6574 58.8976 37.4508 53.5002 37.6448ZM62.3037 16.6069C60.9143 16.434 59.2753 16.7339 57.8604 16.6069V33.397H63.1424C63.2353 33.397 64.6886 32.829 64.8839 32.7302C70.9983 29.5832 69.9259 17.5489 62.3037 16.6069Z" fill="#D9D9D9"/>
<path d="M123.771 11.0713V20.2055L124.107 20.3925C127.663 15.8236 134.508 16.8009 136.989 22.086C141.265 31.1884 133.291 42.6018 125.198 36.163C124.725 35.7855 124.44 34.9741 123.767 35.0587V37.6413H119.657L119.404 37.3661V11.35L119.657 11.0748H123.767L123.771 11.0713ZM126.011 32.7761C132.219 37.3555 136.848 25.5576 130.964 22.2553C125.08 18.953 121.053 29.121 126.011 32.7761Z" fill="#D9D9D9"/>
<path d="M93.079 31.5551C91.5552 36.2475 87.8802 38.2479 83.4369 37.8245C73.513 36.879 73.052 19.8101 82.3036 17.7603C88.6101 16.3632 93.4151 20.3041 93.5912 27.3955C93.604 27.9741 93.6488 28.6268 93.2487 29.0643C89.5608 29.149 85.793 29.2583 82.0859 29.1631C81.4425 29.1454 80.8438 28.7327 80.1876 29.1807C80.1876 34.0001 86.1387 35.81 88.2964 31.5551H93.0758H93.079ZM80.4149 25.8326H88.7989C89.5352 25.8326 88.386 23.3241 87.9666 22.8725C85.3064 20.0148 80.9655 21.4154 80.1876 25.4057L80.4149 25.8326Z" fill="#D9D9D9"/>
<path d="M159.997 17.7148V21.5886H156.223C155.982 21.7509 155.992 21.9555 155.963 22.2237C155.762 24.1112 155.739 30.176 155.963 32.0212C156.014 32.4481 156.52 33.3971 156.892 33.3971H159.744L159.997 33.6723V37.3627L159.744 37.6379H156.725C156.552 37.6379 155.029 37.2921 154.766 37.211C149.689 35.6269 151.955 26.0799 151.443 21.7686L149.337 21.5957V17.8806L151.443 17.7077V13.0013L151.696 12.7261H155.72L155.973 13.0013V17.429L156.226 17.7042H160L159.997 17.7148Z" fill="#D9D9D9"/>
<path d="M106.999 17.5311V22.5128C105.229 22.4211 102.872 22.7245 101.998 24.6684C101.851 24.993 101.464 26.2032 101.464 26.4783V37.366L101.211 37.6412H97.3535L97.1006 37.366V17.7146H101.461V20.4806C102.104 20.5618 102.319 19.7327 102.802 19.2811C103.983 18.1732 105.414 17.5029 106.996 17.5311H106.999Z" fill="#D9D9D9"/>
<path d="M114.714 17.7144V37.3658L114.461 37.6445H110.604L110.354 37.3658V17.7144H114.714Z" fill="#D9D9D9"/>
<path d="M146.073 17.7144V37.3658L145.824 37.6445H141.966L141.713 37.3658V17.7144H146.073Z" fill="#D9D9D9"/>
<path d="M145.851 10.2139C146.152 10.535 146.533 11.4346 146.581 11.9003C147.067 16.5927 140.114 16.0529 141.251 11.3958C141.725 9.45185 144.686 8.96497 145.851 10.2139Z" fill="#D9D9D9"/>
<path d="M114.478 10.2311C115.982 11.4765 115.275 14.7435 113.245 15.0822C108.379 15.8937 108.866 8.05781 113.799 9.77246C114.058 9.86419 114.266 10.0547 114.478 10.2311Z" fill="#D9D9D9"/>
</svg>