<svg width="161" height="32" viewBox="0 0 161 32" fill="none" xmlns="http://www.w3.org/2000/svg">
<path d="M21.8197 0.385849V31.0715H17.5662V28.711C11.717 34.461 1.68987 31.2886 0.316098 23.0743C-1.39758 12.8253 9.87114 6.7118 17.5709 13.6043V3.9265C17.5709 2.64714 20.1579 -0.308117 21.8197 0.385849ZM8.94585 14.6617C2.30358 15.8939 2.94562 27.3325 9.76256 27.7952C20.7575 28.5363 19.9974 12.6129 8.94585 14.6617Z" fill="#D9D9D9"/>
<path d="M107.267 31.0718H103.014V28.7113C93.6192 36.9492 80.6746 25.9921 87.3499 15.1672C90.7537 9.6485 98.5053 9.36053 103.014 13.6046V10.7721H107.267V31.0718ZM96.2488 14.2561C87.586 14.426 88.3082 26.7616 94.3085 27.7388C105.577 29.5705 105.572 14.0719 96.2488 14.2561Z" fill="#D9D9D9"/>
<path d="M145.507 13.1321C148.632 9.19022 154.873 9.83226 158.281 13.354C158.758 13.845 160.141 15.8561 160.141 17.617V31.0714H155.893V18.089C155.893 16.3943 154.467 15.4831 154.042 15.2188C150.7 13.118 145.507 15.1479 145.507 17.617V31.0714H141.258V0.385811C142.924 -0.0249043 145.507 2.53852 145.507 3.92646V13.1321Z" fill="#D9D9D9"/>
<path d="M84.1348 22.1021H68.5559C68.7117 21.2382 70.4159 19.2696 71.1524 19.2696H79.886C79.3478 12.769 69.4387 13.0239 68.1829 18.6606C66.2568 27.3045 75.42 31.0387 80.5941 24.472L82.6477 27.465C76.5436 35.7784 63.1316 30.9821 63.8397 20.464C64.7745 6.56103 85.754 7.85927 84.1395 22.1068L84.1348 22.1021Z" fill="#D9D9D9"/>
<path d="M43.5351 22.1016H27.9562C28.2914 21.3415 29.8115 19.269 30.5527 19.269H39.2863C38.734 12.1972 28.4897 13.2075 27.5172 19.5334C26.2615 27.6863 34.7118 30.2734 40.0842 24.9907L42.506 27.049C37.0628 35.6693 23.0749 31.4489 23.3676 21.0441C23.7736 6.58409 45.2063 7.52826 43.5398 22.0968L43.5351 22.1016Z" fill="#D9D9D9"/>
<path d="M49.7855 17.7352C51.2159 19.3781 61.5499 19.3875 62.4044 23.7638C64.203 32.96 48.2748 33.975 45.0693 26.5821L47.9868 24.4908C50.0923 27.6537 55.342 29.3769 58.1037 26.025C58.8307 23.0603 51.3103 22.4844 49.0679 21.5261C45.82 20.1429 44.0449 17.4803 46.1504 14.1002C49.507 8.70893 58.6277 9.83249 62.4091 14.3126L59.35 16.8949C56.947 13.7886 52.3772 13.1985 49.4456 15.9413C49.304 16.267 49.5778 17.4945 49.7902 17.7399L49.7855 17.7352Z" fill="#D9D9D9"/>
<path d="M134.96 16.1251C129.753 11.9566 122.133 15.7049 123.828 22.7438C125.395 29.2349 133.36 29.3057 136.296 23.9948L139.36 26.5913C133.251 35.863 118.555 31.567 119.546 19.9868C120.429 9.69529 134.129 7.22628 139.308 15.738L136.287 17.7538C135.659 17.6924 135.38 16.4744 134.955 16.1345L134.96 16.1251Z" fill="#D9D9D9"/>
<path d="M109.155 10.7718H113.409L113.64 13.609C115.179 10.446 118.257 9.97867 121.43 10.7765C120.693 11.5271 120.221 13.2927 119.522 13.8214C118.229 14.7987 113.404 14.7326 113.404 18.0891V31.0715H109.155V10.7718Z" fill="#D9D9D9"/>
</svg>
