<svg width="241" height="30" viewBox="0 0 241 30" fill="none" xmlns="http://www.w3.org/2000/svg">
<path d="M148.785 10.6497C148.877 10.105 149.465 9.28542 150.083 9.21924L161.84 9.28287C163.925 10.1636 164.592 12.7752 163.202 14.5875C162.899 14.982 161.939 15.7227 161.458 15.7227H153.718L153.491 15.9493V19.2812L153.718 19.5077H163.507V20.8695H153.415C153.087 20.8695 152.348 19.9659 152.285 19.5739C152.18 18.9146 152.175 16.3056 152.285 15.654C152.407 14.9158 152.985 14.4373 153.715 14.3558C155.889 14.114 158.498 14.562 160.705 14.366C162.13 14.2413 162.777 13.4726 162.581 12.0268C162.504 11.4643 161.891 10.5759 161.306 10.5759H150.152L150.134 20.6328C150.045 21.0019 148.948 20.9739 148.785 20.6455V10.6523V10.6497Z" fill="#D9D9D9"/>
<path d="M202.354 20.8699L201.392 20.847L201.14 20.6433V16.5554L200.914 16.3289H189.986C189.589 16.0056 189.801 15.4227 189.76 14.9671H200.914L201.14 14.7406V10.8029L200.914 10.5763H188.772L188.546 10.8029V20.8724H187.332V10.5C187.332 9.84325 188.286 9.2629 188.917 9.2069C192.774 8.85309 197.159 9.48944 201.071 9.2069C201.428 9.09999 202.354 10.0342 202.354 10.1971V20.8724V20.8699Z" fill="#D9D9D9"/>
<path d="M225.878 20.8698V12.694L226.84 12.7169L227.092 12.9206V19.2815L227.319 19.508H236.121C237.989 19.508 239.7 16.7717 239.7 15.0409C239.7 13.31 238.096 10.5737 236.273 10.5737H225.878V9.21191H236.576C236.872 9.21191 238.203 9.91699 238.524 10.1461C241.649 12.4013 241.723 17.711 238.524 19.9357C238.228 20.1393 236.671 20.8724 236.426 20.8724H225.878V20.8698Z" fill="#D9D9D9"/>
<path d="M206.605 10.3475C206.768 9.53039 207.918 8.90932 208.728 9.29112L219.877 19.3658L220.416 19.5109V9.21476H221.63V19.5872C221.63 20.2847 220.131 21.3257 219.449 20.7021L208.359 10.7216L207.819 10.5765V20.6461L207.567 20.8498L206.605 20.8727V10.35V10.3475Z" fill="#D9D9D9"/>
<path d="M106.896 9.21191C106.85 9.54791 107.061 10.6144 106.657 10.7086C106.407 10.6628 106.175 10.5737 105.916 10.5686C103.246 10.5126 99.2087 10.2912 96.6684 10.5941C91.9315 11.1591 92.0536 18.7775 96.3604 19.3477C96.7906 19.4037 97.9513 19.5131 98.3204 19.5131H106.896V20.8749H96.8034C91.705 20.8749 89.8544 12.4955 94.6754 9.81772C94.8484 9.72099 95.971 9.217 96.0449 9.217H106.896V9.21191Z" fill="#D9D9D9"/>
<path d="M144.687 9.21153C144.642 9.54752 144.853 10.614 144.448 10.7082C144.199 10.6624 143.967 10.5733 143.707 10.5682C140.941 10.5097 137.275 10.3391 134.59 10.5682C131.233 10.8584 129.761 14.6281 131.36 17.4357C132.518 19.472 134.46 19.4236 136.563 19.5127C139.261 19.6247 141.989 19.416 144.69 19.5051V20.8694H134.445C133.269 20.8694 131.52 19.6578 130.8 18.7517C128.853 16.2928 129.214 12.0878 131.798 10.2042C132.055 10.0159 133.638 9.20898 133.837 9.20898H144.687V9.21153Z" fill="#D9D9D9"/>
<path d="M73.8113 9.21191V14.1322L74.0379 14.3587H86.1793L86.4058 14.1322V9.21191H87.62V20.8724H86.4058V15.9521L86.1793 15.7256H73.7349C73.5313 15.7256 72.5972 14.794 72.5972 14.5903V9.21446H73.8113V9.21191Z" fill="#D9D9D9"/>
<path d="M112.208 9.2124L118.208 19.5085L118.475 19.3202L124.429 9.21495L125.251 9.91747C125.333 10.1924 124.683 11.2207 124.503 11.5593C123.143 14.1046 121.339 17.3093 119.768 19.7071C119.061 20.7888 118.363 21.3514 117.152 20.4096L111.226 10.2636C110.831 9.89966 112.089 9.1284 112.208 9.2124Z" fill="#D9D9D9"/>
<path d="M169.273 9.21191V19.1313C169.273 19.1593 169.626 19.5106 169.652 19.5106H183.234L183.219 20.6229L182.855 20.8724L169.127 20.7909C168.718 20.6535 168.058 19.8338 168.058 19.4342V9.21191H169.273Z" fill="#D9D9D9"/>
<path d="M144.686 15.7231H133.455V14.3613H144.459C144.856 14.6846 144.645 15.2675 144.686 15.7231Z" fill="#D9D9D9"/>
<path d="M106.896 14.3584V15.7202H95.8921C95.5383 15.4173 95.5383 14.6588 95.8921 14.3584H106.896Z" fill="#D9D9D9"/>
<path d="M45.4608 24.4001C46.0055 24.1074 46.5222 23.7943 47.0134 23.466C47.5963 23.1758 48.1462 22.8653 48.6654 22.542C49.2763 22.2595 49.8515 21.9591 50.3911 21.646C51.0224 21.3737 51.6206 21.0886 52.1729 20.7882C52.8067 20.5362 53.4024 20.2715 53.9522 19.9941C54.4638 19.8082 54.95 19.6123 55.4056 19.4137C56.2888 19.1337 57.0932 18.8385 57.8033 18.5254C58.5211 18.3065 59.1727 18.0799 59.7556 17.8432C62.8533 16.9981 64.6351 15.9927 64.6351 14.9007C64.6351 13.8088 62.8025 12.7728 59.6207 11.9226C59.0328 11.6884 58.3812 11.4644 57.6634 11.2506C56.9481 10.9426 56.1438 10.6525 55.2605 10.3776C54.8049 10.1816 54.3212 9.99067 53.8096 9.8074C53.2573 9.53504 52.6668 9.27541 52.033 9.02851C51.4908 8.74088 50.9079 8.46598 50.292 8.2038C49.7549 7.89581 49.1796 7.60309 48.5712 7.32564C48.0494 7.00492 47.4971 6.69693 46.9116 6.4093C46.4178 6.08349 45.896 5.77041 45.3462 5.48023C44.8753 5.14424 44.3815 4.82861 43.8623 4.5308C43.3965 4.16935 42.9053 3.83336 42.3962 3.52028C39.7872 1.32615 36.4221 0 32.7542 0C29.0863 0 25.7213 1.32615 23.1123 3.52028C22.6033 3.83336 22.1121 4.16935 21.6463 4.5308C21.1295 4.82861 20.6331 5.14424 20.1648 5.48023C19.615 5.77295 19.0932 6.08349 18.5994 6.4093C18.0165 6.69693 17.4641 7.00238 16.9398 7.32564C16.334 7.60309 15.7588 7.89581 15.2192 8.2038C14.6032 8.46598 14.0202 8.74088 13.4781 9.02851C12.8443 9.27541 12.2537 9.53759 11.7014 9.8074C11.1898 9.99067 10.7062 10.1816 10.248 10.3776C9.36474 10.6525 8.56041 10.9452 7.84516 11.2506C7.12737 11.4644 6.47576 11.6884 5.88778 11.9226C2.70351 12.7753 0.87085 13.7935 0.87085 14.9007C0.87085 16.008 2.65005 16.9981 5.75032 17.8432C6.33321 18.0799 6.98481 18.309 7.70261 18.5254C8.41277 18.8385 9.21454 19.1337 10.1003 19.4137C10.556 19.6148 11.0422 19.8082 11.5539 19.9941C12.1037 20.2715 12.6992 20.5337 13.333 20.7882C13.8854 21.0886 14.4835 21.3737 15.1148 21.646C15.6544 21.9591 16.2297 22.2595 16.8406 22.542C17.3599 22.8653 17.9096 23.1758 18.4925 23.466C18.9838 23.7943 19.5005 24.1074 20.0452 24.4001C20.5263 24.7489 21.0354 25.0772 21.5673 25.3877C22.0331 25.7543 22.527 26.0979 23.0411 26.4186C25.6603 28.6484 29.0507 30 32.7517 30C36.4527 30 39.8431 28.6509 42.4623 26.4186C42.9765 26.0979 43.4677 25.7543 43.9361 25.3877C44.4681 25.0798 44.9772 24.7514 45.4608 24.4001ZM44.1678 24.7158C44.1907 24.6878 44.2136 24.6623 44.2365 24.6343C44.3078 24.6089 44.3816 24.5834 44.4529 24.5579C44.4351 24.5732 44.4171 24.5885 44.3993 24.6063C44.3229 24.6419 44.2441 24.6801 44.1652 24.7158H44.1678ZM32.7517 27.0652C28.7784 27.0652 25.0824 26.3092 22.0102 25.0136C21.9542 24.955 21.8983 24.8939 21.8423 24.8354C25.0291 25.8866 28.7631 26.4924 32.7517 26.4924C36.7403 26.4924 40.4744 25.8866 43.6612 24.8354C43.6077 24.8965 43.5493 24.955 43.4933 25.0136C40.421 26.3092 36.7251 27.0652 32.7517 27.0652ZM32.7517 2.87375C36.6894 2.87375 40.3547 3.61955 43.4117 4.89225C43.4652 4.94824 43.5187 5.0017 43.5696 5.0577C40.4031 4.02427 36.7021 3.42864 32.7517 3.42864C28.8013 3.42864 25.1003 4.02427 21.9339 5.0577C21.9848 5.0017 22.0408 4.94824 22.0917 4.89225C25.1487 3.617 28.814 2.87375 32.7517 2.87375ZM32.7517 3.73155C36.8752 3.73155 40.7213 4.38317 43.9616 5.50314C44.0278 5.58205 44.0964 5.66095 44.1601 5.74241C40.8052 4.82097 36.9109 4.28899 32.7517 4.28899C28.5926 4.28899 24.6982 4.82097 21.3434 5.74241C21.4096 5.66095 21.4757 5.58205 21.5419 5.50314C24.7821 4.38317 28.6257 3.73155 32.7517 3.73155ZM45.0256 23.6085C45.0892 23.5194 45.1528 23.4303 45.2139 23.3387C45.4175 23.2878 45.6161 23.2369 45.8172 23.1834C45.7459 23.2649 45.6746 23.3438 45.6008 23.4252C45.4099 23.4863 45.219 23.5474 45.0256 23.6085ZM45.191 23.8631C45.135 23.9191 45.079 23.9725 45.023 24.0285C44.8804 24.0845 44.7379 24.138 44.5928 24.194C44.6437 24.1278 44.6971 24.0641 44.7481 23.998C44.8957 23.9547 45.0459 23.9089 45.191 23.8631ZM16.0413 21.0122C15.9675 20.9333 15.8937 20.8544 15.8249 20.7755C16.0795 20.8213 16.334 20.8646 16.5937 20.9079C16.6547 20.9969 16.7158 21.086 16.7795 21.1726C16.53 21.1191 16.2831 21.0657 16.0413 21.0097V21.0122ZM14.2977 20.1646C14.2214 20.0857 14.145 20.0068 14.0738 19.9279C14.3385 19.9712 14.6057 20.0119 14.878 20.0526C14.9416 20.1417 15.0003 20.2308 15.0664 20.3173C14.8068 20.2664 14.5497 20.2155 14.2977 20.1646ZM10.6477 18.5508C9.49209 17.4385 8.85064 16.2192 8.85064 14.944C8.85064 13.6688 9.53019 12.3706 10.7571 11.2303C11.0421 11.1845 11.3299 11.1386 11.6226 11.0954C10.6299 12.2917 10.0801 13.5924 10.0801 14.9542C10.0801 16.316 10.5916 17.5276 11.5207 18.6908C11.2229 18.645 10.9353 18.5992 10.6477 18.5534V18.5508ZM7.3157 14.9338C7.3157 13.6917 8.09976 12.5106 9.50227 11.4415C9.75681 11.3957 10.0189 11.3499 10.2837 11.3041C9.16623 12.4292 8.54775 13.656 8.54775 14.9415C8.54775 16.2269 9.13056 17.3749 10.1793 18.4719C9.9069 18.4261 9.63966 18.3777 9.37748 18.3319C8.05389 17.2883 7.3157 16.1403 7.3157 14.9338ZM15.1657 9.49686C15.1021 9.58086 15.0384 9.66486 14.9773 9.74885C14.7126 9.78703 14.4504 9.82776 14.1933 9.86849C14.262 9.79467 14.3308 9.72085 14.4046 9.64704C14.6566 9.59613 14.9086 9.54522 15.1682 9.49686H15.1657ZM16.866 8.65943C16.8049 8.74088 16.7489 8.82488 16.6904 8.90887C16.4384 8.9496 16.1864 8.99287 15.9395 9.03614C16.0057 8.96233 16.0744 8.88851 16.1431 8.8147C16.3798 8.76124 16.6216 8.71033 16.866 8.65688V8.65943ZM32.7517 5.44969C37.1985 5.44969 41.3627 5.93586 44.9339 6.77838C45.0077 6.88783 45.0765 6.99983 45.1478 7.10928C41.4697 6.40421 37.2442 6.00204 32.7542 6.00204C28.2642 6.00204 24.0388 6.40421 20.3608 7.10928C20.432 6.99983 20.5008 6.88529 20.5747 6.77838C24.1458 5.93586 28.31 5.44969 32.7568 5.44969H32.7517ZM20.8241 6.42203C20.8954 6.32276 20.9666 6.22603 21.0379 6.12931C24.4461 5.15442 28.4602 4.59189 32.7517 4.59189C37.0432 4.59189 41.0547 5.15697 44.4656 6.12931C44.5394 6.22603 44.6081 6.3253 44.6793 6.42203C41.1565 5.61005 37.0865 5.14424 32.7517 5.14424C28.4169 5.14424 24.3469 5.61005 20.8241 6.42203ZM49.3603 8.81724C49.429 8.89106 49.4952 8.96487 49.5639 9.03869C49.317 8.99542 49.0676 8.95215 48.8131 8.91142C48.7545 8.82742 48.6986 8.74342 48.6375 8.66197C48.8818 8.71288 49.1211 8.76633 49.3578 8.81979L49.3603 8.81724ZM51.1039 9.64704C51.1777 9.72085 51.2439 9.79467 51.3152 9.86849C51.0581 9.82776 50.7959 9.78703 50.5312 9.74885C50.4701 9.66486 50.4064 9.58086 50.3428 9.49686C50.6024 9.54522 50.8544 9.59613 51.1064 9.64704H51.1039ZM56.131 18.3319C55.8689 18.3803 55.6016 18.4261 55.3293 18.4719C56.3805 17.3749 56.9608 16.1862 56.9608 14.9415C56.9608 13.6968 56.3397 12.4292 55.2249 11.3041C55.4921 11.3499 55.7517 11.3957 56.0063 11.4415C57.4062 12.5106 58.1928 13.6917 58.1928 14.9338C58.1928 16.176 57.4572 17.2883 56.131 18.3319ZM56.6579 14.944C56.6579 16.2218 56.0164 17.4385 54.8608 18.5508C54.5732 18.5966 54.2831 18.645 53.9879 18.6883C54.9169 17.525 55.4285 16.2651 55.4285 14.9516C55.4285 13.6382 54.8786 12.2917 53.8859 11.0928C54.1812 11.1361 54.4664 11.1819 54.7515 11.2277C55.9783 12.3681 56.6579 13.6229 56.6579 14.9415V14.944ZM50.4396 20.3173C50.5058 20.2308 50.5668 20.1417 50.6279 20.0526C50.9003 20.0119 51.1676 19.9712 51.4323 19.9279C51.3585 20.0068 51.2846 20.0857 51.2082 20.1646C50.9562 20.2155 50.6992 20.269 50.4396 20.3173ZM48.7265 21.1726C48.7901 21.086 48.8513 20.9969 48.9124 20.9079C49.172 20.8646 49.429 20.8213 49.681 20.7755C49.6122 20.8544 49.536 20.9333 49.4647 21.0122C49.2229 21.0682 48.9759 21.1217 48.7265 21.1751V21.1726ZM45.8325 22.3307C45.9012 22.2111 45.9673 22.0889 46.0309 21.9667C46.3084 21.9209 46.5833 21.8751 46.8531 21.8242C46.7793 21.9362 46.7054 22.0482 46.6265 22.1576C46.3643 22.2162 46.0997 22.2747 45.8325 22.3282V22.3307ZM46.3644 22.5089C46.288 22.6082 46.2116 22.7074 46.1327 22.8067C45.9062 22.8678 45.6746 22.9264 45.4429 22.9824C45.5117 22.8754 45.5779 22.7685 45.644 22.6591C45.8858 22.6107 46.1277 22.5598 46.3644 22.5089ZM32.7517 7.16783C37.4581 7.16783 41.887 7.51654 45.7407 8.12744C45.8044 8.24707 45.868 8.36925 45.9265 8.49143C41.999 7.99762 37.5269 7.72018 32.7492 7.72018C27.9716 7.72018 23.5019 7.99762 19.5718 8.49143C19.6329 8.36925 19.694 8.24707 19.7576 8.12744C23.6139 7.51654 28.0402 7.16783 32.7466 7.16783H32.7517ZM19.9383 7.81181C20.007 7.68963 20.0757 7.56745 20.147 7.44782C23.8658 6.72493 28.1675 6.31003 32.7517 6.31003C37.3359 6.31003 41.6376 6.72493 45.3564 7.44782C45.4277 7.56745 45.4964 7.68963 45.5651 7.81181C41.742 7.20855 37.3793 6.86492 32.7492 6.86492C28.1192 6.86492 23.7564 7.20855 19.9332 7.81181H19.9383ZM46.5196 20.9486C46.5756 20.8188 46.6291 20.6839 46.6826 20.5515C47.0135 20.5159 47.3418 20.4802 47.665 20.442C47.6014 20.5668 47.5353 20.6915 47.4666 20.8162C47.1535 20.862 46.8378 20.9053 46.5196 20.9486ZM47.273 21.1624C47.2069 21.2744 47.1407 21.3889 47.0695 21.4984C46.7818 21.5518 46.4891 21.6027 46.1939 21.6511C46.255 21.5289 46.3109 21.4093 46.3695 21.2846C46.6749 21.2438 46.9752 21.2031 47.273 21.1598V21.1624ZM14.985 14.9796C14.985 13.4193 15.3642 11.9252 16.0591 10.5379C16.4027 10.5023 16.7489 10.4667 17.1001 10.4336C16.53 11.8641 16.2143 13.3939 16.2143 14.9873C16.2143 16.5807 16.5021 17.9807 17.0264 19.3577C16.6726 19.3246 16.3264 19.289 15.9802 19.2534C15.3362 17.9145 14.9824 16.4763 14.9824 14.9796H14.985ZM15.634 19.2152C15.2904 19.177 14.9494 19.1388 14.6134 19.1006C13.8625 17.8101 13.4527 16.4203 13.4527 14.9695C13.4527 13.5186 13.8981 12.0193 14.7075 10.6856C15.0384 10.6474 15.3744 10.6092 15.713 10.5736C15.0486 11.9532 14.6846 13.4346 14.6846 14.9771C14.6846 16.5196 15.0232 17.8814 15.634 19.2152ZM16.5198 14.9873C16.5198 13.3811 16.8457 11.8361 17.4413 10.4005C17.7926 10.3674 18.1463 10.3368 18.5052 10.3063C18.019 11.7826 17.7518 13.3582 17.7518 14.9949C17.7518 16.6316 17.9936 18.0647 18.4391 19.4824C18.0802 19.4519 17.7238 19.4213 17.3699 19.3883C16.8227 18.0036 16.5224 16.5247 16.5224 14.9847L16.5198 14.9873ZM32.7517 8.88342C37.6312 8.88342 42.2842 9.13032 46.4052 9.56559C46.4561 9.6954 46.512 9.82522 46.5604 9.95758C42.4038 9.62413 37.7279 9.43832 32.7517 9.43832C27.7755 9.43832 23.0996 9.62413 18.943 9.95758C18.9914 9.82522 19.0448 9.6954 19.0983 9.56559C23.2218 9.13032 27.8748 8.88342 32.7517 8.88342ZM19.2383 9.22196C19.2943 9.0896 19.3554 8.95978 19.4164 8.82997C23.3974 8.31834 27.9383 8.02817 32.7542 8.02817C37.5701 8.02817 42.1086 8.31834 46.0921 8.82997C46.1532 8.95978 46.2142 9.0896 46.2702 9.22196C42.2205 8.81215 37.6414 8.58307 32.7568 8.58307C27.8722 8.58307 23.2906 8.81215 19.2434 9.22196H19.2383ZM50.521 14.9796C50.521 16.4763 50.1672 17.9145 49.5233 19.2534C49.1771 19.289 48.8283 19.3246 48.477 19.3577C49.0014 17.9807 49.2891 16.512 49.2891 14.9873C49.2891 13.4626 48.9735 11.8641 48.4033 10.4336C48.7546 10.4667 49.1007 10.5023 49.4443 10.5379C50.1392 11.9252 50.5184 13.4193 50.5184 14.9796H50.521ZM49.7956 10.5736C50.1341 10.6092 50.4675 10.6474 50.7984 10.6856C51.6053 12.0168 52.0533 13.46 52.0533 14.9695C52.0533 16.4789 51.6435 17.8101 50.8926 19.1006C50.5566 19.1414 50.2155 19.1795 49.8719 19.2152C50.4853 17.8839 50.8214 16.4585 50.8214 14.9771C50.8214 13.4957 50.4574 11.9506 49.7931 10.5736H49.7956ZM48.9861 14.9873C48.9861 16.5272 48.6858 18.0061 48.1386 19.3908C47.7848 19.4239 47.4284 19.4544 47.0695 19.485C47.5149 18.0672 47.7568 16.5603 47.7568 14.9975C47.7568 13.4346 47.4895 11.7852 47.0033 10.3088C47.3622 10.3394 47.716 10.3699 48.0672 10.403C48.6603 11.8386 48.9887 13.3811 48.9887 14.9898L48.9861 14.9873ZM48.0087 19.7141C47.9552 19.8388 47.8942 19.9635 47.8382 20.0882C47.5022 20.129 47.1661 20.1671 46.8225 20.2053C46.8709 20.073 46.9167 19.9406 46.96 19.8057C47.3138 19.7752 47.6625 19.7472 48.0087 19.7141ZM46.7386 19.513C42.442 19.8668 37.6847 20.0552 32.7517 20.0552C27.8188 20.0552 23.064 19.8668 18.7648 19.513C18.3041 18.0901 18.0522 16.5731 18.0522 14.9975C18.0522 13.4219 18.3296 11.7623 18.8335 10.2808C23.1123 9.92958 27.8442 9.74376 32.7517 9.74376C37.6592 9.74376 42.3911 9.92958 46.6699 10.2808C47.1739 11.7623 47.4513 13.348 47.4513 14.9975C47.4513 16.6469 47.1993 18.0901 46.7386 19.513ZM46.8912 9.98558C46.8454 9.85576 46.7972 9.72849 46.7488 9.60377C47.0899 9.64195 47.4258 9.68013 47.7593 9.71831C47.8178 9.8354 47.8712 9.95503 47.9247 10.0772C47.5836 10.0467 47.24 10.0161 46.8912 9.98812V9.98558ZM18.6147 9.98558C18.266 10.0136 17.9223 10.0441 17.5812 10.0747C17.6347 9.95503 17.6907 9.8354 17.7467 9.71831C18.0801 9.67758 18.4161 9.6394 18.7572 9.60377C18.7089 9.73104 18.6605 9.85831 18.6147 9.98558ZM18.5459 19.8057C18.5918 19.9381 18.635 20.073 18.6834 20.2053C18.3398 20.1671 18.0039 20.129 17.6679 20.0882C17.6093 19.9635 17.5507 19.8413 17.4972 19.7141C17.8434 19.7446 18.1921 19.7752 18.5459 19.8057ZM18.8769 19.8337C23.0513 20.1722 27.75 20.3606 32.7542 20.3606C37.7584 20.3606 42.4572 20.1722 46.6316 19.8337C46.5832 19.9712 46.5349 20.1061 46.4815 20.241C42.3401 20.6813 37.6617 20.9308 32.7542 20.9308C27.8467 20.9308 23.1684 20.6788 19.0271 20.241C18.9761 20.1061 18.9253 19.9712 18.8769 19.8337ZM32.7517 21.2362C37.6668 21.2362 42.274 21.0046 46.3415 20.5871C46.2855 20.7246 46.2244 20.8595 46.1633 20.9944C42.162 21.5111 37.5956 21.8064 32.7492 21.8064C27.9028 21.8064 23.3364 21.5111 19.335 20.9944C19.2739 20.8595 19.2128 20.7246 19.1568 20.5871C23.2243 21.002 27.8315 21.2362 32.7466 21.2362H32.7517ZM48.0265 20.4013C48.3396 20.3631 48.6501 20.325 48.9581 20.2842C48.8894 20.3962 48.8233 20.5057 48.7494 20.6151C48.4516 20.6635 48.1487 20.7119 47.8433 20.7577C47.9069 20.638 47.968 20.5184 48.0291 20.3988L48.0265 20.4013ZM48.192 20.045C48.2455 19.9253 48.2988 19.8032 48.3497 19.681C48.6908 19.6479 49.0269 19.6148 49.3603 19.5817C49.3018 19.6937 49.2432 19.8057 49.1796 19.9152C48.8538 19.9584 48.528 20.0017 48.1945 20.0424L48.192 20.045ZM49.7192 19.5461C50.0425 19.513 50.3657 19.4773 50.6813 19.4417C50.6203 19.5384 50.5592 19.6377 50.4931 19.7344C50.1825 19.7802 49.8668 19.8261 49.5461 19.8719C49.6047 19.765 49.6658 19.6581 49.7192 19.5486V19.5461ZM51.0632 19.3959C51.3737 19.3603 51.6791 19.3221 51.982 19.2839C51.9184 19.3679 51.8471 19.4468 51.7809 19.5308C51.4882 19.5792 51.193 19.6275 50.8926 19.6733C50.9512 19.5817 51.0098 19.4901 51.0658 19.3984L51.0632 19.3959ZM51.2592 19.0574C51.9693 17.777 52.3587 16.4025 52.3587 14.9695C52.3587 13.5364 51.9414 12.055 51.1777 10.7314C51.501 10.7696 51.8217 10.8103 52.1374 10.851C53.0715 12.1237 53.5908 13.5109 53.5908 14.9618C53.5908 16.4127 53.1097 17.6981 52.2391 18.9352C51.9159 18.9784 51.5901 19.0192 51.2592 19.0599V19.0574ZM50.9665 10.3928C50.913 10.3063 50.8595 10.2172 50.8035 10.1332C51.0988 10.179 51.389 10.2248 51.6766 10.2732C51.7428 10.3496 51.8089 10.4259 51.87 10.5048C51.5722 10.4667 51.2719 10.431 50.9665 10.3954V10.3928ZM50.5871 10.347C50.2715 10.3114 49.9534 10.2758 49.6301 10.2427C49.5767 10.1408 49.5233 10.0365 49.4647 9.93721C49.7778 9.98049 50.0883 10.0238 50.3937 10.0696C50.4599 10.1612 50.5261 10.2528 50.5871 10.347ZM49.2661 10.2045C48.9377 10.1714 48.6069 10.1383 48.2734 10.1078C48.2225 9.99067 48.1666 9.87612 48.1131 9.76158C48.444 9.80231 48.7672 9.84303 49.0905 9.88631C49.1516 9.99067 49.2102 10.0976 49.2687 10.2045H49.2661ZM47.9426 9.40523C47.884 9.29068 47.823 9.17614 47.7619 9.0616C48.0622 9.10742 48.36 9.15323 48.6527 9.20159C48.724 9.30596 48.7952 9.41286 48.8639 9.51977C48.561 9.48159 48.2556 9.44341 47.9451 9.40523H47.9426ZM47.5761 9.36195C47.2579 9.32632 46.9372 9.29068 46.6114 9.25505C46.5579 9.12778 46.5019 9.00051 46.4433 8.87324C46.7615 8.91651 47.0771 8.95978 47.3876 9.0056C47.4538 9.12269 47.515 9.24232 47.5761 9.36195ZM46.2932 8.53979C46.2372 8.42016 46.176 8.30562 46.115 8.18853C46.4077 8.23689 46.6953 8.2878 46.983 8.33871C47.0517 8.44561 47.1153 8.55252 47.1814 8.65943C46.8887 8.6187 46.5935 8.57797 46.2932 8.53979ZM19.2129 8.53979C18.9151 8.57797 18.6172 8.6187 18.3245 8.65943C18.3906 8.55252 18.4543 8.44307 18.5231 8.33871C18.8082 8.2878 19.0983 8.23689 19.3885 8.18853C19.3299 8.30562 19.2688 8.42016 19.2103 8.53979H19.2129ZM19.0627 8.87324C19.0067 9.00051 18.9481 9.12523 18.8947 9.25505C18.5689 9.28814 18.2482 9.32377 17.93 9.36195C17.9936 9.24232 18.0521 9.12269 18.1183 9.0056C18.4288 8.95978 18.7446 8.91651 19.0627 8.87324ZM17.5635 9.40523C17.2529 9.44086 16.9475 9.47904 16.6446 9.51977C16.7133 9.41286 16.782 9.30596 16.8558 9.20159C17.1485 9.15323 17.4463 9.10742 17.7467 9.0616C17.6856 9.17614 17.6219 9.29068 17.5659 9.40523H17.5635ZM17.3929 9.76158C17.3395 9.87612 17.2834 9.99067 17.2325 10.1078C16.8965 10.1383 16.5656 10.1714 16.2398 10.2045C16.2984 10.0976 16.3544 9.99067 16.418 9.88631C16.7388 9.84303 17.0645 9.80231 17.3954 9.76158H17.3929ZM15.8759 10.2427C15.5526 10.2758 15.2344 10.3114 14.9188 10.347C14.9799 10.2528 15.0461 10.1612 15.1123 10.0696C15.4177 10.0238 15.7282 9.98049 16.0413 9.93721C15.9853 10.039 15.9294 10.1408 15.8759 10.2427ZM14.5396 10.3928C14.2341 10.4285 13.9337 10.4641 13.6359 10.5023C13.6995 10.4259 13.7632 10.347 13.8294 10.2707C14.117 10.2223 14.4071 10.1765 14.7024 10.1307C14.6439 10.2172 14.593 10.3038 14.5396 10.3903V10.3928ZM14.3283 10.7314C13.5647 12.055 13.1472 13.4829 13.1472 14.9695C13.1472 16.456 13.5366 17.777 14.2468 19.0574C13.9159 19.0166 13.5902 18.9759 13.2669 18.9326C12.3964 17.6956 11.9153 16.3592 11.9153 14.9593C11.9153 13.5593 12.4345 12.1237 13.3687 10.8485C13.6843 10.8077 14.005 10.767 14.3283 10.7288V10.7314ZM14.4428 19.3959C14.4988 19.4875 14.5548 19.5792 14.6159 19.6708C14.3155 19.625 14.0177 19.5766 13.7275 19.5283C13.6588 19.4468 13.5902 19.3653 13.5265 19.2814C13.8294 19.3195 14.1348 19.3577 14.4454 19.3933L14.4428 19.3959ZM14.8246 19.4392C15.1402 19.4748 15.4635 19.5104 15.7868 19.5435C15.8402 19.653 15.9013 19.7573 15.9598 19.8668C15.6391 19.8235 15.3235 19.7777 15.013 19.7293C14.9468 19.6326 14.8857 19.5359 14.8246 19.4366V19.4392ZM16.1482 19.5843C16.4817 19.6173 16.8177 19.6504 17.1588 19.6835C17.2097 19.8057 17.2605 19.9253 17.3165 20.0475C16.9831 20.0068 16.6548 19.9635 16.3315 19.9202C16.2679 19.8108 16.2092 19.6988 16.1507 19.5868L16.1482 19.5843ZM17.4794 20.4013C17.538 20.521 17.6016 20.6406 17.6653 20.7602C17.3598 20.7144 17.0569 20.666 16.7591 20.6177C16.6853 20.5082 16.6191 20.3962 16.5504 20.2868C16.8584 20.3275 17.1663 20.3657 17.4819 20.4039L17.4794 20.4013ZM17.8384 20.4446C18.1616 20.4828 18.49 20.5184 18.8209 20.554C18.8743 20.6864 18.9278 20.8188 18.9838 20.9511C18.6631 20.9079 18.3474 20.8646 18.0369 20.8188C17.9681 20.694 17.902 20.5719 17.8384 20.4446ZM19.1364 21.2846C19.1924 21.4068 19.2511 21.5289 19.3122 21.6511C19.0169 21.6027 18.7241 21.5518 18.4364 21.4984C18.3677 21.3864 18.299 21.2744 18.2329 21.1624C18.5307 21.2057 18.831 21.2464 19.1364 21.2871V21.2846ZM19.4903 21.3304C23.4382 21.8318 27.941 22.1118 32.7517 22.1118C37.5625 22.1118 42.0653 21.8318 46.0132 21.3304C45.9521 21.4577 45.8858 21.5849 45.8196 21.7097C41.9456 22.3307 37.4887 22.6845 32.7517 22.6845C28.0148 22.6845 23.5578 22.3307 19.6838 21.7097C19.6176 21.5824 19.5514 21.4577 19.4903 21.3304ZM32.7517 22.9874C37.4174 22.9874 41.8133 22.6387 45.6568 22.0253C45.5856 22.1526 45.5117 22.2798 45.4378 22.4045C41.7012 23.1376 37.369 23.5576 32.7517 23.5576C28.1344 23.5576 23.8022 23.1351 20.0656 22.4045C19.9918 22.2798 19.9179 22.1526 19.8466 22.0253C23.6901 22.6387 28.086 22.9874 32.7517 22.9874ZM47.2706 21.7478C47.5226 21.702 47.7695 21.6537 48.0164 21.6053C47.9375 21.702 47.8559 21.7962 47.7719 21.8929C47.5378 21.9515 47.3011 22.01 47.0593 22.066C47.1306 21.9616 47.2044 21.8573 47.2706 21.7504V21.7478ZM47.4666 21.4246C47.5302 21.3177 47.5964 21.2133 47.6575 21.1039C47.94 21.0631 48.22 21.0199 48.4949 20.974C48.4262 21.0708 48.3548 21.1675 48.281 21.2642C48.0137 21.3177 47.7414 21.3711 47.464 21.4246H47.4666ZM49.1465 20.5515C49.2127 20.4471 49.2788 20.3428 49.3399 20.2359C49.6352 20.1951 49.9279 20.1544 50.2155 20.1137C50.1417 20.2104 50.0654 20.3071 49.9891 20.4013C49.7116 20.4522 49.429 20.5031 49.1439 20.5515H49.1465ZM51.8904 19.8541C52.1271 19.8133 52.3613 19.7752 52.5904 19.7344C52.5242 19.793 52.4631 19.8515 52.3944 19.9075C52.1704 19.9584 51.9388 20.0093 51.7072 20.0602C51.7683 19.9915 51.8293 19.9228 51.8904 19.8541ZM52.2214 19.4519C52.2774 19.3781 52.3282 19.3043 52.3842 19.2279C52.6718 19.1897 52.9544 19.1515 53.2318 19.1108C53.1707 19.1744 53.1096 19.2381 53.046 19.3017C52.7762 19.3526 52.5014 19.401 52.2214 19.4493V19.4519ZM52.6311 18.8817C53.4457 17.6574 53.891 16.3363 53.891 14.9593C53.891 13.5822 53.41 12.1644 52.5369 10.9019C52.8475 10.9426 53.1529 10.9859 53.4533 11.0292C54.5249 12.2382 55.1205 13.5619 55.1205 14.9491C55.1205 16.3363 54.5605 17.5708 53.5551 18.7494C53.2496 18.7952 52.9416 18.8385 52.6285 18.8792L52.6311 18.8817ZM53.5729 10.7339C53.527 10.683 53.4762 10.6347 53.4278 10.5837C53.6773 10.6321 53.9241 10.6805 54.166 10.7314C54.2143 10.7696 54.2653 10.8077 54.3111 10.8459C54.0693 10.8077 53.8223 10.7721 53.5729 10.7339ZM53.1123 10.6677C52.8399 10.6296 52.565 10.5914 52.285 10.5557C52.2316 10.4845 52.1755 10.4157 52.1195 10.347C52.3969 10.3954 52.6719 10.4437 52.9391 10.4921C52.9977 10.5507 53.0536 10.6092 53.1096 10.6677H53.1123ZM51.786 9.94485C51.7275 9.87867 51.6638 9.81503 51.6053 9.7514C51.8318 9.79976 52.0534 9.84812 52.2748 9.89903C52.341 9.95249 52.4072 10.0059 52.4708 10.0619C52.2468 10.0212 52.0177 9.98303 51.7886 9.94485H51.786ZM50.1137 9.68776C49.8287 9.64704 49.541 9.60631 49.2457 9.56813C49.1846 9.46886 49.1261 9.36705 49.0599 9.26778C49.3399 9.31614 49.6148 9.3645 49.8872 9.41286C49.9635 9.5045 50.04 9.59359 50.1112 9.68776H50.1137ZM48.3982 8.84269C48.1233 8.79942 47.8459 8.75615 47.5659 8.71542C47.5073 8.61361 47.4462 8.51179 47.3825 8.40998C47.6524 8.46089 47.9197 8.51179 48.1818 8.56525C48.2531 8.65688 48.3269 8.74852 48.3956 8.84015L48.3982 8.84269ZM47.1764 8.08671C47.1102 7.9849 47.044 7.88563 46.9728 7.78636C47.2095 7.83981 47.4411 7.89835 47.6728 7.95435C47.7542 8.04599 47.8356 8.13508 47.912 8.22671C47.6702 8.17835 47.4233 8.13253 47.1739 8.08671H47.1764ZM46.7615 8.01035C46.4942 7.96199 46.227 7.91617 45.9546 7.8729C45.891 7.75581 45.8222 7.64127 45.756 7.52418C46.0207 7.57763 46.2778 7.63363 46.5349 7.68963C46.6113 7.79654 46.6877 7.90344 46.7615 8.01035ZM45.56 7.19328C45.4964 7.08892 45.4277 6.9871 45.3615 6.88274C45.5881 6.93874 45.8172 6.99729 46.0386 7.05583C46.115 7.15001 46.1939 7.24419 46.2677 7.33837C46.0335 7.28746 45.7967 7.24164 45.56 7.19328ZM19.9459 7.19328C19.7092 7.24164 19.47 7.28746 19.2383 7.33837C19.3122 7.24164 19.391 7.15001 19.4674 7.05583C19.6888 6.99729 19.918 6.93874 20.1445 6.88274C20.0783 6.9871 20.0095 7.08892 19.9459 7.19328ZM19.7525 7.52418C19.6863 7.64127 19.6175 7.75581 19.5539 7.8729C19.2815 7.91872 19.0118 7.96453 18.747 8.01035C18.8209 7.90344 18.8972 7.79654 18.9736 7.68963C19.2307 7.63363 19.4903 7.57763 19.7525 7.52418ZM18.3296 8.08671C18.0827 8.13253 17.8358 8.17835 17.5914 8.22671C17.6678 8.13508 17.7518 8.04599 17.8307 7.95435C18.0623 7.89835 18.2939 7.83981 18.5307 7.78636C18.4619 7.88563 18.3957 7.9849 18.3296 8.08671ZM18.1234 8.40998C18.0623 8.51179 18.0013 8.61106 17.9402 8.71542C17.6602 8.75615 17.3827 8.79942 17.1078 8.84269C17.1766 8.74851 17.2503 8.65943 17.3216 8.56779C17.5863 8.51434 17.851 8.46343 18.1234 8.41252V8.40998ZM16.4435 9.26778C16.3799 9.36705 16.3188 9.46632 16.2577 9.56813C15.965 9.60631 15.6773 9.64704 15.3897 9.68776C15.461 9.59613 15.5373 9.5045 15.6137 9.41286C15.886 9.3645 16.1609 9.31614 16.4409 9.26778H16.4435ZM13.7199 9.94485C13.4883 9.98303 13.2617 10.0212 13.0377 10.0619C13.1013 10.0059 13.1675 9.95249 13.2337 9.89903C13.4526 9.84812 13.6767 9.79976 13.9032 9.7514C13.8421 9.81503 13.7785 9.87867 13.7225 9.94485H13.7199ZM13.3865 10.3445C13.3305 10.4132 13.2745 10.4845 13.221 10.5532C12.941 10.5888 12.6661 10.627 12.3938 10.6652C12.4523 10.6067 12.5058 10.5481 12.5643 10.4896C12.8341 10.4387 13.1065 10.3903 13.384 10.3445H13.3865ZM11.9331 10.7339C11.6836 10.7696 11.4367 10.8077 11.1949 10.8459C11.2407 10.8077 11.2916 10.7696 11.34 10.7314C11.5818 10.6805 11.8286 10.6321 12.0781 10.5837C12.0297 10.6347 11.9814 10.683 11.9331 10.7339ZM10.383 14.9516C10.383 13.5644 10.9785 12.2408 12.0501 11.0317C12.353 10.9885 12.656 10.9452 12.9665 10.9045C12.0934 12.167 11.6124 13.5339 11.6124 14.9618C11.6124 16.3898 12.0578 17.6574 12.8723 18.8843C12.5592 18.841 12.2512 18.7977 11.9457 18.7545C10.9403 17.5759 10.3803 16.2956 10.3803 14.9542L10.383 14.9516ZM13.1217 19.2304C13.1752 19.3043 13.2261 19.3806 13.2847 19.4544C13.0047 19.4061 12.7323 19.3577 12.4599 19.3068C12.3963 19.2432 12.3352 19.1795 12.2741 19.1159C12.5515 19.1541 12.8341 19.1948 13.1217 19.233V19.2304ZM13.6155 19.8541C13.6741 19.9228 13.7352 19.9915 13.7988 20.0602C13.5672 20.0093 13.3381 19.9584 13.1115 19.9075C13.0428 19.849 12.9817 19.7904 12.9155 19.7344C13.1446 19.7752 13.3788 19.8159 13.6155 19.8541ZM15.2879 20.1137C15.5755 20.1544 15.8682 20.1951 16.1635 20.2359C16.2271 20.3428 16.2907 20.4471 16.3569 20.5515C16.0718 20.5031 15.7893 20.4522 15.5119 20.4013C15.4355 20.3046 15.3591 20.2104 15.2853 20.1137H15.2879ZM17.0085 20.9766C17.2834 21.0199 17.5634 21.0631 17.846 21.1064C17.9071 21.2133 17.9732 21.3202 18.0369 21.4271C17.762 21.3762 17.4896 21.3228 17.2198 21.2668C17.146 21.17 17.0773 21.0733 17.006 20.9766H17.0085ZM18.2355 21.7478C18.3042 21.8547 18.3754 21.9591 18.4466 22.0635C18.2048 22.0075 17.9682 21.9489 17.734 21.8904C17.6525 21.7962 17.5685 21.6995 17.4896 21.6053C17.734 21.6537 17.9835 21.702 18.2355 21.7478ZM18.6503 21.8242C18.9202 21.8726 19.195 21.9184 19.4725 21.9642C19.5361 22.0864 19.6023 22.2086 19.671 22.3282C19.4012 22.2722 19.1391 22.2162 18.8769 22.1576C18.798 22.0482 18.7267 21.9362 18.6503 21.8242ZM19.8619 22.6591C19.9281 22.7685 19.9943 22.8754 20.063 22.9824C19.8313 22.9238 19.5997 22.8678 19.3732 22.8067C19.2943 22.7074 19.2179 22.6082 19.1415 22.5089C19.3782 22.5598 19.6201 22.6107 19.8619 22.6591ZM20.2667 22.7405C23.9677 23.4558 28.2235 23.8656 32.7517 23.8656C37.2799 23.8656 41.5358 23.4558 45.2367 22.7405C45.1629 22.8576 45.0891 22.9747 45.0128 23.0893C41.4263 23.9445 37.2316 24.4383 32.7517 24.4383C28.2718 24.4383 24.0771 23.9445 20.4906 23.0893C20.4143 22.9747 20.3405 22.8576 20.2667 22.7405ZM32.7517 24.7412C37.1247 24.7412 41.2253 24.2678 44.771 23.4431C44.6998 23.5449 44.6284 23.6492 44.5521 23.7485C41.1234 24.7387 37.0814 25.3139 32.7517 25.3139C28.422 25.3139 24.38 24.7387 20.9514 23.7485C20.8776 23.6492 20.8062 23.5449 20.7324 23.4431C24.2756 24.2678 28.3788 24.7412 32.7517 24.7412ZM46.3211 23.0536C46.4764 23.0104 46.6265 22.9645 46.7793 22.9213C46.7233 22.9722 46.6674 23.0256 46.6114 23.0765C46.4637 23.13 46.3161 23.186 46.1659 23.2394C46.2168 23.1783 46.2702 23.1173 46.3211 23.0536ZM46.624 22.6667C46.6902 22.5802 46.7564 22.4936 46.82 22.4071C47.0287 22.3587 47.2375 22.3104 47.4437 22.262C47.3699 22.3409 47.2909 22.4198 47.2145 22.4962C47.0211 22.5547 46.8225 22.6107 46.6265 22.6667H46.624ZM47.9579 22.1347C48.1182 22.094 48.2759 22.0507 48.4338 22.01C48.3778 22.0584 48.3218 22.1093 48.2658 22.1576C48.1131 22.2086 47.9603 22.262 47.8025 22.3129C47.856 22.2544 47.907 22.1933 47.9579 22.1347ZM48.276 21.7606C48.3422 21.6791 48.4083 21.5951 48.4719 21.5111C48.6908 21.4653 48.9046 21.4195 49.1185 21.3711C49.0421 21.4475 48.9658 21.5238 48.8869 21.5977C48.6884 21.6537 48.4822 21.7071 48.276 21.7606ZM49.6454 21.2515C49.8134 21.2108 49.9814 21.1726 50.1494 21.1319C50.0883 21.1802 50.0298 21.2311 49.9687 21.2795C49.8109 21.3278 49.6479 21.3762 49.4876 21.4246C49.5436 21.3686 49.5945 21.31 49.6479 21.2515H49.6454ZM49.9712 20.8926C50.0272 20.8264 50.0806 20.7577 50.1366 20.6915C50.358 20.6508 50.5796 20.6075 50.7959 20.5642C50.7348 20.6202 50.6789 20.6762 50.6152 20.7322C50.404 20.7857 50.1901 20.8391 49.9712 20.8926ZM51.3355 20.4548C51.506 20.4191 51.6765 20.3835 51.8445 20.3453C51.8038 20.3759 51.7605 20.4039 51.7224 20.4344C51.5518 20.4828 51.3813 20.5311 51.2082 20.577C51.2515 20.5362 51.2973 20.4955 51.3381 20.4548H51.3355ZM52.4733 20.2053C52.5064 20.1977 52.5369 20.1901 52.57 20.1824C52.5318 20.1951 52.4962 20.2053 52.458 20.2181C52.4631 20.213 52.4682 20.2104 52.4733 20.2053ZM53.1172 19.6352C53.3056 19.5995 53.4915 19.5639 53.6748 19.5283C53.6264 19.5613 53.578 19.5944 53.5296 19.6275C53.3463 19.6759 53.1605 19.7217 52.9722 19.7675C53.0205 19.7217 53.0714 19.6784 53.1172 19.6352ZM53.5322 19.2126C53.5831 19.1592 53.634 19.1032 53.6824 19.0497C53.9369 19.0115 54.1864 18.9734 54.4333 18.9352C54.3849 18.9759 54.3391 19.0192 54.2907 19.0599C54.0438 19.1108 53.7892 19.1617 53.5347 19.2126H53.5322ZM54.9449 18.8537C55.1536 18.8181 55.3598 18.785 55.5634 18.7494C55.5405 18.7646 55.515 18.7799 55.4921 18.7977C55.2808 18.8461 55.0645 18.897 54.8456 18.9454C54.8786 18.9148 54.9143 18.8868 54.9449 18.8563V18.8537ZM58.4957 14.9338C58.4957 13.7349 57.8059 12.5921 56.5663 11.5459C56.7979 11.5892 57.027 11.635 57.251 11.6808C58.8393 12.6684 59.7276 13.768 59.7276 14.9262C59.7276 16.0843 58.8877 17.1254 57.3783 18.0927C57.1466 18.141 56.9125 18.1868 56.6707 18.2326C57.8441 17.2119 58.4982 16.0996 58.4982 14.9338H58.4957ZM55.4158 11.0241C55.2198 10.991 55.0212 10.9579 54.8227 10.9248C54.7947 10.8994 54.7693 10.8765 54.7413 10.851C54.9525 10.8968 55.1638 10.9426 55.3674 10.991C55.3852 11.0012 55.4004 11.0139 55.4183 11.0241H55.4158ZM53.5296 10.2579C53.354 10.2248 53.1758 10.1892 52.9951 10.1561C52.9518 10.1154 52.9086 10.0772 52.8653 10.0365C53.046 10.0798 53.2268 10.1256 53.405 10.1688C53.4482 10.1968 53.4889 10.2274 53.5322 10.2554L53.5296 10.2579ZM54.1507 10.3699C54.2143 10.3877 54.278 10.4056 54.3391 10.4208C54.2831 10.4081 54.2271 10.3979 54.1737 10.3877C54.166 10.3827 54.1583 10.375 54.1507 10.3699ZM51.7021 9.45613C51.5417 9.4205 51.3788 9.38741 51.2159 9.35432C51.1777 9.31868 51.1395 9.28305 51.1013 9.24487C51.2693 9.29068 51.4347 9.3365 51.6002 9.38232C51.6333 9.40777 51.669 9.43068 51.7021 9.45613ZM50.6763 9.24487C50.465 9.20414 50.2512 9.16341 50.0348 9.12269C49.9814 9.05905 49.9254 8.99796 49.8694 8.93433C50.0832 8.98524 50.2945 9.03614 50.5032 9.0896C50.5618 9.14051 50.6177 9.19396 50.6763 9.24487ZM49.5436 8.57797C49.4927 8.52452 49.4366 8.47107 49.3832 8.41761C49.5359 8.46343 49.6937 8.5067 49.8439 8.55252C49.905 8.60088 49.9686 8.6467 50.0297 8.69252C49.8694 8.65434 49.7065 8.61615 49.5436 8.57797ZM49.0014 8.45325C48.7952 8.40743 48.584 8.36416 48.3727 8.31834C48.3091 8.23944 48.2505 8.16053 48.1843 8.08162C48.3854 8.13508 48.5866 8.18853 48.7851 8.24198C48.8589 8.31071 48.9276 8.38198 49.0014 8.45325ZM47.8586 7.71C47.8102 7.65654 47.7643 7.60054 47.7134 7.54709C47.8636 7.59545 48.0113 7.64382 48.1564 7.69218C48.2098 7.73799 48.2632 7.78381 48.3167 7.82708C48.1665 7.78636 48.0113 7.74818 47.8586 7.71ZM47.3291 7.58018C47.1306 7.53182 46.927 7.486 46.7233 7.44018C46.6622 7.35873 46.6011 7.27728 46.54 7.19583C46.7335 7.24928 46.927 7.30273 47.1153 7.36128C47.1891 7.43509 47.2604 7.50636 47.3291 7.58018ZM46.2269 6.80893C46.1786 6.75293 46.1327 6.69438 46.0844 6.63838C46.232 6.68929 46.3745 6.74275 46.5196 6.7962C46.5705 6.84202 46.619 6.89038 46.6699 6.9362C46.5223 6.89292 46.3771 6.84965 46.2269 6.80893ZM45.7179 6.67657C45.5219 6.62566 45.3259 6.57475 45.1274 6.52639C45.0688 6.43984 45.0078 6.35585 44.9467 6.27185C45.135 6.32785 45.3234 6.38639 45.5092 6.44748C45.5805 6.52384 45.6517 6.59766 45.7205 6.67657H45.7179ZM44.6565 5.87986C44.6106 5.81877 44.5623 5.75768 44.5139 5.69659C44.6564 5.75004 44.7939 5.8035 44.9339 5.85695C44.9848 5.90786 45.0357 5.95622 45.0866 6.00713C44.9441 5.96385 44.8015 5.92058 44.6565 5.87731V5.87986ZM20.8496 5.87986C20.7045 5.92313 20.5618 5.9664 20.4193 6.00967C20.4702 5.95876 20.5211 5.90786 20.5721 5.85949C20.712 5.80604 20.8495 5.75004 20.992 5.69913C20.9437 5.76022 20.8954 5.81877 20.8496 5.8824V5.87986ZM20.5594 6.27185C20.4983 6.35585 20.4372 6.43984 20.3787 6.52639C20.1801 6.57475 19.9841 6.62566 19.7881 6.67657C19.8568 6.6002 19.9281 6.52384 19.9993 6.44748C20.1852 6.38894 20.371 6.33039 20.5594 6.27185ZM19.279 6.80893C19.1288 6.84965 18.9838 6.89292 18.8362 6.9362C18.8871 6.89038 18.9354 6.84202 18.9863 6.7962C19.1314 6.74275 19.2739 6.68929 19.4215 6.63838C19.3732 6.69438 19.3273 6.75293 19.279 6.80893ZM18.9659 7.19583C18.9023 7.27728 18.8438 7.35873 18.7827 7.44018C18.5791 7.486 18.378 7.53182 18.1769 7.58018C18.2482 7.50636 18.3194 7.43255 18.3907 7.36128C18.5791 7.30528 18.7725 7.25182 18.9659 7.19583ZM17.6475 7.71C17.4948 7.74818 17.3394 7.7889 17.1892 7.82708C17.2427 7.78127 17.2937 7.73545 17.3497 7.69218C17.4973 7.64382 17.6449 7.59545 17.7925 7.54709C17.7416 7.60054 17.6958 7.65654 17.6475 7.71ZM17.3216 8.08417C17.258 8.16307 17.1969 8.24198 17.1333 8.32089C16.922 8.36416 16.7107 8.40998 16.5045 8.4558C16.5758 8.38452 16.6471 8.31325 16.7209 8.24453C16.9195 8.19107 17.1205 8.13762 17.3216 8.08417ZM15.9624 8.57797C15.7995 8.61615 15.6366 8.65434 15.4762 8.69252C15.5373 8.64415 15.6009 8.59834 15.662 8.55252C15.8122 8.5067 15.97 8.46343 16.1227 8.41761C16.0693 8.47107 16.0159 8.52452 15.9624 8.57797ZM15.6365 8.93433C15.5805 8.99796 15.5246 9.05905 15.4711 9.12269C15.2547 9.16341 15.0409 9.20414 14.8297 9.24487C14.8857 9.19396 14.9443 9.14051 15.0028 9.0896C15.2115 9.03614 15.4227 8.98524 15.6365 8.93433ZM14.2926 9.35177C14.1297 9.38486 13.9668 9.4205 13.8064 9.45359C13.8395 9.42813 13.8752 9.40523 13.9083 9.37977C14.0712 9.33395 14.2392 9.28814 14.4072 9.24232C14.369 9.27796 14.3308 9.31359 14.2926 9.35177ZM12.5109 10.1561C12.3301 10.1892 12.1519 10.2223 11.9763 10.2579C12.017 10.2299 12.0603 10.1994 12.1036 10.1714C12.2818 10.1256 12.46 10.0823 12.6432 10.039C12.6 10.0798 12.5567 10.1179 12.5135 10.1587L12.5109 10.1561ZM11.3324 10.3877C11.2764 10.3979 11.2204 10.4107 11.167 10.4208C11.228 10.403 11.2916 10.3852 11.3552 10.3699C11.3476 10.375 11.34 10.3827 11.3324 10.3877ZM10.6832 10.9248C10.4821 10.9579 10.2837 10.991 10.0903 11.0241C10.1081 11.0139 10.1233 11.0012 10.1411 10.991C10.3447 10.9426 10.556 10.8968 10.7673 10.851C10.7393 10.8765 10.7113 10.8994 10.6858 10.9248H10.6832ZM7.01033 14.9338C7.01033 16.0996 7.66441 17.2094 8.83783 18.2326C8.59602 18.1868 8.35936 18.1385 8.13027 18.0927C6.62086 17.1254 5.78089 16.0538 5.78089 14.9262C5.78089 13.7986 6.66923 12.6684 8.25754 11.6808C8.48154 11.635 8.71061 11.5917 8.94223 11.5459C7.70264 12.5921 7.01282 13.7349 7.01282 14.9338H7.01033ZM9.94261 18.7468C10.1462 18.7825 10.3523 18.8181 10.5611 18.8512C10.5942 18.8817 10.6273 18.9097 10.6604 18.9403C10.4415 18.8919 10.2251 18.8435 10.0138 18.7926C9.99092 18.7774 9.96552 18.7621 9.94261 18.7443V18.7468ZM11.0727 18.9352C11.3196 18.9734 11.569 19.0115 11.8236 19.0497C11.8719 19.1057 11.9229 19.1592 11.9738 19.2126C11.7167 19.1617 11.4647 19.1134 11.2178 19.0599C11.1669 19.0192 11.1236 18.9759 11.0752 18.9352H11.0727ZM12.3887 19.6352C12.4345 19.681 12.4854 19.7242 12.5337 19.7675C12.3454 19.7217 12.1596 19.6759 11.9763 19.6275C11.9279 19.5944 11.8771 19.5613 11.8313 19.5283C12.0145 19.5639 12.2003 19.5995 12.3887 19.6352ZM13.6639 20.3479C13.8319 20.3835 13.9999 20.4217 14.1729 20.4573C14.2137 20.498 14.2595 20.5388 14.3028 20.5795C14.1297 20.5337 13.9566 20.4853 13.7886 20.437C13.7479 20.4064 13.7047 20.3784 13.6665 20.3479H13.6639ZM13.0479 20.2181C13.0097 20.2053 12.9741 20.1951 12.9359 20.1824C12.969 20.1901 12.9995 20.1977 13.0326 20.2053C13.0377 20.2104 13.0428 20.213 13.0479 20.2181ZM14.7101 20.5642C14.9265 20.6075 15.1479 20.6508 15.3693 20.6915C15.4253 20.7577 15.4762 20.8264 15.5347 20.8926C15.3158 20.8417 15.1021 20.7882 14.8908 20.7322C14.8297 20.6762 14.7712 20.6202 14.7101 20.5642ZM15.8606 21.2515C15.9141 21.31 15.9649 21.366 16.0209 21.4246C15.8606 21.3762 15.6976 21.3278 15.5398 21.2795C15.4787 21.2311 15.4177 21.1802 15.3591 21.1319C15.5246 21.1726 15.6926 21.2133 15.8631 21.2515H15.8606ZM16.3875 21.3711C16.6013 21.4195 16.8151 21.4653 17.034 21.5111C17.0976 21.5951 17.1638 21.6791 17.23 21.7606C17.0264 21.7071 16.8202 21.6537 16.6191 21.5977C16.5402 21.5213 16.4638 21.4475 16.3875 21.3711ZM17.5482 22.1347C17.5991 22.1933 17.65 22.2544 17.7034 22.3129C17.5456 22.262 17.3929 22.2111 17.2402 22.1576C17.1817 22.1093 17.1282 22.0584 17.0722 22.01C17.23 22.0533 17.3878 22.094 17.5482 22.1347ZM18.0623 22.262C18.2685 22.3129 18.4747 22.3613 18.686 22.4071C18.7496 22.4936 18.8157 22.5802 18.8819 22.6667C18.6833 22.6107 18.4875 22.5547 18.294 22.4962C18.2177 22.4173 18.1386 22.3409 18.0648 22.262H18.0623ZM19.1849 23.0536C19.2358 23.1147 19.2867 23.1783 19.3401 23.2394C19.19 23.186 19.0423 23.1325 18.8947 23.0765C18.8387 23.0256 18.7827 22.9722 18.7267 22.9213C18.8794 22.9645 19.0296 23.0104 19.1849 23.0536ZM19.6889 23.186C19.8874 23.2369 20.0884 23.2903 20.292 23.3413C20.3531 23.4329 20.4168 23.522 20.4805 23.6111C20.287 23.5525 20.096 23.4914 19.9051 23.4278C19.8313 23.3489 19.7601 23.2674 19.6889 23.186ZM20.7579 23.9954C20.8088 24.0616 20.8623 24.1252 20.9132 24.1914C20.7681 24.138 20.6255 24.082 20.4856 24.026C20.4296 23.97 20.371 23.9165 20.3175 23.8605C20.4626 23.9063 20.6103 23.9496 20.7605 23.9929L20.7579 23.9954ZM21.2567 24.138C24.6294 25.0747 28.5594 25.6168 32.7542 25.6168C36.949 25.6168 40.8766 25.0772 44.2518 24.138C44.1856 24.222 44.1194 24.306 44.0507 24.3874C40.7926 25.5252 36.9159 26.1895 32.7542 26.1895C28.5925 26.1895 24.7159 25.5252 21.4578 24.3874C21.3891 24.306 21.3255 24.222 21.2567 24.138ZM45.7256 23.7383C45.7459 23.7154 45.7662 23.6925 45.7866 23.6696C45.8604 23.6442 45.9367 23.6187 46.0106 23.5932C45.9927 23.6085 45.9775 23.6212 45.9597 23.6365C45.8834 23.6696 45.8019 23.7027 45.723 23.7358L45.7256 23.7383ZM47.3393 22.7991C47.3597 22.7787 47.3775 22.7584 47.3978 22.738C47.4793 22.7125 47.5582 22.6871 47.6397 22.6616C47.6219 22.6744 47.604 22.6871 47.5887 22.6998C47.5073 22.7329 47.4233 22.766 47.3393 22.7991ZM49.0065 21.8955C49.0268 21.8751 49.0473 21.8547 49.0676 21.8369C49.1516 21.814 49.233 21.7886 49.3144 21.7631C49.2966 21.7758 49.2789 21.786 49.2636 21.7987C49.1796 21.8318 49.0931 21.8649 49.0091 21.8955H49.0065ZM50.7068 21.0402C50.7348 21.0173 50.7628 20.9919 50.7908 20.9689C50.8799 20.946 50.969 20.9231 51.0556 20.9002C51.0352 20.9129 51.0148 20.9257 50.9944 20.9384C50.8977 20.9715 50.8035 21.0071 50.7042 21.0402H50.7068ZM54.2932 19.4035C54.3899 19.3832 54.4867 19.3628 54.5834 19.3424C54.474 19.373 54.3646 19.4061 54.2526 19.4366C54.2653 19.4264 54.2805 19.4163 54.2932 19.4035ZM60.028 14.9262C60.028 13.8266 59.2797 12.7804 57.9281 11.8259C58.1139 11.8666 58.2945 11.9073 58.4727 11.9481C60.257 12.8491 61.26 13.8546 61.26 14.9185C61.26 15.9825 60.3028 16.9421 58.5949 17.8254C58.4116 17.8687 58.2233 17.9119 58.0324 17.9527C59.3178 17.0185 60.028 15.9978 60.028 14.9287V14.9262ZM50.9206 8.91651C50.8366 8.8936 50.7552 8.87324 50.6712 8.85033C50.6508 8.83251 50.6279 8.81215 50.605 8.79433C50.6967 8.82488 50.7858 8.85542 50.8749 8.88597C50.8901 8.89615 50.9054 8.90633 50.9181 8.91397L50.9206 8.91651ZM49.177 8.0638C49.1057 8.04344 49.0345 8.02308 48.9632 8.00272C48.9454 7.9849 48.925 7.96708 48.9047 7.95181C48.9861 7.98235 49.0676 8.0129 49.149 8.04344C49.1592 8.05108 49.1694 8.05617 49.177 8.0638ZM47.5098 7.18564C47.4385 7.16274 47.3698 7.13983 47.2985 7.11946C47.2833 7.10419 47.2705 7.08892 47.2553 7.07619C47.3316 7.10674 47.4054 7.13474 47.4792 7.16528C47.4894 7.17292 47.4996 7.18055 47.5098 7.18819V7.18564ZM45.9088 6.27439C45.8375 6.25148 45.7663 6.22603 45.695 6.20312C45.6797 6.1853 45.6619 6.16749 45.6466 6.14967C45.723 6.18276 45.7993 6.2133 45.8731 6.24639C45.8858 6.25658 45.896 6.26421 45.9088 6.27439ZM44.3561 5.32751C44.2873 5.30205 44.2186 5.27914 44.1499 5.25624C44.132 5.23333 44.1117 5.21296 44.0913 5.19006C44.1651 5.22315 44.239 5.25624 44.3103 5.28933C44.3256 5.30205 44.3408 5.31478 44.3536 5.33005L44.3561 5.32751ZM42.8772 4.35517C39.9194 3.22247 36.4552 2.57085 32.7542 2.57085C29.0532 2.57085 25.5891 3.22247 22.6313 4.35517C22.6466 4.33989 22.6644 4.32462 22.6797 4.30935C25.5458 2.86357 29.015 2.01595 32.7542 2.01595C36.4934 2.01595 39.9653 2.86611 42.8288 4.30935C42.8441 4.32462 42.8619 4.33989 42.8772 4.35517ZM21.4146 5.19006C21.3942 5.21296 21.3764 5.23333 21.3561 5.25624C21.2873 5.27914 21.2186 5.3046 21.1499 5.32751C21.1651 5.31478 21.1805 5.29951 21.1957 5.28678C21.267 5.25369 21.3433 5.2206 21.4146 5.18751V5.19006ZM19.8619 6.14967C19.8466 6.16749 19.8288 6.1853 19.8135 6.20312C19.7423 6.22603 19.671 6.25148 19.5998 6.27439C19.6125 6.26421 19.6227 6.25658 19.6354 6.24639C19.7093 6.2133 19.7855 6.18276 19.8619 6.14967ZM18.2506 7.07365C18.2354 7.08892 18.2227 7.10419 18.2074 7.11946C18.1361 7.14237 18.0674 7.16528 17.9961 7.18564C18.0063 7.17801 18.0165 7.17037 18.0267 7.16273C18.1005 7.13219 18.1768 7.10165 18.2506 7.07365ZM16.6012 7.95181C16.5809 7.96962 16.5605 7.98744 16.5427 8.00272C16.4714 8.02308 16.4002 8.04344 16.3289 8.0638C16.3391 8.05617 16.3493 8.05108 16.3569 8.04344C16.4383 8.0129 16.5172 7.98235 16.6012 7.95181ZM14.901 8.79688C14.8781 8.81469 14.8577 8.83251 14.8348 8.85288C14.7508 8.87324 14.6693 8.89615 14.5853 8.91906C14.6006 8.90888 14.6158 8.89869 14.6286 8.89106C14.7177 8.86051 14.8068 8.82997 14.8984 8.79942L14.901 8.79688ZM5.47801 14.9262C5.47801 15.9952 6.18813 17.0159 7.47355 17.9501C7.28264 17.9068 7.09436 17.8661 6.91364 17.8228C5.20569 16.9396 4.24857 15.9545 4.24857 14.916C4.24857 13.8775 5.24896 12.8466 7.03581 11.9455C7.21399 11.9048 7.39462 11.8641 7.58043 11.8233C6.22884 12.7779 5.4805 13.8266 5.4805 14.9236L5.47801 14.9262ZM11.2127 19.4035C11.2254 19.4137 11.2407 19.4239 11.2535 19.4366C11.1415 19.4061 11.032 19.3755 10.9251 19.3424C11.0218 19.3628 11.116 19.3832 11.2127 19.4035ZM14.4505 20.8977C14.537 20.9206 14.6261 20.9435 14.7152 20.9664C14.7432 20.9919 14.7712 21.0148 14.7992 21.0377C14.6999 21.0046 14.6057 20.9689 14.509 20.9359C14.4886 20.9231 14.4682 20.9104 14.4479 20.8977H14.4505ZM16.1915 21.7631C16.2755 21.786 16.3544 21.8115 16.4384 21.8369C16.4588 21.8573 16.4791 21.8777 16.4994 21.8955C16.4129 21.8624 16.3289 21.8318 16.2449 21.7987C16.2271 21.786 16.2094 21.7758 16.1941 21.7631H16.1915ZM17.8663 22.6616C17.9478 22.6871 18.0268 22.7125 18.1082 22.738C18.1286 22.7584 18.1464 22.7787 18.1667 22.7991C18.0827 22.766 17.9988 22.7329 17.9173 22.6998C17.8995 22.6871 17.8816 22.6744 17.8663 22.6616ZM19.4954 23.5958C19.5692 23.6212 19.6455 23.6467 19.7193 23.6722C19.7397 23.6951 19.7601 23.718 19.7805 23.7409C19.7016 23.7078 19.6226 23.6747 19.5437 23.6416C19.5259 23.6263 19.5107 23.6136 19.4929 23.5983L19.4954 23.5958ZM21.0532 24.5605C21.1244 24.5859 21.1983 24.6114 21.2695 24.6369C21.2925 24.6649 21.3154 24.6903 21.3383 24.7183C21.2594 24.6827 21.183 24.647 21.1066 24.6089C21.0888 24.5936 21.071 24.5758 21.0532 24.5605ZM22.5345 25.5481C25.5126 26.7037 29.01 27.3706 32.7517 27.3706C36.4934 27.3706 39.9934 26.7037 42.9689 25.5481C42.9485 25.5685 42.9281 25.5863 42.9077 25.6067C40.0264 27.0779 36.5265 27.9433 32.7517 27.9433C28.9769 27.9433 25.4745 27.0779 22.5957 25.6067C22.5753 25.5863 22.5549 25.5685 22.5345 25.5481ZM61.5628 14.916C61.5628 13.9666 60.8629 13.068 59.5826 12.2459C61.6291 13.0528 62.7948 13.9589 62.7948 14.9084C62.7948 15.8578 61.6571 16.7436 59.6513 17.5454C60.8884 16.736 61.5654 15.8502 61.5654 14.9185L61.5628 14.916ZM32.7517 1.7105C29.4834 1.7105 26.4189 2.35449 23.7717 3.47192C26.3451 2.01086 29.4325 1.15561 32.7517 1.15561C36.0709 1.15561 39.1584 2.01086 41.7318 3.47192C39.0846 2.35449 36.02 1.7105 32.7517 1.7105ZM3.94308 14.916C3.94308 15.8476 4.62015 16.7334 5.85721 17.5428C3.85145 16.741 2.71376 15.8451 2.71376 14.9058C2.71376 13.9666 3.87691 13.0502 5.92594 12.2433C4.64561 13.0655 3.94569 13.9666 3.94569 14.9135L3.94308 14.916ZM32.7517 28.2462C36.0709 28.2462 39.1813 27.5819 41.859 26.4314C39.2602 27.9382 36.1243 28.8189 32.7517 28.8189C29.3791 28.8189 26.2432 27.9382 23.6469 26.4314C26.3221 27.5819 29.4325 28.2462 32.7517 28.2462ZM64.3271 14.8982C64.3271 15.6211 63.3167 16.3414 61.4433 17.0083C62.5149 16.3541 63.0978 15.6465 63.0978 14.9084C63.0978 14.1702 62.4894 13.4295 61.3719 12.7626C63.2937 13.4346 64.3271 14.1677 64.3271 14.8982ZM32.7517 0.297811C35.5771 0.297811 38.2166 1.09961 40.4591 2.48685C38.1555 1.44578 35.5338 0.852706 32.7517 0.852706C29.9696 0.852706 27.3479 1.44578 25.0444 2.48685C27.2868 1.09961 29.9263 0.297811 32.7517 0.297811ZM1.17883 14.8982C1.17883 14.1651 2.21483 13.4346 4.13659 12.7626C3.01917 13.4295 2.41075 14.1498 2.41075 14.9084C2.41075 15.6669 2.99365 16.3541 4.06525 17.0109C2.19185 16.3465 1.18144 15.6236 1.18144 14.9007L1.17883 14.8982ZM32.7517 29.6946C29.8907 29.6946 27.218 28.8698 24.9577 27.4495C27.2817 28.516 29.9365 29.1218 32.7517 29.1218C35.5669 29.1218 38.2218 28.516 40.5457 27.4495C38.2854 28.8698 35.6127 29.6946 32.7517 29.6946Z" fill="#D9D9D9"/>
</svg>
