<svg width="160" height="36" viewBox="0 0 160 36" fill="none" xmlns="http://www.w3.org/2000/svg">
<path d="M99.8505 0.533691V21.6151L100.394 21.4855L110.418 11.2562H117.706L107.325 21.7051L117.706 32.154H110.418L100.394 21.9248L99.8505 21.7951V32.154H94.9321V0.533691H99.8505Z" fill="#D9D9D9"/>
<path d="M154.983 10.6004C162.282 15.3568 161.504 28.1965 153.385 31.6711C143.663 35.8333 135.144 26.5006 138.021 16.8907C140.196 9.63548 148.535 6.39856 154.983 10.5968V10.6004ZM151.53 12.9552C149.28 11.7778 145.805 12.3935 144.315 14.4891C140.905 19.2778 142.277 30.3568 150.033 29.0534C156.132 28.0273 156.506 15.5584 151.53 12.9552Z" fill="#D9D9D9"/>
<path d="M62.6059 10.2445C67.5495 12.9557 69.3498 19.9985 67.5424 25.0969C64.1542 34.6708 50.6772 35.2757 46.7669 25.9466C42.4138 15.5589 52.1967 4.53754 62.6024 10.2445H62.6059ZM60.2404 13.3302C58.8829 12.4084 56.7442 12.124 55.1743 12.5776C48.8121 14.4175 48.9273 30.4474 58.2096 29.0539C64.1542 28.161 64.6223 16.3079 60.2404 13.3302Z" fill="#D9D9D9"/>
<path d="M92.1074 24.3408L92.3018 24.708C92.0174 25.0285 92.075 25.4533 91.9561 25.8242C89.3277 34.0659 77.7842 34.8761 73.0999 28.035C70.403 24.0923 70.3022 18.1514 72.6714 14.0431C75.5951 8.96986 81.8673 7.44322 87.0738 9.91682C89.6878 11.1554 91.7761 14.2087 92.0138 17.0748H87.369C86.4184 14.4896 85.1439 12.394 82.0762 12.3436C76.4989 12.25 75.4079 19.1919 76.2072 23.4838C77.0209 27.8405 81.3668 30.9334 85.4067 28.0314C86.6309 27.1528 86.8865 25.5326 87.549 24.3444H92.1038L92.1074 24.3408Z" fill="#D9D9D9"/>
<path d="M28.246 0.533691V27.7037L28.5197 27.9738H42.4576V32.154H23.3276V0.533691H28.246Z" fill="#D9D9D9"/>
<path d="M19.8644 23.613H5.3793L5.10565 23.8866V35.1529C5.10565 35.8046 4.66999 35.1673 4.53317 35.0268C3.19015 33.637 1.59869 32.2904 0.34929 30.8394C0.255675 30.7313 0.140423 30.6953 0 30.7025V18.709H14.8488L19.8608 23.6166L19.8644 23.613Z" fill="#D9D9D9"/>
<path d="M14.8532 0.533691L17.3196 2.79846L19.6816 5.43769H5.38009L5.10644 5.71133V17.0676C4.72118 17.0568 4.37914 16.6751 4.08749 16.4411C2.69766 15.3249 1.33301 13.503 0.00439453 12.25V0.533691H14.8532Z" fill="#D9D9D9"/>
<path d="M134.284 32.1539H129.365V9.52786L129.639 9.25781H134.01L134.284 9.52786V32.1539Z" fill="#D9D9D9"/>
<path d="M125.72 32.1542H120.435V27.2466H125.447L125.72 27.5202V32.1542Z" fill="#D9D9D9"/>
<path d="M134.467 0.533691V5.16764L134.194 5.44129H129.365V0.533691H134.467Z" fill="#D9D9D9"/>
</svg>