<svg width="161" height="44" viewBox="0 0 161 44" fill="none" xmlns="http://www.w3.org/2000/svg">
<path d="M16.159 0.588867V7.52615C16.8537 8.13781 17.9018 8.07326 18.7686 8.34682C32.179 12.5577 32.3389 31.3717 19.3403 35.5396C18.3076 35.8716 17.0104 35.8746 16.156 36.474V43.4113H13.239V36.474C12.4399 35.8685 11.1582 35.9023 10.1808 35.5857C-1.51456 31.7805 -2.99912 15.3363 7.82635 9.4933C9.62445 8.52202 11.4871 8.3837 13.239 7.52922V0.588867H16.156H16.159ZM13.2421 32.7026V11.2914C13.2421 10.4215 9.87337 11.9338 9.46149 12.1428C3.76598 15.0443 1.84188 22.3443 5.10305 27.8062C6.66447 30.4189 9.86111 32.8102 12.9563 32.9331L13.2421 32.7026ZM16.4388 11.0609C16.1406 11.1623 16.1775 11.3805 16.1498 11.6264L16.3189 32.8839C17.0504 33.3911 19.6877 32.1032 20.4346 31.6606C27.5347 27.462 27.8421 17.2359 20.9478 12.6776C20.1087 12.1213 17.3302 10.7596 16.4388 11.0578V11.0609Z" fill="#D9D9D9"/>
<path d="M160.486 26.1071H149.759C149.593 26.2393 149.559 26.2516 149.569 26.4606C149.603 27.5302 150.623 29.0732 151.477 29.7033C153.042 30.859 155.602 30.819 157.213 29.774C157.643 29.4943 157.957 28.7843 158.507 28.8365C158.86 28.8703 160.028 30.0383 159.949 30.4287C159.81 31.1233 157.895 32.2575 157.225 32.5219C154.142 33.739 150.377 33.1612 148.13 30.6469C144.276 26.3345 146.55 17.6115 152.845 17.1904C158.697 16.8 160.634 20.8849 160.489 26.104L160.486 26.1071ZM149.762 23.7096H156.97C157.474 23.7096 156.866 21.9638 156.746 21.7056C155.867 19.8153 153.789 19.1483 151.908 20.0274C150.525 20.6728 150.027 22.0037 149.581 23.3623L149.762 23.7096Z" fill="#D9D9D9"/>
<path d="M107.116 26.1066H96.5612C96.0602 26.6722 96.7272 27.9047 97.0899 28.4918C98.6052 30.9262 101.762 31.0952 104.082 29.6752C104.421 29.4692 104.814 28.8391 105.14 28.8391L106.775 30.3022C104.885 33.0777 100.806 33.7232 97.7537 32.6198C89.3565 29.586 92.7529 14.4666 102.822 17.4573C104.897 18.0721 107.113 20.9675 107.113 23.1098V26.1066H107.116ZM103.855 23.7092C103.972 18.1428 96.8132 18.4993 96.4751 23.7092H103.855Z" fill="#D9D9D9"/>
<path d="M66.9583 30.0471H71.3352C71.3905 30.0471 71.5965 30.2745 71.7655 30.2192V32.7888H58.7239V30.0471H63.5281V13.4338H58.7239V10.8643H66.7032L66.9613 11.1224V30.0471H66.9583Z" fill="#D9D9D9"/>
<path d="M124.618 32.7887H121.357V22.2552C121.357 22.1814 120.902 21.0564 120.816 20.9089C120.008 19.5381 117.444 19.5227 116.15 20.1405C115.668 20.371 114.491 21.3761 114.491 21.9109V32.7856H111.229V17.6262L111.488 17.368H114.146L114.491 19.4243C117.079 16.366 122.688 16.0248 124.151 20.3126C124.222 20.5155 124.612 21.9878 124.612 22.08V32.7856L124.618 32.7887Z" fill="#D9D9D9"/>
<path d="M79.1408 17.3708V27.9042C79.1408 28.6819 79.9093 30.0066 80.6808 30.3048C81.7873 30.7351 83.7974 30.4769 84.7195 29.7054C84.8455 29.6009 85.6601 28.6603 85.6601 28.5897V17.3708H88.9212V32.7852H86.0043L85.7462 30.898C84.9962 31.2699 84.6119 32.026 83.865 32.4471C81.3508 33.8702 77.8591 33.1448 76.6112 30.4246C76.2885 29.7238 75.8796 28.1255 75.8796 27.3878V17.3677H79.1408V17.3708Z" fill="#D9D9D9"/>
<path d="M44.133 17.3711C44.1699 15.4163 44.3512 13.3661 45.7805 11.9092C47.929 9.72382 51.6788 9.96664 54.4298 10.692L54.0856 13.0895C50.5877 12.5608 47.0529 12.5424 47.4218 17.0883L47.6523 17.3711H53.2311C53.1235 18.1303 53.4985 19.1754 52.9729 19.7686H47.6523L47.3942 20.0268V32.7856H44.133V19.7686H40.2724C39.7468 19.1754 40.1219 18.1303 40.0143 17.3711H44.133Z" fill="#D9D9D9"/>
<path d="M142.296 22.6828H139.207C138.909 19.5538 134.64 18.558 132.86 21.0569C131.081 23.5558 131.314 29.8414 134.91 30.4838C137.197 30.8926 138.611 29.8384 139.469 27.819H142.044C142.481 28.1386 142.02 29.2021 141.817 29.6478C140.363 32.8567 135.912 33.9079 132.823 32.5678C126.522 29.8353 127.466 17.9893 134.342 17.2209C138.411 16.766 141.832 18.3121 142.299 22.6798L142.296 22.6828Z" fill="#D9D9D9"/>
</svg>