<svg width="160" height="50" viewBox="0 0 160 50" fill="none" xmlns="http://www.w3.org/2000/svg">
<path d="M22.7773 31.4909C23.2847 31.9073 25.0446 33.3453 25.2966 33.7722C25.7374 34.514 24.3693 36.2984 23.89 36.9387C21.7451 39.7939 17.347 43.2963 13.9215 44.388C11.7801 45.0703 8.45963 45.5461 8.50162 42.3971C8.5541 38.2019 15.7164 32.1102 19.3833 30.6476C21.4127 29.8359 21.2623 30.2453 22.7773 31.4909Z" fill="#D9D9D9"/>
<path d="M18.7471 17.7893C18.7961 18.2301 18.7996 18.699 18.7716 19.1434C18.7366 19.7452 18.3867 22.7788 18.2013 23.1252C17.9459 23.6045 15.7065 23.9894 15.0837 24.0769C11.4903 24.5877 6.60226 24.4618 3.19079 23.1567C-1.75322 21.2602 -0.514592 18.2931 3.91857 16.995C8.35174 15.6969 14.4994 15.9873 18.7471 17.7858V17.7893Z" fill="#D9D9D9"/>
<path d="M114.462 9.14358C114.833 9.406 114.693 9.88536 114.707 10.2842C115.627 10.3122 116.082 9.31153 117.079 9.15408C121.379 8.48578 123.286 11.8483 122.835 15.7146C122.422 19.2415 118.709 20.893 115.697 19.1366C115.371 18.9476 115.231 18.4473 114.71 18.5767V23.6187H111.698L111.453 23.3738V9.38851L111.698 9.14358H114.465H114.462ZM116.617 11.6208C113.797 12.1982 114.315 17.7125 117.544 17.2681C120.774 16.8238 120.137 10.9001 116.617 11.6208Z" fill="#D9D9D9"/>
<path d="M79.8512 41.6693H76.2683C75.9114 40.98 75.7365 39.318 74.8932 39.22C73.2032 39.0241 71.1074 39.36 69.3719 39.255L68.2872 41.6693H64.8652L70.8029 28.1599C71.5552 28.3138 73.8715 27.8905 74.3229 28.4048L79.8512 41.6693ZM72.199 31.7498L70.4216 36.3614C70.8029 37.1032 71.3663 36.6168 71.9436 36.6203C72.5769 36.6238 74.1584 36.9492 74.4033 36.4629L72.7623 31.9142L72.199 31.7498Z" fill="#D9D9D9"/>
<path d="M37.4712 35.7003C37.8946 35.6793 38.3074 35.4939 38.6538 35.8857C39.1052 36.3966 39.5776 39.0313 39.6301 39.7906C39.805 42.4078 39.1332 47.4183 36.9079 49.1258C33.8673 51.4595 31.8764 47.0159 31.642 44.5141C31.4985 42.9641 31.607 37.1768 33.0135 36.2916C33.4159 36.0397 36.7784 35.7353 37.4712 35.7003Z" fill="#D9D9D9"/>
<path d="M35.0322 16.3372C41.8762 16.0888 43.0063 25.7494 36.1169 26.2183C28.8356 26.7116 27.9399 16.5962 35.0322 16.3372Z" fill="#D9D9D9"/>
<path d="M75.2936 5.88965C75.3181 6.65592 75.3916 7.56914 75.3881 8.32142C75.3881 8.51036 75.3776 8.53135 75.2096 8.65382H68.859L68.6141 8.89874V11.9078C68.775 11.8554 68.9675 12.0688 69.02 12.0688H74.8037V14.672H68.859L68.6141 14.9169V19.714H65.1921V6.13458L65.4371 5.88965H75.2901H75.2936Z" fill="#D9D9D9"/>
<path d="M143.051 9.14272V10.6053C143.835 10.7767 143.856 10.1049 144.363 9.72005C145.507 8.84881 148.027 8.90829 149.16 9.79353C149.759 10.2589 150.546 11.5675 150.546 12.3128V19.713H147.288V13.4499C147.288 12.6697 145.878 11.8194 145.105 11.9104C144.276 12.0084 143.055 13.1245 143.055 13.9398V19.713H139.797V9.14272H143.055H143.051Z" fill="#D9D9D9"/>
<path d="M78.1273 18.5066C75.692 16.4912 75.9229 11.6557 78.6591 9.98317C81.3953 8.31067 86.3533 8.95448 87.5849 12.4009C89.7473 18.4471 82.494 22.121 78.1273 18.5066ZM80.559 12.289C78.7781 14.0769 79.9397 17.8383 82.8299 17.2365C85.531 16.6767 85.2476 10.9244 81.4338 11.7781C81.2413 11.8201 80.7025 12.142 80.559 12.2855V12.289Z" fill="#D9D9D9"/>
<path d="M90.8206 18.5209C87.6576 15.6903 89.0327 9.896 93.3644 9.21721C97.696 8.53841 101.108 10.8582 100.544 15.5748C100.03 19.8995 93.7178 21.1171 90.8206 18.5244V18.5209ZM93.2664 12.2928C91.4155 14.0458 92.5946 17.7092 95.3972 17.2648C97.2272 16.9744 97.759 14.2382 96.9298 12.8281C96.2125 11.6105 94.2881 11.3201 93.2664 12.2928Z" fill="#D9D9D9"/>
<path d="M115.438 31.2637L118.045 37.9327L118.584 37.6562L120.816 31.2637H123.584L123.762 31.5996C122.156 35.102 121.079 38.9824 119.504 42.4778C118.014 45.7878 115.694 46.6275 112.412 44.8256L113.42 42.6667C113.832 42.4918 114.13 42.9012 114.469 42.9642C115.589 43.1706 116.303 42.6213 116.646 41.5961L112.45 31.6416L112.671 31.2672H115.438V31.2637Z" fill="#D9D9D9"/>
<path d="M26.8838 9.60161C25.7606 9.98299 23.7593 11.8724 22.7236 12.0439C20.9531 12.3378 16.5829 8.17054 15.6137 6.69048C14.7635 5.39237 13.5983 2.78916 15.5682 1.95641C18.2729 0.812251 23.0595 4.11176 24.8859 6.05367C25.3828 6.58202 27.2722 8.9403 26.8873 9.60161H26.8838Z" fill="#D9D9D9"/>
<path d="M92.3956 41.6691H89.1381V35.5704C89.1381 34.7622 87.784 33.9504 86.9582 34.0344C86.1325 34.1184 84.9043 35.2205 84.9043 36.0603V41.6726H81.8113V31.2632H84.9043C84.7574 33.9189 85.6496 32.0855 86.8777 31.5257C88.4593 30.8049 90.6251 31.0498 91.6538 32.5753C91.7798 32.7643 92.3991 34.1779 92.3991 34.2723V41.6726L92.3956 41.6691Z" fill="#D9D9D9"/>
<path d="M104.61 41.669H101.352C101.286 41.3611 101.573 40.8257 101.104 40.8502C100.604 40.8747 99.9038 41.662 99.1166 41.7949C96.2089 42.2813 93.9066 40.8957 94.5504 37.7222C94.8234 36.3891 96.5134 35.7977 97.71 35.6718C98.4798 35.5913 101.331 36.0042 101.352 35.0875C100.558 32.8516 97.598 33.7264 95.985 34.5136L95.1802 32.4982C97.4686 31.0462 102.871 30.4024 104.208 33.3765C104.278 33.5269 104.613 34.5311 104.613 34.5976V41.6725L104.61 41.669ZM100.943 37.1168H98.3363C97.8464 37.1168 97.2271 37.9321 97.2761 38.4814C97.4826 40.7767 102.406 39.3247 100.943 37.1168Z" fill="#D9D9D9"/>
<path d="M154.895 31.1374C156.428 30.9169 158.579 31.4208 159.808 32.3445L158.912 34.3424C158.065 33.9085 154.829 32.5755 154.468 33.982C154.213 34.9757 157.355 35.5461 158.065 35.868C159.797 36.6517 160.437 38.1983 159.696 40.0002C158.653 42.523 152.887 42.299 151.211 40.4236L152.085 38.4257C152.778 39.2934 157.558 40.581 156.868 38.5272C156.547 37.5684 152.064 37.7854 151.589 35.0142C151.207 32.7889 152.838 31.4348 154.892 31.1409L154.895 31.1374Z" fill="#D9D9D9"/>
<path d="M149.179 32.6207C149.372 32.8201 149.858 33.4255 149.708 33.6809L147.661 34.811C147.237 34.8775 146.275 33.24 144.456 34.0483C142.23 35.035 142.822 40.063 146.31 39.1532C147.048 38.9608 147.104 38.359 147.689 38.1525L149.697 39.2582C150.169 40.0665 147.986 41.3191 147.374 41.5185C142.668 43.0476 138.71 39.4506 140.162 34.6431C141.279 30.9447 146.639 30.0035 149.179 32.6242V32.6207Z" fill="#D9D9D9"/>
<path d="M157.057 9.6328H159.663V11.9106C158.887 11.7567 157.721 11.5012 157.057 11.9911V16.7077C157.057 16.8126 157.585 17.236 157.795 17.2745C158.435 17.397 158.771 17.0821 159.334 16.9491C159.873 19.0275 160.339 19.6783 157.788 19.8742C155.741 20.0317 153.981 19.2444 153.796 17.0366C153.698 15.8819 154.055 13.0093 153.775 12.18C153.6 11.6587 152.753 11.7427 152.333 11.8371L152.246 9.78326L153.659 9.53483C154.086 8.93651 153.404 6.70068 153.887 6.70068H156.819L157.064 6.94561V9.6293L157.057 9.6328Z" fill="#D9D9D9"/>
<path d="M109.17 9.63321V11.7466H106.809C106.781 11.7466 106.522 11.9985 106.487 12.0755C106.298 12.4779 106.35 15.9033 106.511 16.4387C107.008 18.0832 108.709 16.8096 108.845 16.953L109.317 19.1259C107.634 20.4974 103.653 20.0706 103.303 17.5303C103.121 16.2112 103.625 13.1916 103.285 12.1839C103.11 11.6626 102.263 11.7466 101.844 11.841L101.756 9.78716L103.17 9.53874C103.597 8.94042 102.914 6.70459 103.397 6.70459H106.165L106.41 6.94952V9.38828L106.655 9.63321H109.181H109.17Z" fill="#D9D9D9"/>
<path d="M129.204 28.8213V31.505C129.761 32.1313 131.696 31.3335 132.056 32.0718C132.189 32.3482 132.235 33.6148 131.983 33.7898C131.325 34.0732 129.481 33.4714 129.236 34.3006C129.114 34.71 129.145 37.992 129.274 38.4224C129.708 39.843 131.349 38.9088 131.654 39.1327C131.696 39.5561 132.364 41.1236 132.035 41.3615C131.706 41.5994 130.391 41.8129 129.943 41.8374C127.906 41.9528 126.297 41.1901 126.101 38.9927C125.989 37.7576 126.367 35.2978 126.076 34.3041C125.859 33.5694 124.677 34.0277 124.642 33.7723V31.7499C124.747 31.6484 125.905 31.9633 126.111 31.5085V28.8248H129.204V28.8213Z" fill="#D9D9D9"/>
<path d="M44.7404 31.8197C45.0168 31.4138 46.9518 29.08 47.2282 29.01C48.1694 28.7826 50.972 31.3054 51.5949 32.0751C52.697 33.4397 54.6355 37.1591 52.4416 38.2893C50.4542 39.3144 47.3401 36.9667 46.056 35.4936C45.6327 35.0107 44.3311 33.2088 44.3311 32.6455C44.3311 32.2746 44.5585 32.0856 44.7404 31.8197Z" fill="#D9D9D9"/>
<path d="M110.637 41.6696H107.38V27.3589H110.392L110.637 27.6038V41.6696Z" fill="#D9D9D9"/>
<path d="M34.8565 0.234788C36.9419 -0.199082 38.5829 2.79952 38.7963 4.521C38.9153 5.47621 38.9853 8.79671 37.8376 9.07313C37.0714 9.25857 34.6816 8.34535 33.7124 8.45731C31.6795 6.8443 32.0259 0.822611 34.853 0.234788H34.8565Z" fill="#D9D9D9"/>
<path d="M131.813 9.14282V11.8265L131.543 12.047C130.791 12.047 129.941 12.1344 129.311 12.5823C129.105 12.7292 128.391 13.6355 128.391 13.7789V19.7166H124.969V9.38775L125.214 9.14282H128.146C128.72 9.14282 127.89 10.6824 128.639 10.6124C128.993 10.6124 129.091 10.091 129.374 9.8776C130.004 9.40874 131.018 9.02736 131.813 9.13933V9.14282Z" fill="#D9D9D9"/>
<path d="M56.1759 23.3973C54.8428 24.8318 50.9309 24.8598 49.2794 23.9746C48.4327 23.5197 48.8421 23.0054 48.7406 22.2356C48.6706 21.6863 48.3032 20.0872 48.4922 19.7129C48.954 18.7996 52.425 19.09 53.3067 19.3035C55.0002 19.7129 57.9673 21.4693 56.1759 23.4008V23.3973Z" fill="#D9D9D9"/>
<path d="M47.8949 7.88683C49.0286 7.77836 50.4002 8.17024 50.6591 9.42287C51.1349 11.7217 48.4408 14.4404 46.2539 14.8147C45.7431 14.2899 43.2063 12.0996 43.2378 11.5292C43.9901 9.80775 45.981 8.07227 47.8949 7.88683Z" fill="#D9D9D9"/>
<path d="M136.862 19.7139H133.604V9.38848L133.846 9.14355H136.617L136.862 9.38848V19.7139Z" fill="#D9D9D9"/>
<path d="M137.511 41.6695H134.414V31.5051L134.659 31.2637H137.266L137.511 31.5051V41.6695Z" fill="#D9D9D9"/>
<path d="M29.7955 26.5996C30.4498 27.254 30.6002 28.4681 30.2608 29.3113C29.9739 30.0321 28.2839 31.7081 27.5001 31.5821C27.2167 31.5367 23.8717 28.776 23.8262 28.5416C23.6233 27.4989 25.6807 26.1938 26.5589 25.9418C27.6331 25.6304 28.9767 25.7809 29.7955 26.5996Z" fill="#D9D9D9"/>
<path d="M21.9189 18.4613C22.4857 17.7615 24.5816 18.1254 25.3758 18.4088C27.5837 19.1996 27.9266 21.7083 25.7677 22.877C24.872 23.3633 21.443 23.8287 21.4045 22.4081C21.7369 21.5894 21.485 19.0001 21.9189 18.4613Z" fill="#D9D9D9"/>
<path d="M38.1094 33.0022C37.518 33.4711 35.5971 33.3556 34.8169 33.3766C33.5222 33.4116 32.8749 33.9224 32.9344 31.9875C33.0009 29.7482 34.8344 28.0512 37.0702 29.0099C38.2738 29.5277 39.0926 32.2254 38.1094 33.0022Z" fill="#D9D9D9"/>
<path d="M29.4619 11.8095C29.6228 11.9145 30.1827 12.4918 30.3121 12.6668C32.3415 15.4974 28.6956 17.1104 26.2743 15.5569C25.802 15.2525 24.4829 14.1713 25.0112 13.58C25.2841 13.2756 28.2722 11.4316 28.6256 11.4316C28.8915 11.4316 29.2414 11.6626 29.4619 11.806V11.8095Z" fill="#D9D9D9"/>
<path d="M42.1852 25.7701C42.682 25.6686 43.3328 25.6791 43.8122 25.8575C44.26 26.0255 45.4847 27.1241 45.4847 27.6C45.4847 27.9814 43.0459 30.7071 42.6085 30.7421C40.4252 30.0843 39.6624 26.2879 42.1852 25.7666V25.7701Z" fill="#D9D9D9"/>
<path d="M33.8798 10.3079C34.0058 10.2764 36.0876 10.5913 36.4026 10.6543C37.1723 10.8047 38.0016 10.7662 38.145 11.676C38.7154 15.2344 33.5299 14.902 33.271 11.8299C33.2255 11.3051 33.2395 10.4723 33.8798 10.3079Z" fill="#D9D9D9"/>
<path d="M46.5883 19.7516C46.8087 19.9965 47.0047 22.8902 46.8053 23.387C46.5533 23.7054 45.4897 23.6704 45.0768 23.618C42.631 23.3136 42.3091 19.5732 44.9438 19.3982C45.2727 19.3772 46.4134 19.5487 46.5918 19.7516H46.5883Z" fill="#D9D9D9"/>
<path d="M41.8191 13.1045C43.1312 13.6153 43.8555 14.9274 44.7932 15.8897C42.7183 19.777 37.6309 15.1059 41.8191 13.1045Z" fill="#D9D9D9"/>
<path d="M133.976 6.98074C133.473 6.29844 133.735 4.84288 134.694 4.62594C137.342 4.02063 137.227 7.61055 135.163 7.50908C134.914 7.49858 134.106 7.15918 133.976 6.98074Z" fill="#D9D9D9"/>
<path d="M137.13 29.2588C135.853 30.6549 133.47 28.482 135.143 27.0299C136.5 25.8473 138.365 27.9117 137.13 29.2588Z" fill="#D9D9D9"/>
</svg>
