<svg width="161" height="34" viewBox="0 0 161 34" fill="none" xmlns="http://www.w3.org/2000/svg">
<path d="M138.218 0.963308C139.359 2.02976 139.124 3.87074 137.816 4.68994C137.098 5.13976 135.198 4.8508 134.215 4.95805C122.778 6.18536 119.272 21.2319 129.055 27.2583C137.45 32.4267 147.932 26.022 147.495 16.2839C147.459 15.4885 147.042 14.1212 147.155 13.4182C147.542 10.9874 151.007 10.7252 151.743 13.2335C153.3 18.5598 150.899 25.4948 146.905 29.2035C138.96 36.5764 126.142 34.6341 120.833 25.2177C115.626 15.9801 120.366 3.99287 130.568 1.02289C132.332 0.51051 136.821 -0.341462 138.218 0.966287V0.963308Z" fill="#D9D9D9"/>
<path d="M64.0044 8.8578C64.2308 7.34152 65.7173 6.79638 67.0488 6.69808C70.3495 6.45976 77.4096 6.45381 80.2723 7.91944C85.2114 10.4485 84.8777 18.5155 79.7867 20.6692L79.7779 20.8807L83.9484 27.345H79.7064C79.6557 27.345 78.8514 27.1633 78.7352 27.1246C76.7602 26.496 75.6937 23.3056 74.3234 21.8757C72.5212 21.9025 70.6891 21.4438 68.9166 21.8519V24.3035C68.9166 24.4286 68.5741 25.3134 68.4758 25.4951C67.6119 27.1007 65.6934 27.4671 64.0074 27.345V8.8578H64.0044ZM68.9166 11.3065V17.023C68.9166 17.0498 69.146 17.2852 69.2175 17.3179C69.572 17.4848 73.7991 17.449 74.5051 17.4014C76.5755 17.2554 78.5535 16.6119 78.6011 14.205C78.6518 11.7533 76.5189 11.2797 74.5051 11.1516C73.82 11.1069 69.0686 11.0711 68.9166 11.3065Z" fill="#D9D9D9"/>
<path d="M11.4436 6.45079C17.6963 6.10821 23.7912 9.51015 24.1308 16.2753C24.5062 23.7166 18.4172 28.054 11.3929 27.6488C-2.86122 26.8296 -3.1651 7.2551 11.4436 6.45079ZM10.9908 11.0473C8.47058 11.3869 5.90874 13.3053 5.66149 15.9774C4.80951 25.2329 18.17 24.8963 19.0488 18.1997C19.722 13.0819 15.757 10.4098 10.9878 11.0473H10.9908Z" fill="#D9D9D9"/>
<path d="M42.5471 6.45088C50.0539 6.03681 56.3573 10.9848 55.0644 18.9415C54.0695 25.0572 47.9865 28.0838 42.2074 27.643C28.1558 26.5705 28.0188 7.25221 42.5471 6.45386V6.45088ZM41.9453 11.0444C38.2425 11.5746 36.0113 14.8514 36.8096 18.4738C38.2931 25.1913 51.0638 24.7713 50.1671 15.9864C49.7679 12.081 45.3532 10.5558 41.9453 11.0444Z" fill="#D9D9D9"/>
<path d="M98.2365 27.3446V11.3806L98.0131 11.1572H93.9945C93.6877 11.1572 92.6808 10.7341 92.3829 10.5375C91.1288 9.71536 90.6194 8.15142 90.7952 6.70068H107.239C108.341 6.70068 109.807 7.93396 110.215 8.92892C110.343 9.23873 110.861 11.1542 110.364 11.1542H103.369L103.146 11.3776V24.4461C103.146 24.5981 102.428 25.8671 102.249 26.0756C101.212 27.2851 99.7379 27.4251 98.2335 27.3417L98.2365 27.3446Z" fill="#D9D9D9"/>
<path d="M143.829 6.94824C141.208 4.52339 144.035 -0.198203 147.681 1.69341C149.698 2.73902 149.885 5.69411 148.095 7.07633C146.912 7.99086 144.934 7.97001 143.826 6.94824H143.829Z" fill="#D9D9D9"/>
<path d="M157.023 1.65483L157.845 1.8008C157.958 1.93783 158.56 4.19884 158.807 4.02904L159.722 1.67271L160.594 1.65186V4.91974H159.999V2.6915C159.57 2.61405 159.76 2.80768 159.662 3.0162C159.37 3.6388 159.239 4.33289 158.882 4.91974C158.322 4.91974 158.053 3.33793 157.8 2.88215C157.705 2.70937 157.809 2.63192 157.467 2.6915V4.91974H157.02V1.65186L157.023 1.65483Z" fill="#D9D9D9"/>
<path d="M156.278 1.6543V2.09816L155.393 2.11007C155.461 2.33349 155.235 2.65819 155.235 2.76841V4.92218H154.788V2.32456C154.547 1.98794 154.109 2.11305 153.746 2.10114V1.65728H156.278V1.6543Z" fill="#D9D9D9"/>
</svg>