<svg width="197" height="31" viewBox="0 0 197 31" fill="none" xmlns="http://www.w3.org/2000/svg">
<path d="M68.5792 15.235C68.5792 17.2174 68.2075 18.9165 67.4818 20.3324C66.8135 21.6799 65.7772 22.8107 64.493 23.5937C63.2087 24.3768 61.729 24.7802 60.225 24.7573C58.7202 24.7844 57.2387 24.3828 55.9537 23.5993C54.6686 22.8157 53.6332 21.6826 52.9682 20.3324C52.2248 18.9165 51.8708 17.1997 51.8708 15.235C51.8708 13.2527 52.2248 11.5536 52.9505 10.1377C53.6185 8.78605 54.6571 7.65233 55.9452 6.86883C57.2332 6.08534 58.7176 5.68441 60.225 5.71284C61.729 5.68991 63.2087 6.09331 64.493 6.87638C65.7772 7.65945 66.8135 8.79016 67.4818 10.1377C68.2075 11.5536 68.5792 13.2527 68.5792 15.235ZM65.8004 15.235C65.8004 13.7306 65.5526 12.4563 65.0747 11.412C64.6506 10.4498 63.9557 9.63189 63.0746 9.058C62.2428 8.52703 61.287 8.26154 60.225 8.26154C59.2129 8.2483 58.218 8.52464 57.3577 9.058C56.5258 9.58898 55.8709 10.3854 55.3753 11.412C54.8975 12.4563 54.6497 13.7129 54.6497 15.235C54.6497 16.7395 54.8975 18.0138 55.3753 19.0404C55.7955 19.9997 56.4839 20.8172 57.3577 21.3944C58.2073 21.9254 59.163 22.2086 60.225 22.2086C61.287 22.2086 62.2428 21.9431 63.0746 21.3944C63.9242 20.8634 64.5791 20.0847 65.0747 19.0404C65.5526 18.0138 65.8004 16.7395 65.8004 15.235ZM71.8182 29.7131V10.5978H74.4731V12.8456H74.7032C74.8625 12.5625 75.0749 12.2262 75.3758 11.8545C75.7709 11.3663 76.2783 10.981 76.8547 10.7313C77.431 10.4817 78.0592 10.3752 78.6856 10.4208C79.7638 10.4015 80.8233 10.7045 81.7283 11.291C82.6333 11.8775 83.3426 12.7208 83.7653 13.7129C84.2786 14.7749 84.5264 16.0669 84.5264 17.5714C84.5264 19.0758 84.2786 20.3678 83.783 21.4298C83.3393 22.434 82.6216 23.2928 81.7122 23.9077C80.8192 24.4927 79.7706 24.7949 78.7033 24.775C77.8714 24.775 77.1811 24.6334 76.6501 24.3502C76.1671 24.1104 75.7392 23.7729 75.3935 23.359C75.0926 22.9696 74.8625 22.6333 74.6855 22.3325H74.5439V29.7131H71.8359M74.4908 17.5537C74.4908 18.5271 74.6147 19.3767 74.8979 20.12C75.1811 20.8634 75.6059 21.4298 76.1369 21.8369C76.6678 22.2617 77.3227 22.4564 78.1015 22.4564C78.9157 22.4564 79.5883 22.244 80.1369 21.8192C80.6679 21.3767 81.0927 20.7926 81.3759 20.0493C81.6591 19.3059 81.8007 18.474 81.8007 17.5537C81.8007 16.6333 81.6591 15.8014 81.3759 15.0758C81.1319 14.3987 80.7026 13.8038 80.1369 13.3589C79.5518 12.919 78.833 12.694 78.1015 12.7218C77.3227 12.7218 76.6678 12.9164 76.1192 13.3235C75.5882 13.7306 75.1811 14.297 74.8802 15.0227C74.5916 15.8345 74.4537 16.6922 74.4731 17.5537H74.4908ZM93.5355 24.7573C92.1549 24.7573 90.9867 24.4741 89.9956 23.8723C89.0044 23.2882 88.2433 22.4564 87.7123 21.3944C87.1813 20.3324 86.9159 19.0581 86.9159 17.6245C86.9159 16.2085 87.1813 14.9519 87.7123 13.8545C88.2094 12.812 88.988 11.9292 89.9602 11.3058C90.8102 10.8145 91.7565 10.5127 92.734 10.421C93.7116 10.3294 94.6974 10.4501 95.624 10.7748C96.4027 11.0542 97.109 11.5045 97.6909 12.0925C98.2729 12.6806 98.7157 13.3915 98.9869 14.1731C99.3409 15.0581 99.5002 16.12 99.5002 17.3944V18.3501H88.438V16.3147H96.8453C96.8453 15.6067 96.7037 14.9696 96.4028 14.4209C96.115 13.8679 95.6761 13.408 95.1372 13.0947C94.5982 12.7813 93.9814 12.6275 93.3585 12.651C92.5974 12.651 91.9425 12.8279 91.3761 13.1819C90.8168 13.5514 90.3608 14.0573 90.0511 14.6519C89.7415 15.2464 89.5883 15.9101 89.6062 16.5802V18.1731C89.6062 19.0935 89.7832 19.8723 90.1018 20.5271C90.4381 21.182 90.8982 21.6776 91.4823 22.0139C92.1147 22.366 92.8295 22.5432 93.5532 22.5271C94.0841 22.5271 94.5443 22.4564 94.9691 22.2971C95.384 22.1573 95.762 21.9255 96.0746 21.619C96.3873 21.3125 96.6265 20.9392 96.7745 20.5271L99.3232 21.005C99.1285 21.7661 98.7568 22.421 98.2258 22.9873C97.6949 23.5537 97.04 23.9785 96.2435 24.2971C95.3776 24.6186 94.459 24.7747 93.5355 24.7573ZM105.217 16.2262V24.4918H102.509V10.5978H105.146V12.8633H105.323C105.642 12.12 106.138 11.5359 106.828 11.0934C107.5 10.6332 108.368 10.4208 109.412 10.4208C110.368 10.4208 111.182 10.6155 111.89 11.0049C112.616 11.412 113.164 11.9961 113.554 12.7749C113.977 13.6763 114.183 14.6644 114.155 15.6598V24.5095H111.447V15.9784C111.492 15.1208 111.207 14.2786 110.651 13.6244C110.12 13.0403 109.412 12.7572 108.492 12.7572C107.911 12.747 107.338 12.8872 106.828 13.1642C106.335 13.4445 105.935 13.8629 105.677 14.3678C105.38 14.9473 105.233 15.5927 105.253 16.2439L105.217 16.2262ZM117.961 24.4918V5.96063H124.563C125.979 5.96063 127.182 6.20842 128.138 6.704C129.094 7.19958 129.802 7.88985 130.262 8.75712C130.748 9.68414 130.992 10.7193 130.97 11.766C130.97 12.9164 130.74 13.9076 130.262 14.7749C129.777 15.6445 129.035 16.343 128.138 16.7749C127.182 17.2528 125.979 17.4829 124.545 17.4829H119.554V15.0758H124.297C125.2 15.0758 125.943 14.9519 126.51 14.6864C127.076 14.4386 127.501 14.0492 127.749 13.5536C128.029 13.0064 128.168 12.3983 128.156 11.7837C128.156 11.0757 128.032 10.4739 127.766 9.96067C127.489 9.43796 127.048 9.02117 126.51 8.77481C125.8 8.47373 125.032 8.33466 124.262 8.36773H120.74V24.5095H117.961M127.111 16.1377L131.678 24.5095H128.492L124.014 16.1377H127.111ZM140.032 24.775C138.86 24.8202 137.7 24.5229 136.694 23.9194C135.688 23.3158 134.88 22.4323 134.368 21.3767C133.805 20.2012 133.526 18.9098 133.554 17.6068C133.554 16.1731 133.82 14.9165 134.351 13.8368C134.86 12.7779 135.667 11.8907 136.673 11.2839C137.679 10.6771 138.84 10.3772 140.014 10.4208C141.188 10.3772 142.35 10.6771 143.356 11.2839C144.362 11.8907 145.169 12.7779 145.678 13.8368C146.26 15.0062 146.546 16.3009 146.51 17.6068C146.538 18.9098 146.259 20.2012 145.696 21.3767C145.184 22.4323 144.376 23.3158 143.37 23.9194C142.364 24.5229 141.204 24.8202 140.032 24.775ZM140.032 22.5095C140.882 22.5095 141.59 22.2794 142.138 21.8369C142.687 21.3944 143.094 20.7926 143.377 20.067C143.646 19.269 143.778 18.4311 143.767 17.5891C143.767 16.7041 143.643 15.9076 143.377 15.1466C143.136 14.4485 142.707 13.8302 142.138 13.3589C141.538 12.8933 140.791 12.655 140.032 12.6864C139.182 12.6864 138.474 12.8987 137.908 13.3589C137.377 13.8191 136.952 14.4209 136.669 15.1643C136.399 15.9497 136.267 16.7762 136.28 17.6068C136.28 18.4917 136.421 19.3059 136.687 20.0493C136.952 20.7926 137.359 21.3944 137.926 21.8369C138.474 22.2794 139.182 22.5095 140.05 22.5095H140.032ZM158.351 18.7395V10.5978H161.059V24.5095H158.404V22.0847H158.263C157.915 22.8891 157.331 23.5688 156.588 24.0335C155.845 24.4983 154.979 24.726 154.103 24.6865C153.273 24.7036 152.453 24.4956 151.731 24.0847C151.036 23.6667 150.481 23.0503 150.138 22.3148C149.72 21.4181 149.514 20.4368 149.537 19.4475V10.5978H152.245V19.1112C152.2 19.9389 152.479 20.7516 153.023 21.3767C153.554 21.9431 154.245 22.2263 155.077 22.2263C155.631 22.2185 156.175 22.0738 156.659 21.8052C157.144 21.5365 157.555 21.1522 157.855 20.6864C158.192 20.1731 158.351 19.5183 158.351 18.7395ZM171.183 10.5978V12.7749H163.572V10.5978H171.183ZM165.626 7.27038H168.334V20.4209C168.334 20.9519 168.404 21.3413 168.564 21.6068C168.723 21.8546 168.918 22.0493 169.183 22.1378C169.431 22.2263 169.714 22.2794 169.997 22.2794C170.317 22.243 170.635 22.2017 170.953 22.1555L171.431 24.3856C170.865 24.596 170.265 24.698 169.661 24.6865C168.953 24.6865 168.298 24.5626 167.679 24.2971C167.074 24.036 166.558 23.6058 166.192 23.0581C165.82 22.5271 165.626 21.8192 165.626 20.9873V7.27038ZM180.157 24.7927C178.794 24.7927 177.608 24.4918 176.617 23.9077C175.643 23.3059 174.882 22.4918 174.351 21.4121C173.82 20.3501 173.537 19.0758 173.537 17.6422C173.509 16.3391 173.788 15.0477 174.351 13.8722C174.882 12.7926 175.626 11.9253 176.581 11.3235C177.432 10.8322 178.378 10.5304 179.355 10.4387C180.333 10.3471 181.319 10.4678 182.245 10.7925C183.024 11.0719 183.73 11.5222 184.312 12.1102C184.894 12.6983 185.337 13.4092 185.608 14.1908C185.962 15.0758 186.139 16.1377 186.139 17.4121V18.3678H175.059V16.3324H183.449C183.449 15.6244 183.307 14.9873 183.024 14.4386C182.733 13.8842 182.291 13.4236 181.749 13.1103C181.207 12.7971 180.588 12.6439 179.962 12.6687C179.201 12.6687 178.546 12.8456 177.98 13.1996C177.431 13.5782 176.983 14.0864 176.678 14.6792C176.372 15.272 176.217 15.931 176.228 16.5979V18.1908C176.228 19.1112 176.387 19.89 176.723 20.5448C177.042 21.1997 177.502 21.6953 178.104 22.0316C178.736 22.3837 179.451 22.5609 180.174 22.5448C180.65 22.547 181.123 22.4692 181.573 22.3148C181.984 22.1735 182.359 21.9432 182.671 21.6403C182.983 21.3374 183.225 20.9694 183.378 20.5625L185.927 21.0227C185.732 21.7646 185.355 22.446 184.829 23.005C184.276 23.5857 183.598 24.0335 182.847 24.3148C181.981 24.6367 181.063 24.7928 180.139 24.775L180.157 24.7927ZM189.13 24.5095V10.5978H191.75V12.8102H191.892C192.157 12.0669 192.6 11.4651 193.237 11.0403C193.892 10.5978 194.617 10.3854 195.431 10.3854C195.816 10.3907 196.2 10.4143 196.582 10.4562V13.0403C196.119 12.9217 195.644 12.8622 195.166 12.8633C194.573 12.8604 193.989 13.0064 193.467 13.2881C192.971 13.5487 192.556 13.941 192.269 14.4219C191.982 14.9028 191.833 15.4537 191.838 16.0138V24.5095H189.13Z" fill="#D9D9D9"/>
<path d="M12.1193 7.1277C18.6269 2.52169 24.0218 3.98728 29.5349 3.98729V10.2351C22.4108 10.2351 20.124 9.11666 15.7288 12.2275C11.4251 15.2914 11.3062 15.3776 9.05953 16.6341L9.05936 16.634C7.6732 17.422 5.85473 18.0217 4.3925 18.4139C2.98973 18.7902 1.37348 19.1202 0.401642 19.1202V12.8724C0.356004 12.8724 0.562836 12.864 1.09545 12.7652C1.56369 12.6783 2.14859 12.5471 2.77379 12.3794C4.08954 12.0265 5.30087 11.5869 5.98217 11.1968L5.99582 11.189L6.00965 11.1813C7.93877 10.1023 7.82092 10.1878 12.1122 7.13271L12.1158 7.13029L12.1193 7.1277Z" fill="#D9D9D9"/>
<path d="M35.642 7.14665L24.9692 13.306V0.987305L35.642 7.14665Z" fill="#D9D9D9"/>
<path d="M0.18933 12.8721C1.15377 12.8721 2.76379 13.1942 4.17223 13.5669C5.60107 13.9451 7.36968 14.5192 8.75008 15.2765L8.88248 15.3503L8.88732 15.3531L8.89233 15.356C11.107 16.6242 11.2141 16.7018 15.5236 19.7698H15.5234C19.9141 22.8745 22.2022 21.7571 29.3226 21.7571V28.0049C23.8094 28.005 18.4146 29.4706 11.9069 24.8645L11.9035 24.8621L11.8999 24.8595C7.61487 21.8089 7.71416 21.881 5.79751 20.7835L5.662 20.7095C4.95481 20.3374 3.80864 19.9336 2.57375 19.6068C1.94753 19.4411 1.36188 19.3116 0.892642 19.226C0.360551 19.1289 0.149244 19.1201 0.18933 19.1201V12.8721Z" fill="#D9D9D9"/>
<path d="M35.4311 24.8282L24.7583 18.6865V30.9875L35.4311 24.8282Z" fill="#D9D9D9"/>
</svg>
