<svg width="161" height="46" viewBox="0 0 161 46" fill="none" xmlns="http://www.w3.org/2000/svg">
<path d="M121.681 11.6929L129.378 26.1161L129.721 26.1077L129.451 11.6929H133.167L133.369 11.9054V31.9042H128.301L124.737 25.1416C123.314 22.487 122.189 19.5689 120.694 16.9653C120.583 16.7726 120.445 16.4978 120.193 16.4978L120.258 31.9042H116.475V11.6929H121.678H121.681Z" fill="#D9D9D9"/>
<path d="M21.7576 0.95254V7.87662C20.949 7.91345 19.9159 7.88795 19.1289 8.02394C13.5171 8.99569 8.15686 14.829 7.44559 20.8182C7.36716 21.4868 7.63222 22.3424 7.23196 22.8552H0.814252C0.762868 21.7333 0.8305 20.6652 0.971132 19.5575C1.9826 11.5681 8.24613 4.2361 15.5455 1.8733C16.2513 1.64381 18.7016 0.949707 19.256 0.949707H21.7549L21.7576 0.95254Z" fill="#D9D9D9"/>
<path d="M28.9201 23.1416L28.6415 26.4563C28.0817 29.1506 27.2812 31.7995 25.9208 34.2105C22.2103 40.7833 15.1517 45.0329 7.84155 45.0499V38.1258C11.3222 38.1825 14.7677 36.7036 17.3261 34.3012C18.9623 32.7656 20.5065 30.5501 21.307 28.397C21.4882 27.9125 22.1643 25.5639 22.1643 25.1956V23.1473H28.9201V23.1416Z" fill="#D9D9D9"/>
<path d="M51.7584 17.0643H47.7044C47.4664 13.8771 41.6356 13.5456 41.2462 16.4665C40.8946 19.09 45.3245 19.4413 46.9228 19.9314C49.1405 20.6142 51.8476 22.0052 52.2668 24.657C53.5082 32.5103 43.5639 34.0629 38.7959 30.5498C37.4843 29.5838 36.4566 27.6488 36.489 25.9659H40.543C40.781 29.6518 47.7423 30.3147 48.2128 26.8498C48.4617 25.0253 46.5712 24.0394 45.1676 23.6003C42.6525 22.8127 38.4876 22.314 37.3788 19.3081C36.3673 16.5685 37.4329 13.7014 39.8642 12.3246C43.8073 10.0921 51.5285 11.2905 51.7557 17.0615L51.7584 17.0643Z" fill="#D9D9D9"/>
<path d="M75.6722 16.6396C75.7046 16.9342 75.5451 18.3139 75.875 18.3309C76.6755 17.6085 77.5166 16.7529 78.5876 16.5064C85.9654 14.7952 87.78 25.2918 84.1804 30.0968C82.2738 32.6409 78.1792 33.1423 75.875 30.9155C75.8317 30.9014 75.6749 31.247 75.6749 31.2668V37.8396H71.8914V16.6396H75.6749H75.6722ZM78.4794 19.6455C75.537 19.7503 75.4369 23.5948 75.6722 25.8981C75.9318 28.4422 78.1711 30.1194 80.3969 28.5754C82.6226 27.0314 82.8552 19.4897 78.4821 19.6455H78.4794Z" fill="#D9D9D9"/>
<path d="M59.1882 16.7812V27.4506C59.1882 27.5158 59.8346 28.3799 59.9536 28.4875C61.2192 29.6491 63.1042 28.9295 63.7695 27.4336C64.3158 26.2097 64.0319 24.643 64.0481 23.3455C64.0725 21.5663 64.1347 19.7758 64.1888 17.9824C64.1942 17.7813 63.8399 16.6396 64.2564 16.6396H67.9723L68.2427 31.9014H64.1888C64.1698 31.6181 64.3402 30.3744 63.8534 30.4877C62.6661 32.2726 59.4668 32.8193 57.6629 31.8731C54.3716 30.1477 55.1018 24.9518 55.1423 21.8014C55.164 20.0818 55.1153 18.3564 55.1369 16.6367H58.8529C58.8988 16.6367 59.0584 16.8237 59.1909 16.7784L59.1882 16.7812Z" fill="#D9D9D9"/>
<path d="M150.124 25.1184H140.599C140.031 25.1184 140.837 27.45 141.094 27.8523C142.257 29.6683 145.099 29.5494 146.076 27.5804C146.262 27.4812 146.362 27.6625 146.411 27.6625H149.992C148.577 32.8414 141.053 33.9832 137.989 29.8298C135.601 26.5916 135.904 20.0103 139.214 17.5824C141.949 15.5794 147.111 15.942 149.08 19.2171C149.335 19.6392 150.127 21.5997 150.127 21.9368V25.1156L150.124 25.1184ZM146.187 22.5545C146.595 19.2369 142.198 17.9478 140.883 20.8971C140.68 21.3561 140.164 22.5771 140.867 22.7188C141.575 22.6309 145.981 22.9001 146.184 22.5573L146.187 22.5545Z" fill="#D9D9D9"/>
<path d="M92.3579 25.1188C91.7738 25.3086 92.5202 27.3683 92.7799 27.7876C93.5209 28.9888 95.0651 29.36 96.3497 29.0087C97.2395 28.7678 97.418 27.6119 97.9292 27.5468L101.751 27.7338C100.969 29.7509 99.8304 31.0853 97.8534 31.8559C93.9482 33.3745 89.4534 31.4848 88.4663 27.0737C87.2898 21.8211 89.4885 16.3532 95.1976 16.3447C99.7222 16.3391 101.726 19.3167 102.026 23.7731C102.053 24.1867 102.124 24.8412 101.818 25.1217H92.3606L92.3579 25.1188ZM97.9481 22.5549C98.0833 18.1041 92.4337 18.2174 92.2822 22.484C92.3147 22.6682 92.8745 22.7107 93.0314 22.722C93.6453 22.7674 97.8156 22.7815 97.9508 22.5549H97.9481Z" fill="#D9D9D9"/>
<path d="M157.825 12.54V16.427L158.028 16.6395H160.594L160.797 16.852V19.7503H158.028L157.825 19.9627V27.8756C157.825 27.9237 158.174 28.6603 158.225 28.7283C158.661 29.3035 159.764 29.0088 160.391 29.0768V31.9042C158.636 32.264 155.761 32.604 154.582 30.8418C154.474 30.6775 153.906 29.3743 153.906 29.2893V19.7503H151.61V16.852L151.813 16.6395H153.906V12.7525L154.109 12.54H157.825Z" fill="#D9D9D9"/>
<path d="M113.64 16.4977V20.1014C113.186 20.4839 112.499 20.2601 111.877 20.3762C111.038 20.5349 110.1 21.0958 109.635 21.8466C109.529 22.0194 108.91 23.266 108.91 23.351V31.9012H104.856V16.849L105.059 16.6365H108.572C108.61 16.6365 108.888 16.781 108.915 16.8745C108.98 17.1663 108.75 18.9115 109.113 18.8945C110.13 17.2286 111.698 16.2286 113.64 16.4949V16.4977Z" fill="#D9D9D9"/>
<path d="M14.4896 27.7706L10.0056 23.0677L14.6491 18.0645L19.3143 22.8071L14.9439 27.6686L14.4896 27.7706Z" fill="#D9D9D9"/>
</svg>
