<svg width="17" height="12" viewBox="0 0 17 12" fill="none" xmlns="http://www.w3.org/2000/svg">
<path fill-rule="evenodd" clip-rule="evenodd" d="M10.8825 0.347168L10.6963 0.564696C11.9215 0.893005 13.0638 1.47935 14.0482 2.28514C12.798 1.57837 11.423 1.12492 10.0004 0.950314C9.09877 0.840823 8.18733 0.840823 7.28565 0.950314H7.05043C5.99663 1.07141 4.96815 1.35834 4.0024 1.80065C3.50256 2.03795 3.20854 2.19616 3.20854 2.19616C4.24143 1.38851 5.43486 0.815172 6.7074 0.515258L6.57019 0.347168C5.19656 0.415777 3.87801 0.913323 2.79691 1.77099C1.55682 4.22339 0.886494 6.92846 0.836761 9.68109C1.78372 11.0102 3.32137 11.7803 4.94327 11.7377L5.83514 10.6105C4.89009 10.3693 4.05817 9.80276 3.48296 9.00873C3.48296 9.00873 3.62017 9.10761 3.86519 9.24604H3.91419L4.0416 9.31525C4.3565 9.4915 4.68412 9.64354 5.02168 9.77008C5.65584 10.0251 6.31201 10.2204 6.98182 10.3535C8.13469 10.5727 9.31801 10.5727 10.4709 10.3535C11.1448 10.2376 11.8027 10.0418 12.431 9.77008C12.9753 9.56252 13.4948 9.29386 13.9795 8.96918C13.4079 9.78985 12.5683 10.3814 11.6078 10.6402C12.0096 11.1543 12.4898 11.7377 12.4898 11.7377C14.1152 11.7836 15.6572 11.0131 16.6061 9.68109C16.554 6.92878 15.8838 4.22424 14.646 1.77099C13.5663 0.917512 12.2522 0.420356 10.8825 0.347168ZM11.139 8.41498C10.4388 8.27297 9.935 7.65235 9.935 6.93171C9.935 6.21107 10.4388 5.59045 11.139 5.44844C11.8393 5.59045 12.3431 6.21107 12.3431 6.93171C12.3431 7.65235 11.8393 8.27297 11.139 8.41498ZM6.23905 5.41376C5.62012 5.36066 5.03283 5.6981 4.76227 6.26226C4.49172 6.82642 4.59391 7.50049 5.01925 7.95724C5.44459 8.41399 6.105 8.55884 6.67989 8.32149C7.25478 8.08413 7.62511 7.51371 7.6111 6.88713C7.62777 6.10094 7.01777 5.44589 6.23905 5.41376Z" fill="white" fill-opacity="0.8"/>
</svg>