<svg width="15" height="13" viewBox="0 0 15 13" fill="none" xmlns="http://www.w3.org/2000/svg">
<path fill-rule="evenodd" clip-rule="evenodd" d="M12.3989 2.67933L6.23626 8.0418C6.17438 8.09514 6.13551 8.16921 6.12635 8.24927L5.889 10.3247C5.88133 10.3925 5.78524 10.4015 5.76473 10.3364L4.78797 7.24111C4.74342 7.09951 4.80172 6.94594 4.93009 6.86779L12.2076 2.42643C12.3754 2.32438 12.5467 2.55087 12.3989 2.67933ZM14.065 0.312107L0.796606 5.39964C0.366551 5.56454 0.392531 6.17131 0.835526 6.29978L4.20682 7.27934L5.46544 11.2081C5.59682 11.6185 6.12512 11.7428 6.43095 11.4355L8.17444 9.68404L11.5948 12.1544C12.0131 12.4567 12.6094 12.232 12.7158 11.7321L14.9809 1.07538C15.0919 0.553297 14.5702 0.11842 14.065 0.312107Z" fill="white" fill-opacity="0.8"/>
</svg>