<svg width="17" height="14" viewBox="0 0 17 14" fill="none" xmlns="http://www.w3.org/2000/svg">
<path fill-rule="evenodd" clip-rule="evenodd" d="M16.8616 1.72289C16.2576 1.99939 15.6127 2.18925 14.9262 2.27712C15.6261 1.83962 16.1618 1.15396 16.4085 0.322775C15.7635 0.731347 15.036 1.02248 14.2675 1.18353C13.6639 0.497813 12.7856 0.0751953 11.8108 0.0751953C9.95813 0.0751953 8.44888 1.64977 8.44888 3.58878C8.44888 3.8658 8.48987 4.12884 8.54493 4.39053C5.74503 4.24487 3.26081 2.84533 1.61392 0.716595C1.32607 1.24184 1.14738 1.83962 1.14738 2.48102C1.14738 3.70545 1.75102 4.78428 2.64341 5.41164C2.09428 5.39682 1.57292 5.23647 1.11985 4.97414V5.01846C1.11985 5.47 1.20219 5.89269 1.3536 6.28644C1.76538 7.39484 2.69822 8.22539 3.8237 8.45892C3.53555 8.5468 3.24704 8.59035 2.93161 8.59035C2.72545 8.59035 2.50606 8.56148 2.30044 8.51729C2.73921 9.91747 3.97456 10.9379 5.44336 10.9667C4.29 11.9147 2.84933 12.469 1.27071 12.469C0.996573 12.469 0.735594 12.4542 0.461212 12.4253C1.95718 13.4169 3.72735 13.9999 5.6214 13.9999C10.8777 13.9999 14.1167 10.1362 14.9674 6.12609C15.1183 5.41164 15.1871 4.69705 15.1871 3.99735V3.54581C15.8321 3.04936 16.4085 2.42265 16.8616 1.72289Z" fill="white" fill-opacity="0.8"/>
</svg>