<svg width="16" height="14" viewBox="0 0 16 14" fill="none" xmlns="http://www.w3.org/2000/svg">
<path fill-rule="evenodd" clip-rule="evenodd" d="M10.7096 0.249943L10.4457 0.694484L7.94393 4.91282L10.9568 10.9573L11.4211 10.1746L15.9687 2.50772C15.9842 2.48151 15.9749 2.44976 15.9518 2.43203C15.9507 2.43105 15.95 2.42978 15.9493 2.42854C15.9485 2.42698 15.9476 2.42547 15.946 2.42465L15.9417 2.42243C15.9415 2.42243 15.9414 2.42229 15.9413 2.4221L15.941 2.4217L11.3742 0.0531486C11.3407 0.0357953 11.3083 0.0243494 11.2769 0.016965C11.2362 0.00625767 11.1947 -1.90735e-05 11.1529 -1.90735e-05C10.9781 -1.90735e-05 10.804 0.0911783 10.7096 0.249943ZM5.49161 13.2945C5.73563 13.2945 5.90684 13.0985 5.90684 12.7695V2.4635L5.90301 2.45913C5.89865 2.45406 5.89424 2.44892 5.8881 2.44578L1.55914 0.200559L1.55734 0.19982L1.41965 0.128561C1.33927 0.0868391 1.26249 0.0669012 1.19293 0.0669012C0.997567 0.0669012 0.860597 0.22345 0.860597 0.486703V10.4763C0.860597 10.7436 1.04911 11.0604 1.2798 11.18L5.2083 13.2177C5.30922 13.2698 5.4051 13.2945 5.49161 13.2945ZM6.62499 8.71139V3.8962L9.86245 10.3908L6.95047 8.88047L6.62499 8.71139ZM15.5574 13.2537C15.8209 13.2537 16.0001 13.0779 16.0001 12.7685V3.87625L11.599 11.296L14.5107 12.8065L15.1617 13.1444C15.3047 13.2186 15.4396 13.2537 15.5574 13.2537Z" fill="white" fill-opacity="0.8"/>
</svg>