<svg width="17" height="14" viewBox="0 0 17 14" fill="none" xmlns="http://www.w3.org/2000/svg">
<path fill-rule="evenodd" clip-rule="evenodd" d="M12.6061 8.32698C12.5939 8.99844 12.0878 9.48295 11.41 9.47089C10.7796 9.45925 10.2184 8.88627 10.2367 8.27227C10.2547 7.66026 10.8543 7.0926 11.4639 7.10998C12.122 7.12889 12.6183 7.65763 12.6061 8.32698ZM11.1615 11.1685C11.2725 11.0901 11.4763 11.1401 11.6373 11.1301C11.5755 11.2976 11.5642 11.5299 11.4438 11.6209C10.6448 12.2245 9.70426 12.3504 8.70184 12.4536C7.97838 12.2792 7.25087 12.1191 6.53395 11.9211C6.3312 11.8653 6.12813 11.7278 5.9844 11.5736C5.88818 11.4704 5.89643 11.2718 5.85796 11.1159C6.00515 11.1232 6.19295 11.0743 6.29321 11.1459C7.08409 11.71 7.98977 11.8174 8.91619 11.7937C9.70921 11.7737 10.4848 11.6478 11.1615 11.1685ZM7.24421 8.30027C7.23718 8.92126 6.66928 9.46852 6.03502 9.46536C5.36377 9.46167 4.8709 8.96129 4.87388 8.28605C4.8768 7.6245 5.40283 7.09567 6.05071 7.1031C6.66699 7.11048 7.25102 7.69618 7.24421 8.30027ZM16.3567 6.14571C15.8322 5.35154 14.8903 5.14668 13.9805 5.57858C13.798 5.66542 13.5068 5.63071 13.3038 5.55324C12.6724 5.31362 12.0775 4.9682 11.4345 4.77334C10.7234 4.55848 9.97486 4.46468 9.16433 4.30195C9.39949 3.18337 9.64072 2.03641 9.89424 0.830878C10.5859 0.964171 11.2156 1.08366 11.8442 1.20795C12.155 1.26957 12.389 1.36594 12.5058 1.73833C12.6672 2.2528 13.2718 2.55983 13.7806 2.50085C14.3068 2.43923 14.7802 2.01213 14.8918 1.49866C15.0009 0.996822 14.7579 0.451699 14.3067 0.186852C13.8125 -0.103378 13.196 -0.0644067 12.79 0.366383C12.5417 0.629703 12.3019 0.630282 12.003 0.566559C11.3035 0.41752 10.5981 0.293181 9.90403 0.123656C9.49629 0.0235419 9.33255 0.16526 9.25309 0.548074C9.01671 1.68614 8.74286 2.8163 8.51903 3.95706C8.45427 4.28668 8.33751 4.42044 7.99209 4.4294C6.60225 4.46468 5.32916 4.89021 4.13047 5.57805C3.97008 5.67021 3.67457 5.66389 3.50183 5.58068C2.59423 5.14357 1.65146 5.35154 1.12669 6.14624C0.634232 6.89143 0.832674 7.8784 1.57775 8.49036C1.69738 8.58884 1.82749 8.76942 1.82244 8.90688C1.77321 10.2546 2.37259 11.2931 3.36629 12.1415C5.91885 14.3212 10.6364 14.5361 13.4988 12.6012C14.8293 11.7017 15.7259 10.5506 15.6484 8.84842C15.6431 8.73151 15.7913 8.58041 15.9045 8.48925C16.6489 7.89157 16.8481 6.88985 16.3567 6.14571Z" fill="white" fill-opacity="0.8"/>
</svg>