<svg width="24" height="17" viewBox="0 0 24 17" fill="none" xmlns="http://www.w3.org/2000/svg">
<path d="M22.6426 2.67018C22.3753 1.6858 21.6248 0.918578 20.6237 0.651317C18.8554 0.16748 11.6981 0.16748 11.6981 0.16748C11.6981 0.16748 4.5575 0.16748 2.7892 0.651317C1.80482 0.918002 1.03702 1.6858 0.753631 2.67018C0.286499 4.43849 0.286499 8.15884 0.286499 8.15884C0.286499 8.15884 0.286499 11.8792 0.753631 13.6648C1.03702 14.6325 1.80482 15.4164 2.7892 15.6836C4.5575 16.1675 11.6981 16.1675 11.6981 16.1675C11.6981 16.1675 18.8554 16.1675 20.6237 15.6836C21.6248 15.417 22.3753 14.6325 22.6426 13.6648C23.1264 11.8798 23.1264 8.15884 23.1264 8.15884C23.1264 8.15884 23.1264 4.43849 22.6426 2.67018ZM9.42927 11.5958V4.73858L15.3522 8.15884L9.42927 11.5958Z" fill="#D9D9D9"/>
</svg>