<svg width="33" height="33" viewBox="0 0 33 33" fill="none" xmlns="http://www.w3.org/2000/svg">
<path d="M16.5 2.50277C24.0767 2.50277 30.2423 8.66617 30.2423 16.2451C30.2423 23.8241 24.0789 29.9875 16.5 29.9875C8.92105 29.9875 2.75765 23.8218 2.75765 16.2451C2.75765 8.66843 8.92105 2.50277 16.5 2.50277ZM16.5 0.245117C7.66354 0.245117 0.5 7.40866 0.5 16.2451C0.5 25.0816 7.66354 32.2451 16.5 32.2451C25.3365 32.2451 32.5 25.0816 32.5 16.2451C32.5 7.40866 25.3342 0.245117 16.5 0.245117Z" fill="#58FF98"/>
<path d="M17.7398 15.4888H20.0675C20.4355 15.4888 20.7335 16.0081 20.4671 16.3286C18.8325 17.9451 17.3244 19.6858 15.7215 21.3339C15.3783 21.6861 13.1207 24.0273 12.9333 24.0837C12.5043 24.2124 12.2831 23.8647 12.4005 23.4606L15.1051 17.7735H12.7775C12.3598 17.7735 12.125 17.1233 12.4298 16.8118C14.8229 14.2629 17.0219 11.4995 19.4511 8.98901C19.9839 8.43814 20.668 7.9076 20.7064 9.09964L17.7398 15.4888Z" fill="#58FF98"/>
<path d="M28.4168 15.1165H26.762C26.4091 15.1165 26.123 15.4025 26.123 15.7554V16.7352C26.123 17.0881 26.4091 17.3741 26.762 17.3741H28.4168C28.7697 17.3741 29.0557 17.0881 29.0557 16.7352V15.7554C29.0557 15.4025 28.7697 15.1165 28.4168 15.1165Z" fill="#58FF98"/>
<path d="M23.6497 22.7008L22.9569 23.3937C22.7074 23.6432 22.7074 24.0477 22.9569 24.2972L24.1271 25.4674C24.3766 25.7169 24.7811 25.7169 25.0306 25.4674L25.7235 24.7746C25.973 24.5251 25.973 24.1205 25.7235 23.871L24.5533 22.7008C24.3038 22.4513 23.8993 22.4513 23.6497 22.7008Z" fill="#58FF98"/>
<path d="M16.99 25.8672H16.0101C15.6573 25.8672 15.3712 26.1532 15.3712 26.5061V28.161C15.3712 28.5138 15.6573 28.7999 16.0101 28.7999H16.99C17.3428 28.7999 17.6289 28.5138 17.6289 28.161V26.5061C17.6289 26.1532 17.3428 25.8672 16.99 25.8672Z" fill="#58FF98"/>
<path d="M8.44507 22.7011L7.2749 23.8712C7.02539 24.1207 7.02539 24.5253 7.2749 24.7748L7.96774 25.4676C8.21725 25.7171 8.62179 25.7171 8.87131 25.4676L10.0415 24.2975C10.291 24.0479 10.291 23.6434 10.0415 23.3939L9.34863 22.7011C9.09912 22.4515 8.69458 22.4515 8.44507 22.7011Z" fill="#58FF98"/>
<path d="M6.23872 15.1165H4.58386C4.231 15.1165 3.94495 15.4025 3.94495 15.7554V16.7352C3.94495 17.0881 4.231 17.3741 4.58386 17.3741H6.23872C6.59159 17.3741 6.87764 17.0881 6.87764 16.7352V15.7554C6.87764 15.4025 6.59159 15.1165 6.23872 15.1165Z" fill="#58FF98"/>
<path d="M7.96774 7.02017L7.2749 7.71301C7.02539 7.96252 7.02539 8.36706 7.2749 8.61658L8.44507 9.78674C8.69458 10.0363 9.09912 10.0363 9.34863 9.78674L10.0415 9.0939C10.291 8.84439 10.291 8.43985 10.0415 8.19034L8.87131 7.02017C8.62179 6.77066 8.21725 6.77066 7.96774 7.02017Z" fill="#58FF98"/>
<path d="M16.99 3.69019H16.0101C15.6573 3.69019 15.3712 3.97624 15.3712 4.3291V5.98396C15.3712 6.33683 15.6573 6.62288 16.0101 6.62288H16.99C17.3428 6.62288 17.6289 6.33683 17.6289 5.98396V4.3291C17.6289 3.97624 17.3428 3.69019 16.99 3.69019Z" fill="#58FF98"/>
<path d="M24.1271 7.02088L22.9569 8.19104C22.7074 8.44055 22.7074 8.84509 22.9569 9.0946L23.6497 9.78744C23.8993 10.037 24.3038 10.037 24.5533 9.78744L25.7235 8.61728C25.973 8.36777 25.973 7.96323 25.7235 7.71372L25.0306 7.02088C24.7811 6.77137 24.3766 6.77136 24.1271 7.02088Z" fill="#58FF98"/>
</svg>
