<svg width="33" height="33" viewBox="0 0 33 33" fill="none" xmlns="http://www.w3.org/2000/svg">
<path d="M31.1295 9.75729C29.5219 6.13575 26.6071 3.22317 22.9856 1.61561C21.0032 0.735063 18.8086 0.245117 16.4989 0.245117C7.66404 0.245117 0.5 7.40916 0.5 16.2462C0.5 18.556 0.989946 20.7483 1.87049 22.7307C3.47806 26.3522 6.39064 29.2671 10.0122 30.8746C11.9945 31.7552 14.1891 32.2451 16.4989 32.2451C25.336 32.2451 32.5 25.0811 32.5 16.2462C32.5 13.9365 32.0101 11.7419 31.1295 9.75729ZM2.75781 16.2462C2.75781 8.66677 8.92165 2.50293 16.4989 2.50293C18.0974 2.50293 19.6327 2.77613 21.0597 3.28188L14.214 10.1276C13.803 10.5385 13.496 11.0284 13.3086 11.5635C14.0875 11.5951 14.8326 11.7984 15.5077 12.1551C15.5799 11.9993 15.6815 11.8548 15.8102 11.7238L23.2543 4.27983C25.4263 5.51034 27.2325 7.31659 28.463 9.48861L21.019 16.9326C20.7232 17.2284 20.3259 17.3932 19.9014 17.3932C19.4769 17.3932 19.0796 17.2284 18.7838 16.9326L17.2959 15.447L15.8102 13.9591C15.0877 13.2366 14.1237 12.8392 13.0963 12.8392H13.0918C12.0668 12.8392 11.105 13.2366 10.3825 13.9591L3.53676 20.8048C3.03101 19.3778 2.75781 17.8448 2.75781 16.2462ZM16.4989 29.9873C14.9003 29.9873 13.3628 29.7119 11.9358 29.2084L18.7838 22.3604C19.2015 21.9427 19.5018 21.4505 19.6869 20.9267C18.908 20.8951 18.1606 20.6896 17.4901 20.3329C17.4155 20.4887 17.3162 20.6354 17.1852 20.7641L9.74349 28.2081C7.56922 26.9776 5.76522 25.1714 4.53697 22.9971L11.981 15.5554C12.2745 15.2596 12.6719 15.097 13.0963 15.097C13.5208 15.097 13.9159 15.2596 14.214 15.5554L15.6996 17.0433L17.1852 18.5289C17.9348 19.2785 18.9192 19.651 19.9014 19.651C19.9014 19.651 19.9029 19.6503 19.9059 19.6488C20.8903 19.6488 21.868 19.274 22.6153 18.5289L29.4632 11.6809C29.9667 13.1101 30.2422 14.6455 30.2422 16.2462C30.2422 23.8235 24.0784 29.9873 16.4989 29.9873Z" fill="#58FF98"/>
</svg>
