<svg width="33" height="33" viewBox="0 0 33 33" fill="none" xmlns="http://www.w3.org/2000/svg">
<path d="M31.9694 12.1407C31.9287 11.9849 31.8836 11.8314 31.8384 11.6779C31.8384 11.6756 31.8384 11.6711 31.8384 11.6689C31.8362 11.6598 31.8316 11.6485 31.8294 11.6395C31.7729 11.4499 31.7142 11.2625 31.6487 11.0751C31.6171 10.9825 31.5855 10.8922 31.5517 10.7997C31.5494 10.7929 31.5449 10.7861 31.5404 10.7793C31.5133 10.7071 31.4907 10.6348 31.4613 10.5626C31.3259 10.1991 31.1746 9.84467 31.012 9.49699C30.3188 8.00468 29.3975 6.63428 28.2957 5.43547C28.1918 5.32258 28.0857 5.2097 27.9795 5.09908C27.9795 5.09908 27.9773 5.09456 27.975 5.0923C27.9705 5.08779 27.9637 5.08327 27.9592 5.0765C27.835 4.95007 27.7086 4.82364 27.5799 4.70173C27.4963 4.62045 27.4128 4.54143 27.3292 4.46467C27.3247 4.46016 27.3179 4.4579 27.3112 4.45339C27.2502 4.3992 27.1915 4.3405 27.1305 4.28632C26.8686 4.05152 26.5977 3.82576 26.3177 3.60902C25.2971 2.81207 24.1771 2.13929 22.9804 1.61326C22.8539 1.55456 22.7297 1.50263 22.6033 1.44845C22.6033 1.44845 22.5988 1.44619 22.5965 1.44619C22.522 1.41458 22.4475 1.38523 22.373 1.35588C22.1969 1.2859 22.0185 1.22042 21.8378 1.15721C21.8175 1.15044 21.7972 1.14141 21.7746 1.13463C21.7724 1.13463 21.7679 1.13463 21.7656 1.13463C21.673 1.10303 21.5827 1.06916 21.4901 1.03981C21.2779 0.969824 21.0656 0.904352 20.8489 0.843396C19.6815 0.513778 18.4599 0.315104 17.2 0.263178C17.1526 0.258663 17.1074 0.258663 17.06 0.256405C16.8748 0.247375 16.6874 0.245117 16.5 0.245117C16.3352 0.245117 16.1726 0.249632 16.01 0.254148C15.9965 0.254148 15.9829 0.254148 15.9694 0.254148C15.9649 0.254148 15.9603 0.254148 15.9581 0.254148C15.8452 0.258663 15.7323 0.263178 15.6216 0.269951C15.5742 0.269951 15.5291 0.274467 15.4817 0.276724C14.1856 0.355742 12.9301 0.592796 11.7357 0.965309C11.6025 1.00595 11.467 1.04884 11.336 1.09625C11.2457 1.12786 11.1554 1.16173 11.0651 1.19333C11.0605 1.19333 11.0538 1.19333 11.0493 1.19559C10.9905 1.21591 10.9318 1.24074 10.8709 1.26332C10.8212 1.28138 10.7738 1.29944 10.7241 1.3175C10.5593 1.38072 10.3944 1.44845 10.2319 1.51843C10.2319 1.51843 10.2296 1.51843 10.2274 1.51843C10.1032 1.57262 9.97446 1.6268 9.85253 1.68324C8.6129 2.24766 7.45682 2.96785 6.41363 3.82124C6.1788 4.01089 5.94849 4.2073 5.72721 4.41049C5.66624 4.46693 5.60754 4.52563 5.54657 4.58207C5.5398 4.58659 5.53302 4.58885 5.52851 4.59562C5.41109 4.70624 5.29594 4.81687 5.18304 4.92975C5.08594 5.02683 4.99111 5.12391 4.89627 5.22325C4.88273 5.23679 4.87369 5.25034 4.86466 5.26614C4.76983 5.36774 4.67273 5.46482 4.58016 5.56867C3.49181 6.78329 2.58411 8.16497 1.90446 9.67083C1.74866 10.0185 1.60189 10.3752 1.47093 10.7364C1.44383 10.8132 1.41674 10.8922 1.38964 10.9712C1.38964 10.9758 1.38513 10.978 1.38513 10.9825C1.35351 11.0706 1.32416 11.1609 1.29481 11.2512C1.23384 11.4386 1.17513 11.626 1.12094 11.8156C1.11868 11.8269 1.11417 11.8382 1.11191 11.8495C1.11191 11.854 1.11191 11.8562 1.11191 11.8608C1.06901 12.012 1.02611 12.1633 0.987722 12.3191C0.669348 13.5743 0.5 14.8905 0.5 16.2474C0.5 17.0534 0.558707 17.8458 0.676122 18.6202C0.728055 18.9678 0.791279 19.3155 0.865792 19.6564C0.883855 19.7377 0.904177 19.8167 0.922241 19.898C0.922241 19.9048 0.922241 19.9115 0.922241 19.9183C0.947079 20.0312 0.974174 20.1418 1.00353 20.2525C1.04869 20.4263 1.0961 20.5979 1.14578 20.7695C1.14578 20.7762 1.1503 20.783 1.15255 20.7898C1.15255 20.7898 1.15255 20.7943 1.15481 20.7966C1.19771 20.9433 1.24287 21.0878 1.29029 21.2323C3.38569 27.626 9.40093 32.2451 16.4977 32.2451C23.5946 32.2451 29.7204 27.5424 31.7616 21.0584C31.8091 20.9094 31.8542 20.7604 31.8971 20.6092C31.8971 20.6092 31.8971 20.6092 31.8971 20.6047C31.9332 20.4737 31.9694 20.3428 32.0032 20.2118C32.0439 20.0538 32.0823 19.8935 32.1184 19.7355C32.1184 19.7264 32.1184 19.7174 32.1184 19.7061C32.1365 19.6293 32.1568 19.5526 32.1726 19.4736C32.2336 19.1778 32.2855 18.8798 32.3284 18.5795C32.4413 17.8187 32.5 17.0376 32.5 16.2451C32.5 14.8251 32.3148 13.4479 31.9671 12.1384L31.9694 12.1407ZM16.5 29.9875C10.2612 29.9875 4.98208 25.8108 3.31118 20.1057C3.30666 20.0876 3.31343 20.0673 3.3315 20.056L9.35803 16.5747C9.53867 16.4709 9.61318 16.2451 9.52512 16.0555C9.42125 15.832 9.33093 15.6062 9.24965 15.3737C9.16836 15.1411 8.88386 15.026 8.66257 15.1524L2.94539 18.4554L2.93861 18.4599C2.8799 18.1077 2.83474 17.751 2.80539 17.3897C2.77378 17.0127 2.75797 16.6312 2.75797 16.2451C2.75797 14.8928 2.95442 13.5833 3.32021 12.3461C3.32472 12.3281 3.34279 12.3168 3.36085 12.3168H8.45258C8.66032 12.3168 8.83418 12.161 8.85676 11.9556C8.86353 11.8991 8.87031 11.8404 8.87934 11.784C8.89063 11.6711 8.90644 11.5605 8.92902 11.4499C8.94256 11.3731 8.95611 11.2963 8.97192 11.2218C9.02385 10.9712 8.82741 10.7387 8.57 10.7387H3.97728C3.94567 10.7387 3.92535 10.7071 3.93889 10.68C4.09018 10.3368 4.25727 10.0027 4.43565 9.67308C5.0182 8.60747 5.73398 7.62765 6.57169 6.75845C6.58524 6.74491 6.60782 6.74039 6.62362 6.75168L7.3665 7.18063L9.6335 8.49007C9.8164 8.59618 10.0512 8.54426 10.1709 8.37042C10.3086 8.16723 10.4554 7.97307 10.6112 7.78568C10.767 7.5983 10.7241 7.29803 10.5028 7.1716L8.67612 6.11728L7.85874 5.64543C7.8339 5.62962 7.82938 5.5935 7.85196 5.57544C8.07324 5.39483 8.3013 5.22099 8.53613 5.05166C9.28803 4.51434 10.0986 4.05152 10.9544 3.6745C10.9747 3.66546 10.9973 3.6745 11.0086 3.69256L11.5121 4.56401L12.2392 5.82153C12.3498 6.01343 12.596 6.08341 12.7879 5.97279C13.0001 5.85313 13.2169 5.74476 13.4404 5.64543C13.664 5.54609 13.7498 5.27969 13.6279 5.06973L13.0363 4.04701L12.5169 3.1462C12.5034 3.12363 12.5169 3.09202 12.5395 3.08525C12.6569 3.04912 12.7766 3.013 12.8963 2.9814C13.7588 2.7466 14.653 2.59308 15.5742 2.53438L15.6194 2.57727V4.5911C15.6194 4.8259 15.8181 5.01328 16.0529 4.99748C16.2381 4.98394 16.4232 4.97716 16.6106 4.97716C16.6671 4.97716 16.7258 4.97716 16.7822 4.97716C17.0103 4.98168 17.1977 4.79881 17.1977 4.57078V2.56599C17.1977 2.54115 17.218 2.52309 17.2429 2.52309C18.0761 2.56599 18.8889 2.68338 19.6747 2.87077C19.8779 2.91818 20.0789 2.97236 20.2776 3.02881C20.3047 3.03558 20.316 3.06719 20.3024 3.08976L19.8147 3.93413L19.2457 4.92072C19.1215 5.13746 19.2186 5.41289 19.4534 5.5032C19.6883 5.5935 19.905 5.69058 20.1218 5.79895C20.3137 5.89603 20.5463 5.82378 20.6547 5.6364L21.3682 4.3992L21.8243 3.60902C21.8356 3.59096 21.8582 3.58193 21.8785 3.59096C22.6868 3.93413 23.4546 4.35405 24.1749 4.8417C24.4571 5.0336 24.7326 5.23228 24.999 5.44675C25.0216 5.46482 25.0193 5.50094 24.9945 5.51674L24.3148 5.90732L22.5333 6.93681C22.3098 7.06549 22.2623 7.36802 22.4362 7.56218C22.5988 7.74505 22.7546 7.93695 22.9014 8.13562C23.0233 8.30043 23.2513 8.34558 23.4297 8.24173L25.6696 6.94809L26.2544 6.60945C26.2703 6.60042 26.2928 6.60267 26.3064 6.61622C27.1509 7.47187 27.8802 8.43815 28.4763 9.49021C28.6614 9.81757 28.833 10.154 28.9888 10.4949C29.0024 10.522 28.9798 10.5558 28.9505 10.5558H24.6264C24.3645 10.5558 24.1726 10.7997 24.2313 11.0548C24.2607 11.1857 24.2877 11.3189 24.3103 11.4521C24.3307 11.5605 24.3465 11.6576 24.3555 11.7501C24.3555 11.7592 24.3577 11.7659 24.36 11.775C24.3894 11.9782 24.5587 12.1317 24.7642 12.1317H29.5895C29.6075 12.1317 29.6256 12.143 29.6301 12.161C30.0343 13.4479 30.2511 14.8183 30.2511 16.2383C30.2511 16.6109 30.2353 16.9789 30.2059 17.3423C30.1833 17.6336 30.1517 17.9203 30.1111 18.2048C30.1065 18.2341 30.0727 18.2499 30.0478 18.2364L24.5948 15.0892C24.3713 14.9605 24.089 15.0689 24.0055 15.3127C23.922 15.5565 23.8362 15.771 23.7345 15.9945C23.6487 16.1842 23.7233 16.4077 23.9039 16.5115L29.7272 19.8754C29.743 19.8845 29.752 19.9048 29.7475 19.9228C28.1331 25.716 22.811 29.9807 16.5068 29.9807L16.5 29.9875Z" fill="#58FF98"/>
<path d="M22.9628 11.9147C22.9561 11.8357 22.9448 11.7612 22.929 11.6867C22.8635 11.3006 22.7641 10.9236 22.6332 10.5646C22.4435 10.0341 22.1861 9.53514 21.8722 9.08135C21.5652 8.63659 21.2039 8.23247 20.7997 7.88027C20.4633 7.58226 20.0952 7.32038 19.7001 7.09913C19.2417 6.8395 18.7495 6.63405 18.2301 6.49182C17.8621 6.39022 17.4782 6.32023 17.0853 6.28637C16.8911 6.26831 16.697 6.25928 16.4983 6.25928C16.1618 6.25928 15.8299 6.28411 15.507 6.33604C15.1254 6.39248 14.7551 6.48279 14.4006 6.60696C13.8948 6.77628 13.4161 7.00882 12.9758 7.29328C12.6145 7.52356 12.2781 7.78997 11.9733 8.08572C11.5894 8.45598 11.2507 8.87364 10.9685 9.32743C10.693 9.76542 10.4695 10.2395 10.3069 10.7407C10.203 11.0455 10.124 11.3616 10.0698 11.6867C10.054 11.7702 10.0405 11.8515 10.0337 11.9328C10.0156 12.0592 10.0021 12.1879 9.99304 12.3188C9.98175 12.4723 9.97723 12.6281 9.97723 12.7839C9.97723 13.2828 10.0337 13.7705 10.1398 14.2378C10.2595 14.7661 10.4446 15.2718 10.684 15.7437C10.8533 16.0733 11.0475 16.3871 11.2665 16.6806L11.2778 16.6964C12.3571 18.1391 13.1023 19.8052 13.4545 21.5707L13.7842 23.2233C13.7932 23.273 13.809 23.3226 13.8271 23.3678C13.9535 23.6974 14.2742 23.9232 14.6354 23.9232H18.3385C18.6975 23.9232 19.0136 23.7042 19.1446 23.3791C19.1627 23.3294 19.1785 23.2797 19.1898 23.2256L19.5375 21.5075C19.8852 19.7736 20.6236 18.1413 21.6939 16.7325L21.7074 16.7167C21.949 16.3961 22.1613 16.0507 22.3419 15.6872C22.579 15.2131 22.7596 14.7052 22.8725 14.1724C22.9719 13.7253 23.0238 13.2603 23.0238 12.7839C23.0238 12.5672 23.0125 12.3527 22.9899 12.1405C22.9832 12.0637 22.9741 11.9892 22.9628 11.9147Z" fill="#58FF98"/>
<path d="M18.3792 24.5151H14.57C14.2059 24.5151 13.9107 24.8103 13.9107 25.1744C13.9107 25.5385 14.2059 25.8336 14.57 25.8336H18.3792C18.7434 25.8336 19.0386 25.5385 19.0386 25.1744C19.0386 24.8103 18.7434 24.5151 18.3792 24.5151Z" fill="#58FF98"/>
<path d="M18.3792 26.4272H14.57C14.2059 26.4272 13.9107 26.7224 13.9107 27.0865C13.9107 27.4506 14.2059 27.7457 14.57 27.7457H18.3792C18.7434 27.7457 19.0386 27.4506 19.0386 27.0865C19.0386 26.7224 18.7434 26.4272 18.3792 26.4272Z" fill="#58FF98"/>
</svg>
