<svg width="42" height="50" viewBox="0 0 42 50" fill="none" xmlns="http://www.w3.org/2000/svg">
<path d="M21.2511 34.0293V38.2429" stroke="#58FF98" stroke-width="2" stroke-linecap="round"/>
<path d="M12.8912 45.0653H29.6119V43.0589C29.6119 40.8517 28.1071 39.0459 26.2678 39.0459H16.2354C14.3961 39.0459 12.8912 40.8517 12.8912 43.0589V45.0653V45.0653Z" stroke="#58FF98" stroke-width="2"/>
<path d="M11.2203 45.0654H31.2852" stroke="#58FF98" stroke-width="2" stroke-linecap="round"/>
<path d="M15.558 31.1598C12.2827 28.7319 10.0835 24.1973 10.0835 18.9804V12.961C10.0835 8.52666 12.8754 4.93506 16.3223 4.93506H25.6804C29.1274 4.93506 31.9192 8.52666 31.9192 12.961V18.9804C31.9192 26.6452 27.1622 32.8653 21.2353 33.0258C21.1573 33.0258 21.0014 33.0258 21.0014 33.0258" stroke="#58FF98" stroke-width="2" stroke-linecap="round"/>
<path d="M10.7896 24.2975C9.38095 23.8159 8.14135 22.9331 7.16469 21.8897C5.47432 19.8832 4.34741 17.4754 4.34741 14.6664C4.34741 11.8573 6.41342 9.65015 9.04288 9.65015H10.2637C9.88806 10.5731 9.70024 11.5964 9.70024 12.6599V18.6793C9.70024 20.6858 10.0947 22.5719 10.7896 24.2975Z" stroke="#58FF98" stroke-width="2"/>
<path d="M31.2858 24.2975C32.6783 23.8159 33.9038 22.9331 34.8693 21.8897C36.5404 19.8832 37.6545 17.4754 37.6545 14.6664C37.6545 11.8573 35.612 9.65015 33.0126 9.65015H31.8057C32.177 10.5731 32.3627 11.5964 32.3627 12.6599V18.6793C32.3627 20.6858 31.9728 22.5719 31.2858 24.2975Z" stroke="#58FF98" stroke-width="2"/>
</svg>
