<svg width="32" height="32" viewBox="0 0 32 32" fill="none" xmlns="http://www.w3.org/2000/svg">
<path d="M16 17.9067C18.2975 17.9067 20.16 16.0442 20.16 13.7467C20.16 11.4492 18.2975 9.58667 16 9.58667C13.7025 9.58667 11.84 11.4492 11.84 13.7467C11.84 16.0442 13.7025 17.9067 16 17.9067Z" stroke="url(#paint0_linear_823_183)" stroke-width="1.3125"/>
<path d="M4.82667 11.3201C7.45333 -0.226582 24.56 -0.213249 27.1733 11.3334C28.7067 18.1068 24.4933 23.8401 20.8 27.3868C18.12 29.9734 13.88 29.9734 11.1867 27.3868C7.50667 23.8401 3.29333 18.0934 4.82667 11.3201Z" stroke="url(#paint1_linear_823_183)" stroke-width="1.3125"/>
<defs>
<linearGradient id="paint0_linear_823_183" x1="16" y1="9.58667" x2="16" y2="17.9067" gradientUnits="userSpaceOnUse">
<stop stop-color="#9FF6C2"/>
<stop offset="1" stop-color="#C4F5F8"/>
</linearGradient>
<linearGradient id="paint1_linear_823_183" x1="16" y1="2.66675" x2="16" y2="29.3268" gradientUnits="userSpaceOnUse">
<stop stop-color="#9FF6C2"/>
<stop offset="1" stop-color="#C4F5F8"/>
</linearGradient>
</defs>
</svg>