<svg width="131" height="24" viewBox="0 0 131 24" fill="none" xmlns="http://www.w3.org/2000/svg">
<path d="M2.16895 13.0049C2.77767 13.3486 3.39355 13.6602 4.0166 13.9395C4.64681 14.2116 5.2985 14.4443 5.97168 14.6377C6.64486 14.8239 7.35026 14.9671 8.08789 15.0674C8.83268 15.1676 9.62402 15.2178 10.4619 15.2178C11.4717 15.2178 12.3311 15.1533 13.04 15.0244C13.749 14.8883 14.3255 14.7057 14.7695 14.4766C15.2207 14.2402 15.5465 13.9609 15.7471 13.6387C15.9548 13.3164 16.0586 12.9655 16.0586 12.5859C16.0586 11.9772 15.8044 11.4974 15.2959 11.1465C14.7874 10.7884 14.0033 10.6094 12.9434 10.6094C12.4779 10.6094 11.9873 10.6416 11.4717 10.7061C10.9561 10.7633 10.4333 10.8278 9.90332 10.8994C9.38053 10.971 8.86133 11.0391 8.3457 11.1035C7.83724 11.1608 7.35742 11.1895 6.90625 11.1895C6.1543 11.1895 5.43099 11.0928 4.73633 10.8994C4.04883 10.7061 3.43652 10.416 2.89941 10.0293C2.36947 9.64258 1.94694 9.15918 1.63184 8.5791C1.31673 7.99902 1.15918 7.32227 1.15918 6.54883C1.15918 6.09049 1.22005 5.63574 1.3418 5.18457C1.4707 4.7334 1.67122 4.30371 1.94336 3.89551C2.22266 3.48014 2.58073 3.09701 3.01758 2.74609C3.45443 2.38802 3.98079 2.08008 4.59668 1.82227C5.21973 1.56445 5.93587 1.36393 6.74512 1.2207C7.56152 1.07031 8.48893 0.995117 9.52734 0.995117C10.2793 0.995117 11.0348 1.03809 11.7939 1.12402C12.5531 1.2028 13.2907 1.31738 14.0068 1.46777C14.7301 1.61816 15.4248 1.80078 16.0908 2.01562C16.7568 2.22331 17.3763 2.45605 17.9492 2.71387L16.4561 5.46387C15.9834 5.25618 15.4749 5.06641 14.9307 4.89453C14.3864 4.71549 13.8171 4.56152 13.2227 4.43262C12.6283 4.30371 12.0124 4.20345 11.375 4.13184C10.7448 4.05306 10.1003 4.01367 9.44141 4.01367C8.50326 4.01367 7.72982 4.08171 7.12109 4.21777C6.51953 4.35384 6.03971 4.5293 5.68164 4.74414C5.32357 4.95182 5.07292 5.18815 4.92969 5.45312C4.79362 5.71094 4.72559 5.96875 4.72559 6.22656C4.72559 6.72786 4.95117 7.13965 5.40234 7.46191C5.85352 7.77702 6.54102 7.93457 7.46484 7.93457C7.83724 7.93457 8.26335 7.90951 8.74316 7.85938C9.23014 7.80208 9.73861 7.74121 10.2686 7.67676C10.8057 7.6123 11.3499 7.55501 11.9014 7.50488C12.46 7.44759 13.0007 7.41895 13.5234 7.41895C14.5117 7.41895 15.3854 7.52995 16.1445 7.75195C16.9108 7.97396 17.5518 8.29264 18.0674 8.70801C18.583 9.11621 18.9733 9.61393 19.2383 10.2012C19.5033 10.7812 19.6357 11.4329 19.6357 12.1562C19.6357 13.123 19.4102 13.986 18.959 14.7451C18.515 15.4971 17.8776 16.1344 17.0469 16.6572C16.2233 17.1729 15.2279 17.5667 14.0605 17.8389C12.8932 18.1038 11.5934 18.2363 10.1611 18.2363C9.21582 18.2363 8.29199 18.1755 7.38965 18.0537C6.4873 17.9391 5.62077 17.7744 4.79004 17.5596C3.96647 17.3376 3.17871 17.0762 2.42676 16.7754C1.68197 16.4674 0.990885 16.1309 0.353516 15.7656L2.16895 13.0049ZM24.9811 23.1777H21.8014V5.32422H24.9811V6.5166C25.2604 6.32324 25.5898 6.14062 25.9693 5.96875C26.3489 5.79688 26.7571 5.64648 27.1939 5.51758C27.6308 5.38867 28.082 5.28841 28.5475 5.2168C29.013 5.13802 29.4785 5.09863 29.9439 5.09863C31.0182 5.09863 32.0029 5.25618 32.898 5.57129C33.8004 5.88639 34.5738 6.3304 35.2184 6.90332C35.8629 7.47624 36.3642 8.16374 36.7223 8.96582C37.0875 9.76074 37.2701 10.6416 37.2701 11.6084C37.2701 12.6182 37.0803 13.5312 36.7008 14.3477C36.3212 15.1569 35.7949 15.8516 35.1217 16.4316C34.4557 17.0046 33.6607 17.4486 32.7369 17.7637C31.8202 18.0716 30.8248 18.2256 29.7506 18.2256C29.2923 18.2256 28.8375 18.1969 28.3863 18.1396C27.9423 18.0824 27.5126 18.0036 27.0973 17.9033C26.6891 17.8031 26.3023 17.6849 25.9371 17.5488C25.579 17.4056 25.2604 17.2516 24.9811 17.0869V23.1777ZM24.9811 14.0146C25.3033 14.2725 25.6435 14.4909 26.0016 14.6699C26.3596 14.849 26.7249 14.9958 27.0973 15.1104C27.4697 15.2249 27.8456 15.3109 28.2252 15.3682C28.6048 15.4183 28.9736 15.4434 29.3316 15.4434C30.0621 15.4434 30.7102 15.3467 31.276 15.1533C31.8489 14.9528 32.3287 14.6807 32.7154 14.3369C33.1093 13.9932 33.4101 13.5885 33.6178 13.123C33.8255 12.6576 33.9293 12.1527 33.9293 11.6084C33.9293 11.0999 33.8255 10.6201 33.6178 10.1689C33.4173 9.71777 33.1236 9.32389 32.7369 8.9873C32.3574 8.64355 31.8954 8.375 31.3512 8.18164C30.8141 7.98112 30.2089 7.88086 29.5357 7.88086C29.1061 7.88086 28.6764 7.92383 28.2467 8.00977C27.817 8.08854 27.4016 8.20312 27.0006 8.35352C26.6067 8.50391 26.2343 8.68652 25.8834 8.90137C25.5396 9.11621 25.2389 9.35612 24.9811 9.62109V14.0146ZM38.4152 11.6621C38.4152 10.7526 38.5979 9.90039 38.9631 9.10547C39.3355 8.31055 39.8618 7.61589 40.5422 7.02148C41.2297 6.42708 42.0568 5.95801 43.0236 5.61426C43.9976 5.27051 45.0897 5.09863 46.3 5.09863C47.5103 5.09863 48.5988 5.27051 49.5656 5.61426C50.5396 5.95801 51.3667 6.42708 52.0471 7.02148C52.7346 7.61589 53.2609 8.31055 53.6262 9.10547C53.9986 9.90039 54.1848 10.7526 54.1848 11.6621C54.1848 12.5716 53.9986 13.4238 53.6262 14.2188C53.2609 15.0137 52.7346 15.7083 52.0471 16.3027C51.3667 16.8971 50.5396 17.3662 49.5656 17.71C48.5988 18.0537 47.5103 18.2256 46.3 18.2256C45.0897 18.2256 43.9976 18.0537 43.0236 17.71C42.0568 17.3662 41.2297 16.8971 40.5422 16.3027C39.8618 15.7083 39.3355 15.0137 38.9631 14.2188C38.5979 13.4238 38.4152 12.5716 38.4152 11.6621ZM41.7561 11.6621C41.7561 12.1706 41.8563 12.654 42.0568 13.1123C42.2645 13.5635 42.5617 13.9645 42.9484 14.3154C43.3423 14.6592 43.8186 14.9349 44.3771 15.1426C44.9429 15.3431 45.5839 15.4434 46.3 15.4434C47.0161 15.4434 47.6535 15.3431 48.2121 15.1426C48.7779 14.9349 49.2541 14.6592 49.6408 14.3154C50.0347 13.9645 50.3319 13.5635 50.5324 13.1123C50.7401 12.654 50.8439 12.1706 50.8439 11.6621C50.8439 11.1536 50.7401 10.6702 50.5324 10.2119C50.3319 9.75358 50.0347 9.35254 49.6408 9.00879C49.2541 8.65788 48.7779 8.38216 48.2121 8.18164C47.6535 7.97396 47.0161 7.87012 46.3 7.87012C45.5839 7.87012 44.9429 7.97396 44.3771 8.18164C43.8186 8.38216 43.3423 8.65788 42.9484 9.00879C42.5617 9.35254 42.2645 9.75358 42.0568 10.2119C41.8563 10.6702 41.7561 11.1536 41.7561 11.6621ZM55.534 11.6621C55.534 10.7526 55.7166 9.90039 56.0818 9.10547C56.4542 8.31055 56.9806 7.61589 57.6609 7.02148C58.3484 6.42708 59.1756 5.95801 60.1424 5.61426C61.1163 5.27051 62.2085 5.09863 63.4188 5.09863C64.629 5.09863 65.7176 5.27051 66.6844 5.61426C67.6583 5.95801 68.4855 6.42708 69.1658 7.02148C69.8533 7.61589 70.3797 8.31055 70.7449 9.10547C71.1173 9.90039 71.3035 10.7526 71.3035 11.6621C71.3035 12.5716 71.1173 13.4238 70.7449 14.2188C70.3797 15.0137 69.8533 15.7083 69.1658 16.3027C68.4855 16.8971 67.6583 17.3662 66.6844 17.71C65.7176 18.0537 64.629 18.2256 63.4188 18.2256C62.2085 18.2256 61.1163 18.0537 60.1424 17.71C59.1756 17.3662 58.3484 16.8971 57.6609 16.3027C56.9806 15.7083 56.4542 15.0137 56.0818 14.2188C55.7166 13.4238 55.534 12.5716 55.534 11.6621ZM58.8748 11.6621C58.8748 12.1706 58.9751 12.654 59.1756 13.1123C59.3833 13.5635 59.6805 13.9645 60.0672 14.3154C60.4611 14.6592 60.9373 14.9349 61.4959 15.1426C62.0617 15.3431 62.7026 15.4434 63.4188 15.4434C64.1349 15.4434 64.7723 15.3431 65.3309 15.1426C65.8966 14.9349 66.3729 14.6592 66.7596 14.3154C67.1535 13.9645 67.4507 13.5635 67.6512 13.1123C67.8589 12.654 67.9627 12.1706 67.9627 11.6621C67.9627 11.1536 67.8589 10.6702 67.6512 10.2119C67.4507 9.75358 67.1535 9.35254 66.7596 9.00879C66.3729 8.65788 65.8966 8.38216 65.3309 8.18164C64.7723 7.97396 64.1349 7.87012 63.4188 7.87012C62.7026 7.87012 62.0617 7.97396 61.4959 8.18164C60.9373 8.38216 60.4611 8.65788 60.0672 9.00879C59.6805 9.35254 59.3833 9.75358 59.1756 10.2119C58.9751 10.6702 58.8748 11.1536 58.8748 11.6621ZM73.4154 5.32422H76.5951V6.39844C77.4402 5.91862 78.2458 5.58203 79.0121 5.38867C79.7855 5.19531 80.5411 5.09863 81.2787 5.09863C82.2455 5.09863 83.1407 5.24186 83.9643 5.52832C84.7878 5.80762 85.5004 6.22656 86.102 6.78516C86.7035 7.34375 87.1726 8.04199 87.5092 8.87988C87.8529 9.71061 88.0248 10.6738 88.0248 11.7695V18H84.8559V12.2852C84.8559 11.5905 84.7556 10.971 84.5551 10.4268C84.3617 9.87533 84.0788 9.41341 83.7064 9.04102C83.3412 8.66146 82.8936 8.375 82.3637 8.18164C81.8409 7.98112 81.2536 7.88086 80.602 7.88086C80.2582 7.88086 79.9037 7.91667 79.5385 7.98828C79.1804 8.0599 78.8259 8.16374 78.475 8.2998C78.1312 8.42871 77.7982 8.59342 77.476 8.79395C77.1537 8.9873 76.8601 9.20931 76.5951 9.45996V18H73.4154V5.32422ZM90.2441 9.55664C90.2441 8.28906 90.4769 7.12891 90.9424 6.07617C91.4079 5.02344 92.0596 4.12109 92.8975 3.36914C93.7425 2.61003 94.7523 2.02279 95.9268 1.60742C97.1084 1.19206 98.4154 0.984375 99.8477 0.984375C101.273 0.984375 102.576 1.19206 103.758 1.60742C104.939 2.02279 105.949 2.61003 106.787 3.36914C107.632 4.12109 108.287 5.02344 108.753 6.07617C109.218 7.12891 109.451 8.28906 109.451 9.55664C109.451 10.8314 109.218 12.0023 108.753 13.0693C108.287 14.1292 107.632 15.0423 106.787 15.8086C105.949 16.5749 104.939 17.1729 103.758 17.6025C102.576 18.0251 101.273 18.2363 99.8477 18.2363C98.4154 18.2363 97.1084 18.0251 95.9268 17.6025C94.7523 17.1729 93.7425 16.5749 92.8975 15.8086C92.0596 15.0423 91.4079 14.1292 90.9424 13.0693C90.4769 12.0023 90.2441 10.8314 90.2441 9.55664ZM93.6494 9.55664C93.6494 10.4232 93.8034 11.2038 94.1113 11.8984C94.4264 12.5931 94.8597 13.1875 95.4111 13.6816C95.9697 14.1686 96.625 14.5446 97.377 14.8096C98.1361 15.0745 98.9596 15.207 99.8477 15.207C100.736 15.207 101.556 15.0745 102.308 14.8096C103.067 14.5446 103.722 14.1686 104.273 13.6816C104.825 13.1875 105.258 12.5931 105.573 11.8984C105.888 11.2038 106.046 10.4232 106.046 9.55664C106.046 8.6901 105.888 7.91309 105.573 7.22559C105.258 6.53809 104.825 5.95801 104.273 5.48535C103.722 5.00553 103.067 4.6403 102.308 4.38965C101.556 4.139 100.736 4.01367 99.8477 4.01367C98.9596 4.01367 98.1361 4.139 97.377 4.38965C96.625 4.6403 95.9697 5.00553 95.4111 5.48535C94.8597 5.95801 94.4264 6.53809 94.1113 7.22559C93.8034 7.91309 93.6494 8.6901 93.6494 9.55664ZM112.917 13.0049C113.525 13.3486 114.141 13.6602 114.764 13.9395C115.394 14.2116 116.046 14.4443 116.719 14.6377C117.393 14.8239 118.098 14.9671 118.836 15.0674C119.58 15.1676 120.372 15.2178 121.21 15.2178C122.219 15.2178 123.079 15.1533 123.788 15.0244C124.497 14.8883 125.073 14.7057 125.517 14.4766C125.968 14.2402 126.294 13.9609 126.495 13.6387C126.702 13.3164 126.806 12.9655 126.806 12.5859C126.806 11.9772 126.552 11.4974 126.044 11.1465C125.535 10.7884 124.751 10.6094 123.691 10.6094C123.226 10.6094 122.735 10.6416 122.219 10.7061C121.704 10.7633 121.181 10.8278 120.651 10.8994C120.128 10.971 119.609 11.0391 119.093 11.1035C118.585 11.1608 118.105 11.1895 117.654 11.1895C116.902 11.1895 116.179 11.0928 115.484 10.8994C114.796 10.7061 114.184 10.416 113.647 10.0293C113.117 9.64258 112.695 9.15918 112.379 8.5791C112.064 7.99902 111.907 7.32227 111.907 6.54883C111.907 6.09049 111.968 5.63574 112.089 5.18457C112.218 4.7334 112.419 4.30371 112.691 3.89551C112.97 3.48014 113.328 3.09701 113.765 2.74609C114.202 2.38802 114.728 2.08008 115.344 1.82227C115.967 1.56445 116.684 1.36393 117.493 1.2207C118.309 1.07031 119.237 0.995117 120.275 0.995117C121.027 0.995117 121.782 1.03809 122.542 1.12402C123.301 1.2028 124.038 1.31738 124.754 1.46777C125.478 1.61816 126.172 1.80078 126.838 2.01562C127.504 2.22331 128.124 2.45605 128.697 2.71387L127.204 5.46387C126.731 5.25618 126.223 5.06641 125.678 4.89453C125.134 4.71549 124.565 4.56152 123.97 4.43262C123.376 4.30371 122.76 4.20345 122.123 4.13184C121.492 4.05306 120.848 4.01367 120.189 4.01367C119.251 4.01367 118.477 4.08171 117.869 4.21777C117.267 4.35384 116.787 4.5293 116.429 4.74414C116.071 4.95182 115.821 5.18815 115.677 5.45312C115.541 5.71094 115.473 5.96875 115.473 6.22656C115.473 6.72786 115.699 7.13965 116.15 7.46191C116.601 7.77702 117.289 7.93457 118.213 7.93457C118.585 7.93457 119.011 7.90951 119.491 7.85938C119.978 7.80208 120.486 7.74121 121.016 7.67676C121.553 7.6123 122.098 7.55501 122.649 7.50488C123.208 7.44759 123.748 7.41895 124.271 7.41895C125.259 7.41895 126.133 7.52995 126.892 7.75195C127.658 7.97396 128.299 8.29264 128.815 8.70801C129.331 9.11621 129.721 9.61393 129.986 10.2012C130.251 10.7812 130.383 11.4329 130.383 12.1562C130.383 13.123 130.158 13.986 129.707 14.7451C129.263 15.4971 128.625 16.1344 127.795 16.6572C126.971 17.1729 125.976 17.5667 124.808 17.8389C123.641 18.1038 122.341 18.2363 120.909 18.2363C119.963 18.2363 119.04 18.1755 118.137 18.0537C117.235 17.9391 116.368 17.7744 115.538 17.5596C114.714 17.3376 113.926 17.0762 113.174 16.7754C112.43 16.4674 111.739 16.1309 111.101 15.7656L112.917 13.0049Z" fill="white"/>
</svg>
