<svg width="152" height="20" viewBox="0 0 152 20" fill="none" xmlns="http://www.w3.org/2000/svg">
<path d="M71.3731 4.05474C71.0805 3.68292 70.6996 3.39035 70.2302 3.17091C69.7609 2.95148 69.3069 2.84177 68.8711 2.84177C68.6455 2.84177 68.417 2.86005 68.1854 2.90272C67.9538 2.94234 67.7435 3.01853 67.5606 3.1313C67.3747 3.24406 67.2193 3.39035 67.0944 3.56711C66.9694 3.74693 66.9054 3.9755 66.9054 4.25284C66.9054 4.49056 66.9542 4.68866 67.0547 4.85018C67.1553 5.00866 67.2985 5.14885 67.4905 5.26771C67.6825 5.38657 67.9111 5.49629 68.1762 5.59686C68.4414 5.69744 68.74 5.79801 69.0691 5.90468C69.5446 6.06316 70.0413 6.23992 70.5594 6.43192C71.0744 6.62393 71.5468 6.87993 71.9704 7.19689C72.394 7.51385 72.7444 7.91005 73.0218 8.37939C73.2991 8.84873 73.4393 9.43693 73.4393 10.1379C73.4393 10.9455 73.29 11.6434 72.9913 12.2347C72.6926 12.8229 72.2934 13.3105 71.7906 13.6945C71.2877 14.0785 70.7118 14.362 70.0626 14.5479C69.4135 14.7338 68.7461 14.8252 68.0574 14.8252C67.0517 14.8252 66.0765 14.6484 65.1379 14.298C64.1962 13.9475 63.416 13.4477 62.7943 12.7985L65.019 10.5341C65.3634 10.9577 65.8174 11.3112 66.3782 11.5977C66.942 11.8842 67.4997 12.0244 68.0574 12.0244C68.3073 12.0244 68.5541 11.997 68.7918 11.9452C69.0295 11.8934 69.2398 11.805 69.4166 11.6861C69.5964 11.5673 69.7366 11.4088 69.8432 11.2107C69.9499 11.0126 70.0017 10.7749 70.0017 10.4945C70.0017 10.2141 69.9346 10.0038 69.8036 9.81789C69.6726 9.63198 69.4836 9.46436 69.2368 9.31197C68.993 9.15959 68.6882 9.0194 68.3225 8.89444C67.9568 8.76949 67.5454 8.63234 67.0822 8.48606C66.6311 8.33977 66.1923 8.1691 65.7626 7.971C65.3329 7.7729 64.9489 7.5169 64.6106 7.20603C64.2724 6.89517 64.0011 6.51726 63.7969 6.07535C63.5928 5.63343 63.4891 5.09095 63.4891 4.45703C63.4891 3.67683 63.6476 3.00634 63.9646 2.45166C64.2815 1.89699 64.699 1.43984 65.2171 1.08021C65.7321 0.723634 66.3172 0.461534 66.9664 0.29696C67.6155 0.132386 68.2707 0.0500984 68.932 0.0500984C69.7274 0.0500984 70.538 0.196387 71.3639 0.485916C72.1928 0.778492 72.9151 1.20821 73.5399 1.77813L71.3761 4.06084L71.3731 4.05474Z" fill="white"/>
<path d="M86.294 9.54356C86.294 10.2249 86.1866 10.8791 85.9749 11.5092C85.7601 12.1392 85.4503 12.6909 85.0453 13.1703C84.6373 13.6496 84.1433 14.0325 83.5574 14.3189C82.9714 14.6083 82.3057 14.75 81.5571 14.75C80.9435 14.75 80.3637 14.6294 79.8176 14.3882C79.2715 14.147 78.845 13.8154 78.5382 13.3964H78.4984V19.1906H75.2188V4.68987H78.3388V5.88972H78.4002C78.707 5.49781 79.1304 5.15413 79.6703 4.85869C80.2103 4.56325 80.8453 4.41553 81.5786 4.41553C82.3118 4.41553 82.9499 4.5542 83.539 4.82854C84.1249 5.10288 84.6219 5.47671 85.03 5.947C85.4349 6.4173 85.7509 6.96598 85.9688 7.58701C86.1896 8.20804 86.3001 8.86223 86.3001 9.54054L86.294 9.54356ZM83.1156 9.54356C83.1156 9.23003 83.0665 8.92252 82.9653 8.62105C82.864 8.31958 82.7198 8.05429 82.5265 7.82517C82.3333 7.59605 82.0909 7.40914 81.7964 7.26443C81.5019 7.11973 81.1644 7.04737 80.7778 7.04737C80.3913 7.04737 80.0722 7.11973 79.7777 7.26443C79.4832 7.40914 79.2347 7.59907 79.0291 7.83421C78.8236 8.06936 78.664 8.33767 78.5505 8.63914C78.437 8.94061 78.3818 9.24811 78.3818 9.56164C78.3818 9.87517 78.437 10.1827 78.5505 10.4841C78.664 10.7856 78.8236 11.0539 79.0291 11.2891C79.2347 11.5242 79.4862 11.7142 79.7777 11.8589C80.0722 12.0036 80.4035 12.0759 80.7778 12.0759C81.1521 12.0759 81.5049 12.0036 81.7964 11.8589C82.0909 11.7142 82.3333 11.5242 82.5265 11.2891C82.7198 11.0539 82.8671 10.7826 82.9653 10.4751C83.0665 10.1676 83.1156 9.85709 83.1156 9.54054V9.54356Z" fill="white"/>
<path d="M98.7247 9.58122C98.7247 10.3799 98.5816 11.1032 98.2983 11.7512C98.0121 12.3991 97.6245 12.9507 97.1325 13.3997C96.6406 13.8518 96.0711 14.2014 95.4211 14.4516C94.7711 14.7017 94.0794 14.8253 93.3429 14.8253C92.6065 14.8253 91.9267 14.7017 91.2738 14.4516C90.6208 14.2044 90.0483 13.8518 89.5623 13.3997C89.0763 12.9477 88.6917 12.3991 88.4055 11.7512C88.1193 11.1032 87.9791 10.3799 87.9791 9.58122C87.9791 8.78256 88.1222 8.06225 88.4055 7.42031C88.6917 6.77836 89.0763 6.23588 89.5623 5.78983C90.0483 5.34378 90.6178 5.00322 91.2738 4.76814C91.9267 4.53307 92.6184 4.41553 93.3429 4.41553C94.0675 4.41553 94.7741 4.53307 95.4211 4.76814C96.0681 5.00322 96.6376 5.34378 97.1325 5.78983C97.6245 6.23588 98.0121 6.77836 98.2983 7.42031C98.5845 8.06225 98.7247 8.78256 98.7247 9.58122ZM95.6566 9.58122C95.6566 9.26778 95.606 8.96037 95.5016 8.65899C95.3972 8.35761 95.2482 8.09239 95.0544 7.86334C94.8606 7.63429 94.6191 7.44743 94.3358 7.30277C94.0496 7.15811 93.7216 7.08577 93.3459 7.08577C92.9703 7.08577 92.6393 7.15811 92.3561 7.30277C92.0698 7.44743 91.8343 7.63429 91.6464 7.86334C91.4586 8.09239 91.3155 8.35761 91.2201 8.65899C91.1217 8.96037 91.074 9.26778 91.074 9.58122C91.074 9.89466 91.1217 10.2021 91.2201 10.5034C91.3185 10.8048 91.4616 11.0761 91.6584 11.3172C91.8522 11.5583 92.0907 11.7542 92.3769 11.8958C92.6602 12.0405 92.9911 12.1128 93.3668 12.1128C93.7425 12.1128 94.0734 12.0405 94.3567 11.8958C94.6429 11.7512 94.8814 11.5583 95.0752 11.3172C95.269 11.0761 95.4151 10.8018 95.5135 10.5034C95.6119 10.2021 95.6596 9.89466 95.6596 9.58122H95.6566Z" fill="white"/>
<path d="M111.149 9.58122C111.149 10.3799 111.006 11.1032 110.723 11.7512C110.436 12.3991 110.048 12.9507 109.556 13.3997C109.064 13.8488 108.494 14.2014 107.847 14.4516C107.199 14.6987 106.504 14.8253 105.768 14.8253C105.031 14.8253 104.35 14.7017 103.697 14.4516C103.044 14.2014 102.474 13.8518 101.988 13.3997C101.502 12.9477 101.117 12.3991 100.83 11.7512C100.544 11.1032 100.404 10.3799 100.404 9.58122C100.404 8.78256 100.547 8.06225 100.83 7.42031C101.117 6.77836 101.502 6.23588 101.988 5.78983C102.474 5.34378 103.044 5.00322 103.697 4.76814C104.35 4.53307 105.043 4.41553 105.768 4.41553C106.492 4.41553 107.199 4.53307 107.847 4.76814C108.494 5.00322 109.064 5.34378 109.556 5.78983C110.048 6.23588 110.436 6.77836 110.723 7.42031C111.009 8.06225 111.149 8.78256 111.149 9.58122ZM108.077 9.58122C108.077 9.26778 108.026 8.96037 107.921 8.65899C107.817 8.35761 107.668 8.09239 107.474 7.86334C107.28 7.63429 107.038 7.44743 106.755 7.30277C106.469 7.15811 106.14 7.08577 105.765 7.08577C105.389 7.08577 105.058 7.15811 104.774 7.30277C104.488 7.44743 104.252 7.63429 104.064 7.86334C103.876 8.09239 103.733 8.35761 103.637 8.65899C103.539 8.96037 103.491 9.26778 103.491 9.58122C103.491 9.89466 103.539 10.2021 103.637 10.5034C103.736 10.8048 103.879 11.0761 104.076 11.3172C104.27 11.5583 104.509 11.7542 104.795 11.8958C105.081 12.0405 105.41 12.1128 105.785 12.1128C106.161 12.1128 106.492 12.0405 106.776 11.8958C107.062 11.7512 107.301 11.5583 107.495 11.3172C107.689 11.0761 107.835 10.8018 107.933 10.5034C108.032 10.2021 108.079 9.89466 108.079 9.58122H108.077Z" fill="white"/>
<path d="M119.642 14.4895V9.13703C119.642 8.86231 119.617 8.59967 119.572 8.3491C119.526 8.10156 119.45 7.88118 119.344 7.69099C119.238 7.5008 119.089 7.34986 118.897 7.23816C118.706 7.12647 118.466 7.07213 118.174 7.07213C117.882 7.07213 117.63 7.12948 117.412 7.23816C117.193 7.34986 117.013 7.50382 116.868 7.70005C116.722 7.89627 116.612 8.12269 116.54 8.37929C116.467 8.6359 116.43 8.90156 116.43 9.17627V14.4895H113.164V4.69024H116.312V6.04873H116.351C116.47 5.83741 116.625 5.63213 116.816 5.42987C117.007 5.2276 117.232 5.05251 117.487 4.9076C117.743 4.7627 118.025 4.64496 118.329 4.55439C118.633 4.46383 118.955 4.41553 119.298 4.41553C119.958 4.41553 120.52 4.53326 120.982 4.76873C121.444 5.00421 121.817 5.30911 122.1 5.68345C122.382 6.05779 122.589 6.48647 122.714 6.9725C122.838 7.45854 122.902 7.94458 122.902 8.42759V14.4865H119.636L119.642 14.4895Z" fill="white"/>
<path d="M140.028 7.37685C140.028 8.48651 139.838 9.49888 139.459 10.417C139.08 11.3351 138.554 12.1195 137.881 12.7731C137.207 13.4267 136.407 13.9314 135.481 14.2901C134.552 14.6458 133.547 14.8252 132.462 14.8252C131.376 14.8252 130.375 14.6458 129.455 14.2901C128.534 13.9345 127.737 13.4298 127.064 12.7731C126.39 12.1195 125.864 11.3351 125.485 10.417C125.106 9.49888 124.917 8.48651 124.917 7.37685C124.917 6.2672 125.106 5.23963 125.485 4.33671C125.864 3.43378 126.39 2.66158 127.064 2.02923C127.737 1.39384 128.534 0.90742 129.455 0.563883C130.375 0.220347 131.379 0.0500984 132.462 0.0500984C133.544 0.0500984 134.552 0.223387 135.481 0.563883C136.407 0.90742 137.21 1.39688 137.881 2.02923C138.554 2.66462 139.08 3.43378 139.459 4.33671C139.838 5.24267 140.028 6.25504 140.028 7.37685ZM136.44 7.37685C136.44 6.76882 136.341 6.20032 136.145 5.67133C135.95 5.14234 135.679 4.68936 135.334 4.31542C134.988 3.94149 134.57 3.64051 134.08 3.42466C133.589 3.20577 133.051 3.09633 132.462 3.09633C131.872 3.09633 131.337 3.20577 130.856 3.42466C130.372 3.64355 129.954 3.93845 129.602 4.31542C129.25 4.6924 128.976 5.14538 128.79 5.67133C128.601 6.20032 128.507 6.76882 128.507 7.37685C128.507 7.98488 128.607 8.59595 128.802 9.13102C128.997 9.66608 129.268 10.1251 129.614 10.5082C129.96 10.8913 130.375 11.1922 130.859 11.4111C131.343 11.63 131.878 11.7395 132.465 11.7395C133.051 11.7395 133.589 11.63 134.071 11.4111C134.555 11.1922 134.973 10.8913 135.324 10.5082C135.676 10.1251 135.953 9.66608 136.148 9.13102C136.344 8.59595 136.443 8.01224 136.443 7.37685H136.44Z" fill="white"/>
<path d="M149.684 4.05474C149.401 3.68292 149.034 3.39035 148.577 3.17091C148.122 2.95148 147.682 2.84177 147.26 2.84177C147.041 2.84177 146.82 2.86005 146.595 2.90272C146.371 2.94234 146.167 3.01853 145.99 3.1313C145.81 3.24406 145.659 3.39035 145.538 3.56711C145.417 3.74693 145.355 3.9755 145.355 4.25284C145.355 4.49056 145.402 4.68866 145.5 4.85018C145.597 5.00866 145.736 5.14885 145.922 5.26771C146.108 5.38657 146.329 5.49629 146.586 5.59686C146.843 5.69744 147.133 5.79801 147.452 5.90468C147.912 6.06316 148.394 6.23992 148.896 6.43192C149.398 6.62393 149.852 6.87993 150.263 7.19689C150.673 7.51385 151.013 7.91005 151.282 8.37939C151.55 8.84873 151.686 9.43693 151.686 10.1379C151.686 10.9455 151.542 11.6434 151.252 12.2347C150.963 12.8229 150.576 13.3105 150.089 13.6945C149.601 14.0785 149.043 14.362 148.414 14.5479C147.785 14.7338 147.139 14.8252 146.471 14.8252C145.497 14.8252 144.552 14.6484 143.642 14.298C142.73 13.9475 141.974 13.4477 141.371 12.7985L143.527 10.5341C143.861 10.9577 144.301 11.3112 144.844 11.5977C145.39 11.8842 145.931 12.0244 146.471 12.0244C146.716 12.0244 146.952 11.997 147.183 11.9452C147.413 11.8934 147.617 11.805 147.788 11.6861C147.96 11.5673 148.098 11.4088 148.202 11.2107C148.305 11.0126 148.355 10.7749 148.355 10.4945C148.355 10.2141 148.29 10.0038 148.163 9.81789C148.036 9.63198 147.853 9.46436 147.614 9.31197C147.378 9.15959 147.082 9.0194 146.728 8.89444C146.374 8.76949 145.975 8.63234 145.526 8.48606C145.089 8.33977 144.664 8.1691 144.247 7.971C143.831 7.7729 143.459 7.5169 143.131 7.20603C142.803 6.89517 142.541 6.51726 142.343 6.07535C142.145 5.63343 142.044 5.09095 142.044 4.45703C142.044 3.67683 142.198 3.00634 142.505 2.45166C142.812 1.89699 143.217 1.43984 143.716 1.08021C144.218 0.723634 144.782 0.461534 145.411 0.29696C146.04 0.132386 146.675 0.0500984 147.316 0.0500984C148.086 0.0500984 148.872 0.196387 149.672 0.485916C150.473 0.778492 151.175 1.20821 151.781 1.77813L149.684 4.06084V4.05474Z" fill="white"/>
<path d="M18.8736 20C8.46512 20 0 11.511 0 1.07314H3.88174C3.88174 9.35966 10.6054 16.1023 18.8686 16.1023C27.1318 16.1023 33.8554 9.35966 33.8554 1.07314H37.7372C37.7372 11.511 29.2721 20 18.8635 20H18.8736Z" fill="#A8EFFF"/>
<path d="M55.258 1.07822V4.97597H39.3323C39.5948 3.72566 39.7311 2.42978 39.7311 1.10353" fill="#A8EFFF"/>
<path d="M15.9005 0H12.0188V5.5176H15.9005V0Z" fill="#A8EFFF"/>
<path d="M22.5888 0H18.707V5.5176H22.5888V0Z" fill="#A8EFFF"/>
</svg>