<svg width="12" height="13" viewBox="0 0 12 13" fill="none" xmlns="http://www.w3.org/2000/svg">
<path d="M6.33997 2.48C6.57997 2.835 6.71997 3.26 6.71997 3.72C6.71497 4.92 5.76997 5.895 4.57997 5.935C4.52997 5.93 4.46997 5.93 4.41497 5.935C3.22497 5.895 2.27997 4.92 2.27997 3.72C2.27997 2.495 3.26997 1.5 4.49997 1.5" stroke="#B3B3B3" stroke-width="0.75" stroke-linecap="round" stroke-linejoin="round"/>
<path d="M8.20501 2.5C9.17501 2.5 9.95501 3.285 9.95501 4.25C9.95501 5.195 9.20502 5.965 8.27001 6C8.23001 5.995 8.18501 5.995 8.14001 6" stroke="#B3B3B3" stroke-width="0.75" stroke-linecap="round" stroke-linejoin="round"/>
<path d="M2.07999 7.78C0.869985 8.59 0.869985 9.91 2.07999 10.715C3.45499 11.635 5.70999 11.635 7.08499 10.715C8.29499 9.905 8.29499 8.585 7.08499 7.78C5.71499 6.865 3.45999 6.865 2.07999 7.78Z" stroke="#B3B3B3" stroke-width="0.75" stroke-linecap="round" stroke-linejoin="round"/>
<path d="M9.17004 10.5C9.53004 10.425 9.87004 10.28 10.15 10.065C10.93 9.48 10.93 8.515 10.15 7.93C9.87504 7.72 9.54004 7.58 9.18504 7.5" stroke="#B3B3B3" stroke-width="0.75" stroke-linecap="round" stroke-linejoin="round"/>
</svg>
