<svg width="1440" height="648" viewBox="0 0 1440 648" fill="none" xmlns="http://www.w3.org/2000/svg">
<g filter="url(#filter0_f_119_575)">
<path d="M157.48 156.728L23.0687 138.938C11.8089 137.45 7.29401 126.903 12.9874 115.377L40.6929 59.2676C46.3863 47.7409 60.1303 39.6268 71.372 41.1153L205.784 58.9046C217.043 60.3931 221.558 70.9396 215.865 82.4664L188.159 138.575C182.466 150.102 168.722 158.216 157.48 156.728Z" fill="#5AFF9A" fill-opacity="0.3"/>
<path d="M-26.6669 132.331L-161.078 114.542C-172.338 113.053 -176.853 102.507 -171.16 90.9799L-143.454 34.8708C-137.761 23.344 -124.017 15.2299 -112.775 16.7184L21.6363 34.5077C32.8962 35.9962 37.4111 46.5428 31.7177 58.0696L4.01216 114.179C-1.68124 125.705 -15.4252 133.82 -26.6669 132.331Z" fill="#5AFF9A" fill-opacity="0.3"/>
<path d="M341.646 181.106L207.234 163.317C195.974 161.829 191.46 151.282 197.153 139.755L224.858 83.6463C230.552 72.1195 244.296 64.0054 255.538 65.4939L389.949 83.2833C401.209 84.7718 405.724 95.3183 400.03 106.845L372.325 162.954C366.631 174.481 352.888 182.595 341.646 181.106Z" fill="#5AFF9A" fill-opacity="0.3"/>
<path d="M525.793 205.485L391.381 187.696C380.122 186.207 375.607 175.661 381.3 164.134L409.006 108.025C414.699 96.4982 428.443 88.3841 439.685 89.8726L574.096 107.662C585.356 109.15 589.871 119.697 584.178 131.224L556.472 187.333C550.779 198.86 537.035 206.974 525.793 205.485Z" fill="#5AFF9A" fill-opacity="0.3"/>
<path d="M472.939 312.493L338.527 294.704C327.267 293.216 322.752 282.669 328.446 271.142L356.151 215.033C361.845 203.507 375.588 195.392 386.83 196.881L521.242 214.67C532.502 216.159 537.017 226.705 531.323 238.232L503.618 294.341C497.924 305.868 484.18 313.982 472.939 312.493Z" fill="#5AFF9A" fill-opacity="0.3"/>
<path d="M420.066 419.52L285.654 401.731C274.395 400.242 269.88 389.696 275.573 378.169L303.279 322.06C308.972 310.533 322.716 302.419 333.958 303.907L468.369 321.697C479.629 323.185 484.144 333.732 478.451 345.259L450.745 401.368C445.052 412.894 431.308 421.009 420.066 419.52Z" fill="#5AFF9A" fill-opacity="0.3"/>
<path d="M367.212 526.528L232.8 508.739C221.54 507.251 217.025 496.704 222.719 485.177L250.424 429.068C256.118 417.541 269.862 409.427 281.103 410.916L415.515 428.705C426.775 430.194 431.29 440.74 425.596 452.267L397.891 508.376C392.197 519.903 378.453 528.017 367.212 526.528Z" fill="#5AFF9A" fill-opacity="0.3"/>
<path d="M551.359 550.907L416.947 533.118C405.688 531.629 401.173 521.083 406.866 509.556L434.572 453.447C440.265 441.92 454.009 433.806 465.251 435.294L599.662 453.084C610.922 454.572 615.437 465.119 609.744 476.646L582.038 532.755C576.345 544.281 562.601 552.396 551.359 550.907Z" fill="#5AFF9A" fill-opacity="0.3"/>
<path d="M735.524 575.304L601.113 557.514C589.853 556.026 585.338 545.479 591.031 533.953L618.737 477.844C624.43 466.317 638.174 458.203 649.416 459.691L783.827 477.481C795.087 478.969 799.602 489.516 793.909 501.042L766.203 557.151C760.51 568.678 746.766 576.792 735.524 575.304Z" fill="#5AFF9A" fill-opacity="0.3"/>
<path d="M919.672 599.683L785.26 581.893C774 580.405 769.485 569.858 775.179 558.331L802.884 502.222C808.578 490.696 822.322 482.582 833.563 484.07L967.975 501.859C979.235 503.348 983.75 513.894 978.056 525.421L950.351 581.53C944.657 593.057 930.913 601.171 919.672 599.683Z" fill="#5AFF9A" fill-opacity="0.3"/>
<path d="M1103.84 624.061L969.426 606.272C958.166 604.783 953.651 594.237 959.344 582.71L987.05 526.601C992.743 515.074 1006.49 506.96 1017.73 508.449L1152.14 526.238C1163.4 527.726 1167.92 538.273 1162.22 549.8L1134.52 605.909C1128.82 617.435 1115.08 625.55 1103.84 624.061Z" fill="#5AFF9A" fill-opacity="0.3"/>
<path d="M1287.98 648.44L1153.57 630.651C1142.31 629.162 1137.8 618.616 1143.49 607.089L1171.2 550.98C1176.89 539.453 1190.63 531.339 1201.88 532.827L1336.29 550.617C1347.55 552.105 1352.06 562.652 1346.37 574.179L1318.66 630.288C1312.97 641.814 1299.23 649.929 1287.98 648.44Z" fill="#5AFF9A" fill-opacity="0.3"/>
<path d="M1472.13 672.837L1337.72 655.047C1326.46 653.559 1321.95 643.012 1327.64 631.486L1355.34 575.377C1361.04 563.85 1374.78 555.736 1386.02 557.224L1520.43 575.013C1531.69 576.502 1536.21 587.049 1530.52 598.575L1502.81 654.684C1497.12 666.211 1483.37 674.325 1472.13 672.837Z" fill="#5AFF9A" fill-opacity="0.3"/>
</g>
<path d="M148.106 140.173L13.6947 122.383C2.43484 120.895 -2.08001 110.348 3.6134 98.8216L31.3189 42.7126C37.0123 31.1858 50.7562 23.0717 61.998 24.5602L196.41 42.3495C207.669 43.838 212.184 54.3846 206.491 65.9114L178.785 122.02C173.092 133.547 159.348 141.661 148.106 140.173Z" fill="#4D6656"/>
<path d="M-36.0593 115.794L-170.453 97.9865C-181.713 96.498 -186.227 85.9515 -180.534 74.4247L-152.829 18.3157C-147.135 6.80705 -133.391 -1.30707 -122.131 0.181424L12.2802 17.9708C23.5401 19.4593 28.0549 30.0058 22.3615 41.5326L-5.34395 97.6416C-11.0374 109.168 -24.7813 117.283 -36.0231 115.794H-36.0593Z" fill="#4D6656"/>
<path d="M332.253 164.551L197.842 146.762C186.582 145.274 182.067 134.727 187.761 123.2L215.466 67.0913C221.16 55.5645 234.903 47.4504 246.145 48.9389L380.557 66.7282C391.817 68.2167 396.331 78.7633 390.638 90.29L362.933 146.399C357.239 157.926 343.495 166.04 332.253 164.551Z" fill="#4D6656"/>
<path d="M516.419 188.93L382.007 171.141C370.747 169.652 366.232 159.106 371.926 147.579L399.631 91.4699C405.325 79.9431 419.069 71.829 430.311 73.3175L564.722 91.1069C575.982 92.5954 580.497 103.142 574.803 114.669L547.098 170.778C541.404 182.305 527.661 190.419 516.419 188.93Z" fill="#4D6656"/>
<path d="M463.546 295.957L329.135 278.167C317.875 276.679 313.36 266.132 319.053 254.605L346.759 198.496C352.452 186.97 366.196 178.856 377.438 180.344L511.849 198.133C523.109 199.622 527.624 210.168 521.931 221.695L494.225 277.804C488.532 289.331 474.788 297.445 463.546 295.957Z" fill="#8CB99D"/>
<path d="M410.692 402.965L276.28 385.176C265.021 383.687 260.506 373.141 266.199 361.614L293.905 305.505C299.598 293.978 313.342 285.864 324.584 287.352L458.995 305.142C470.255 306.63 474.77 317.177 469.077 328.703L441.371 384.813C435.678 396.339 421.934 404.453 410.692 402.965Z" fill="#8CB99D"/>
<path d="M357.819 509.973L223.408 492.184C212.148 490.696 207.633 480.149 213.327 468.622L241.032 412.513C246.725 400.986 260.469 392.872 271.711 394.361L406.123 412.15C417.383 413.639 421.897 424.185 416.204 435.712L388.498 491.821C382.805 503.348 369.061 511.462 357.819 509.973Z" fill="#8CB99D"/>
<path d="M541.967 534.37L407.555 516.581C396.295 515.092 391.78 504.546 397.474 493.019L425.179 436.91C430.873 425.383 444.617 417.269 455.858 418.758L590.27 436.547C601.53 438.035 606.045 448.582 600.351 460.109L572.646 516.218C566.952 527.745 553.208 535.859 541.967 534.37Z" fill="#8CB99D"/>
<path d="M726.132 558.749L591.721 540.96C580.461 539.471 575.946 528.924 581.639 517.398L609.345 461.289C615.038 449.762 628.782 441.648 640.024 443.136L774.435 460.926C785.695 462.414 790.21 472.961 784.517 484.487L756.811 540.596C751.118 552.123 737.374 560.237 726.132 558.749Z" fill="#8CB99D"/>
<path d="M910.279 583.128L775.868 565.338C764.608 563.85 760.093 553.303 765.786 541.776L793.492 485.667C799.185 474.141 812.929 466.026 824.171 467.515L958.582 485.304C969.842 486.793 974.357 497.339 968.664 508.866L940.958 564.975C935.265 576.502 921.521 584.616 910.279 583.128Z" fill="#8CB99D"/>
<path d="M1094.44 607.506L960.033 589.717C948.773 588.228 944.258 577.682 949.952 566.155L977.657 510.046C983.351 498.519 997.095 490.405 1008.34 491.894L1142.75 509.683C1154.01 511.171 1158.52 521.718 1152.83 533.245L1125.12 589.354C1119.43 600.881 1105.69 608.995 1094.44 607.506Z" fill="#8CB99D"/>
<path d="M1278.59 631.903L1144.18 614.114C1132.92 612.625 1128.41 602.078 1134.1 590.552L1161.8 534.443C1167.5 522.916 1181.24 514.802 1192.48 516.29L1326.9 534.08C1338.16 535.568 1342.67 546.115 1336.98 557.641L1309.27 613.75C1303.58 625.277 1289.83 633.391 1278.59 631.903Z" fill="#8CB99D"/>
<path d="M1462.76 656.282L1328.35 638.492C1317.09 637.004 1312.57 626.457 1318.26 614.931L1345.97 558.822C1351.66 547.295 1365.41 539.181 1376.65 540.669L1511.06 558.459C1522.32 559.947 1526.84 570.494 1521.14 582.02L1493.44 638.129C1487.74 649.656 1474 657.77 1462.76 656.282Z" fill="#8CB99D"/>
<defs>
<filter id="filter0_f_119_575" x="-178.622" y="11.5424" width="1716.6" height="666.47" filterUnits="userSpaceOnUse" color-interpolation-filters="sRGB">
<feFlood flood-opacity="0" result="BackgroundImageFix"/>
<feBlend mode="normal" in="SourceGraphic" in2="BackgroundImageFix" result="shape"/>
<feGaussianBlur stdDeviation="2.5" result="effect1_foregroundBlur_119_575"/>
</filter>
</defs>
</svg>
