<svg width="63" height="37" viewBox="0 0 63 37" fill="none" xmlns="http://www.w3.org/2000/svg">
<g filter="url(#filter0_d_823_261)">
<path d="M9.43457 16.2305C10.126 16.5703 10.8643 16.8193 11.6494 16.9775C12.4404 17.1299 13.2109 17.2061 13.9609 17.2061C14.6289 17.2061 15.2061 17.1533 15.6924 17.0479C16.1787 16.9365 16.5801 16.7871 16.8965 16.5996C17.2129 16.4121 17.4473 16.1895 17.5996 15.9316C17.752 15.6738 17.8281 15.3955 17.8281 15.0967C17.8281 14.6924 17.6904 14.332 17.415 14.0156C17.1396 13.6934 16.7207 13.4531 16.1582 13.2949C15.6016 13.1309 14.8955 13.0664 14.04 13.1016C13.1904 13.1367 12.1885 13.3037 11.0342 13.6025L11.043 11.5459L16.1758 8.20605H8.90723V5.7627H19.9023V8.15332L15.3848 11.0186C16.2109 11.0186 16.9492 11.124 17.5996 11.335C18.25 11.5459 18.7979 11.8359 19.2432 12.2051C19.6885 12.5742 20.0283 13.0107 20.2627 13.5146C20.4971 14.0186 20.6143 14.5605 20.6143 15.1406C20.6143 15.8262 20.4619 16.4502 20.1572 17.0127C19.8584 17.5693 19.4219 18.0469 18.8477 18.4453C18.2734 18.8379 17.5703 19.1426 16.7383 19.3594C15.9121 19.5762 14.9746 19.6846 13.9258 19.6846C12.8125 19.6846 11.7842 19.5674 10.8408 19.333C9.89746 19.0928 9.00098 18.7617 8.15137 18.3398L9.43457 16.2305Z" fill="white"/>
</g>
<path d="M0.959545 24.312C0.444786 24.312 0.0102463 24.7054 0.00165176 25.2201C-0.0395622 27.6879 0.688477 29.8632 2.28746 31.8141C4.77782 34.8523 8.09969 36.204 11.9931 36.4671C16.3453 36.7598 19.9369 35.0749 23.1044 32.3808C25.9257 29.9808 28.6288 27.4485 31.4765 25.0809C36.2112 21.1457 41.7189 19.2705 47.9774 19.5538C49.9311 19.6415 51.8625 19.8506 53.6479 20.6722C54.4126 21.0243 55.1371 21.4883 55.8156 21.9848C56.6986 22.6297 57.1421 23.8978 55.9853 24.9514C55.4057 25.479 55.8158 26.5632 56.5515 26.8335C56.5781 26.8433 56.6049 26.8527 56.6318 26.8617C57.0379 26.9966 57.4953 26.9966 57.9319 27.0357C58.8469 27.1167 59.5894 26.7686 60.0733 26.0374C60.6072 25.2293 61.0897 24.3835 61.525 23.52C61.9908 22.5959 62.3718 21.63 62.7959 20.6856C63.22 19.7426 63.0003 19.0937 61.9769 18.7915C60.5878 18.3828 59.1625 18.0846 57.747 17.7689C54.129 16.9636 50.4859 16.3511 46.7496 16.5318C41.9497 16.7639 37.4362 18.0266 33.0603 19.9234C29.605 21.4222 26.1232 22.9561 22.3883 23.6388C19.8799 24.0974 17.2866 24.2297 14.7254 24.285C10.1381 24.3835 5.54815 24.312 0.959545 24.312Z" fill="white"/>
<defs>
<filter id="filter0_d_823_261" x="4.15137" y="5.7627" width="20.4629" height="21.9219" filterUnits="userSpaceOnUse" color-interpolation-filters="sRGB">
<feFlood flood-opacity="0" result="BackgroundImageFix"/>
<feColorMatrix in="SourceAlpha" type="matrix" values="0 0 0 0 0 0 0 0 0 0 0 0 0 0 0 0 0 0 127 0" result="hardAlpha"/>
<feOffset dy="4"/>
<feGaussianBlur stdDeviation="2"/>
<feComposite in2="hardAlpha" operator="out"/>
<feColorMatrix type="matrix" values="0 0 0 0 0 0 0 0 0 0 0 0 0 0 0 0 0 0 0.25 0"/>
<feBlend mode="normal" in2="BackgroundImageFix" result="effect1_dropShadow_823_261"/>
<feBlend mode="normal" in="SourceGraphic" in2="effect1_dropShadow_823_261" result="shape"/>
</filter>
</defs>
</svg>
