<svg width="63" height="37" viewBox="0 0 63 37" fill="none" xmlns="http://www.w3.org/2000/svg">
<g filter="url(#filter0_d_823_254)">
<path d="M8.93359 17.1094L13.7764 13.7871C14.5029 13.2891 15.0977 12.8555 15.5605 12.4863C16.0234 12.1172 16.3867 11.7891 16.6504 11.502C16.9141 11.209 17.0957 10.9453 17.1953 10.7109C17.2949 10.4766 17.3447 10.2422 17.3447 10.0078C17.3447 9.73828 17.2891 9.48633 17.1777 9.25195C17.0664 9.01758 16.8906 8.8125 16.6504 8.63672C16.416 8.46094 16.1113 8.32324 15.7363 8.22363C15.3672 8.12402 14.9248 8.07422 14.4092 8.07422C13.6592 8.07422 12.9121 8.17969 12.168 8.39062C11.4238 8.60156 10.665 8.93848 9.8916 9.40137L8.6084 7.29199C9.46973 6.75879 10.4014 6.34277 11.4033 6.04395C12.4111 5.74512 13.4688 5.5957 14.5762 5.5957C15.543 5.5957 16.3809 5.71289 17.0898 5.94727C17.8047 6.17578 18.3936 6.48926 18.8564 6.8877C19.3252 7.28613 19.6738 7.74902 19.9023 8.27637C20.1309 8.80371 20.2451 9.36328 20.2451 9.95508C20.2451 10.4121 20.1689 10.8486 20.0166 11.2646C19.8643 11.6807 19.5977 12.1113 19.2168 12.5566C18.8359 13.002 18.3203 13.4824 17.6699 13.998C17.0254 14.5078 16.2109 15.0879 15.2266 15.7383L13.2227 17.0566H20.7461V19.5H8.93359V17.1094Z" fill="white"/>
</g>
<path d="M0.959545 24.312C0.444786 24.312 0.0102463 24.7054 0.00165176 25.2201C-0.0395622 27.6879 0.688477 29.8632 2.28746 31.8141C4.77782 34.8523 8.09969 36.204 11.9931 36.4671C16.3453 36.7598 19.9369 35.0749 23.1044 32.3808C25.9257 29.9808 28.6288 27.4485 31.4765 25.0809C36.2112 21.1457 41.7189 19.2705 47.9774 19.5538C49.9311 19.6415 51.8625 19.8506 53.6479 20.6722C54.4126 21.0243 55.1371 21.4883 55.8156 21.9848C56.6986 22.6297 57.1421 23.8978 55.9853 24.9514C55.4057 25.479 55.8158 26.5632 56.5515 26.8335C56.5781 26.8433 56.6049 26.8527 56.6318 26.8617C57.0379 26.9966 57.4953 26.9966 57.9319 27.0357C58.8469 27.1167 59.5894 26.7686 60.0733 26.0374C60.6072 25.2293 61.0897 24.3835 61.525 23.52C61.9908 22.5959 62.3718 21.63 62.7959 20.6856C63.22 19.7426 63.0003 19.0937 61.9769 18.7915C60.5878 18.3828 59.1625 18.0846 57.747 17.7689C54.129 16.9636 50.4859 16.3511 46.7496 16.5318C41.9497 16.7639 37.4362 18.0266 33.0603 19.9234C29.605 21.4222 26.1232 22.9561 22.3883 23.6388C19.8799 24.0974 17.2866 24.2297 14.7254 24.285C10.1381 24.3835 5.54815 24.312 0.959545 24.312Z" fill="white"/>
<defs>
<filter id="filter0_d_823_254" x="4.6084" y="5.5957" width="20.1377" height="21.9043" filterUnits="userSpaceOnUse" color-interpolation-filters="sRGB">
<feFlood flood-opacity="0" result="BackgroundImageFix"/>
<feColorMatrix in="SourceAlpha" type="matrix" values="0 0 0 0 0 0 0 0 0 0 0 0 0 0 0 0 0 0 127 0" result="hardAlpha"/>
<feOffset dy="4"/>
<feGaussianBlur stdDeviation="2"/>
<feComposite in2="hardAlpha" operator="out"/>
<feColorMatrix type="matrix" values="0 0 0 0 0 0 0 0 0 0 0 0 0 0 0 0 0 0 0.25 0"/>
<feBlend mode="normal" in2="BackgroundImageFix" result="effect1_dropShadow_823_254"/>
<feBlend mode="normal" in="SourceGraphic" in2="effect1_dropShadow_823_254" result="shape"/>
</filter>
</defs>
</svg>
