<svg width="63" height="37" viewBox="0 0 63 37" fill="none" xmlns="http://www.w3.org/2000/svg">
<g filter="url(#filter0_d_823_247)">
<path d="M8.43262 17.0566H11.5527V8.50488C11.1426 8.59863 10.7471 8.72168 10.3662 8.87402C9.99121 9.02637 9.64844 9.21094 9.33789 9.42773L7.9668 7.46777C8.4707 7.15137 8.9834 6.88477 9.50488 6.66797C10.0322 6.44531 10.5625 6.26953 11.0957 6.14062C11.6348 6.00586 12.1738 5.90918 12.7129 5.85059C13.2578 5.79199 13.7998 5.7627 14.3389 5.7627L14.3301 5.78027H14.3389V17.0566H17.3184V19.5H8.43262V17.0566Z" fill="white"/>
</g>
<path d="M0.959545 24.312C0.444786 24.312 0.0102463 24.7054 0.00165176 25.2201C-0.0395622 27.6879 0.688477 29.8632 2.28746 31.8141C4.77782 34.8523 8.09969 36.204 11.9931 36.4671C16.3453 36.7598 19.9369 35.0749 23.1044 32.3808C25.9257 29.9808 28.6288 27.4485 31.4765 25.0809C36.2112 21.1457 41.7189 19.2705 47.9774 19.5538C49.9311 19.6415 51.8625 19.8506 53.6479 20.6722C54.4126 21.0243 55.1371 21.4883 55.8156 21.9848C56.6986 22.6297 57.1421 23.8978 55.9853 24.9514C55.4057 25.479 55.8158 26.5632 56.5515 26.8335C56.5781 26.8433 56.6049 26.8527 56.6318 26.8617C57.0379 26.9966 57.4953 26.9966 57.9319 27.0357C58.8469 27.1167 59.5894 26.7686 60.0733 26.0374C60.6072 25.2293 61.0897 24.3835 61.525 23.52C61.9908 22.5959 62.3718 21.63 62.7959 20.6856C63.22 19.7426 63.0003 19.0937 61.9769 18.7915C60.5878 18.3828 59.1625 18.0846 57.747 17.7689C54.129 16.9636 50.4859 16.3511 46.7496 16.5318C41.9497 16.7639 37.4362 18.0266 33.0603 19.9234C29.605 21.4222 26.1232 22.9561 22.3883 23.6388C19.8799 24.0974 17.2866 24.2297 14.7254 24.285C10.1381 24.3835 5.54815 24.312 0.959545 24.312Z" fill="white"/>
<defs>
<filter id="filter0_d_823_247" x="3.9668" y="5.7627" width="17.3516" height="21.7373" filterUnits="userSpaceOnUse" color-interpolation-filters="sRGB">
<feFlood flood-opacity="0" result="BackgroundImageFix"/>
<feColorMatrix in="SourceAlpha" type="matrix" values="0 0 0 0 0 0 0 0 0 0 0 0 0 0 0 0 0 0 127 0" result="hardAlpha"/>
<feOffset dy="4"/>
<feGaussianBlur stdDeviation="2"/>
<feComposite in2="hardAlpha" operator="out"/>
<feColorMatrix type="matrix" values="0 0 0 0 0 0 0 0 0 0 0 0 0 0 0 0 0 0 0.25 0"/>
<feBlend mode="normal" in2="BackgroundImageFix" result="effect1_dropShadow_823_247"/>
<feBlend mode="normal" in="SourceGraphic" in2="effect1_dropShadow_823_247" result="shape"/>
</filter>
</defs>
</svg>
