<svg width="29" height="7" viewBox="0 0 29 7" fill="none" xmlns="http://www.w3.org/2000/svg">
<path d="M22.9276 6.46991C28.4454 5.74694 28.1329 3.29924 28.1329 3.29924C28.1329 3.29924 28.4454 0.850532 22.9276 0.127559C21.8059 -0.0194859 19.7205 0.196997 18.7594 1.55206C17.8568 2.82543 16.435 2.71106 15.6781 2.67634C12.283 2.52011 2.20362 1.96562 2.20362 1.96562C2.20362 1.96562 -7.34637e-08 1.76854 -1.40373e-07 3.29924C-2.07282e-07 4.82994 2.20362 4.63286 2.20362 4.63286C2.20362 4.63286 12.283 4.07736 15.6781 3.92214C16.4363 3.88742 17.8568 3.77306 18.7594 5.04643C19.7205 6.40149 21.8059 6.61797 22.9276 6.47093L22.9276 6.46991Z" fill="#BEBEBE"/>
</svg>