<svg width="234" height="90" viewBox="0 0 234 90" fill="none" xmlns="http://www.w3.org/2000/svg">
<g opacity="0.3">
<mask id="mask0_278_602" style="mask-type:alpha" maskUnits="userSpaceOnUse" x="0" y="0" width="234" height="90">
<rect x="0.467285" y="0.835938" width="232.791" height="88.4355" fill="#D9D9D9"/>
</mask>
<g mask="url(#mask0_278_602)">
<path d="M43.4255 4.83594H41.9136V6.34786H43.4255V4.83594Z" fill="#58FF98"/>
<path d="M43.4255 17.6291H41.9136V19.1411H43.4255V17.6291Z" fill="#58FF98"/>
<path d="M43.4255 30.4223H41.9136V31.9342H43.4255V30.4223Z" fill="#58FF98"/>
<path d="M43.4255 43.2155H41.9136V44.7274H43.4255V43.2155Z" fill="#58FF98"/>
<path d="M43.4255 56.0087H41.9136V57.5206H43.4255V56.0087Z" fill="#58FF98"/>
<path d="M43.4255 68.8019H41.9136V70.3138H43.4255V68.8019Z" fill="#58FF98"/>
<path d="M43.4255 81.5951H41.9136V83.107H43.4255V81.5951Z" fill="#58FF98"/>
<path d="M43.4255 94.3883H41.9136V95.9002H43.4255V94.3883Z" fill="#58FF98"/>
<path d="M43.4255 107.182H41.9136V108.693H43.4255V107.182Z" fill="#58FF98"/>
<path d="M43.4255 119.975H41.9136V121.487H43.4255V119.975Z" fill="#58FF98"/>
<path d="M43.4255 132.768H41.9136V134.28H43.4255V132.768Z" fill="#58FF98"/>
<path d="M43.4255 145.561H41.9136V147.073H43.4255V145.561Z" fill="#58FF98"/>
<path d="M43.4255 158.354H41.9136V159.866H43.4255V158.354Z" fill="#58FF98"/>
<path d="M56.2187 4.83594H54.7068V6.34786H56.2187V4.83594Z" fill="#58FF98"/>
<path d="M56.2187 17.6291H54.7068V19.1411H56.2187V17.6291Z" fill="#58FF98"/>
<path d="M56.2187 30.4223H54.7068V31.9342H56.2187V30.4223Z" fill="#58FF98"/>
<path d="M56.2187 43.2155H54.7068V44.7274H56.2187V43.2155Z" fill="#58FF98"/>
<path d="M56.2187 56.0087H54.7068V57.5206H56.2187V56.0087Z" fill="#58FF98"/>
<path d="M56.2187 68.8019H54.7068V70.3138H56.2187V68.8019Z" fill="#58FF98"/>
<path d="M56.2187 81.5951H54.7068V83.107H56.2187V81.5951Z" fill="#58FF98"/>
<path d="M56.2187 94.3883H54.7068V95.9002H56.2187V94.3883Z" fill="#58FF98"/>
<path d="M56.2187 107.182H54.7068V108.693H56.2187V107.182Z" fill="#58FF98"/>
<path d="M56.2187 119.975H54.7068V121.487H56.2187V119.975Z" fill="#58FF98"/>
<path d="M56.2187 132.768H54.7068V134.28H56.2187V132.768Z" fill="#58FF98"/>
<path d="M56.2187 145.561H54.7068V147.073H56.2187V145.561Z" fill="#58FF98"/>
<path d="M56.2187 158.354H54.7068V159.866H56.2187V158.354Z" fill="#58FF98"/>
<path d="M69.0119 4.83594H67.5V6.34786H69.0119V4.83594Z" fill="#58FF98"/>
<path d="M69.0119 17.6291H67.5V19.1411H69.0119V17.6291Z" fill="#58FF98"/>
<path d="M69.0119 30.4223H67.5V31.9342H69.0119V30.4223Z" fill="#58FF98"/>
<path d="M69.0119 43.2155H67.5V44.7274H69.0119V43.2155Z" fill="#58FF98"/>
<path d="M69.0119 56.0087H67.5V57.5206H69.0119V56.0087Z" fill="#58FF98"/>
<path d="M69.0119 68.8019H67.5V70.3138H69.0119V68.8019Z" fill="#58FF98"/>
<path d="M69.0119 81.5951H67.5V83.107H69.0119V81.5951Z" fill="#58FF98"/>
<path d="M69.0119 94.3883H67.5V95.9002H69.0119V94.3883Z" fill="#58FF98"/>
<path d="M69.0119 107.182H67.5V108.693H69.0119V107.182Z" fill="#58FF98"/>
<path d="M69.0119 119.975H67.5V121.487H69.0119V119.975Z" fill="#58FF98"/>
<path d="M69.0119 132.768H67.5V134.28H69.0119V132.768Z" fill="#58FF98"/>
<path d="M69.0119 145.561H67.5V147.073H69.0119V145.561Z" fill="#58FF98"/>
<path d="M69.0119 158.354H67.5V159.866H69.0119V158.354Z" fill="#58FF98"/>
<path d="M81.8051 4.83594H80.2932V6.34786H81.8051V4.83594Z" fill="#58FF98"/>
<path d="M81.8051 17.6291H80.2932V19.1411H81.8051V17.6291Z" fill="#58FF98"/>
<path d="M81.8051 30.4223H80.2932V31.9342H81.8051V30.4223Z" fill="#58FF98"/>
<path d="M81.8051 43.2155H80.2932V44.7274H81.8051V43.2155Z" fill="#58FF98"/>
<path d="M81.8051 56.0087H80.2932V57.5206H81.8051V56.0087Z" fill="#58FF98"/>
<path d="M81.8051 68.8019H80.2932V70.3138H81.8051V68.8019Z" fill="#58FF98"/>
<path d="M81.8051 81.5951H80.2932V83.107H81.8051V81.5951Z" fill="#58FF98"/>
<path d="M81.8051 94.3883H80.2932V95.9002H81.8051V94.3883Z" fill="#58FF98"/>
<path d="M81.8051 107.182H80.2932V108.693H81.8051V107.182Z" fill="#58FF98"/>
<path d="M81.8051 119.975H80.2932V121.487H81.8051V119.975Z" fill="#58FF98"/>
<path d="M81.8051 132.768H80.2932V134.28H81.8051V132.768Z" fill="#58FF98"/>
<path d="M81.8051 145.561H80.2932V147.073H81.8051V145.561Z" fill="#58FF98"/>
<path d="M81.8051 158.354H80.2932V159.866H81.8051V158.354Z" fill="#58FF98"/>
<path d="M94.5983 4.83594H93.0864V6.34786H94.5983V4.83594Z" fill="#58FF98"/>
<path d="M94.5983 17.6291H93.0864V19.1411H94.5983V17.6291Z" fill="#58FF98"/>
<path d="M94.5983 30.4223H93.0864V31.9342H94.5983V30.4223Z" fill="#58FF98"/>
<path d="M94.5983 43.2155H93.0864V44.7274H94.5983V43.2155Z" fill="#58FF98"/>
<path d="M94.5983 56.0087H93.0864V57.5206H94.5983V56.0087Z" fill="#58FF98"/>
<path d="M94.5983 68.8019H93.0864V70.3138H94.5983V68.8019Z" fill="#58FF98"/>
<path d="M94.5983 81.5951H93.0864V83.107H94.5983V81.5951Z" fill="#58FF98"/>
<path d="M94.5983 94.3883H93.0864V95.9002H94.5983V94.3883Z" fill="#58FF98"/>
<path d="M94.5983 107.182H93.0864V108.693H94.5983V107.182Z" fill="#58FF98"/>
<path d="M94.5983 119.975H93.0864V121.487H94.5983V119.975Z" fill="#58FF98"/>
<path d="M94.5983 132.768H93.0864V134.28H94.5983V132.768Z" fill="#58FF98"/>
<path d="M94.5983 145.561H93.0864V147.073H94.5983V145.561Z" fill="#58FF98"/>
<path d="M94.5983 158.354H93.0864V159.866H94.5983V158.354Z" fill="#58FF98"/>
<path d="M107.391 4.83594H105.88V6.34786H107.391V4.83594Z" fill="#58FF98"/>
<path d="M107.391 17.6291H105.88V19.1411H107.391V17.6291Z" fill="#58FF98"/>
<path d="M107.391 30.4223H105.88V31.9342H107.391V30.4223Z" fill="#58FF98"/>
<path d="M107.391 43.2155H105.88V44.7274H107.391V43.2155Z" fill="#58FF98"/>
<path d="M107.391 56.0087H105.88V57.5206H107.391V56.0087Z" fill="#58FF98"/>
<path d="M107.391 68.8019H105.88V70.3138H107.391V68.8019Z" fill="#58FF98"/>
<path d="M107.391 81.5951H105.88V83.107H107.391V81.5951Z" fill="#58FF98"/>
<path d="M107.391 94.3883H105.88V95.9002H107.391V94.3883Z" fill="#58FF98"/>
<path d="M107.391 107.182H105.88V108.693H107.391V107.182Z" fill="#58FF98"/>
<path d="M107.391 119.975H105.88V121.487H107.391V119.975Z" fill="#58FF98"/>
<path d="M107.391 132.768H105.88V134.28H107.391V132.768Z" fill="#58FF98"/>
<path d="M107.391 145.561H105.88V147.073H107.391V145.561Z" fill="#58FF98"/>
<path d="M107.391 158.354H105.88V159.866H107.391V158.354Z" fill="#58FF98"/>
<path d="M120.185 4.83594H118.673V6.34786H120.185V4.83594Z" fill="#58FF98"/>
<path d="M120.185 17.6291H118.673V19.1411H120.185V17.6291Z" fill="#58FF98"/>
<path d="M120.185 30.4223H118.673V31.9342H120.185V30.4223Z" fill="#58FF98"/>
<path d="M120.185 43.2155H118.673V44.7274H120.185V43.2155Z" fill="#58FF98"/>
<path d="M120.185 56.0087H118.673V57.5206H120.185V56.0087Z" fill="#58FF98"/>
<path d="M120.185 68.8019H118.673V70.3138H120.185V68.8019Z" fill="#58FF98"/>
<path d="M120.185 81.5951H118.673V83.107H120.185V81.5951Z" fill="#58FF98"/>
<path d="M120.185 94.3883H118.673V95.9002H120.185V94.3883Z" fill="#58FF98"/>
<path d="M120.185 107.182H118.673V108.693H120.185V107.182Z" fill="#58FF98"/>
<path d="M120.185 119.975H118.673V121.487H120.185V119.975Z" fill="#58FF98"/>
<path d="M120.185 132.768H118.673V134.28H120.185V132.768Z" fill="#58FF98"/>
<path d="M120.185 145.561H118.673V147.073H120.185V145.561Z" fill="#58FF98"/>
<path d="M120.185 158.354H118.673V159.866H120.185V158.354Z" fill="#58FF98"/>
<path d="M132.978 4.83594H131.466V6.34786H132.978V4.83594Z" fill="#58FF98"/>
<path d="M132.978 17.6291H131.466V19.1411H132.978V17.6291Z" fill="#58FF98"/>
<path d="M132.978 30.4223H131.466V31.9342H132.978V30.4223Z" fill="#58FF98"/>
<path d="M132.978 43.2155H131.466V44.7274H132.978V43.2155Z" fill="#58FF98"/>
<path d="M132.978 56.0087H131.466V57.5206H132.978V56.0087Z" fill="#58FF98"/>
<path d="M132.978 68.8019H131.466V70.3138H132.978V68.8019Z" fill="#58FF98"/>
<path d="M132.978 81.5951H131.466V83.107H132.978V81.5951Z" fill="#58FF98"/>
<path d="M132.978 94.3883H131.466V95.9002H132.978V94.3883Z" fill="#58FF98"/>
<path d="M132.978 107.182H131.466V108.693H132.978V107.182Z" fill="#58FF98"/>
<path d="M132.978 119.975H131.466V121.487H132.978V119.975Z" fill="#58FF98"/>
<path d="M132.978 132.768H131.466V134.28H132.978V132.768Z" fill="#58FF98"/>
<path d="M132.978 145.561H131.466V147.073H132.978V145.561Z" fill="#58FF98"/>
<path d="M132.978 158.354H131.466V159.866H132.978V158.354Z" fill="#58FF98"/>
<path d="M145.771 4.83594H144.259V6.34786H145.771V4.83594Z" fill="#58FF98"/>
<path d="M145.771 17.6291H144.259V19.1411H145.771V17.6291Z" fill="#58FF98"/>
<path d="M145.771 30.4223H144.259V31.9342H145.771V30.4223Z" fill="#58FF98"/>
<path d="M145.771 43.2155H144.259V44.7274H145.771V43.2155Z" fill="#58FF98"/>
<path d="M145.771 56.0087H144.259V57.5206H145.771V56.0087Z" fill="#58FF98"/>
<path d="M145.771 68.8019H144.259V70.3138H145.771V68.8019Z" fill="#58FF98"/>
<path d="M145.771 81.5951H144.259V83.107H145.771V81.5951Z" fill="#58FF98"/>
<path d="M145.771 94.3883H144.259V95.9002H145.771V94.3883Z" fill="#58FF98"/>
<path d="M145.771 107.182H144.259V108.693H145.771V107.182Z" fill="#58FF98"/>
<path d="M145.771 119.975H144.259V121.487H145.771V119.975Z" fill="#58FF98"/>
<path d="M145.771 132.768H144.259V134.28H145.771V132.768Z" fill="#58FF98"/>
<path d="M145.771 145.561H144.259V147.073H145.771V145.561Z" fill="#58FF98"/>
<path d="M145.771 158.354H144.259V159.866H145.771V158.354Z" fill="#58FF98"/>
<path d="M158.564 4.83594H157.052V6.34786H158.564V4.83594Z" fill="#58FF98"/>
<path d="M158.564 17.6291H157.052V19.1411H158.564V17.6291Z" fill="#58FF98"/>
<path d="M158.564 30.4223H157.052V31.9342H158.564V30.4223Z" fill="#58FF98"/>
<path d="M158.564 43.2155H157.052V44.7274H158.564V43.2155Z" fill="#58FF98"/>
<path d="M158.564 56.0087H157.052V57.5206H158.564V56.0087Z" fill="#58FF98"/>
<path d="M158.564 68.8019H157.052V70.3138H158.564V68.8019Z" fill="#58FF98"/>
<path d="M158.564 81.5951H157.052V83.107H158.564V81.5951Z" fill="#58FF98"/>
<path d="M158.564 94.3883H157.052V95.9002H158.564V94.3883Z" fill="#58FF98"/>
<path d="M158.564 107.182H157.052V108.693H158.564V107.182Z" fill="#58FF98"/>
<path d="M158.564 119.975H157.052V121.487H158.564V119.975Z" fill="#58FF98"/>
<path d="M158.564 132.768H157.052V134.28H158.564V132.768Z" fill="#58FF98"/>
<path d="M158.564 145.561H157.052V147.073H158.564V145.561Z" fill="#58FF98"/>
<path d="M158.564 158.354H157.052V159.866H158.564V158.354Z" fill="#58FF98"/>
<path d="M171.357 4.83594H169.846V6.34786H171.357V4.83594Z" fill="#58FF98"/>
<path d="M171.357 17.6291H169.846V19.1411H171.357V17.6291Z" fill="#58FF98"/>
<path d="M171.357 30.4223H169.846V31.9342H171.357V30.4223Z" fill="#58FF98"/>
<path d="M171.357 43.2155H169.846V44.7274H171.357V43.2155Z" fill="#58FF98"/>
<path d="M171.357 56.0087H169.846V57.5206H171.357V56.0087Z" fill="#58FF98"/>
<path d="M171.357 68.8019H169.846V70.3138H171.357V68.8019Z" fill="#58FF98"/>
<path d="M171.357 81.5951H169.846V83.107H171.357V81.5951Z" fill="#58FF98"/>
<path d="M171.357 94.3883H169.846V95.9002H171.357V94.3883Z" fill="#58FF98"/>
<path d="M171.357 107.182H169.846V108.693H171.357V107.182Z" fill="#58FF98"/>
<path d="M171.357 119.975H169.846V121.487H171.357V119.975Z" fill="#58FF98"/>
<path d="M171.357 132.768H169.846V134.28H171.357V132.768Z" fill="#58FF98"/>
<path d="M171.357 145.561H169.846V147.073H171.357V145.561Z" fill="#58FF98"/>
<path d="M171.357 158.354H169.846V159.866H171.357V158.354Z" fill="#58FF98"/>
<path d="M184.151 4.83594H182.639V6.34786H184.151V4.83594Z" fill="#58FF98"/>
<path d="M184.151 17.6291H182.639V19.1411H184.151V17.6291Z" fill="#58FF98"/>
<path d="M184.151 30.4223H182.639V31.9342H184.151V30.4223Z" fill="#58FF98"/>
<path d="M184.151 43.2155H182.639V44.7274H184.151V43.2155Z" fill="#58FF98"/>
<path d="M184.151 56.0087H182.639V57.5206H184.151V56.0087Z" fill="#58FF98"/>
<path d="M184.151 68.8019H182.639V70.3138H184.151V68.8019Z" fill="#58FF98"/>
<path d="M184.151 81.5951H182.639V83.107H184.151V81.5951Z" fill="#58FF98"/>
<path d="M184.151 94.3883H182.639V95.9002H184.151V94.3883Z" fill="#58FF98"/>
<path d="M184.151 107.182H182.639V108.693H184.151V107.182Z" fill="#58FF98"/>
<path d="M184.151 119.975H182.639V121.487H184.151V119.975Z" fill="#58FF98"/>
<path d="M184.151 132.768H182.639V134.28H184.151V132.768Z" fill="#58FF98"/>
<path d="M184.151 145.561H182.639V147.073H184.151V145.561Z" fill="#58FF98"/>
<path d="M184.151 158.354H182.639V159.866H184.151V158.354Z" fill="#58FF98"/>
<path d="M196.944 4.83594H195.432V6.34786H196.944V4.83594Z" fill="#58FF98"/>
<path d="M196.944 17.6291H195.432V19.1411H196.944V17.6291Z" fill="#58FF98"/>
<path d="M196.944 30.4223H195.432V31.9342H196.944V30.4223Z" fill="#58FF98"/>
<path d="M196.944 43.2155H195.432V44.7274H196.944V43.2155Z" fill="#58FF98"/>
<path d="M196.944 56.0087H195.432V57.5206H196.944V56.0087Z" fill="#58FF98"/>
<path d="M196.944 68.8019H195.432V70.3138H196.944V68.8019Z" fill="#58FF98"/>
<path d="M196.944 81.5951H195.432V83.107H196.944V81.5951Z" fill="#58FF98"/>
<path d="M196.944 94.3883H195.432V95.9002H196.944V94.3883Z" fill="#58FF98"/>
<path d="M196.944 107.182H195.432V108.693H196.944V107.182Z" fill="#58FF98"/>
<path d="M196.944 119.975H195.432V121.487H196.944V119.975Z" fill="#58FF98"/>
<path d="M196.944 132.768H195.432V134.28H196.944V132.768Z" fill="#58FF98"/>
<path d="M196.944 145.561H195.432V147.073H196.944V145.561Z" fill="#58FF98"/>
<path d="M196.944 158.354H195.432V159.866H196.944V158.354Z" fill="#58FF98"/>
<g filter="url(#filter0_f_278_602)">
<rect x="-67.9678" y="-101.083" width="369.66" height="142.38" fill="#051008"/>
</g>
<g filter="url(#filter1_f_278_602)">
<rect x="-25.6367" y="278.771" width="370" height="94.1929" transform="rotate(-90 -25.6367 278.771)" fill="#051008"/>
</g>
<g filter="url(#filter2_f_278_602)">
<rect x="165.17" y="278.771" width="370" height="94.1929" transform="rotate(-90 165.17 278.771)" fill="#051008"/>
</g>
</g>
</g>
<defs>
<filter id="filter0_f_278_602" x="-117.968" y="-151.083" width="469.661" height="242.38" filterUnits="userSpaceOnUse" color-interpolation-filters="sRGB">
<feFlood flood-opacity="0" result="BackgroundImageFix"/>
<feBlend mode="normal" in="SourceGraphic" in2="BackgroundImageFix" result="shape"/>
<feGaussianBlur stdDeviation="25" result="effect1_foregroundBlur_278_602"/>
</filter>
<filter id="filter1_f_278_602" x="-75.6367" y="-141.229" width="194.193" height="470" filterUnits="userSpaceOnUse" color-interpolation-filters="sRGB">
<feFlood flood-opacity="0" result="BackgroundImageFix"/>
<feBlend mode="normal" in="SourceGraphic" in2="BackgroundImageFix" result="shape"/>
<feGaussianBlur stdDeviation="25" result="effect1_foregroundBlur_278_602"/>
</filter>
<filter id="filter2_f_278_602" x="115.17" y="-141.229" width="194.193" height="470" filterUnits="userSpaceOnUse" color-interpolation-filters="sRGB">
<feFlood flood-opacity="0" result="BackgroundImageFix"/>
<feBlend mode="normal" in="SourceGraphic" in2="BackgroundImageFix" result="shape"/>
<feGaussianBlur stdDeviation="25" result="effect1_foregroundBlur_278_602"/>
</filter>
</defs>
</svg>
